<svg xmlns="http://www.w3.org/2000/svg" viewBox="0 0 729.69 183.6"><defs><style>.cls-1,.cls-2,.cls-3,.cls-4,.cls-5,.cls-6,.cls-7{fill:none;stroke:#000;stroke-miterlimit:10;}.cls-1{stroke-width:3.44px;}.cls-2{stroke-width:3.55px;}.cls-3{stroke-width:3.59px;}.cls-4{stroke-width:3.44px;}.cls-5{stroke-width:2.98px;}.cls-6{stroke-width:10px;}.cls-7{stroke-width:6px;}</style></defs><g id="圖層_2" data-name="圖層 2"><g id="菜單"><path class="cls-1" d="M82.2,62.12s1.75-.83,3.78-2a25.45,25.45,0,0,0,5.45-3.74"/><path class="cls-2" d="M69.25,69.23a16.55,16.55,0,0,1,2-1.52,18,18,0,0,0,3.62-2.65"/><path class="cls-1" d="M100.13,51.63s2-.77,4.23-1.83a26.86,26.86,0,0,0,6-3.43"/><path class="cls-3" d="M69.72,68.89a4.25,4.25,0,0,0-2.11,3.69,11.37,11.37,0,0,0,.76,3.85c.4,1.19.87,2.32,1.2,3.47l1,3.57c.66,2.37,1.38,4.74,2.26,7s2.06,4.49,2.53,6.85a56.48,56.48,0,0,1,.71,7.26q.24,3.66.47,7.3l.48,7.28.25,3.75c0,.66.1,1.31.2,1.93a1.62,1.62,0,0,0,.39.85,1.15,1.15,0,0,0,.88.3,29.23,29.23,0,0,0,3.6-.69l3.31-.81c2.21-.55,4.4-1.15,6.58-1.77,4.36-1.25,8.67-2.6,13-4l5.91-1.92c2-.66,3.94-1.34,5.9-2,4-1.44,7.87-3,11.69-4.77a64.27,64.27,0,0,0,9.75-5.38,12.86,12.86,0,0,0,2.38-2,6.81,6.81,0,0,0,1.59-3.07,14.72,14.72,0,0,0-.21-5.93c-1.25-7.34-3.94-14.14-6.12-21.09a85.25,85.25,0,0,1-4.46-24.47c0-1.78,0-3.57.08-5.34s.24-3.73.38-5.29c.35-.78-.65-.36-1.17-.27a12.67,12.67,0,0,0-1.71.55,14.16,14.16,0,0,0-2.78,1.46,41.67,41.67,0,0,0-5.29,4.2"/><path class="cls-1" d="M119.81,42.86a12.1,12.1,0,0,1-.75-1.53l-.15-.39a3,3,0,0,1-.16-.5c-.1-.42-.2-.86-.32-1.27A5.87,5.87,0,0,0,118,38a1.66,1.66,0,0,0-.3-.49.75.75,0,0,0-.62-.22c-.75.09-1.51.24-2.12.35s-1.19.23-1.79.33a17.56,17.56,0,0,0-3,.68"/><path class="cls-1" d="M110.12,47a8.26,8.26,0,0,1,.51,1.65,6.18,6.18,0,0,0,.67,1.5,1.88,1.88,0,0,0,.49.66,1.29,1.29,0,0,0,1,.28,9,9,0,0,0,2.38-.7l1.2-.51c.41-.17.67-.31,1-.48a31.16,31.16,0,0,0,3.66-1.92.92.92,0,0,0,.22-.77,3,3,0,0,0-.21-.8,8.42,8.42,0,0,0-.55-1.18,21.64,21.64,0,0,0-1.12-2.58"/><path class="cls-1" d="M110.93,38.46a2.72,2.72,0,0,0-.6.17,3,3,0,0,0-1.39,1,2.73,2.73,0,0,0-.48,1.85,2.59,2.59,0,0,0,.2.85,4.35,4.35,0,0,1,.27.57c.64,1.75,1,4.08,1.63,5.41"/><path class="cls-1" d="M92.05,49s.47-.42,1.29-1c.4-.3.93-.66,1.46-1a10.73,10.73,0,0,1,1.63-1c.36-.19.77-.38,1.23-.58a3.82,3.82,0,0,1,.72-.26.48.48,0,0,1,.56.21,13.5,13.5,0,0,1,1,2.21c.14.43.27.89.39,1.37.06.22.12.53.17.69l.18.53a8.11,8.11,0,0,0,.75,1.65"/><path class="cls-1" d="M93,56.59l.11.3.07.17.09.3.25.73a6.14,6.14,0,0,0,2.24,3.21,3.09,3.09,0,0,0,2.39-.45c.81-.4,1.66-.8,2.27-1.19a6.66,6.66,0,0,0,1.72-1.47,3.12,3.12,0,0,0,.54-.85,1.88,1.88,0,0,0,0-1c0-.23-.09-.43-.14-.65l-.15-.73c-.11-.48-.23-.93-.36-1.36a13.28,13.28,0,0,0-.81-2.14"/><path class="cls-1" d="M92.12,49s-.32.27-.8.75a8.31,8.31,0,0,0-.8,1,3,3,0,0,0-.58,1.6,2,2,0,0,0,.65,1.37c.33.33.63.73.93,1s.63.64.93,1a3.18,3.18,0,0,1,.74,1.38"/><path class="cls-4" d="M75.8,66.79a4.27,4.27,0,0,0-.06-.45,4,4,0,0,0-.36-1,7.49,7.49,0,0,0-1.65-2.1,9,9,0,0,1-1-1.06,1.91,1.91,0,0,1-.35-.73,2.56,2.56,0,0,1,0-.49,2.89,2.89,0,0,1,.16-.53,3.13,3.13,0,0,1,.61-.84,8.94,8.94,0,0,1,.68-.59c.38-.3.83-.64,1.09-.87"/><path class="cls-1" d="M75.74,66.33l.14.85A6.54,6.54,0,0,0,76.46,69a4.17,4.17,0,0,0,.54.85c.11.12.29.35.54.29S78,70,78.19,70a8.71,8.71,0,0,0,1.58-.54c.56-.27,1.1-.57,1.61-.86A31.33,31.33,0,0,0,84,66.82c.38-.27.72-.52,1-.76a.76.76,0,0,0,.28-.5,1.31,1.31,0,0,0-.15-.64c-.18-.41-.34-.76-.49-1.06l-.22-.43-.24-.56a8.67,8.67,0,0,0-.94-1.73"/><path class="cls-1" d="M74.42,58.4a18.45,18.45,0,0,0,2-1.25,3.51,3.51,0,0,0,.71-.6l.67-.7a5.83,5.83,0,0,1,2.24-1.52,5.16,5.16,0,0,1,.66-.23,1.87,1.87,0,0,1,.52.23,1.79,1.79,0,0,1,.67.84,9.72,9.72,0,0,1,.68,2.21c.07.42.15.86.2,1.31A9.73,9.73,0,0,0,83,59.94a6.76,6.76,0,0,0,.5,1.57"/><path class="cls-3" d="M131.55,40.94c2.39,2,3.53,5.28,4.3,8.46S137.21,56,138.68,59a47.14,47.14,0,0,0,2.54,4.3,47.42,47.42,0,0,1,2.4,4.29c1.45,2.94,2.65,6,4,9,2.47,5.66,5.31,11.08,7.93,16.61a15.87,15.87,0,0,1,1.48,3.7,2.42,2.42,0,0,1-.93,2.58c-.42.36-1,.76-1.57,1.18l-1.7,1.23c-1.13.84-2.26,1.66-3.38,2.48-3.89,2.91-7.6,6-11.49,9a67.64,67.64,0,0,1-12.43,7.91c-5.19,2.11-10.88,2.89-16.33,4.36-1.22.32-2.48.68-3.63,1s-2.31.77-3.65,1.27c-.2-.65-.41-1.33-.66-2.07l-.39-1.15c-.14-.38-.3-.86-.43-1.18a33.93,33.93,0,0,0-2-4.12"/><path class="cls-3" d="M132.31,39.58c1.42-1.34,2.95-2.66,4.24-3.72l1.06-.85c.35-.26.7-.64,1.17-.64s.61.61.77,1,.29.84.41,1.27l.73,2.63A14.18,14.18,0,0,0,141.77,42c.94,1.76,2.38,3.1,3.42,4.63a21.05,21.05,0,0,1,2.21,4.78l1.89,5c.28.78.55,1.55.79,2.35l.74,2.34c.5,1.56,1,3.13,1.61,4.64,2.12,5.21,6,9.8,8.08,15.19A48,48,0,0,1,162,85.65c.4,1.6,1,3.19,1.22,4.73a4.65,4.65,0,0,1-.13,2.25,9.8,9.8,0,0,1-1.53,1.82c-.58.6-1.17,1.21-1.83,1.84a8.39,8.39,0,0,1-2.56,1.87"/><path class="cls-3" d="M88.56,89a6.09,6.09,0,0,1,.62-4.52,11.87,11.87,0,0,1,3.18-3.7,14,14,0,0,1,4.27-2.35,6.71,6.71,0,0,1,4.61,0,5.81,5.81,0,0,1,3.06,3,7.47,7.47,0,0,1,.53,4.33,11.52,11.52,0,0,1-.51,2c-.21.66-.45,1.31-.71,1.92a17.5,17.5,0,0,1-1.79,3.25l-.45.65-.17.24L101,94l-.43.56c-.59.74-1.19,1.46-1.71,2.15a39,39,0,0,0-2.47,3.6c-.6,1-1,1.8-1.34,2.49a9.93,9.93,0,0,1-1.39,2.09l0,.06s0,0,0,0l.19-.08.37-.16.68-.28a20.65,20.65,0,0,1,2.67-.8c.93-.24,2.08-.56,3.34-1a31.55,31.55,0,0,0,4.58-1.86,9.94,9.94,0,0,0,.93-.57l.84-.64A13.87,13.87,0,0,0,108.94,98"/><path class="cls-5" d="M112.24,71.44l0,.88c0,.57,0,1.39.08,2.37a40.5,40.5,0,0,0,1.22,7.38,44.63,44.63,0,0,0,2.88,8,22.31,22.31,0,0,0,3.46,5.43"/><path class="cls-5" d="M112.08,72l.07-.31a3.86,3.86,0,0,1,.27-.82,2.79,2.79,0,0,1,2-1.77,9.47,9.47,0,0,1,5.22.79,18.91,18.91,0,0,1,6,3.56,13.19,13.19,0,0,1,2.4,2.93,19,19,0,0,1,.9,1.74c.28.6.59,1.18.84,1.79a9,9,0,0,1,.77,3.9,13.63,13.63,0,0,1-.75,3.85,29.4,29.4,0,0,1-1.39,3.42c-.12.27-.26.52-.38.78l-.43.83a2.41,2.41,0,0,1-.72.83l-.61.58c-.22.19-.47.38-.7.57a3.79,3.79,0,0,1-.78.54c-.31.17-.61.38-.92.51l-.94.34c-.32,0-.64.1-1,.12a4.43,4.43,0,0,1-.9-.11,3.06,3.06,0,0,1-.81-.33,3.26,3.26,0,0,1-.67-.48"/><path class="cls-6" d="M8.34,117.6c-3.11-18-2.29-36.1-2.91-53.82-.29-8.35-.87-16.64.14-24.9.21-1.9.5-3.79.87-5.69a45.56,45.56,0,0,1,1.15-5.41A47.82,47.82,0,0,1,11,18.52a22.55,22.55,0,0,1,3.95-5.91,22.88,22.88,0,0,1,7-4.73c.71-.3,1.41-.69,2.17-.94l2.29-.78a23.78,23.78,0,0,1,2.38-.63l1.21-.28A7.87,7.87,0,0,1,31.05,5c.71,0,1.61,0,2.45,0l2.54,0c1.69,0,3.37.07,5,.17C48.61,5.68,56.34,6.91,64,6.93a113.23,113.23,0,0,0,11.43-.59c2-.17,4-.36,6.25-.38a35.41,35.41,0,0,1,7.48.74"/><path class="cls-6" d="M606.55,101.43c-.08,2.1-.09,4.22,0,6.38a32.76,32.76,0,0,0,1,6.44,14.21,14.21,0,0,1,.48,2.68c0,.43,0,.87,0,1.41l0,1.54-.12,6.15-.15,6.12a25.93,25.93,0,0,1-.71,5.79,19.92,19.92,0,0,1-6.36,9.48,40.3,40.3,0,0,1-4.78,3.59c-1.66,1.1-3.45,2.09-5.21,3.14a37.23,37.23,0,0,1-5.32,2.74,32.64,32.64,0,0,1-5.73,1.61,118,118,0,0,1-12,1.47,111.77,111.77,0,0,1-12.14.3c-4-.1-8.13-.32-12.22-.29s-8.14.29-12.2.38q-12.17.38-24.29.49c-8.09.09-16.15.08-24.21-.08s-16.09-.43-24.13-.62c-7.56-.2-15.14-.26-22.68-.25s-15-.17-22.55-.45c-15-.55-30-1.49-44.92-2.37-6.87-.38-13.74-.73-20.64-1s-13.82-.34-20.72-.4c-13.93-.07-27.86.14-41.68.39l-18,.33q-9,.14-18.08.38-18.1.48-36.23,1.29l-36.27,1.68c-12.07.59-24.19.79-36.31.68-13.72-.13-27.55-.68-41.44-.89s-27.83.2-41.68.35l-5.18.06c-1.75,0-3.48.09-5.21.16-3.46.15-6.89.33-10.31.38a44,44,0,0,1-10.15-.72c-.83-.19-1.63-.49-2.45-.73a24.08,24.08,0,0,1-2.36-1A12.74,12.74,0,0,1,17.44,155a12.45,12.45,0,0,1-1.53-2.19,17,17,0,0,1-1-2.46,32.07,32.07,0,0,1-1.17-5.12c-.52-3.4-.84-6.81-1.3-10L12.25,134,12,132.73l-.48-2.45c-.33-1.63-.67-3.25-1-4.86C9.8,122.2,9,119,8.19,115.87"/><path class="cls-6" d="M86.62,6.24q21.9-.88,43.74-1c14.55-.08,29.07,0,43.54.45,7.24.21,14.43.47,21.62,1.16,7.24.53,14.45.8,21.65,1q21.6.69,43.05.87L300.48,9l20,.23,10,.15h1.27a5.47,5.47,0,0,0,.7,0l.69-.06,2.44-.17L338.09,9l2.47-.05,4.53-.07c1.52,0,3,0,4.55.06l4.55.11,4.56.23c6.08.24,12.17.63,18.25,1,12.29.77,24.64,1.68,37,2.2,21.47.94,42.93.6,64.41.51,5.37,0,10.74,0,16.11,0,2.69,0,5.37.07,8.06.12l3.94.08a3.67,3.67,0,0,1,.87.14l.92.21,2,.48c5.38,1,10.74,1.51,16.11,2l8.06.72,8.06.67,36.73,3.15,9.25.72,2.35.17,2.35-.13c1.53-.07,3-.07,4.56,0a19,19,0,0,1,4.29.69,7.67,7.67,0,0,1,3.61,2.15,8.3,8.3,0,0,1,1.9,3.73,23.49,23.49,0,0,1,.56,4.31c.13,3,0,6.07-.17,9.13s-.31,6.13-.47,9.18l-.09,2.28-.24,2.26-.43,4.56c-.27,3-.51,6.07-.69,9.09a233.21,233.21,0,0,0,.28,35.69"/><path class="cls-7" d="M610.15,114.3s.94-.46,2.73-1.18a70.81,70.81,0,0,1,7.82-2.57,69.33,69.33,0,0,1,11.89-2.2,24,24,0,0,1,6.77.21,15.94,15.94,0,0,1,6.36,3.2,33.32,33.32,0,0,1,2.91,2.59c.47.46.93.94,1.39,1.43l1.28,1.37c.83.93,1.92,1.93,2.06,3.31a3.84,3.84,0,0,1-1.85,3.31,22.19,22.19,0,0,1-3.56,2.06l-3.57,1.85c-2.37,1.22-4.66,2.46-7,3.57a34.75,34.75,0,0,1-7.29,2.64,20.72,20.72,0,0,1-7.54.29,36.07,36.07,0,0,1-6.35-1.53c-1.87-.6-3.49-1.2-4.9-1.69"/><path class="cls-7" d="M612.37,120.94s6.34.09,13.66-.42c3.67-.25,7.57-.64,11.06-1.18,1.73-.27,3.42-.56,4.8-.91a8.89,8.89,0,0,0,3.11-1.32"/><path class="cls-7" d="M611.47,134.13a10.44,10.44,0,0,1,1.63.1l.82.14a4,4,0,0,1,.67.16,1.92,1.92,0,0,1,.71.39,6,6,0,0,1,.79.83c.69.82,1.45,2,2.64,3.25a18.65,18.65,0,0,0,4,3.07c1.45.86,2.91,1.58,4.41,2.36l4.64,2.38c6.33,3.24,13.17,6.59,19.41,9.26a101.56,101.56,0,0,0,15.7,5.52"/><path class="cls-7" d="M636.77,147.2l3-1.65A30.55,30.55,0,0,1,643,144a28.49,28.49,0,0,1,4.48-1.53,9.16,9.16,0,0,1,2.34-.22,9.43,9.43,0,0,1,2.57.46,14.73,14.73,0,0,1,5.35,3.2,35.93,35.93,0,0,1,4.9,5.69c.79,1.09,1.57,2.21,2.35,3.36s1.4,2.13,2.12,3.21,1.34,2.14,2,3.33a1.37,1.37,0,0,1,.13,1,1.5,1.5,0,0,1-.58.73A8.56,8.56,0,0,1,667,164c-1.22.44-2.51.83-3.88,1.18s-2.86.63-4.3.88c-2.89.49-5.81.81-8.67,1.07l-4.26.37a38.23,38.23,0,0,1-4.31.18,16.77,16.77,0,0,1-4.38-.71,17.9,17.9,0,0,1-4-1.8,17.71,17.71,0,0,1-3.34-2.65,20.53,20.53,0,0,1-1.38-1.58,9.48,9.48,0,0,1-1.22-2,6.78,6.78,0,0,1-.44-1.13l-.26-1.17a16.91,16.91,0,0,1-.14-2.11c0-.63,0-1.26,0-1.83s.07-1.15.14-1.68c.23-2.15.54-4,.85-5.69"/><path class="cls-7" d="M593,151l-.38.83c-.22.55-.56,1.36-.88,2.43a21.89,21.89,0,0,0-.81,9.36,18.6,18.6,0,0,0,6.49,11.72,16.21,16.21,0,0,0,3.28,2.06,18.9,18.9,0,0,0,3.65,1.23,66.73,66.73,0,0,0,7.43,1.17l4,.51c.7.1,1.38.17,2,.22l.95.06a1.48,1.48,0,0,0,.94-.16,1.44,1.44,0,0,0,.51-.86c.1-.33.19-.66.27-1,.15-.67.28-1.35.39-2a29.81,29.81,0,0,0,.34-3.92,22.71,22.71,0,0,0-1-7.41,16.94,16.94,0,0,0-3.39-6.05,13.86,13.86,0,0,0-1.15-1.15,7.42,7.42,0,0,0-1.22-.91,17.58,17.58,0,0,0-2.76-1.3,50.88,50.88,0,0,0-5.87-1.74,71.89,71.89,0,0,0-9.92-1.6"/><path class="cls-7" d="M598.1,162a4.33,4.33,0,0,1,.47.13,6.87,6.87,0,0,1,1.41.64,20.43,20.43,0,0,1,2.23,1.54c.85.66,1.84,1.45,2.89,2.18a38,38,0,0,0,6.65,3.81,18.83,18.83,0,0,0,5.81,1.67"/><path class="cls-7" d="M649.94,96.06l.83-.2c.53-.13,1.33-.25,2.32-.43,2-.29,4.84-.6,8-.73,6.27-.3,13.63,0,17.53-.56"/><path class="cls-7" d="M726.77,99l-.45-1.16c-.31-.76-.78-1.87-1.5-3.26a31.72,31.72,0,0,0-3.07-4.84,25.33,25.33,0,0,0-5.53-5.28,31.37,31.37,0,0,0-8-3.87c-1.45-.5-2.94-.94-4.46-1.35s-3-.83-4.69-1.23c-3.26-.75-7-1.44-10.83-.67a14.16,14.16,0,0,0-5.42,2.34,15.82,15.82,0,0,0-4,4.29,17.8,17.8,0,0,0-2.6,11.2,23.59,23.59,0,0,0,1.2,5.6,20.7,20.7,0,0,0,2.5,5.08,12.06,12.06,0,0,0,4,3.73,17.3,17.3,0,0,0,5.12,1.68,44.83,44.83,0,0,0,10.55.81,36.31,36.31,0,0,0,5-.57c.8-.16,1.58-.34,2.35-.54l1.13-.32.9-.39a33.19,33.19,0,0,0,3.83-2.3c1.25-.84,2.44-1.73,3.59-2.59a127.08,127.08,0,0,0,11.23-9.74"/><path class="cls-7" d="M678.24,95.78l.22-.08c.14-.06.42-.12.75-.21a29.74,29.74,0,0,1,3.21-.57,86.09,86.09,0,0,1,11.2-.71c4.4,0,9.09,0,13.45.42a36.06,36.06,0,0,1,6.23,1.13c1.93.54,3.55,1.16,4.83,1.53"/><path class="cls-7" d="M638.57,108.59s1-.44,2.87-1.37c.93-.48,2-1.06,3.36-1.88.65-.4,1.36-.88,2.11-1.45a15,15,0,0,0,1.27-1.13,9.29,9.29,0,0,0,1.14-1.47c.16-.29.32-.59.46-.9s.24-.55.35-.82c.21-.55.39-1.1.54-1.64.32-1.1.52-2.14.76-3.25.45-2.2.82-4.58,1.08-7.09a71.28,71.28,0,0,0,.41-7.87l0-2.18c0-.84,0-1.67-.1-2.49-.1-1.62-.21-3.27-.43-4.77a76.33,76.33,0,0,0-18.73,2.54,41,41,0,0,0-15.29,7.64,28.65,28.65,0,0,0-8.6,11.66,20.39,20.39,0,0,0-1.29,5.64,18.82,18.82,0,0,0,.22,4.71"/><path class="cls-7" d="M615,108.94a18.63,18.63,0,0,1,2.38-4.87,39.21,39.21,0,0,1,3.86-4.95c1.62-1.8,3.53-3.7,5.53-5.69,8-8,16.92-17.23,20.75-22.41"/><path d="M247.29,113.32c-1.26,0-2-1.09-2.11-3.25-.06-1.85-.47-5.9-1.22-12s-1.42-11.6-2-16.28a155.62,155.62,0,0,0-3.41-18.48,22.48,22.48,0,0,1-.65-3.19,3,3,0,0,1,1.54-2.62,5.56,5.56,0,0,1,3.1-.94c.64,0,1.22.45,2,6,.54,3.7,1.11,8.43,1.71,14.06l.27,3c.24,2,.51,4,.81,6.18.73,5.89,1.25,10.4,1.57,13.49,1-5.71,2.16-11.48,3.39-17.21l.81-4a67.48,67.48,0,0,1,4.35-14.56c1.65-3.44,3.83-5.19,6.48-5.19.82,0,1.76.79,3.1,6.46A110.83,110.83,0,0,1,269.3,79c.42,3.81,1,7.58,1.62,11.21q.7,3.93,1.32,6.14c.4-1.21,1-3,1.71-5.3q1.67-5.22,3.11-9.89a261.78,261.78,0,0,1,9.37-27,10.59,10.59,0,0,1,1.87-2.91,4.62,4.62,0,0,1,3.37-1c.81,0,1.71.83,3,10.7.9,6.81,1.65,14.81,2.25,23.79,2,15.58,3.4,19.72,4.24,20.44a3.85,3.85,0,0,1,1.52,2.9c0,.6-.4,1.18-1.23,1.8a4.32,4.32,0,0,1-2.6.86,8.84,8.84,0,0,1-1.81-.14,1.72,1.72,0,0,1-1.25-1.06c-.55-.9-1.19-3.58-1.93-8.13s-1.42-9.59-2.07-15.32c-1.44-17.54-2.33-23.7-2.83-25.72-.64,1.55-1.5,3.91-2.59,7.06-1.37,4-3,9.19-4.76,15.59-2,6.88-3.5,11.69-4.52,14.31s-2,4.37-2.86,5a11,11,0,0,1-1.81,1.25,4.18,4.18,0,0,1-2,.65,2.31,2.31,0,0,1-1.49-.34c-.18-.16-.43-.47-.78-1.63-.25-.93-.81-3.7-1.73-8.47s-1.59-9-2.07-12.76l-.54-3.78c-1-7.37-1.51-10.69-1.82-12.1a19.36,19.36,0,0,0-2.51,5.92c-1,3.48-2.19,8.47-3.51,14.85-1.25,5-2.79,13.13-4.58,24.28a3,3,0,0,1-1.57,2.14A4.76,4.76,0,0,1,247.29,113.32Z"/><path d="M301.16,109.54a3.78,3.78,0,0,1-2.3.76,8.66,8.66,0,0,1-1.71-.13,1.24,1.24,0,0,1-.9-.77q-.81-1.35-1.89-8c-.71-4.44-1.41-9.54-2.07-15.3Q290.15,59.72,289,59.18q-1,2.16-3.06,8.15t-4.77,15.61q-3,10.35-4.5,14.27T273.94,102a11,11,0,0,1-1.76,1.22,3.75,3.75,0,0,1-1.76.58,2,2,0,0,1-1.17-.22,3.61,3.61,0,0,1-.62-1.4q-.37-1.35-1.71-8.41c-.9-4.71-1.6-9-2.07-12.74l-.54-3.78c-1-7.8-1.71-12.15-2.08-13Q260.52,65.75,259,71t-3.52,14.89q-1.87,7.47-4.58,24.3a2.57,2.57,0,0,1-1.36,1.8,4.3,4.3,0,0,1-2.25.81q-1.44,0-1.62-2.79T244.46,98q-1.12-9.27-2-16.29A157,157,0,0,0,239,63.14a27.3,27.3,0,0,1-.64-3.06,2.55,2.55,0,0,1,1.31-2.2,5.06,5.06,0,0,1,2.83-.86c.48,0,1,1.86,1.54,5.58s1.1,8.4,1.71,14l.27,3q.35,3,.81,6.21,1.69,13.77,1.88,17.28,1.8-10.44,4.06-21l.81-4q2-9.54,4.32-14.44t6-4.91q1.17,0,2.62,6.08a110.9,110.9,0,0,1,2.25,14.17q.62,5.76,1.61,11.25A50,50,0,0,0,272.23,98c.35-1,1.09-3.27,2.2-6.75s2.14-6.78,3.11-9.9a257.58,257.58,0,0,1,9.36-26.91,9.82,9.82,0,0,1,1.75-2.74,4.22,4.22,0,0,1,3-.86c.77,0,1.62,3.42,2.52,10.26s1.64,14.76,2.25,23.76q2.43,19.08,4.41,20.79a3.33,3.33,0,0,1,1.34,2.52C302.19,108.56,301.85,109,301.16,109.54Z"/><path d="M336.75,115.75a57.74,57.74,0,0,1-9.08-.59,10.42,10.42,0,0,1-5.57-2.42c-1.53-1.72-2.58-4.66-3.17-8.76-.55-3.89-1-9.12-1.45-15.55-1,.24-2.1.46-3.29.63a22.86,22.86,0,0,1-3.27.32,2.83,2.83,0,0,1-2.1-.82,2.73,2.73,0,0,1-.83-2,3,3,0,0,1,.28-1.3,1.43,1.43,0,0,1,1-.81c2.05-.25,3.47-.39,4.38-.46l3.39-.39c-.23-7.23-.45-13.26-.68-18a14.36,14.36,0,0,0-1.63.08l-4.18.09a2.22,2.22,0,0,1-1.63-.59,1.9,1.9,0,0,1-.6-1.35c0-1.16.57-2.69,3.26-3.36.77-.13,1.69-.27,2.8-.42s1.63-.2,2-.22a5.45,5.45,0,0,1,4-1.9c.33,0,.77.16,1.06.91.07.19.13.36.17.51,3.84-.19,8.43-.63,13.65-1.32,3.56-.48,9.14-1.62,16.6-3.41l3.39-.74h.05c.88,0,1.4.59,1.4,1.58s-.6,1.7-1.79,2.33a40.46,40.46,0,0,1-7.7,2.92c-3.45,1-6.33,1.75-8.55,2.17-3.47.66-7,1.19-10.53,1.58-3,.34-5.16.56-6.34.65.06,3.33.15,6.78.26,10.27q.17,4.88.25,7.06c2.33-.32,5.67-.87,10-1.64l3.43-.54a17.57,17.57,0,0,0,8.48-3.49,5.24,5.24,0,0,1,2.66-1.38,1.68,1.68,0,0,1,1.47.92,3.23,3.23,0,0,1,.47,1.65c0,1.3-1.27,2.6-3.91,4a30,30,0,0,1-8.19,2.88c-2.46.54-5.26,1.06-8.3,1.54-2.62.41-4.49.69-5.59.84.37,9.78,1.38,17.19,3,22a29.41,29.41,0,0,0,4.81,1.2,41.26,41.26,0,0,0,6.4.4,27,27,0,0,0,7.43-1,19.12,19.12,0,0,0,5.65-2.5c1.31-.9,2-1.76,2-2.47a3.17,3.17,0,0,0-.23-1.21,7.86,7.86,0,0,0-.68-1.31l-.57-.84a2.29,2.29,0,0,1-.5-1.23c0-.93.84-1.4,2.48-1.4a3.66,3.66,0,0,1,2.86,1.39,4.51,4.51,0,0,1,1.15,3,8.9,8.9,0,0,1-2.69,6,19.1,19.1,0,0,1-7.21,4.67A27.22,27.22,0,0,1,336.75,115.75Z"/><path d="M354.75,57.38a40.09,40.09,0,0,1-7.6,2.88q-5.17,1.53-8.51,2.16-5.22,1-10.48,1.58t-6.8.67q.09,5.22.27,10.76t.27,7.6q3.51-.45,10.53-1.71l3.42-.54a18,18,0,0,0,8.73-3.6,4.92,4.92,0,0,1,2.34-1.26,1.2,1.2,0,0,1,1,.68,2.65,2.65,0,0,1,.4,1.39q0,1.62-3.64,3.56a29.8,29.8,0,0,1-8.06,2.83q-3.69.81-8.28,1.53t-6,.9q.54,15.39,3.15,22.86a30.69,30.69,0,0,0,5.13,1.31,42.31,42.31,0,0,0,6.48.4,27.23,27.23,0,0,0,7.56-1,19.83,19.83,0,0,0,5.81-2.57c1.47-1,2.2-2,2.2-2.88a3.7,3.7,0,0,0-.27-1.39,8.89,8.89,0,0,0-.72-1.4l-.58-.85a1.87,1.87,0,0,1-.41-1q0-.9,2-.9a3.17,3.17,0,0,1,2.48,1.22,4,4,0,0,1,1,2.65,8.4,8.4,0,0,1-2.56,5.67,18.62,18.62,0,0,1-7,4.55,26.7,26.7,0,0,1-9.86,1.75,56.62,56.62,0,0,1-9-.58,9.91,9.91,0,0,1-5.31-2.3q-2.16-2.43-3-8.46T317.94,87.8a35.7,35.7,0,0,1-3.82.77,23.55,23.55,0,0,1-3.2.31,2.36,2.36,0,0,1-1.75-.67,2.28,2.28,0,0,1-.68-1.67,2.39,2.39,0,0,1,.23-1.08.93.93,0,0,1,.67-.54q3-.36,4.32-.45l3.87-.45q-.36-11.61-.72-18.9a20.49,20.49,0,0,0-2.16.09l-4.14.09a1.7,1.7,0,0,1-1.26-.45,1.38,1.38,0,0,1-.45-1q0-2.16,2.88-2.88c.72-.12,1.64-.25,2.75-.4a21.39,21.39,0,0,1,2.2-.23,5,5,0,0,1,3.78-1.89c.24,0,.44.2.59.59a2.68,2.68,0,0,1,.22.85q5.94-.27,14.13-1.35,5.4-.72,16.65-3.42l3.33-.72q.9,0,.9,1.08T354.75,57.38Z"/><path d="M407.4,113.86c-.4,0-.87,0-8.8-9.86-5.16-6.41-9.48-12-12.84-16.53-.49-.68-2-2.89-4.6-6.58-2.88-4.22-4.94-7.17-6.14-8.82l-.15,5.49-.09,6.74c0,4.22,0,8.88-.13,13.86s-.2,8.94-.32,11.89a3.71,3.71,0,0,1-1.08,2.31,2.92,2.92,0,0,1-2.12,1,2,2,0,0,1-1.8-.8,4.64,4.64,0,0,1-.5-2.58c0-.73.13-3,.37-6.69.53-6.86.8-12.69.8-17.34,0-3.73.06-7.3.19-10.59s.17-5.38.17-6.15l.1-2.62v-.26a3.8,3.8,0,0,1,.38-1.81,1.79,1.79,0,0,1,1.74-.85H373c.61,0,1.6.45,4.31,3.74,1.95,2.37,4.45,5.63,7.44,9.7.65.83,1.28,1.66,1.89,2.47s1.17,1.57,1.7,2.29l5.4,6.93c6.36,8.1,10.51,13.54,12.58,16.45,0-.26-.1-.55-.15-.85-.3-1.74-.59-4-.86-6.88s-.41-5.78-.41-8.78A192.69,192.69,0,0,0,403.4,67.7c-.31-2.92-.46-4.68-.46-5.37,0-1.79.76-3.92,4.37-3.92.86,0,1.48.75,1.84,2.23a47.2,47.2,0,0,1,.64,7.89c.12,4,.18,10.35.18,19,0,2.75.11,5.46.32,8.06s.4,5,.58,7a63.74,63.74,0,0,1,.45,6.43l.09,3.23C411.41,113.7,409.13,113.86,407.4,113.86Z"/><path d="M407.4,113.36q-.63,0-8.41-9.67T386.16,87.17q-.72-1-4.59-6.57-5.67-8.28-7-10l-.18,6.93-.09,6.75q0,6.39-.13,13.86T373.83,110a3.22,3.22,0,0,1-.94,2,2.46,2.46,0,0,1-1.76.9,1.56,1.56,0,0,1-1.39-.58,4.43,4.43,0,0,1-.41-2.3q0-1.08.36-6.66Q370.5,93,370.5,86q0-5.58.18-10.57t.18-6.17l.09-2.61v-.27a3.31,3.31,0,0,1,.32-1.57,1.34,1.34,0,0,1,1.3-.59H373q1,0,3.92,3.56t7.42,9.67c.66.84,1.29,1.67,1.89,2.48L388,82.22l5.4,6.93q12.78,16.29,13.95,18.54-.18-.72-.63-3.33t-.85-6.84q-.4-4.23-.41-8.73a191.71,191.71,0,0,0-1.53-21.15q-.45-4.32-.45-5.31,0-3.42,3.87-3.42c.6,0,1.05.62,1.35,1.85a47.45,47.45,0,0,1,.63,7.78q.18,5.94.18,19,0,4.14.32,8.1t.58,7q.45,4.23.45,6.39l.09,3.24Q410.91,113.36,407.4,113.36Z"/><path d="M438.63,118.9c-2.51,0-4.7-1.5-6.5-4.47a35.21,35.21,0,0,1-4-11.55,85.9,85.9,0,0,1-1.36-15.8c0-4.61.28-9.91.82-15.75a72.45,72.45,0,0,1,2-12.74,5,5,0,0,1,1.16-2,2.69,2.69,0,0,1,1.93-.82c2.4,0,2.75,1.39,2.75,2.21,0,.14,0,.33-1.73,6.62C432.59,68.7,432,76.47,432,87.71c0,7.42.71,13.6,2.1,18.36,1.33,4.57,3.18,6.88,5.5,6.88s5.26-2,8.62-6a90.4,90.4,0,0,0,9.89-14.63,91.92,91.92,0,0,0,6.85-15c.94-3.11,1.57-7.88,1.86-14.17.29-3.89.43-4,.6-4.2A3.06,3.06,0,0,1,470,58c2.12,0,2.12,3.7,2.12,4.91,0,3.57.11,10.35.32,20.15s.46,16.16.76,18.77a15,15,0,0,0,1.26,5,14.72,14.72,0,0,0,1.95,3c1,1.16,1.2,1.62,1.2,1.94a2.85,2.85,0,0,1-1.07,2.23,3.86,3.86,0,0,1-2.58.88c-1.44,0-2.66-1.34-3.75-4.09a28.83,28.83,0,0,1-1.87-8c-.25-2.28-.49-7.65-.73-16-.06-1.76-.11-3.18-.16-4.27A137.13,137.13,0,0,1,454,107.26C448.64,115,443.46,118.9,438.63,118.9Z"/><path d="M476.16,113.68a3.35,3.35,0,0,1-2.25.76q-1.8,0-3.28-3.78a28.12,28.12,0,0,1-1.85-7.83q-.36-3.42-.72-15.93-.18-5.22-.27-6.48A138,138,0,0,1,453.62,107q-8,11.43-15,11.43-3.51,0-6.07-4.23a34.4,34.4,0,0,1-3.92-11.38,84.93,84.93,0,0,1-1.35-15.71q0-6.93.81-15.7a71.15,71.15,0,0,1,2-12.65,4.39,4.39,0,0,1,1-1.75,2.15,2.15,0,0,1,1.57-.68q2.25,0,2.25,1.71,0,.27-1.71,6.48t-1.71,23.22q0,11.25,2.12,18.5t6,7.24q3.78,0,9-6.16a90.43,90.43,0,0,0,9.95-14.72,92.34,92.34,0,0,0,6.88-15q1.44-4.77,1.89-14.31a19.24,19.24,0,0,1,.45-3.87,2.6,2.6,0,0,1,2.16-.9q1.62,0,1.62,4.41,0,5.31.32,20.16t.76,18.81a15.68,15.68,0,0,0,1.31,5.22,15.43,15.43,0,0,0,2,3.15q1.08,1.26,1.08,1.62A2.35,2.35,0,0,1,476.16,113.68Z"/></g></g></svg>