<svg xmlns="http://www.w3.org/2000/svg" viewBox="0 0 529.75 249.15"><defs><style>.cls-1{font-size:150px;stroke:#000;stroke-miterlimit:10;stroke-width:5px;font-family:InkFree, Ink Free;}</style></defs><g id="圖層_2" data-name="圖層 2"><g id="菜單-sign"><path d="M153,245.49a8.63,8.63,0,0,1-4.22-1c-4.12-.16-8.22-.2-8.26-.2a1,1,0,0,1-.76-.38,1,1,0,0,1-.18-.83,40.8,40.8,0,0,0,1.18-9.68c-3.16-5.11-4.17-13.19-2.76-22.2-.11-.6-.21-1.2-.31-1.8-1-8.85,1.1-19.88,10.2-21.91a21.67,21.67,0,0,1,4.36-.47c11,0,18.78,9.46,23.28,28.15a47.22,47.22,0,0,0-.29-9.49c-.62-6.43-1.26-13.08,3.3-18.79a1,1,0,0,1,.32-.26,13.94,13.94,0,0,1,6.06-1.35c.45,0,.9,0,1.33.07a.91.91,0,0,1,.42.14,24.74,24.74,0,0,1,10,12.23,34.93,34.93,0,0,1,2,7.72c1.22,10.79-.7,21.94-5.7,33.15.13.87.28,1.74.46,2.61a1,1,0,0,1-.73,1.14c-.62.14-1.23.26-1.84.35a6.53,6.53,0,0,1-5.45,2.61,11.48,11.48,0,0,1-4-.79c-10.41-2.71-13.81-12-17.09-21a86.85,86.85,0,0,0-3.4-8.41,38.84,38.84,0,0,1-.34,10.1c.11,4.89-.48,8.5-1.79,11a37,37,0,0,0-.34,8,1,1,0,0,1-.26.74,1,1,0,0,1-.71.31c-.71,0-1.45.07-2.17.13A23.59,23.59,0,0,1,153,245.49Zm4.56-41.93a1,1,0,0,1,.75.36c3.54,4.33,5.5,9.94,7.39,15.37,2.7,7.74,5.49,15.75,13,19.73a19.29,19.29,0,0,0,6.37,1.9,19.8,19.8,0,0,0,2.32.13,23,23,0,0,0,2.47-.14h0c.41-.81.83-1.69,1.23-2.57-1.17-8.49-.23-16.25,1-24.78a48.19,48.19,0,0,0,.24-8.78c-.51-6.2-2.92-10.65-7.57-14-2.06-.18-4.13-.31-5.66-.4a321.3,321.3,0,0,1-.69,34.1,1,1,0,0,1-.77.87l-.2,0a1,1,0,0,1-.85-.5A67.29,67.29,0,0,1,172,213.45c-2.42-7.47-4.92-15.19-12.17-19.42a14.41,14.41,0,0,0-6.32-1.41c-4.34,0-7.83,1.79-9.33,4.79a48.77,48.77,0,0,0-4.28,13.79l.48,2.74c1.11,6.18,2.25,12.57,2.26,18.91a11.29,11.29,0,0,0,6.59,4.78,11.11,11.11,0,0,0,3.11.51,4.88,4.88,0,0,0,4.58-2.59c.25-1.78.57-3.6.88-5.35s.61-3.46.86-5.17a132.87,132.87,0,0,0-1.36-13.84c-.32-2.45-.63-4.73-.78-6.57a1,1,0,0,1,.6-1A1.16,1.16,0,0,1,157.52,203.56Z"/><path d="M153,245a8,8,0,0,1-4.09-1c-4.14-.15-8.34-.2-8.39-.2a.49.49,0,0,1-.37-.18.5.5,0,0,1-.08-.41,41.4,41.4,0,0,0,1.19-9.94c-3.17-5-4.17-13.05-2.76-22.07-.11-.62-.21-1.24-.32-1.87-1-8.64,1-19.39,9.82-21.34a21.23,21.23,0,0,1,4.25-.46c11.16,0,19,10.16,23.35,30.2.94-3.88.53-8,.14-12.09-.61-6.33-1.25-12.88,3.19-18.43a.48.48,0,0,1,.16-.12,13.49,13.49,0,0,1,5.83-1.3c.44,0,.87,0,1.28.07a.37.37,0,0,1,.2.07,24.26,24.26,0,0,1,9.84,12,34.57,34.57,0,0,1,2,7.62c1.22,10.73-.7,21.82-5.71,33,.13.93.29,1.86.48,2.78a.47.47,0,0,1-.36.55c-.66.16-1.34.28-2,.38a6.08,6.08,0,0,1-5.17,2.57,11,11,0,0,1-3.82-.76c-10.2-2.65-13.55-11.83-16.79-20.7a64.22,64.22,0,0,0-4.92-11.22,33.72,33.72,0,0,1,.22,13c.1,4.93-.49,8.49-1.78,10.86a37.1,37.1,0,0,0-.36,8.18.52.52,0,0,1-.12.36.47.47,0,0,1-.35.15c-.74,0-1.5.07-2.24.14S153.74,245,153,245Zm4.56-40.93a.44.44,0,0,1,.36.18c3.49,4.26,5.43,9.83,7.31,15.22,2.73,7.83,5.56,15.93,13.19,20a19.84,19.84,0,0,0,6.55,2,20.66,20.66,0,0,0,2.37.13h0a21.7,21.7,0,0,0,2.77-.18l.13-.21c.45-.89.89-1.83,1.31-2.76-1.19-8.47-.25-16.24,1-24.78a49.39,49.39,0,0,0,.24-8.89c-.53-6.4-3-11-7.89-14.44-2.66-.24-5.28-.39-6.35-.45a325,325,0,0,1-.68,34.59.47.47,0,0,1-.37.42h-.1a.46.46,0,0,1-.41-.24,65.58,65.58,0,0,1-4.45-11.32c-2.45-7.56-5-15.38-12.4-19.7a15,15,0,0,0-6.57-1.48c-4.54,0-8.19,1.89-9.78,5.06a49.81,49.81,0,0,0-4.34,14c.17.94.33,1.88.5,2.82,1.11,6.21,2.26,12.63,2.25,19a12.84,12.84,0,0,0,10.2,5.64,5.42,5.42,0,0,0,5.06-2.92c.26-1.81.58-3.66.9-5.44s.6-3.46.85-5.18a130.54,130.54,0,0,0-1.35-14c-.33-2.42-.63-4.71-.78-6.54a.46.46,0,0,1,.29-.48A.39.39,0,0,1,157.52,204.06Z"/><path d="M153,245a8.12,8.12,0,0,1-4.09-1c-4.14-.16-8.34-.2-8.39-.2a.55.55,0,0,1-.39-.2.53.53,0,0,1-.09-.42,41.32,41.32,0,0,0,1.19-9.93c-3.17-5-4.17-13.06-2.75-22.08-.11-.62-.22-1.24-.32-1.87-1-8.64,1-19.41,9.83-21.36a20.72,20.72,0,0,1,4.26-.47c11.16,0,19,10.13,23.35,30.11.9-3.84.5-8,.11-12-.61-6.33-1.24-12.89,3.2-18.44a.46.46,0,0,1,.17-.14,13.5,13.5,0,0,1,5.84-1.29c.43,0,.86,0,1.28.06a.57.57,0,0,1,.22.07,24.31,24.31,0,0,1,9.84,12,34.67,34.67,0,0,1,2,7.63c1.22,10.73-.71,21.83-5.71,33,.13.93.29,1.86.48,2.77a.51.51,0,0,1-.38.59c-.67.15-1.33.28-2,.38a6.14,6.14,0,0,1-5.19,2.57,11.31,11.31,0,0,1-3.83-.76c-10.21-2.66-13.56-11.84-16.81-20.72A64.49,64.49,0,0,0,160,212.31a33.79,33.79,0,0,1,.17,12.85c.1,4.93-.48,8.49-1.78,10.87a37.62,37.62,0,0,0-.36,8.17.47.47,0,0,1-.12.38.52.52,0,0,1-.37.16c-.74,0-1.5.07-2.24.14S153.74,245,153,245Zm4.56-41a.48.48,0,0,1,.38.18c3.5,4.27,5.44,9.84,7.32,15.23,2.73,7.82,5.55,15.92,13.17,20a20,20,0,0,0,6.54,1.95,20.79,20.79,0,0,0,2.37.14h0a21.4,21.4,0,0,0,2.75-.18l.13-.2c.44-.89.88-1.82,1.3-2.75-1.19-8.47-.25-16.24,1-24.78a48.39,48.39,0,0,0,.24-8.88c-.53-6.4-3-11-7.87-14.43-2.63-.23-5.22-.38-6.31-.44a327.08,327.08,0,0,1-.68,34.56.51.51,0,0,1-.4.45h-.1a.51.51,0,0,1-.44-.26,67,67,0,0,1-4.45-11.33c-2.56-7.9-5-15.36-12.38-19.68a15,15,0,0,0-6.56-1.48c-4.53,0-8.17,1.89-9.76,5.06a49.89,49.89,0,0,0-4.33,14c.16.93.33,1.87.5,2.81,1.11,6.21,2.25,12.63,2.25,19a11.77,11.77,0,0,0,6.94,5.09,11.56,11.56,0,0,0,3.23.52,5.4,5.4,0,0,0,5-2.9c.25-1.81.57-3.65.89-5.44s.61-3.45.85-5.17a130.1,130.1,0,0,0-1.35-14c-.32-2.42-.63-4.71-.78-6.55a.5.5,0,0,1,.31-.51A.58.58,0,0,1,157.52,204Z"/><path d="M140.49,243.34c2.85-11.39,0-22.73-1.88-34.08-1-8.51.94-18.9,9.45-20.8,18-3.78,24.58,17,27.42,31.2,3.78-10.4-3.78-22.69,3.78-32.14a13.08,13.08,0,0,1,6.85-1.18,23.79,23.79,0,0,1,9.65,11.76,34.57,34.57,0,0,1,2,7.51c1.37,12.16-1.46,24.45-7.13,35.8-1.9,3.15-5.15,3.57-8.82,2.21-15.76-4.1-14.82-24-23.33-34.36,4.73,11.35-1.89,23.64-.94,35-2.84,0-5.68.95-8.51-.7C144.77,243.38,140.49,243.34,140.49,243.34Zm37.54-54a330.35,330.35,0,0,1-.66,35c-5.67-10.4-5.67-24.58-17-31.2-5.67-2.83-14.18-1.89-17,3.78-6.62,13.24-8.51,37.82,5.67,41.6,16.07,4.73,9.45-22.69,8.51-34,8.51,10.4,7.56,28.36,20.64,35.34a20.18,20.18,0,0,0,6.71,2,21.83,21.83,0,0,0,7.64-.47c-1.9-9.46-1-18,.47-27.72a48.89,48.89,0,0,0,.25-9c-.48-5.75-2.55-10.91-8.19-14.86C181.5,189.51,178,189.34,178,189.34Z"/><path d="M238.66,248.25a34,34,0,0,1-8-1.31,37.34,37.34,0,0,0-6.43-1.19c-2.93-.62-5.49-1.16-7.94-1.49a33.52,33.52,0,0,0-4.52-.34,19.81,19.81,0,0,0-2.51.15l-3.74-.19h-.11a.94.94,0,0,1-.67-.31,1,1,0,0,1-.26-.7c.15-3.33.58-7.2,1-10.94.23-2.09.49-4.45.68-6.54.19-2.94.34-5.85.42-8.63a193.36,193.36,0,0,0-.91-26.29,1,1,0,0,1,.28-.8,1,1,0,0,1,.69-.28h.1a43.83,43.83,0,0,0,4.81.25h1.29c1.76,0,3.6-.17,6-.4,2-.14,4.07-.42,6-.7,6.32-1,12-1,18.69-1a12,12,0,0,1,9,7.7,6.8,6.8,0,0,1-1.66,7.2c-2.49,2.49-5.77,3.25-8.95,4-3,.68-5.73,1.32-7,3.39-.56,1-.75,1.74-.54,2.15.47.91,3,1.18,5.31,1.43,2.6.27,5.27.56,7.18,1.71a4,4,0,0,1,1.9,3c.21,2.13-1.18,4.57-2.65,6-2.11,2.83-5.25,3.23-8.33,3.23-.75,0-1.52,0-2.3-.05s-1.5-.06-2.25-.06l-.47.15a2.41,2.41,0,0,0-1.45,2.25,4.46,4.46,0,0,0,1.62,3.78c1.44-.05,2.63-.08,3.71-.08a46,46,0,0,1,4.85.23,18.92,18.92,0,0,1,7.13,1.25l.21.12a4.19,4.19,0,0,1,1.82,3.17c1,1.87,1.14,4.29.34,7.19a1,1,0,0,1-.94.72s-1.56,0-4-.08a12.28,12.28,0,0,1-7.36,2.3Zm-29.81-7.81c2.26,0,4.63.19,7.22.45,2.77.28,5.54.66,8.13,1,2.65.2,5.16.55,7.81.91s5.08.69,7.87.93c1.75.09,3.57.17,5.38.22,1-1,3.23-3.36,3.45-5.33-1.18-1.68-3.59-2.71-7.36-3.13h-.17c-1.15,0-2.34.06-3.49.12s-2.35.12-3.6.12a3.81,3.81,0,0,1-1.61-.36l-2.95.15c-2.11.11-4.09.21-5.84.21a1,1,0,0,1-.72-.32,1,1,0,0,1-.24-.75c.59-5.9,5.18-7.81,9.45-9.14a3.46,3.46,0,0,1,.59-.18l1.08-.33c2.84-.83,5.52-1.63,7.12-3.23,2-1.8,1.92-2.47,1.91-2.55-.17-.66-2.58-1.27-4.17-1.67-3.56-.9-8.43-2.13-8.43-6.44-.56-6.21,4.69-7.43,8.91-8.41s6.56-1.68,6.23-4.71c0-4.39-2.09-6.23-6.95-6.23a59.57,59.57,0,0,0-10.1,1.34,61.2,61.2,0,0,1-10.62,1.4q-.56,0-1.08,0c-.78.06-1.66.1-2.49.1a25.48,25.48,0,0,1-3.75-.26c-.24,4.94-.15,9.86,0,14.89l0,1.45c.06,2.2.12,4.39.15,6.59l0,1.52C210.48,226.06,210.38,233.56,208.85,240.44Z"/><path d="M238.66,247.75a33.7,33.7,0,0,1-7.84-1.29,38.4,38.4,0,0,0-6.52-1.21c-2.76-.59-5.38-1.14-7.9-1.48a34.63,34.63,0,0,0-4.59-.35,20.79,20.79,0,0,0-2.57.15c-2.39-.14-3.76-.2-3.77-.2a.47.47,0,0,1-.45-.49c.15-3.31.58-7.17,1-10.91.25-2.2.5-4.48.69-6.55.19-2.93.33-5.84.42-8.66a194.46,194.46,0,0,0-.91-26.36.45.45,0,0,1,.13-.38.48.48,0,0,1,.34-.14h0a44.75,44.75,0,0,0,4.86.25h1.31c1.77,0,3.62-.17,6-.41,2-.13,4.07-.41,6-.69,6.29-1,12-1,18.62-1a11.43,11.43,0,0,1,8.48,7.35A6.31,6.31,0,0,1,250.5,202c-2.39,2.4-5.61,3.14-8.71,3.85s-5.94,1.37-7.29,3.63c-.66,1.16-.85,2-.55,2.63.59,1.15,3.07,1.41,5.71,1.7s5.15.54,7,1.64a3.5,3.5,0,0,1,1.65,2.66c.2,2-1.12,4.25-2.51,5.64-2,2.7-5,3.08-8,3.08-.75,0-1.51,0-2.29-.05s-1.55-.06-2.33-.06l-.54.17a2.94,2.94,0,0,0-1.81,2.7,4.89,4.89,0,0,0,2,4.32c1.48-.06,2.71-.09,3.85-.09a45,45,0,0,1,4.8.23,18.6,18.6,0,0,1,7,1.21l.11.06a3.68,3.68,0,0,1,1.61,2.91c1,1.76,1.14,4.09.36,6.92a.48.48,0,0,1-.46.35h0s-1.63,0-4.22-.08l-.08.07A11.75,11.75,0,0,1,238.66,247.75Zm-30.44-6.81c2.42,0,5,.16,7.8.45s5.55.66,8.11,1c2.68.2,5.19.55,7.85.91,2.49.34,5.07.69,7.86.93,1.84.1,3.73.17,5.62.23,1.14-1.14,3.65-3.75,3.76-6-1.23-1.9-3.79-3.05-7.82-3.49h-.22c-1.17,0-2.36.06-3.52.12s-2.37.12-3.57.12a3.31,3.31,0,0,1-1.5-.36q-1.58.06-3.09.15c-2.09.11-4.07.21-5.81.21a.51.51,0,0,1-.35-.15.5.5,0,0,1-.12-.37c.56-5.6,5-7.43,9.11-8.72.17-.06.36-.12.56-.17l1.1-.33c2.9-.85,5.64-1.66,7.33-3.36,1.89-1.68,2.15-2.56,2-3-.23-1-2.42-1.51-4.53-2-3.58-.91-8.05-2-8.05-6-.53-5.82,4.28-6.94,8.52-7.92,3.77-.88,7-1.63,6.61-5.26,0-4.63-2.29-6.67-7.44-6.67a60.6,60.6,0,0,0-10.2,1.35A60.2,60.2,0,0,1,217.75,194c-.36,0-.71,0-1.06,0-.84.06-1.71.1-2.51.1a23.8,23.8,0,0,1-4.23-.35c-.27,5.13-.17,10.25,0,15.49l0,1.45c.06,2.2.12,4.39.15,6.59l0,1.5C210,226.24,209.87,233.94,208.22,240.94Z"/><path d="M238.66,247.77a33.77,33.77,0,0,1-7.85-1.28,36.26,36.26,0,0,0-6.51-1.21c-2.77-.59-5.39-1.15-7.9-1.49a34.63,34.63,0,0,0-4.6-.34,20.75,20.75,0,0,0-2.56.15c-2.39-.14-3.77-.2-3.77-.2a.49.49,0,0,1-.47-.52c.14-3.32.57-7.18,1-10.91.24-2.2.5-4.48.68-6.55.19-2.93.34-5.84.42-8.66a192.64,192.64,0,0,0-.91-26.35.52.52,0,0,1,.14-.41.54.54,0,0,1,.36-.14h0a44.7,44.7,0,0,0,4.86.26l1.3,0c1.77,0,3.62-.17,6-.4,2-.14,4.06-.42,6-.7,6.29-1,12-1,18.62-1a11.48,11.48,0,0,1,8.51,7.37,6.36,6.36,0,0,1-1.54,6.72c-2.4,2.4-5.76,3.18-8.73,3.86s-5.92,1.36-7.27,3.61c-.66,1.15-.84,2-.55,2.6.58,1.14,3.18,1.42,5.69,1.69s5.16.55,7,1.64a3.59,3.59,0,0,1,1.67,2.69c.2,2-1.12,4.26-2.52,5.66-2,2.7-5,3.08-8,3.08-.75,0-1.51,0-2.29,0s-1.55-.05-2.33-.05l-.53.16a3,3,0,0,0-1.8,2.68,4.94,4.94,0,0,0,2,4.29c1.48-.06,2.7-.08,3.84-.08a45.23,45.23,0,0,1,4.8.22,18.69,18.69,0,0,1,7,1.22l.11.06a3.72,3.72,0,0,1,1.63,2.92c1,1.77,1.14,4.1.36,6.94a.51.51,0,0,1-.49.36h0s-1.62,0-4.21-.08l-.07.07A11.74,11.74,0,0,1,238.66,247.77Zm-30.4-6.86c2.41,0,5,.17,7.76.45s5.55.66,8.12,1c2.67.21,5.18.55,7.83.91,2.5.34,5.08.69,7.87.93,1.84.1,3.73.18,5.61.23,1.14-1.14,3.62-3.73,3.75-5.93-1.23-1.89-3.78-3-7.8-3.48h-.22c-1.17,0-2.36.06-3.52.12s-2.37.12-3.57.12a3.24,3.24,0,0,1-1.51-.37l-3.08.16c-2.09.1-4.07.21-5.81.21a.5.5,0,0,1-.37-.17.47.47,0,0,1-.12-.38c.56-5.62,5-7.46,9.12-8.74a3.31,3.31,0,0,1,.56-.17l1.1-.33c2.9-.86,5.64-1.67,7.32-3.36,1.88-1.67,2.14-2.54,2-3-.23-.93-2.41-1.48-4.52-2-3.59-.91-8.06-2-8.06-6-.54-5.84,4.28-7,8.54-8,3.75-.87,7-1.62,6.59-5.23,0-4.61-2.29-6.65-7.42-6.65a59.56,59.56,0,0,0-10.19,1.36,61.27,61.27,0,0,1-10.53,1.39c-.36,0-.71,0-1.06,0-.84.06-1.71.09-2.51.09a23.5,23.5,0,0,1-4.2-.34c-.27,5.12-.17,10.24,0,15.46l0,1.51c.06,2.18.12,4.36.15,6.53l0,1.5C210,226.23,209.9,233.92,208.26,240.91Z"/><path d="M205.5,242.9c.23-5.28,1.18-11.89,1.67-17.44.19-2.89.33-5.79.42-8.68a194.39,194.39,0,0,0-.91-26.42,46.87,46.87,0,0,0,6.23.24c2,0,4-.21,6-.41s3.94-.39,6.06-.69c6.26-1,11.93-1,18.55-1,5.67.95,11.34,8.51,6.61,13.24s-13.23,2.84-16.07,7.56c-3.78,6.62,7.57,3.78,12.29,6.62,2.84,1.89,1,5.67-.94,7.56-2.84,3.79-7.57,2.84-12.29,2.84-4.73.95-2.84,8.51.94,8.51,4.73,0,9.46-.95,14.18.94,3.79,2.84-.94,7.57-2.83,9.46-6.62,4.72-14.18,0-21.11-.41-2.65-.57-5.31-1.13-7.87-1.48a28.53,28.53,0,0,0-7.28-.2C206.88,243,205.5,242.9,205.5,242.9Zm44.57,2.15c3.88-14-16-10.26-26.38-10.26.95-9.46,13.24-7.56,18-12.29,8.5-7.56-10.4-3.78-10.4-11.35-.95-10.4,16.07-4.72,15.12-13.23,0-13.24-18.9-3.78-29.66-4.38a26.17,26.17,0,0,1-7.21-.35c-.31,5.36-.21,10.72-.07,16.07.07,2.68.15,5.36.19,8-.12,8-.12,16.54-2,24.11a81.68,81.68,0,0,1,8.35.45c2.74.27,5.43.64,8.09,1,5.31.42,10,1.36,15.74,1.85C245.66,245,250.07,245.05,250.07,245.05Z"/><path d="M270.35,247a1,1,0,0,1-.91-.64c-3.59-9.72-5.54-19.44-7.55-30.24-2-5.75-2.78-10-2.57-13.4-1.13-5.44-2.23-9.9-3.47-14a1,1,0,0,1,.09-.76,1,1,0,0,1,.61-.46c.77-.19,1.59-.43,2.43-.67a29.57,29.57,0,0,1,7.84-1.51,10.31,10.31,0,0,1,2.49.29c15.05,7.06,15.84,23.73,16.54,38.43v0a73.25,73.25,0,0,0,1.55-12.26c.51-7.38,1-15,5.3-20.61,0-.93,0-1.84,0-2.76a1,1,0,0,1,.28-.68,1,1,0,0,1,.69-.29h0c1.07,0,2,0,2.89,0a22.26,22.26,0,0,1,4.66-2.52,1,1,0,0,1,.36-.07c2.33,0,4.5,1.2,6.48,3.44a37.12,37.12,0,0,1,4,5.95,49.72,49.72,0,0,1,6.46,21.82c1.21-8.32,1.1-17.69-.34-28.43a1,1,0,0,1,.24-.77,1,1,0,0,1,.73-.33h15.1a1,1,0,0,1,1,1.14c-.42,2.36-.78,4.89-1.08,7.74-.83,3.84-1.4,8.23-2,12.89-2.15,16.48-4.59,35.17-18.59,36l-.88,0c-4.49,0-7.32-2.35-8.42-7l0-.2c-.08-4.16,0-8.15.1-12l0-1.3c-3.43,13.19-11.62,21.45-23,23-5.64.09-10.93.26-11,.27h0Zm2.75-3.75c.59,0,1.18.05,1.75.05a24.31,24.31,0,0,0,18.82-8.75c6.79-7.82,10.12-20.31,8.47-31.81a1,1,0,0,1,.64-1.05.92.92,0,0,1,.33-.06,1,1,0,0,1,.83.47,25.93,25.93,0,0,1,1.87,3.77.85.85,0,0,1,.15.35c2.56,6.6,2.3,13.62,2.05,20.42-.07,2-.15,4.15-.15,6.22a7.67,7.67,0,0,0,2.29,5.55,5.34,5.34,0,0,0,3.7,1.46,6.88,6.88,0,0,0,2.18-.37c3.56-.89,5.28-2.62,7.06-5.29,4.28-9.18,5.34-19.56,6.36-29.6.48-4.7,1-9.54,1.8-14.27h-9c2.28,13.44.39,27.08-5.93,42.88a1,1,0,0,1-.9.61.75.75,0,0,1-.26,0,1,1,0,0,1-.7-1.11c2.94-15.67-.44-31.24-9.27-42.72-.56-.83-1.56-1.18-3.36-1.18l-.9,0a19.9,19.9,0,0,1-3.65.52,16.35,16.35,0,0,0-2.61,2.51l0,1.93c.2,14,.41,28.54-10.77,38.86a1,1,0,0,1-.66.25l-.26,0a1,1,0,0,1-.68-.69,121.09,121.09,0,0,1-2.41-13.53c-1.67-11.69-3.4-23.77-10-23.77a6.93,6.93,0,0,0-1.53.18c-4.48.95-6.73,3.35-7.07,7.55.76,3.69,1.46,7.46,2.13,11.1l.38,2c1,2.89,2.2,6,3.38,9,2.17,5.56,4.22,10.82,5.16,15.4C272.68,241.55,272.94,242.64,273.1,243.29Z"/><path d="M270.35,246.54a.48.48,0,0,1-.44-.31c-3.57-9.68-5.53-19.39-7.53-30.16-2-5.79-2.78-10-2.56-13.34-1.14-5.49-2.25-10-3.49-14.13a.46.46,0,0,1,.34-.59c.78-.2,1.6-.44,2.45-.68a29.24,29.24,0,0,1,7.7-1.49,9.82,9.82,0,0,1,2.37.27c14.69,6.91,15.47,23.41,16.16,38,0,1,.1,2,.15,2.93,1.66-4.62,2-10,2.4-15.15.51-7.36,1-15,5.3-20.47,0-1,0-2,0-2.93a.48.48,0,0,1,.47-.47c1.15,0,2.15,0,3.09,0a21.23,21.23,0,0,1,4.67-2.54.58.58,0,0,1,.18,0h0c2.16,0,4.22,1.14,6.1,3.27a36.62,36.62,0,0,1,3.95,5.86A48.44,48.44,0,0,1,318,221.79c2.28-9.82,2.49-20.9.72-34.21a.46.46,0,0,1,.11-.37.48.48,0,0,1,.36-.16h15.1a.48.48,0,0,1,.37.17.47.47,0,0,1,.1.38c-.43,2.37-.78,4.91-1.09,7.77-.82,3.8-1.39,8.21-2,12.88-2.13,16.3-4.54,34.76-18.13,35.52l-.85,0c-4.29,0-6.88-2.16-7.93-6.59,0,0,0-.07,0-.1-.08-4.15,0-8.13.1-12,.05-2.27.1-4.5.12-6.72-2.09,13.84-9.51,26-23.66,27.86-5.54.09-10.87.26-10.92.27Zm2.35-2.78c.73.06,1.45.08,2.15.08h0a24.8,24.8,0,0,0,19.19-8.92c6.88-7.93,10.25-20.57,8.59-32.21a.47.47,0,0,1,.31-.51.41.41,0,0,1,.16,0,.48.48,0,0,1,.4.23,25.65,25.65,0,0,1,1.86,3.75.37.37,0,0,1,.1.23h0c2.54,6.52,2.29,13.51,2,20.27-.07,2-.15,4.16-.15,6.24a8.15,8.15,0,0,0,2.45,5.91,5.83,5.83,0,0,0,4,1.6,7.33,7.33,0,0,0,2.34-.4c3.68-.92,5.47-2.71,7.32-5.48,4.34-9.32,5.41-19.75,6.44-29.83.5-4.89,1-9.93,1.9-14.82H321.64c2.41,13.53.56,27.27-5.81,43.19a.46.46,0,0,1-.43.3l-.14,0a.48.48,0,0,1-.33-.54c3-15.81-.45-31.52-9.36-43.11-.64-1-1.8-1.38-3.76-1.38l-.93,0a19.9,19.9,0,0,1-3.8.53,16.39,16.39,0,0,0-2.93,2.83l0,2.11c.2,13.92.4,28.32-10.61,38.48a.45.45,0,0,1-.32.12h-.13a.48.48,0,0,1-.32-.34,121.34,121.34,0,0,1-2.41-13.47c-1.7-11.9-3.45-24.2-10.51-24.2a7.5,7.5,0,0,0-1.65.2c-4.68,1-7.11,3.62-7.46,8.07.77,3.71,1.47,7.49,2.15,11.15l.38,2c1,3,2.22,6.09,3.4,9.1,2.17,5.55,4.21,10.79,5.14,15.32C272.27,242,272.57,243.2,272.7,243.76Z"/><path d="M270.35,246.56a.5.5,0,0,1-.47-.32c-3.57-9.68-5.52-19.39-7.53-30.16-2-5.8-2.78-10-2.56-13.35-1.13-5.48-2.24-10-3.49-14.12a.48.48,0,0,1,.05-.39.47.47,0,0,1,.31-.24c.78-.2,1.6-.43,2.45-.68a29.71,29.71,0,0,1,7.71-1.48,9.82,9.82,0,0,1,2.37.27c14.72,6.91,15.5,23.42,16.19,38,.05.94.09,1.88.14,2.8,1.62-4.59,2-9.88,2.35-15,.51-7.36,1-15,5.3-20.48,0-1,0-1.95,0-2.92a.51.51,0,0,1,.5-.5c1.15,0,2.15,0,3.08,0a22.14,22.14,0,0,1,4.67-2.54.58.58,0,0,1,.19,0h0c2.17,0,4.23,1.14,6.12,3.27a37.07,37.07,0,0,1,3.95,5.86,48.52,48.52,0,0,1,6.37,27c2.2-9.74,2.4-20.71.64-33.87a.51.51,0,0,1,.12-.39.5.5,0,0,1,.38-.17h15.1a.5.5,0,0,1,.39.18.54.54,0,0,1,.11.41c-.43,2.36-.79,4.9-1.09,7.77-.82,3.8-1.4,8.21-2,12.87-2.13,16.31-4.54,34.79-18.15,35.55l-.85,0c-4.3,0-6.91-2.16-8-6.61a.34.34,0,0,1,0-.1c-.08-4.15,0-8.13.09-12,.05-2.14.1-4.25.12-6.34-2.17,13.7-9.59,25.66-23.62,27.51-5.55.08-10.88.26-10.93.26Zm2.38-2.82c.71,0,1.42.08,2.12.08h0A24.81,24.81,0,0,0,294,234.9c6.88-7.92,10.24-20.55,8.58-32.18a.51.51,0,0,1,.33-.55l.17,0a.47.47,0,0,1,.42.24,25.71,25.71,0,0,1,1.87,3.75.39.39,0,0,1,.09.24h0c2.55,6.53,2.3,13.52,2.05,20.28-.08,2.05-.15,4.16-.15,6.24a8.1,8.1,0,0,0,2.44,5.89,5.78,5.78,0,0,0,4,1.6,7.56,7.56,0,0,0,2.33-.4c3.68-.92,5.46-2.71,7.31-5.48,4.34-9.31,5.4-19.73,6.43-29.82.5-4.87,1-9.9,1.89-14.78H321.67c2.41,13.52.56,27.26-5.81,43.17a.49.49,0,0,1-.46.32l-.14,0a.51.51,0,0,1-.36-.57c3-15.81-.44-31.51-9.35-43.1-.64-1-1.79-1.36-3.74-1.36l-.93,0a20.61,20.61,0,0,1-3.79.53,16.16,16.16,0,0,0-2.91,2.81l0,2.1c.2,13.93.41,28.33-10.61,38.5a.47.47,0,0,1-.34.13.36.36,0,0,1-.14,0,.52.52,0,0,1-.34-.35,121.68,121.68,0,0,1-2.4-13.48c-1.7-11.88-3.45-24.17-10.49-24.17a7.38,7.38,0,0,0-1.64.19c-4.67,1-7.1,3.62-7.44,8,.77,3.71,1.47,7.5,2.15,11.16l.37,2c1,3,2.23,6.08,3.41,9.09,2.16,5.55,4.21,10.79,5.13,15.32C272.29,242,272.59,243.17,272.73,243.74Z"/><path d="M270.35,246.06c-7-18.83-7.9-38.69-13.57-57.6,3.78-.94,8.51-2.83,12.29-1.89,16.07,7.57,15.13,27.42,16.07,42.55,6.62-14.18-1.89-35.93,16.45-43.27,2.13,0,4.05,1.18,5.75,3.1a36.25,36.25,0,0,1,3.89,5.77,47,47,0,0,1,5.11,34.4c4.73-13.24,4.73-27.42,2.84-41.6h15.1c-.46,2.6-.81,5.2-1.09,7.8-3.61,16.78-2.67,47-19.68,48-5.05.31-7.36-2.21-8.3-6.2-.21-10.82.73-20.27-.21-30.67.94,16.07-4.73,36.87-23.77,39.37C275.67,245.89,270.35,246.06,270.35,246.06Zm2-1.85c22.28,1.92,33.62-21.71,30.79-41.56,5.67,9.45,3.78,19.85,3.78,30.25a8.63,8.63,0,0,0,2.6,6.26,6.55,6.55,0,0,0,6.85,1.3c3.78-.94,5.67-2.84,7.56-5.67,6.62-14.18,5.68-30.25,8.51-45.38H321.07c2.83,15.13,0,29.31-5.67,43.49,2.83-15.13,0-31.2-9.46-43.49-.94-1.42-2.83-1.65-5.08-1.53a28.82,28.82,0,0,1-7.21.58c0,15.13,1.89,32.15-10.4,43.49-3.78-14.18-2.83-40.65-15.12-37.81-18,3.78,0,30.25,3.24,46.2C272,242.76,272.32,244.21,272.32,244.21Z"/><path d="M359.6,249.15c-12.26,0-20.38-3.87-24.84-11.83a21.76,21.76,0,0,1-.84-9,1,1,0,0,1,.81-.87,18.62,18.62,0,0,1,3-.24c4.47,0,8.74,1.53,12.86,3,3.88,1.4,7.55,2.72,11.16,2.72a12.43,12.43,0,0,0,5.84-1.4,10.56,10.56,0,0,0-.09-1.12A89.5,89.5,0,0,0,357,225.24c-6.2-2.7-12.6-5.49-17.67-10.56a15.58,15.58,0,0,1-3.5-12.26,18.55,18.55,0,0,1,6.39-11.86,26.27,26.27,0,0,1,7.13-3.88,32.68,32.68,0,0,1,11.24-1.92c10.82,0,21,4.82,26.54,12.59a8.92,8.92,0,0,1,.8,5.23c.09.22.18.44.26.66a1,1,0,0,1-.1.9,1,1,0,0,1-.69.42c-.06.14-.12.28-.19.41a.9.9,0,0,1-.26.32,10,10,0,0,1-6.46,2.39c-2.92,0-5.77-1.24-8.53-2.44s-5.49-2.4-8.28-2.4a9.14,9.14,0,0,0-4.31,1.07,29.71,29.71,0,0,0,2,2.68,61.85,61.85,0,0,0,10.51,4c9.08,2.83,18.46,5.76,19.17,15.66.44,9.25-4.89,16.43-15,20.25a43.83,43.83,0,0,1-9.19,2.29A70.79,70.79,0,0,1,359.6,249.15Zm-22-17.84c1.75,11.26,13.28,15.27,22.76,15.27a35.24,35.24,0,0,0,9.32-1.24,28.75,28.75,0,0,0,7.32-2.65,18,18,0,0,0,9.26-11c1.19-3.76,1.1-6.79-.26-9.28-2.42-4.4-8.52-6.54-14.74-8.2-1.57-.42-3.16-.81-4.73-1.2l-2.82-.69c-3.69-.14-8.18-1.7-10-4.88-.82-1.46-1.41-3.89.46-7.16a1,1,0,0,1,.31-.33,12.25,12.25,0,0,1,6.76-2.42,8.17,8.17,0,0,1,2.59.42c6.3,3.14,12.84,4.54,21.85,4.67-4.64-10-15.62-13.58-24.43-13.58a33.82,33.82,0,0,0-5.14.4,20.57,20.57,0,0,0-9.17,5.06l-.16.12a11.24,11.24,0,0,0-5.44,8.89,14.15,14.15,0,0,0,4.85,11.64c2.48,1.77,5.46,2.7,8.62,3.69,4.77,1.5,9.7,3,13.27,7.81a7.73,7.73,0,0,1,1.08,2.55c.52.33,1,.67,1.54,1a1,1,0,0,1,.41.78,1,1,0,0,1-.39.8c-.43.32-.88.62-1.32.9-.35,3.11-2.18,5-4.93,5a45,45,0,0,1-10.82-3.17c-3.6-1.4-7.3-2.84-11.18-3.18h-4.91Z"/><path d="M359.6,248.65c-12.06,0-20-3.79-24.4-11.58a21.1,21.1,0,0,1-.78-8.72.48.48,0,0,1,.39-.43,18.89,18.89,0,0,1,2.93-.23c4.39,0,8.61,1.51,12.69,3s7.64,2.75,11.33,2.75a12.85,12.85,0,0,0,6.34-1.6,9.17,9.17,0,0,0-.13-1.73,88.11,88.11,0,0,0-10.82-5.31c-6.15-2.68-12.5-5.45-17.51-10.46-5.62-6.55-4.29-17.24,2.86-23.38a25.81,25.81,0,0,1,7-3.79,32,32,0,0,1,11.07-1.89c10.66,0,20.68,4.75,26.13,12.38a8.37,8.37,0,0,1,.69,5c.11.25.22.51.32.77a.49.49,0,0,1-.06.44.44.44,0,0,1-.38.2H387a5.28,5.28,0,0,1-.29.69.61.61,0,0,1-.12.16,9.59,9.59,0,0,1-6.15,2.27c-2.82,0-5.62-1.22-8.33-2.4s-5.59-2.44-8.48-2.44a9.76,9.76,0,0,0-5,1.4,32.53,32.53,0,0,0,2.45,3.25,61.87,61.87,0,0,0,10.68,4c8.91,2.78,18.13,5.66,18.81,15.22.43,9-4.78,16-14.68,19.74a43.24,43.24,0,0,1-9.08,2.27C364.18,248.52,361.84,248.65,359.6,248.65Zm-22.53-17.83c1.49,12,13.44,16.26,23.34,16.26a35.69,35.69,0,0,0,9.45-1.26,29.51,29.51,0,0,0,7.43-2.69,18.51,18.51,0,0,0,9.5-11.31c1.23-3.89,1.13-7-.31-9.66-2.5-4.56-8.71-6.76-15-8.45-1.59-.42-3.19-.81-4.78-1.2l-2.83-.7c-3.57-.12-7.9-1.6-9.59-4.62-.76-1.36-1.3-3.61.45-6.67a.57.57,0,0,1,.15-.16,11.86,11.86,0,0,1,6.49-2.34,7.72,7.72,0,0,1,2.43.39c6.44,3.22,13.18,4.62,22.55,4.7a3.59,3.59,0,0,0,.08-.35c-4.64-10.48-16-14.23-25.05-14.23a34.88,34.88,0,0,0-5.22.4,21.22,21.22,0,0,0-9.44,5.19.16.16,0,0,1-.08.06,11.74,11.74,0,0,0-5.67,9.28,14.65,14.65,0,0,0,5,12.06c2.57,1.84,5.6,2.79,8.79,3.79,4.7,1.48,9.55,3,13,7.63a7.48,7.48,0,0,1,1,2.56c.57.36,1.14.73,1.69,1.12a.48.48,0,0,1,.2.38.51.51,0,0,1-.19.39,17.77,17.77,0,0,1-1.5,1c-.25,3-1.9,4.76-4.45,4.76A44.84,44.84,0,0,1,353.91,234c-3.62-1.41-7.36-2.86-11.3-3.21H340.9Z"/><path d="M359.6,248.68c-12.07,0-20.06-3.79-24.42-11.59a21.23,21.23,0,0,1-.79-8.74.49.49,0,0,1,.42-.45,17.64,17.64,0,0,1,2.93-.24c4.39,0,8.62,1.52,12.7,3s7.63,2.74,11.32,2.74a12.93,12.93,0,0,0,6.31-1.58,8.85,8.85,0,0,0-.13-1.7,88.59,88.59,0,0,0-10.8-5.31c-6.15-2.68-12.51-5.45-17.52-10.46a15,15,0,0,1-3.33-12.12,18.54,18.54,0,0,1,6.2-11.3,25.84,25.84,0,0,1,7-3.8,32.27,32.27,0,0,1,11.08-1.89c10.67,0,20.7,4.75,26.16,12.4a8.52,8.52,0,0,1,.69,5c.11.26.21.51.31.77a.5.5,0,0,1,0,.46.51.51,0,0,1-.42.22H387a5.86,5.86,0,0,1-.28.67.75.75,0,0,1-.14.17,9.61,9.61,0,0,1-6.16,2.28c-2.82,0-5.63-1.22-8.34-2.4s-5.59-2.44-8.47-2.44a9.69,9.69,0,0,0-5,1.38,33.94,33.94,0,0,0,2.43,3.22,61.75,61.75,0,0,0,10.67,4c8.92,2.79,18.15,5.67,18.83,15.24.43,9-4.79,16-14.7,19.77a42.73,42.73,0,0,1-9.09,2.27A69.2,69.2,0,0,1,359.6,248.68Zm-22.5-17.84c1.51,11.95,13.43,16.21,23.31,16.21a35.27,35.27,0,0,0,9.44-1.26,28.91,28.91,0,0,0,7.42-2.68,18.54,18.54,0,0,0,9.5-11.3c1.22-3.88,1.12-7-.31-9.63-2.5-4.56-8.7-6.75-15-8.44-1.58-.42-3.17-.81-4.75-1.2l-2.86-.71c-3.57-.12-7.91-1.6-9.61-4.63-.76-1.36-1.3-3.62.46-6.69a.5.5,0,0,1,.15-.17,11.86,11.86,0,0,1,6.51-2.35,7.8,7.8,0,0,1,2.44.4c6.43,3.21,13.16,4.61,22.52,4.7,0-.11,0-.22.07-.32-4.63-10.47-15.95-14.21-25-14.21a34.88,34.88,0,0,0-5.22.4,21.19,21.19,0,0,0-9.42,5.18.27.27,0,0,1-.08.07,11.68,11.68,0,0,0-5.66,9.25,14.65,14.65,0,0,0,5,12c2.58,1.84,5.6,2.78,8.79,3.79,4.7,1.47,9.55,3,13,7.63a7.75,7.75,0,0,1,1,2.57c.57.35,1.12.72,1.67,1.11a.47.47,0,0,1,.22.4.51.51,0,0,1-.2.41c-.49.36-1,.7-1.49,1-.26,3-1.92,4.77-4.48,4.77A44.94,44.94,0,0,1,353.9,234c-3.62-1.4-7.35-2.86-11.29-3.2H337.1Z"/><path d="M334.89,228.39c12.65-2.11,24,11.13,35.34,2.62-9.46-6.62-21.75-8.51-30.25-17-5.68-6.62-3.79-17,2.83-22.69a25.38,25.38,0,0,1,6.83-3.71c12.37-4.51,28.78-.7,36.66,10.33a8,8,0,0,1,0,6.62c-9.45,7.56-18-7.57-28.36-.95a37.62,37.62,0,0,0,2.83,3.78c10.4,5.67,28.37,5.67,29.31,18.91.47,9.93-5.91,16.07-14.38,19.27a42.63,42.63,0,0,1-9,2.24c-11.62,1.18-24.85.23-31.11-10.95A21,21,0,0,1,334.89,228.39Zm1.65,2c1.55,15.78,20.45,19.56,33.45,15.92a29.15,29.15,0,0,0,7.52-2.72,19.12,19.12,0,0,0,9.74-11.6c3.78-12-5.47-16-15.69-18.7-2.56-.68-5.17-1.28-7.66-1.91-6-.19-12.58-4-8.8-10.59,2.84-1.89,5.67-2.83,8.51-1.89,7.56,3.79,15.13,4.73,23.64,4.73-4.73-12.29-18.91-17-31.2-15.13a21.69,21.69,0,0,0-9.69,5.32c-8.27,5.08-7.33,16.43-.71,22.1,6.62,4.73,16.07,3.78,21.74,11.35,1.89,2.83,1.89,9.45-2.83,9.45-7.57-1-14.18-5.67-21.91-6.35C339.48,230.32,336.54,230.35,336.54,230.35Z"/><path d="M2.76,36.6c1.25.5,2,1.94,2.6,3.07.79,1.54,1.39,3.17,2.16,4.72a12.27,12.27,0,0,0,8.12,6.49c3.77.88,8-.74,8.71-4.93s-2.12-7.85-5.74-9.51a26.92,26.92,0,0,0-7.51-1.85L1.89,33.32a1.55,1.55,0,0,0-1.84,1A1.51,1.51,0,0,0,1.1,36.22l7.2,1a61.18,61.18,0,0,1,6.32,1c3.21.78,6.83,2.74,6.83,6.53a3.26,3.26,0,0,1-2,3.12,5.87,5.87,0,0,1-4.18-.27A9.53,9.53,0,0,1,11.44,45a15.12,15.12,0,0,1-2-3.65c-1.34-3-2.58-6.36-5.87-7.69a1.52,1.52,0,0,0-1.84,1,1.54,1.54,0,0,0,1,1.85Z"/><path d="M15.05,13.46c-.23,3.67-.78,7.37-.25,11A11.88,11.88,0,0,0,20.29,33c3.09,1.94,7.53,2,9.81-1.22,2.6-3.67-.54-7.72-3.07-10.35Q21.53,15.71,16,10c-1.35-1.39-3.46.73-2.13,2.12l8,8.35c1.3,1.36,2.64,2.68,3.9,4.08,1,1.1,2.19,2.54,2.23,4.11a2.75,2.75,0,0,1-2.2,2.62,5.1,5.1,0,0,1-4.06-.85,8.94,8.94,0,0,1-4.09-6.63c-.45-3.41.13-6.92.34-10.33.12-1.92-2.88-1.92-3,0Z"/><path d="M40.92,17.74,36.58,27c-1.07,2.28-2.35,5.31-.35,7.49s5.42,1.16,7-1,1.89-5.66,1.86-8.39a25.46,25.46,0,0,0-2.32-10.22,1.51,1.51,0,0,0-2-.53,1.54,1.54,0,0,0-.54,2,21.77,21.77,0,0,1,1.91,8.7,19.52,19.52,0,0,1-.43,4.52c-.25,1.06-.65,2.4-1.73,2.89-.72.32-1.57.22-1.73-.65-.2-1.11.55-2.43,1-3.38l4.33-9.2A1.54,1.54,0,0,0,43,17.21a1.51,1.51,0,0,0-2,.53Z"/><path d="M491.86,11.39a24.76,24.76,0,0,1-4.94,6.67,15.29,15.29,0,0,0-4.59,7.47c-.65,3.25,1,7.16,4.63,7.52s6.31-3.23,6.85-6.54a51.4,51.4,0,0,0,.39-6.68l.24-7.56c.06-1.93-2.94-1.93-3,0-.12,3.64-.22,7.27-.34,10.91-.08,2.36-.31,6.35-3.33,6.87a2.2,2.2,0,0,1-2.34-1.5,4.83,4.83,0,0,1,.3-3.81,16.34,16.34,0,0,1,3.76-5,25.71,25.71,0,0,0,5-6.83c.87-1.72-1.72-3.24-2.59-1.52Z"/><path d="M520.76,19.7c-3.44.84-6.8,2-10.2,3a49.17,49.17,0,0,0-5.17,1.49A7.47,7.47,0,0,0,500.93,29a7.37,7.37,0,0,0,11.73,7.8,9.46,9.46,0,0,0,2.39-4c.66-1.85,1.05-3.79,1.64-5.66a11.38,11.38,0,0,1,1-2.31,3.27,3.27,0,0,1,1.26-1.36,1.5,1.5,0,0,0-1.51-2.59c-2.66,1.51-3.47,4.87-4.21,7.6a29.87,29.87,0,0,1-1.32,4.25,3.89,3.89,0,0,1-2.39,2.5,4.36,4.36,0,0,1-5.82-4.74c.6-3.75,4.71-4,7.7-4.9,3.4-1,6.76-2.12,10.19-3,1.88-.46,1.08-3.36-.79-2.9Z"/><path d="M527.76,41.7a80.92,80.92,0,0,1-8.84,1.79c-1.52.2-3.07.21-4.58.44a3.68,3.68,0,0,0-3,2.33,4.72,4.72,0,0,0,2.37,5.54c2.79,1.3,5.87,0,8.33-1.44a28.56,28.56,0,0,0,7.31-6.1,1.55,1.55,0,0,0,0-2.12,1.51,1.51,0,0,0-2.12,0,25.68,25.68,0,0,1-5,4.57c-1.69,1.15-3.82,2.6-5.95,2.63A2.92,2.92,0,0,1,515,49.1a1.54,1.54,0,0,1-.54-.5,1.74,1.74,0,0,1-.34-.87c0-.18,0,0,0,0a1.92,1.92,0,0,1,0-.24c0,.06,0-.23,0-.25a.55.55,0,0,1,.26-.25,5.68,5.68,0,0,1,1.79-.22c1.34-.1,2.68-.26,4-.46,2.81-.41,5.59-1,8.34-1.71,1.88-.47,1.08-3.36-.79-2.9Z"/><text class="cls-1" transform="translate(38.53 138.77)">2D</text><path d="M272.44,154.92a8.33,8.33,0,0,1-6.72-2.84c-6.57-2.53-9.91-6.48-9.91-11.73,0-8,2.12-16.67,6.29-25.81A84.75,84.75,0,0,1,275.39,93.6c5.25-6,9.46-9,12.89-9.23h.37a7.55,7.55,0,0,1,4.23,1.6c.08.06.27.19,3.43,2.76a2,2,0,0,1,1.86-1.22c1,0,2.45.72,4.56,2.35,1.45,1.13,2.15,2.25,2.15,3.43a16.66,16.66,0,0,1-.56,3.31c-1.58,6.42-3.45,11.46-5.54,15-1.14,2-2.33,2.94-3.64,2.94a5.67,5.67,0,0,1-1.62-.29c-1.08-.33-4.41-1.34-4.41-3.64a2,2,0,0,1,1.39-1.88,31.56,31.56,0,0,0,4.67-14.21,6.58,6.58,0,0,0-4-1.81c-3.09,0-6.85,2.87-11.22,8.55A85.39,85.39,0,0,0,269,120.9c-3.19,7.85-4.74,14.45-4.62,19.62,0,2.83.83,4.85,2.43,6.19a5.88,5.88,0,0,0,3.9,1.43,10.68,10.68,0,0,0,3.07-.54,41.73,41.73,0,0,0,10.57-5.54,58.17,58.17,0,0,0,9.6-8,4.74,4.74,0,0,0,1.2-2.8,2,2,0,0,1,2-2,2.07,2.07,0,0,1,2,1.52c1.23,3.07,1.83,5.19,1.83,6.46a5.37,5.37,0,0,1-1.59,3.71,51.8,51.8,0,0,1-4.28,3.49c-7,5.23-13.07,8.54-18.13,9.84A18.08,18.08,0,0,1,272.44,154.92Z"/><path d="M303.34,96.36q-2.34,9.51-5.42,14.69c-.94,1.63-1.87,2.45-2.78,2.45a4.69,4.69,0,0,1-1.32-.25q-3.7-1.12-3.71-2.68c0-.53.34-.87,1-1a32.52,32.52,0,0,0,5.07-15.48,7.9,7.9,0,0,0-5.07-2.39q-5.08,0-12,8.93A86.75,86.75,0,0,0,268,120.53q-4.87,12-4.69,20c0,3.09,1,5.4,2.79,6.93a6.88,6.88,0,0,0,4.54,1.66,11.73,11.73,0,0,0,3.37-.59,42.57,42.57,0,0,0,10.84-5.66,59.71,59.71,0,0,0,9.76-8.15,5.86,5.86,0,0,0,1.47-3.37c.09-.72.42-1.08,1-1.08s.8.29,1,.88a20.36,20.36,0,0,1,1.76,6.1,4.37,4.37,0,0,1-1.32,3,51.55,51.55,0,0,1-4.15,3.37q-10.35,7.77-17.78,9.67a17.09,17.09,0,0,1-4.19.58,7.29,7.29,0,0,1-6.11-2.68q-9.52-3.57-9.52-10.89,0-11.82,6.2-25.39a83.41,83.41,0,0,1,13.14-20.7q7.52-8.55,12.2-8.89a6.28,6.28,0,0,1,4,1.42c.19.13,1.71,1.35,4.54,3.66q.24-2,1.32-2t3.95,2.14c1.17.92,1.76,1.79,1.76,2.64A16.17,16.17,0,0,1,303.34,96.36Z"/><path d="M307.2,157.17a3.91,3.91,0,0,1-2-.91,9.59,9.59,0,0,1-3.58-4.19c-.41-1.06-.37-2.63,2.08-4.25a77.87,77.87,0,0,0,8.19-6.51,68.37,68.37,0,0,0,6.51-6.25c-.4-4.09-.4-4.23-.4-4.33.1-2.86,1.53-4,2.71-4.54a20.88,20.88,0,0,1,6.14-1,174.83,174.83,0,0,0,17.71-25.73c-1.57.62-3.56,1.32-6,2.12-6.56,2.13-11.15,3.66-13.64,4.53-3.13,1.12-4.66,3-4.66,5.7a12.22,12.22,0,0,0,.18,2,2.76,2.76,0,0,1-.41,2.33,1.89,1.89,0,0,1-1.5.64,2.3,2.3,0,0,1-2.16-1.33,43.14,43.14,0,0,1-3.26-8.15,17.3,17.3,0,0,1-.46-2.36,5.06,5.06,0,0,1,1.95-3.87c2.13-1.82,5.93-3.1,11.64-4A82.47,82.47,0,0,0,347,91.42c.75-.76.91-.94.94-1h0a3.74,3.74,0,0,0,.35-1,2,2,0,0,1,1.92-1.71c1.08,0,2.34.83,4.1,2.71a3.82,3.82,0,0,1,1,1.92c.82-3.33,3.35-5.84,7.51-7.45a5.58,5.58,0,0,1,2-.45,1.88,1.88,0,0,1,2.08,1.93,5,5,0,0,1-1.17,2.82c-1.91,2.75-3.78,10.44-5.53,22.85-1.55,11.06-2.29,19.8-2.19,26,.16,8,1.76,8.39,2.07,8.39a3.66,3.66,0,0,0,1.18-.32,5.29,5.29,0,0,1,1.9-.46,1.74,1.74,0,0,1,2,1.73,2.61,2.61,0,0,1-1.08,1.93,40.1,40.1,0,0,1-7.66,4.91,5.58,5.58,0,0,1-2.57.75,2.88,2.88,0,0,1-2.13-1c-1.45-1.53-3.25-5.61-2.34-23.18-7.21.44-14.11,1-20.55,1.79l-7.85,9.59c2.83.33,3.86,4.21,4.2,5.51a7.26,7.26,0,0,1,.38,2,2,2,0,0,1-2,2.17,7,7,0,0,1-1.69-.28,5.68,5.68,0,0,0-1.24-.21c-2.56,0-6.14,1.44-10.65,4.29l-2.34,1.47Zm13.32-14v-.51l0,0,0,.45ZM355,93.91c-.25.56-.7,1.4-1.47,2.75-2.41,4.26-5.67,9.49-9.7,15.53-3.72,5.6-6.78,9.91-9.14,12.85,6.22,0,11.31-.2,15.16-.51.49-4.52,1.46-10.81,2.9-18.73Z"/><path d="M364.82,88.64q-3,4.35-5.71,23.29-2.36,16.75-2.2,26.13t3.07,9.37a4.67,4.67,0,0,0,1.54-.39,4.67,4.67,0,0,1,1.54-.39c.65,0,1,.24,1,.73a1.7,1.7,0,0,1-.74,1.17,38.56,38.56,0,0,1-7.47,4.79,4.73,4.73,0,0,1-2.1.63q-4.78,0-3.41-24.22-11.73.69-22.12,1.91l-9.67,11.82c1.72-.2,2.38-.3,2-.3q2.34,0,3.62,4.79a6.77,6.77,0,0,1,.34,1.76c0,.78-.34,1.17-1,1.17a6.14,6.14,0,0,1-1.44-.25,6.48,6.48,0,0,0-1.49-.24q-4.14,0-11.18,4.44l-2.1,1.32a3.49,3.49,0,0,1-1.46-.73,8.66,8.66,0,0,1-3.23-3.76q-.58-1.52,1.71-3a76.8,76.8,0,0,0,8.3-6.59,62.6,62.6,0,0,0,6.89-6.69c-.29-3-.44-4.51-.44-4.64.06-1.85.76-3.06,2.1-3.61a21.06,21.06,0,0,1,6.25-1A170.5,170.5,0,0,0,346.8,97.33a59.31,59.31,0,0,1-8.59,3.27q-9.91,3.23-13.68,4.55c-3.54,1.27-5.32,3.48-5.32,6.64a13.11,13.11,0,0,0,.2,2.14c.19,1.21-.12,1.81-.93,1.81a1.32,1.32,0,0,1-1.27-.78,42.41,42.41,0,0,1-3.17-7.91c-.3-1.37-.44-2.08-.44-2.15a4.09,4.09,0,0,1,1.61-3.12q2.93-2.49,11.13-3.71a82.43,82.43,0,0,0,21.19-5.82A14.82,14.82,0,0,0,348.7,91a4.26,4.26,0,0,0,.52-1.31c.18-.65.49-1,.95-1,.75,0,1.87.8,3.37,2.39a2.53,2.53,0,0,1,.73,1.66,13.77,13.77,0,0,1-1.66,3.37q-3.62,6.41-9.67,15.48A148.45,148.45,0,0,1,332.49,126q11.63,0,18.22-.58.68-6.84,3-19.48L356,93.57q.74-5.26,7.08-7.71a4.57,4.57,0,0,1,1.61-.39q1.08,0,1.08.93A4.27,4.27,0,0,1,364.82,88.64Z"/><path d="M393.33,155.22a15.74,15.74,0,0,1-4.52-1.13c-1.78-.59-2.48-2.4-2.08-5.38a74.71,74.71,0,0,1,1.93-9.21c.25-.87,1-2.3,3.51-2.3a6.28,6.28,0,0,1,.84.05c.64-1.61,1.4-3.94,2.25-7-2-5.14-2-5.21-2-5.47a4.74,4.74,0,0,1,.06-.75c.27-1.47,1.88-2.51,5-3.27.64-2.06,3-9.51,7.39-23.52a96.48,96.48,0,0,0-13.45,2.2c-5.38,1.26-8.95,2.64-10.61,4.12s-2.49,3-2.49,4.38c0,1.15.54,3.53,3.1,8.31a3.29,3.29,0,0,1,.46,1.65,2,2,0,0,1-2.12,2.22,2.7,2.7,0,0,1-2.24-1.36,44.71,44.71,0,0,1-5.14-8.81,24,24,0,0,1-1.23-6.47c-.37-4.54,3.14-7.85,10.45-9.84a156.26,156.26,0,0,1,26.81-4.86c1.2-2.34,2-3.23,3-3.23.67,0,1.76.28,4.22,2.43.84-.06,2.83-.28,7.4-1,.32-.06.9-.34,1.71-1.35.9-1.18,2.82-1.84,5.86-2h.28A3.85,3.85,0,0,1,435.5,86c.07.18.14.36,1.09,4.14a4.58,4.58,0,0,1,.13,1,2.9,2.9,0,0,1-2.4,2.86c-.24.07-.87.17-3.64.57-4.9.7-11,1.36-18.08,2-1.8,4-4.36,11.82-7.6,23.13,5.68-.48,11.5-.78,17.32-.9h.16c2.75,0,4,1.29,4.51,2.36a16.39,16.39,0,0,1,.82,3.49,3.31,3.31,0,0,1,.12.87c0,2.51-3.5,3.09-4.65,3.28a22,22,0,0,1-3.31.46h-.21a2.62,2.62,0,0,1-2.2-1.44c-.19-.36-.55-.8-1.72-.8-6.41,0-10.85.1-13.19.32-1.18,3.33-3.18,11.23-5.95,23.51C396.45,151.88,395.69,155.22,393.33,155.22Z"/><path d="M435.62,90.35a4,4,0,0,1,.1.78c0,1-.57,1.58-1.71,1.91-.07,0-1.22.21-3.47.53q-7.56,1.08-18.6,2-2.88,6.15-8.3,25.19,9.23-.83,18.7-1c1.89,0,3.14.57,3.76,1.8a23.45,23.45,0,0,1,.73,3.22,3.27,3.27,0,0,1,.1.69q0,1.67-3.81,2.29a18.7,18.7,0,0,1-3.27.44,1.65,1.65,0,0,1-1.42-.93,2.65,2.65,0,0,0-2.59-1.31q-10.63,0-13.91.39-1.76,4.49-6.2,24.22c-.56,2.44-1.35,3.66-2.4,3.66a17.07,17.07,0,0,1-4.19-1.08c-1.27-.42-1.75-1.85-1.42-4.29a73.16,73.16,0,0,1,1.9-9.09q.58-2,4-1.41a65.8,65.8,0,0,0,2.68-8.11c-1.36-3.51-2.05-5.32-2.05-5.42a3.79,3.79,0,0,1,.05-.58q.3-1.62,4.83-2.59.25-.83,8-25.49a96.77,96.77,0,0,0-15.09,2.34q-8.34,2-11,4.35-2.83,2.54-2.83,5.13,0,2.77,3.22,8.79a2.28,2.28,0,0,1,.34,1.17c0,.81-.37,1.22-1.12,1.22a1.78,1.78,0,0,1-1.42-.93,44.56,44.56,0,0,1-5-8.59,23.75,23.75,0,0,1-1.17-6.2q-.48-6,9.72-8.79a154.83,154.83,0,0,1,27.2-4.89c1-2.11,1.82-3.17,2.34-3.17.75,0,2,.82,3.86,2.44q1.26,0,7.91-1a4.19,4.19,0,0,0,2.34-1.71c.72-.95,2.43-1.48,5.13-1.61a2.91,2.91,0,0,1,3.07,1.66C434.66,86.56,435,87.88,435.62,90.35Z"/><path d="M435,154.63c-.49,0-1.69-.2-2-2.08a39.19,39.19,0,0,1-1-5.31,3.51,3.51,0,0,1,2.81-3.45,40.86,40.86,0,0,1,8.17-.9,98.59,98.59,0,0,0,7.47-17.7c-.23-.62-.69-1.66-1.36-3.12a8.42,8.42,0,0,1-.83-3c0-1.75,1.52-3,4.52-3.75.32-.09.67-.18,1-.26,1.4-5.39,3.13-12.22,5.15-20.33a61.22,61.22,0,0,0-9.12-1,34.89,34.89,0,0,0-4.42.29c-3.06.44-4.49,2.41-4.49,6.18a29.38,29.38,0,0,0,1,6.89,2.73,2.73,0,0,1-.24,2.45,1.87,1.87,0,0,1-1.56.7,2.3,2.3,0,0,1-2.23-1.9,41.19,41.19,0,0,1-2.09-11.6,21.49,21.49,0,0,1,1-6.61C438,86.7,441.16,85,446.31,85a90.1,90.1,0,0,1,15.3,1.93c2.22-1.58,3.17-1.79,3.75-1.79A1.67,1.67,0,0,1,467,87,4.91,4.91,0,0,1,466.9,88c2.43.62,8.55,2,18.26,4.22a2.93,2.93,0,0,0,.62.08c.46,0,1.15-.13,1.81-1.27a2.48,2.48,0,0,1,2.08-1.28c.68,0,1.87.31,2.25,2.38a19.07,19.07,0,0,1,.41,3.26,3.47,3.47,0,0,1-.85,2.44c-.1.1-.17.17-2,1.58a4.68,4.68,0,0,1-2.88.88,9.24,9.24,0,0,1-2.27-.32c-5.74-1.46-12.33-2.81-19.61-4-1.89,7.69-3.35,13.75-4.35,18.07,3.68-.27,9.42-.61,17.07-1h.19c2.68,0,3.88,1.28,4.42,2.36a19.74,19.74,0,0,1,.91,3.55,6,6,0,0,1,.08.9c0,2.51-3.54,3.09-4.7,3.28a16,16,0,0,1-2.8.3h0c-.58,0-2.31,0-2.94-1.27-.21-.44-.58-.92-1.75-.92-6.38,0-10.59.12-12.52.34l-3.71,11.57a33.57,33.57,0,0,1-3.13,7.16,12.74,12.74,0,0,1-2,2.28h.72c5.37,0,14.37.56,26.75,1.67h.15c.23,0,.48,0,.61-.7s.46-2.38,1.91-2.49h.27a2.38,2.38,0,0,1,2.42,1.8c.34,1.46.78,3.33,1.33,5.67a2.94,2.94,0,0,1-1.17,3c-.77.6-1.44,1.14-2.08,1.68a3.62,3.62,0,0,1-2.32,1l-.24,0-2.93-.75a89.76,89.76,0,0,0-23.28-2.8c-3.42,0-7.12.14-11,.41C436.91,154.19,435.74,154.63,435,154.63Z"/><path d="M490.94,92.35a19,19,0,0,1,.39,3.08,2.51,2.51,0,0,1-.58,1.76c-.07.06-.7.55-1.91,1.46-1,.75-2.41.88-4.29.39q-9-2.3-20.61-4.2-3.31,13.48-4.88,20.32,5.37-.45,18.41-1.13c1.82,0,3,.57,3.66,1.81.09.19.37,1.3.83,3.32a6.22,6.22,0,0,1,.05.68c0,1.11-1.29,1.87-3.86,2.3q-4.11.73-4.69-.44a2.62,2.62,0,0,0-2.64-1.47q-10.83,0-13.28.44l-3.9,12.16a32.21,32.21,0,0,1-3,6.91,15.64,15.64,0,0,1-4.17,3.93c1.14-.06,2.38-.1,3.71-.1q8.06,0,26.66,1.66a1.57,1.57,0,0,0,1.83-1.49c.21-1.09.55-1.65,1-1.68a1.43,1.43,0,0,1,1.66,1.07l1.32,5.62a2.06,2.06,0,0,1-.88,2c-.71.55-1.4,1.11-2.05,1.66a2.63,2.63,0,0,1-1.76.78l-2.83-.73a90.29,90.29,0,0,0-23.53-2.83c-3.55,0-7.36.14-11.43.44q-4.1,3.56-5.13,3.56c-.55,0-.91-.42-1.07-1.27q-.93-4.59-.93-5.12a2.51,2.51,0,0,1,2.1-2.49,42.56,42.56,0,0,1,8.5-.88,100.45,100.45,0,0,0,7.91-18.7c-.2-.59-.7-1.76-1.52-3.52a7.94,7.94,0,0,1-.73-2.54c0-1.24,1.25-2.16,3.76-2.78.49-.13,1-.26,1.61-.39q2.25-8.59,5.57-22a67.33,67.33,0,0,0-10.35-1.22,35,35,0,0,0-4.54.3q-5.37.78-5.37,7.17a29.81,29.81,0,0,0,1.07,7.13c.32,1.27,0,1.91-.83,1.91-.62,0-1-.39-1.27-1.17a40.21,40.21,0,0,1-2.05-11.33,20.15,20.15,0,0,1,1-6.3q1.41-4.5,8.44-4.49a89.45,89.45,0,0,1,15.53,2c1.69-1.24,2.86-1.86,3.52-1.86.45,0,.68.3.68.88a5.77,5.77,0,0,1-.39,1.76q2,.58,19.29,4.49a3,3,0,0,0,3.51-1.66,1.51,1.51,0,0,1,1.22-.78C490.32,90.79,490.75,91.31,490.94,92.35Z"/></g></g></svg>