<svg xmlns="http://www.w3.org/2000/svg" viewBox="0 0 729.69 183.6"><defs><style>.cls-1,.cls-2,.cls-3,.cls-4,.cls-5{fill:none;stroke:#000;stroke-miterlimit:10;}.cls-1{stroke-width:10px;}.cls-2{stroke-width:6px;}.cls-3{stroke-width:5.03px;}.cls-4{stroke-width:3.42px;}.cls-5{stroke-width:3.15px;}</style></defs><g id="圖層_2" data-name="圖層 2"><g id="分店資訊"><path class="cls-1" d="M8.34,117.6c-3.11-18-2.29-36.1-2.91-53.82-.29-8.35-.87-16.64.14-24.9.21-1.9.5-3.79.87-5.69a45.56,45.56,0,0,1,1.15-5.41A47.82,47.82,0,0,1,11,18.52a22.55,22.55,0,0,1,3.95-5.91,22.88,22.88,0,0,1,7-4.73c.71-.3,1.41-.69,2.17-.94l2.29-.78a23.78,23.78,0,0,1,2.38-.63l1.21-.28A7.87,7.87,0,0,1,31.05,5c.71,0,1.61,0,2.45,0l2.54,0c1.69,0,3.37.07,5,.17C48.61,5.68,56.34,6.91,64,6.93a113.23,113.23,0,0,0,11.43-.59c2-.17,4-.36,6.25-.38a35.41,35.41,0,0,1,7.48.74"/><path class="cls-1" d="M606.55,101.43c-.08,2.1-.09,4.22,0,6.38a32.76,32.76,0,0,0,1,6.44,14.21,14.21,0,0,1,.48,2.68c0,.43,0,.87,0,1.41l0,1.54-.12,6.15-.15,6.12a25.93,25.93,0,0,1-.71,5.79,19.92,19.92,0,0,1-6.36,9.48,40.3,40.3,0,0,1-4.78,3.59c-1.66,1.1-3.45,2.09-5.21,3.14a37.23,37.23,0,0,1-5.32,2.74,32.64,32.64,0,0,1-5.73,1.61,118,118,0,0,1-12,1.47,111.77,111.77,0,0,1-12.14.3c-4-.1-8.13-.32-12.22-.29s-8.14.29-12.2.38q-12.17.38-24.29.49c-8.09.09-16.15.08-24.21-.08s-16.09-.43-24.13-.62c-7.56-.2-15.14-.26-22.68-.25s-15-.17-22.55-.45c-15-.55-30-1.49-44.92-2.37-6.87-.38-13.74-.73-20.64-1s-13.82-.34-20.72-.4c-13.93-.07-27.86.14-41.68.39l-18,.33q-9,.14-18.08.38-18.1.48-36.23,1.29l-36.27,1.68c-12.07.59-24.19.79-36.31.68-13.72-.13-27.55-.68-41.44-.89s-27.83.2-41.68.35l-5.18.06c-1.75,0-3.48.09-5.21.16-3.46.15-6.89.33-10.31.38a44,44,0,0,1-10.15-.72c-.83-.19-1.63-.49-2.45-.73a24.08,24.08,0,0,1-2.36-1A12.74,12.74,0,0,1,17.44,155a12.45,12.45,0,0,1-1.53-2.19,17,17,0,0,1-1-2.46,32.07,32.07,0,0,1-1.17-5.12c-.52-3.4-.84-6.81-1.3-10L12.25,134,12,132.73l-.48-2.45c-.33-1.63-.67-3.25-1-4.86C9.8,122.2,9,119,8.19,115.87"/><path class="cls-1" d="M86.62,6.24q21.9-.88,43.74-1c14.55-.08,29.07,0,43.54.45,7.24.21,14.43.47,21.62,1.16,7.24.53,14.45.8,21.65,1q21.6.69,43.05.87L300.48,9l20,.23,10,.15h1.27a5.47,5.47,0,0,0,.7,0l.69-.06,2.44-.17L338.09,9l2.47-.05,4.53-.07c1.52,0,3,0,4.55.06l4.55.11,4.56.23c6.08.24,12.17.63,18.25,1,12.29.77,24.64,1.68,37,2.2,21.47.94,42.93.6,64.41.51,5.37,0,10.74,0,16.11,0,2.69,0,5.37.07,8.06.12l3.94.08a3.67,3.67,0,0,1,.87.14l.92.21,2,.48c5.38,1,10.74,1.51,16.11,2l8.06.72,8.06.67,36.73,3.15,9.25.72,2.35.17,2.35-.13c1.53-.07,3-.07,4.56,0a19,19,0,0,1,4.29.69,7.67,7.67,0,0,1,3.61,2.15,8.3,8.3,0,0,1,1.9,3.73,23.49,23.49,0,0,1,.56,4.31c.13,3,0,6.07-.17,9.13s-.31,6.13-.47,9.18l-.09,2.28-.24,2.26c-.14,1.53-.29,3-.43,4.56-.27,3-.51,6.07-.69,9.09a233.21,233.21,0,0,0,.28,35.69"/><path class="cls-2" d="M610.15,114.3s.94-.46,2.73-1.18a70.81,70.81,0,0,1,7.82-2.57,69.33,69.33,0,0,1,11.89-2.2,24,24,0,0,1,6.77.21,15.94,15.94,0,0,1,6.36,3.2,33.32,33.32,0,0,1,2.91,2.59c.47.46.93.94,1.39,1.43l1.28,1.37c.83.93,1.92,1.93,2.06,3.31a3.84,3.84,0,0,1-1.85,3.31,22.19,22.19,0,0,1-3.56,2.06l-3.57,1.85c-2.37,1.22-4.66,2.46-7,3.57a34.75,34.75,0,0,1-7.29,2.64,20.72,20.72,0,0,1-7.54.29,36.07,36.07,0,0,1-6.35-1.53c-1.87-.6-3.49-1.2-4.9-1.69"/><path class="cls-2" d="M612.37,120.94s6.34.09,13.66-.42c3.67-.25,7.57-.64,11.06-1.18,1.73-.27,3.42-.56,4.8-.91a8.89,8.89,0,0,0,3.11-1.32"/><path class="cls-2" d="M611.47,134.13a10.44,10.44,0,0,1,1.63.1l.82.14a4,4,0,0,1,.67.16,1.92,1.92,0,0,1,.71.39,6,6,0,0,1,.79.83c.69.82,1.45,2,2.64,3.25a18.65,18.65,0,0,0,4,3.07c1.45.86,2.91,1.58,4.41,2.36l4.64,2.38c6.33,3.24,13.17,6.59,19.41,9.26a101.56,101.56,0,0,0,15.7,5.52"/><path class="cls-2" d="M636.77,147.2l3-1.65A30.55,30.55,0,0,1,643,144a28.49,28.49,0,0,1,4.48-1.53,9.16,9.16,0,0,1,2.34-.22,9.43,9.43,0,0,1,2.57.46,14.73,14.73,0,0,1,5.35,3.2,35.93,35.93,0,0,1,4.9,5.69c.79,1.09,1.57,2.21,2.35,3.36s1.4,2.13,2.12,3.21,1.34,2.14,2,3.33a1.37,1.37,0,0,1,.13,1,1.5,1.5,0,0,1-.58.73A8.56,8.56,0,0,1,667,164c-1.22.44-2.51.83-3.88,1.18s-2.86.64-4.3.88c-2.89.49-5.81.81-8.67,1.07l-4.26.37a38.23,38.23,0,0,1-4.31.18,16.77,16.77,0,0,1-4.38-.71,17.9,17.9,0,0,1-4-1.8,17.71,17.71,0,0,1-3.34-2.65,20.53,20.53,0,0,1-1.38-1.58,9.48,9.48,0,0,1-1.22-2,6.78,6.78,0,0,1-.44-1.13l-.26-1.17a16.91,16.91,0,0,1-.14-2.11c0-.63,0-1.26,0-1.83s.07-1.15.14-1.68c.23-2.15.54-4,.85-5.69"/><path class="cls-2" d="M593,151l-.38.83c-.22.55-.56,1.36-.88,2.43a21.89,21.89,0,0,0-.81,9.36,18.6,18.6,0,0,0,6.49,11.72,16.21,16.21,0,0,0,3.28,2.06,18.9,18.9,0,0,0,3.65,1.23,66.73,66.73,0,0,0,7.43,1.17l4,.51c.7.1,1.38.17,2,.22l.95.06a1.48,1.48,0,0,0,.94-.16,1.44,1.44,0,0,0,.51-.86c.1-.33.19-.66.27-1,.15-.67.28-1.35.39-2a29.81,29.81,0,0,0,.34-3.92,22.71,22.71,0,0,0-1-7.41,16.94,16.94,0,0,0-3.39-6.05,13.86,13.86,0,0,0-1.15-1.15,7.42,7.42,0,0,0-1.22-.91,17.58,17.58,0,0,0-2.76-1.3,50.88,50.88,0,0,0-5.87-1.74,71.89,71.89,0,0,0-9.92-1.6"/><path class="cls-2" d="M598.1,162a4.33,4.33,0,0,1,.47.13,6.87,6.87,0,0,1,1.41.64,20.43,20.43,0,0,1,2.23,1.54c.85.66,1.84,1.45,2.89,2.18a38,38,0,0,0,6.65,3.81,18.83,18.83,0,0,0,5.81,1.67"/><path class="cls-2" d="M649.94,96.06l.83-.2c.53-.13,1.33-.25,2.32-.43,2-.29,4.84-.6,8-.73,6.27-.3,13.63,0,17.53-.56"/><path class="cls-2" d="M726.77,99l-.45-1.16c-.31-.76-.78-1.87-1.5-3.26a31.72,31.72,0,0,0-3.07-4.84,25.33,25.33,0,0,0-5.53-5.28,31.37,31.37,0,0,0-8-3.87c-1.45-.5-2.94-.94-4.46-1.35s-3-.83-4.69-1.23c-3.26-.75-7-1.44-10.83-.67a14.16,14.16,0,0,0-5.42,2.34,15.82,15.82,0,0,0-4,4.29,17.8,17.8,0,0,0-2.6,11.2,23.59,23.59,0,0,0,1.2,5.6,20.7,20.7,0,0,0,2.5,5.08,12.06,12.06,0,0,0,4,3.73,17.3,17.3,0,0,0,5.12,1.68,44.83,44.83,0,0,0,10.55.81,36.31,36.31,0,0,0,5-.57c.8-.16,1.58-.34,2.35-.54l1.13-.32.9-.39a33.19,33.19,0,0,0,3.83-2.3c1.25-.84,2.44-1.73,3.59-2.59a127.08,127.08,0,0,0,11.23-9.74"/><path class="cls-2" d="M678.24,95.78l.22-.08c.14-.06.42-.12.75-.21a29.74,29.74,0,0,1,3.21-.57,86.09,86.09,0,0,1,11.2-.71c4.4,0,9.09,0,13.45.42a36.06,36.06,0,0,1,6.23,1.13c1.93.54,3.55,1.16,4.83,1.53"/><path class="cls-2" d="M638.57,108.59s1-.44,2.87-1.37c.93-.48,2-1.06,3.36-1.88.65-.4,1.36-.88,2.11-1.45a15,15,0,0,0,1.27-1.13,9.29,9.29,0,0,0,1.14-1.47c.16-.29.32-.59.46-.9s.24-.55.35-.82c.21-.55.39-1.1.54-1.64.32-1.1.52-2.14.76-3.25.45-2.2.82-4.58,1.08-7.09a71.28,71.28,0,0,0,.41-7.87l0-2.18c0-.84,0-1.67-.1-2.49-.1-1.62-.21-3.27-.43-4.77a76.33,76.33,0,0,0-18.73,2.54,41,41,0,0,0-15.29,7.64,28.65,28.65,0,0,0-8.6,11.66,20.39,20.39,0,0,0-1.29,5.64,18.82,18.82,0,0,0,.22,4.71"/><path class="cls-2" d="M615,108.94a18.63,18.63,0,0,1,2.38-4.87,39.21,39.21,0,0,1,3.86-4.95c1.62-1.8,3.53-3.7,5.53-5.69,8-8,16.92-17.23,20.75-22.41"/><path class="cls-3" d="M102.06,116.53s-1.08-2.27-3.19-6.13-5.32-9.32-8.92-16c-.88-1.69-1.74-3.36-2.5-5.24s-1.5-3.86-2.14-5.94a43.94,43.94,0,0,1-1.54-6.45,20.83,20.83,0,0,1-.27-3.32c0-.52,0-1.13.1-1.72s.07-1.2.15-1.79a36,36,0,0,1,4.54-14.18,31.68,31.68,0,0,1,4.79-6.25,23,23,0,0,1,6.43-4.8,17.31,17.31,0,0,1,3.83-1.38,27.3,27.3,0,0,1,12.53-.2,25.73,25.73,0,0,1,14.37,9,28.15,28.15,0,0,1,6,16,27.08,27.08,0,0,1-.07,4.32l-.12,1.08c-.07.38-.14.75-.22,1.09-.16.7-.34,1.38-.52,2.06-.74,2.7-1.55,5.34-2.4,7.93A71.45,71.45,0,0,1,130,92.31q-1.71,3.52-3.3,7c-2.13,4.55-4.13,8.94-6.19,13-1,2.06-2.07,4-3.23,6l-.5.8-.65,1a22.73,22.73,0,0,1-1.4,1.8,10.9,10.9,0,0,1-3.19,2.59,5,5,0,0,1-3.7.42,6.33,6.33,0,0,1-2.87-2.07,12.59,12.59,0,0,1-1.87-3.22c-.23-.61-.49-1.2-.66-1.82l-.29-.92-.21-.72"/><path class="cls-4" d="M111.21,77.89l-1.55-.21-1.82-.26-2-.34a1.45,1.45,0,0,1-.67-.43,7,7,0,0,1-.81-1,14.13,14.13,0,0,1-.81-1.25,6.17,6.17,0,0,1-.58-1.26,11.5,11.5,0,0,1-.17-1.73c0-.64,0-1.31,0-2s.05-1.36.12-2a4,4,0,0,1,.44-1.81,7.95,7.95,0,0,1,6.52-3.84,6.65,6.65,0,0,1,4.07.79,5.44,5.44,0,0,1,1.6,1.46,5.32,5.32,0,0,1,.57.95c.14.33.27.65.37,1a13.54,13.54,0,0,1,.66,3.92,12.16,12.16,0,0,1-.09,1.91,6.76,6.76,0,0,1-.5,2,7.09,7.09,0,0,1-2.45,3,6.39,6.39,0,0,1-3.51,1.09"/><path class="cls-3" d="M117.86,44l3.44.34a51.82,51.82,0,0,1,8.89,1.63,15.59,15.59,0,0,1,5.13,2.38l.52.45a3.91,3.91,0,0,1,.55.54l1.16,1.3L138.66,52c.37.48.7,1,1.07,1.49a27,27,0,0,1,4.84,15,37.27,37.27,0,0,1-.22,4.33c-.2,1.4-.54,2.88-.86,4.33-.67,2.92-1.41,5.85-2.24,8.74-.42,1.44-.86,2.88-1.38,4.29a22.68,22.68,0,0,1-.9,2.09c-.31.67-.64,1.32-.94,2-1.21,2.66-2.29,5.33-3.34,7.94s-2.07,5.16-3.13,7.59c-.52,1.22-1.07,2.41-1.63,3.57-.3.57-.55,1.15-.87,1.7l-.45.84-.23.41-.12.21-.17.26c-.46.68-.91,1.39-1.39,2.05s-1,1.24-1.55,1.84-1.11,1-1.67,1.52-1.16.85-1.74,1.21a10.05,10.05,0,0,1-3.41,1.34,4.75,4.75,0,0,1-1.64,0,3.49,3.49,0,0,1-1.47-.62"/><path class="cls-5" d="M112.24,62.45A15.84,15.84,0,0,0,110.5,64a10.73,10.73,0,0,0-2.88,4.55,9,9,0,0,0,.48,5.68,8,8,0,0,0,2.52,3.33"/><path class="cls-2" d="M229.05,65.59s-2.13,3.84-4.74,8.38-5.73,9.78-6.85,13"/><path class="cls-2" d="M237,63.73a7.69,7.69,0,0,1,1.12-.18,34.75,34.75,0,0,1,3.72-.17,32.37,32.37,0,0,0,6.23-.62A30.45,30.45,0,0,0,255,60.49c.47-.23.95-.5,1.47-.78a4.66,4.66,0,0,1,1.68-.62,2.41,2.41,0,0,1,1.67.47,6,6,0,0,1,1.26,1.25c1.54,2,3.05,4,4.56,5.82,3,3.6,6.08,6.2,8.34,7.31"/><path class="cls-2" d="M230.53,89l9.87-.92,10.54-1,6.13-.62,3.21-.33,2.75-.33c.49,0,1-.13,1.5-.14a1.25,1.25,0,0,1,1.23.68,5.88,5.88,0,0,1,.26,1.4c.07.48.13,1,.18,1.48.12,1,.21,2.09.29,3.25s.13,2.29.18,3.43a110.8,110.8,0,0,1-.37,13.47c-.09,1.08-.21,2.14-.32,3.19l-.19,1.56c-.07.52-.21,1.22-.3,1.83a7.62,7.62,0,0,1-1.32,3.57,5.72,5.72,0,0,1-3.11,1.87c-.6.13-1.19.32-1.81.4s-1.28.21-1.71.26a26.52,26.52,0,0,1-2.75.22,29.77,29.77,0,0,1-4.87-.25"/><path class="cls-2" d="M240.56,88.94s.05.38.07,1.06v1.24a13.83,13.83,0,0,1-.05,1.66,35.91,35.91,0,0,1-1.9,9.51,43.81,43.81,0,0,1-5.42,10.67,66.94,66.94,0,0,1-6.52,7.78"/><path class="cls-2" d="M293.92,67l.26-.15a8.3,8.3,0,0,1,.79-.39,13.52,13.52,0,0,1,3.54-.88,41.59,41.59,0,0,1,6.15-.17c2.41.08,5.16.11,7.92,0a83.61,83.61,0,0,0,16.49-2.31,53.52,53.52,0,0,0,12-4.37"/><path class="cls-2" d="M288.28,66.83s1.09,8.53,2.63,18.43c.77,5,1.65,10.25,2.57,15s1.86,9.13,2.45,12"/><path class="cls-2" d="M313.37,52.41a3.24,3.24,0,0,1,.75.3,5.27,5.27,0,0,1,1.7,1.51,9,9,0,0,1,1.45,3.05,23,23,0,0,1,.59,3.61"/><path class="cls-2" d="M317.77,68.39a95.51,95.51,0,0,0,1.48,9.46c1,5,2.76,10.65,4.51,13.31"/><path class="cls-2" d="M322.79,82.22s4.21-1.6,9.44-3.13c2.61-.78,5.47-1.54,8.1-2.23a65.62,65.62,0,0,0,6.68-2"/><path class="cls-2" d="M303.52,95.2s.94,3.72,1.94,8.24,2.05,9.87,3.24,12.72"/><path class="cls-2" d="M311.05,97.73a11.05,11.05,0,0,1,1.37-.42,34.39,34.39,0,0,1,4.59-.64c4.17-.43,9.88-1,16-1.75l9.4-1.14c.83-.1,1.7-.21,2.56-.27.44,0,.87-.07,1.3-.07a1.36,1.36,0,0,1,1.12.48A2.68,2.68,0,0,1,347.8,95l.23,1.14c.16.77.24,1.64.36,2.5.22,1.91.44,3.13.66,4.55l.63,3.93c.42,2.49.79,4.7,1.12,6.49"/><path class="cls-2" d="M308.23,120.64a3.38,3.38,0,0,1,.84-.54l1.07-.59,1.58-.61a43,43,0,0,1,10.51-1.77c4.27-.33,8.93-.55,13-1.14a31,31,0,0,0,9.56-2.62"/><path class="cls-2" d="M359.39,53.77s9.07,8.11,13.92,9.64"/><path class="cls-2" d="M354.15,76.58a40.49,40.49,0,0,0,6.31,0c3.4-.24,7.19-1.1,9.15-2.42"/><path class="cls-2" d="M380.25,54.74s.07,2.49,0,5.65-.47,7-.17,9.41"/><path class="cls-2" d="M384.12,62.3s4.56-.76,10.5-1.65,13.25-2,18.46-3.28l1.8-.46-.19,4.78a19.55,19.55,0,0,0,.24,3.2"/><path class="cls-2" d="M395.57,65.27s-1.71,2.89-4,6.31-5.29,7.33-6.56,9.91"/><path class="cls-2" d="M394.55,71.22l2.18,1.8a23.27,23.27,0,0,0,2.69,1.92A16.16,16.16,0,0,0,403,76.52a19.57,19.57,0,0,0,7.69.6,20,20,0,0,0,5.9-1.49"/><path class="cls-2" d="M372,88.23s11.41-1,24.67-2.47l10.14-1.16,5.27-.63a23.06,23.06,0,0,1,2.86-.16,2.72,2.72,0,0,1,1.34.36,2.61,2.61,0,0,1,.91,1,8.14,8.14,0,0,1,.75,2.5c.17.9.25,1.87.36,2.83l.08.69.09.54.16,1.07.33,2c.44,2.66.88,5,1.32,6.82"/><path class="cls-2" d="M376.19,99.46s6.38-.61,13.68-1.92,15.51-3.33,19.41-5.24"/><path class="cls-2" d="M379.86,107.41s21.87-4.47,28.85-8.12"/><path class="cls-2" d="M381.08,116s6.83-1,14.66-2.63,16.61-4.08,20.77-6.18"/><path class="cls-2" d="M404.83,115.44a50.15,50.15,0,0,1,5.87,2.24c1.61.72,3.35,1.6,5,2.47a46.12,46.12,0,0,0,4.43,2.2"/><path class="cls-2" d="M390.82,117.36s-1.81,2-3.68,4.7-3.79,5.91-4.25,8.22"/><path class="cls-2" d="M435.88,54.79a45.82,45.82,0,0,1,5.28,2.56c1.45.81,3,1.79,4.48,2.75a43.85,43.85,0,0,0,4,2.44"/><path class="cls-2" d="M434.91,74.83s4.16-.43,9.2-.74,10.95-.46,14.17-1.15"/><path class="cls-2" d="M439.4,84.93l5.82.1c3.21,0,7,.1,9.4-.49"/><path class="cls-2" d="M439.41,98.29s10.59-.93,14.64-3.35"/><path class="cls-2" d="M441.17,109.66s.49-.15,1.37-.37a28.83,28.83,0,0,1,3.7-.66,32.83,32.83,0,0,1,5.35-.16,19.92,19.92,0,0,1,2.94.3,5.22,5.22,0,0,1,1.6.54,2.31,2.31,0,0,1,1.06,1.21,5.42,5.42,0,0,1,.31,1.65c0,.58.06,1.18.05,1.81l0,1.9,0,1.62c0,2.12-.11,4-.08,5.47"/><path class="cls-2" d="M439.37,114.3l-.53,2.94c-.28,1.2-.65,2.67-.9,4.05a13,13,0,0,0-.16,2,4.16,4.16,0,0,0,.27,1.88,1.75,1.75,0,0,0,.78.79,4,4,0,0,0,1.15.35,13.27,13.27,0,0,0,2.42.21,13.85,13.85,0,0,0,4-.58c.48-.18,1.07-.37,1.61-.59a11.68,11.68,0,0,0,1.46-.72,8.41,8.41,0,0,0,2.09-1.61"/><path class="cls-2" d="M459.6,104.56s13.23-10.5,16.55-15.88"/><path class="cls-2" d="M469,73l-.09.44c-.05.28-.16.69-.23,1.22l-.26,1.94c-.1.75-.2,1.6-.25,2.53a87.94,87.94,0,0,0,.17,14c.4,5.28,1,10.85,1.4,16a120.41,120.41,0,0,1,.21,13.1"/><path class="cls-2" d="M374.85,86.56s-.32,1.5-.73,3.94a58.21,58.21,0,0,0-.85,9.49,49.32,49.32,0,0,0,1.48,10.72c.81,3.28,2,6.07,3.14,7.37"/><path class="cls-2" d="M460.81,62.39s1.71.09,4.88.49l5.79.75c1.13.14,2.35.29,3.65.41a28.52,28.52,0,0,0,3.55.19c.49,0,1,0,1.56-.1a.68.68,0,0,1,.4,0,.55.55,0,0,1,.24.3c.09.24.15.49.24.75.15.51.33,1,.49,1.62l.11.45.15.64.3,1.29c.73,3.51,1.32,7.3,1.82,11.24,1,7.88,1.7,16.41,3.42,24.45.42,2,.94,4,1.48,5.91l.9,2.83c.3.89.6,1.56.89,2.29a9.78,9.78,0,0,0,2.1,3.52,1.5,1.5,0,0,0,1.81.25,4.88,4.88,0,0,0,1.44-1.42,10.27,10.27,0,0,0,1-1.58l.73-1.45.91-1.72c.38-.68.76-1.35,1.12-2,1.43-2.61,2.68-5,3.68-7"/></g></g></svg>