<svg xmlns="http://www.w3.org/2000/svg" viewBox="0 0 729.69 183.6"><defs><style>.cls-1,.cls-10,.cls-11,.cls-2,.cls-3,.cls-4,.cls-5,.cls-6,.cls-7,.cls-8,.cls-9{fill:none;stroke:#000;stroke-miterlimit:10;}.cls-1{stroke-width:10px;}.cls-2{stroke-width:6px;}.cls-3{stroke-width:3.43px;}.cls-4{stroke-width:2.75px;}.cls-5{stroke-width:2.98px;}.cls-6{stroke-width:2.29px;}.cls-7{stroke-width:6.14px;}.cls-8{stroke-width:5.43px;}.cls-9{stroke-width:6.08px;}.cls-10{stroke-width:5.33px;}.cls-11{stroke-width:5.95px;}</style></defs><g id="圖層_2" data-name="圖層 2"><g id="周邊商品-購物車"><path class="cls-1" d="M8.34,117.6c-3.11-18-2.29-36.1-2.91-53.82-.29-8.35-.87-16.64.14-24.9.21-1.9.5-3.79.87-5.69a45.56,45.56,0,0,1,1.15-5.41A47.82,47.82,0,0,1,11,18.52a22.55,22.55,0,0,1,3.95-5.91,22.88,22.88,0,0,1,7-4.73c.71-.3,1.41-.69,2.17-.94l2.29-.78a23.78,23.78,0,0,1,2.38-.63l1.21-.28A7.87,7.87,0,0,1,31.05,5c.71,0,1.61,0,2.45,0l2.54,0c1.69,0,3.37.07,5,.17C48.61,5.68,56.34,6.91,64,6.93a113.23,113.23,0,0,0,11.43-.59c2-.17,4-.36,6.25-.38a35.41,35.41,0,0,1,7.48.74"/><path class="cls-1" d="M606.55,101.43c-.08,2.1-.09,4.22,0,6.38a32.76,32.76,0,0,0,1,6.44,14.21,14.21,0,0,1,.48,2.68c0,.43,0,.87,0,1.41l0,1.54-.12,6.15-.15,6.12a25.93,25.93,0,0,1-.71,5.79,19.92,19.92,0,0,1-6.36,9.48,40.3,40.3,0,0,1-4.78,3.59c-1.66,1.1-3.45,2.09-5.21,3.14a37.23,37.23,0,0,1-5.32,2.74,32.64,32.64,0,0,1-5.73,1.61,118,118,0,0,1-12,1.47,111.77,111.77,0,0,1-12.14.3c-4-.1-8.13-.32-12.22-.29s-8.14.29-12.2.38q-12.17.38-24.29.49c-8.09.09-16.15.08-24.21-.08s-16.09-.43-24.13-.62c-7.56-.2-15.14-.26-22.68-.25s-15-.17-22.55-.45c-15-.55-30-1.49-44.92-2.37-6.87-.38-13.74-.73-20.64-1s-13.82-.34-20.72-.4c-13.93-.07-27.86.14-41.68.39l-18,.33q-9,.14-18.08.38-18.1.48-36.23,1.29l-36.27,1.68c-12.07.59-24.19.79-36.31.68-13.72-.13-27.55-.68-41.44-.89s-27.83.2-41.68.35l-5.18.06c-1.75,0-3.48.09-5.21.16-3.46.15-6.89.33-10.31.38a44,44,0,0,1-10.15-.72c-.83-.19-1.63-.49-2.45-.73a24.08,24.08,0,0,1-2.36-1A12.74,12.74,0,0,1,17.44,155a12.45,12.45,0,0,1-1.53-2.19,17,17,0,0,1-1-2.46,32.07,32.07,0,0,1-1.17-5.12c-.52-3.4-.84-6.81-1.3-10L12.25,134,12,132.73l-.48-2.45c-.33-1.63-.67-3.25-1-4.86C9.8,122.2,9,119,8.19,115.87"/><path class="cls-1" d="M86.62,6.24q21.9-.88,43.74-1c14.55-.08,29.07,0,43.54.45,7.24.21,14.43.47,21.62,1.16,7.24.53,14.45.8,21.65,1q21.6.69,43.05.87L300.48,9l20,.23,10,.15h1.27a5.47,5.47,0,0,0,.7,0l.69-.06,2.44-.17L338.09,9l2.47-.05,4.53-.07c1.52,0,3,0,4.55.06l4.55.11,4.56.23c6.08.24,12.17.63,18.25,1,12.29.77,24.64,1.68,37,2.2,21.47.94,42.93.6,64.41.51,5.37,0,10.74,0,16.11,0,2.69,0,5.37.07,8.06.12l3.94.08a3.67,3.67,0,0,1,.87.14l.92.21,2,.48c5.38,1,10.74,1.51,16.11,2l8.06.72,8.06.67,36.73,3.15,9.25.72,2.35.17,2.35-.13c1.53-.07,3-.07,4.56,0a19,19,0,0,1,4.29.69,7.67,7.67,0,0,1,3.61,2.15,8.3,8.3,0,0,1,1.9,3.73,23.49,23.49,0,0,1,.56,4.31c.13,3,0,6.07-.17,9.13s-.31,6.13-.47,9.18l-.09,2.28-.24,2.26c-.14,1.53-.29,3-.43,4.56-.27,3-.51,6.07-.69,9.09a233.21,233.21,0,0,0,.28,35.69"/><path class="cls-2" d="M610.15,114.3s.94-.46,2.73-1.18a70.81,70.81,0,0,1,7.82-2.57,69.33,69.33,0,0,1,11.89-2.2,24,24,0,0,1,6.77.21,15.94,15.94,0,0,1,6.36,3.2,33.32,33.32,0,0,1,2.91,2.59c.47.46.93.94,1.39,1.43l1.28,1.37c.83.93,1.92,1.93,2.06,3.31a3.84,3.84,0,0,1-1.85,3.31,22.19,22.19,0,0,1-3.56,2.06l-3.57,1.85c-2.37,1.22-4.66,2.46-7,3.57a34.75,34.75,0,0,1-7.29,2.64,20.72,20.72,0,0,1-7.54.29,36.07,36.07,0,0,1-6.35-1.53c-1.87-.6-3.49-1.2-4.9-1.69"/><path class="cls-2" d="M612.37,120.94s6.34.09,13.66-.42c3.67-.25,7.57-.64,11.06-1.18,1.73-.27,3.42-.56,4.8-.91a8.89,8.89,0,0,0,3.11-1.32"/><path class="cls-2" d="M611.47,134.13a10.44,10.44,0,0,1,1.63.1l.82.14a4,4,0,0,1,.67.16,1.92,1.92,0,0,1,.71.39,6,6,0,0,1,.79.83c.69.82,1.45,2,2.64,3.25a18.65,18.65,0,0,0,4,3.07c1.45.86,2.91,1.58,4.41,2.36l4.64,2.38c6.33,3.24,13.17,6.59,19.41,9.26a101.56,101.56,0,0,0,15.7,5.52"/><path class="cls-2" d="M636.77,147.2l3-1.65A30.55,30.55,0,0,1,643,144a28.49,28.49,0,0,1,4.48-1.53,9.16,9.16,0,0,1,2.34-.22,9.43,9.43,0,0,1,2.57.46,14.73,14.73,0,0,1,5.35,3.2,35.93,35.93,0,0,1,4.9,5.69c.79,1.09,1.57,2.21,2.35,3.36l2.12,3.21c.65,1,1.34,2.14,2,3.33a1.37,1.37,0,0,1,.13,1,1.5,1.5,0,0,1-.58.73A8.56,8.56,0,0,1,667,164c-1.22.44-2.51.83-3.88,1.18s-2.86.63-4.3.88c-2.89.49-5.81.81-8.67,1.07l-4.26.37a38.23,38.23,0,0,1-4.31.18,16.77,16.77,0,0,1-4.38-.71,17.9,17.9,0,0,1-4-1.8,17.71,17.71,0,0,1-3.34-2.65,20.53,20.53,0,0,1-1.38-1.58,9.48,9.48,0,0,1-1.22-2,6.78,6.78,0,0,1-.44-1.13l-.26-1.17a16.91,16.91,0,0,1-.14-2.11c0-.63,0-1.26,0-1.83s.07-1.15.14-1.68c.23-2.15.54-4,.85-5.69"/><path class="cls-2" d="M593,151l-.38.83c-.22.55-.56,1.36-.88,2.43a21.89,21.89,0,0,0-.81,9.36,18.6,18.6,0,0,0,6.49,11.72,16.21,16.21,0,0,0,3.28,2.06,18.9,18.9,0,0,0,3.65,1.23,66.73,66.73,0,0,0,7.43,1.17l4,.51c.7.1,1.38.17,2,.22l.95.06a1.48,1.48,0,0,0,.94-.16,1.44,1.44,0,0,0,.51-.86c.1-.33.19-.66.27-1,.15-.67.28-1.35.39-2a29.81,29.81,0,0,0,.34-3.92,22.71,22.71,0,0,0-1-7.41,16.94,16.94,0,0,0-3.39-6.05,13.86,13.86,0,0,0-1.15-1.15,7.42,7.42,0,0,0-1.22-.91,17.58,17.58,0,0,0-2.76-1.3,50.88,50.88,0,0,0-5.87-1.74,71.89,71.89,0,0,0-9.92-1.6"/><path class="cls-2" d="M598.1,162a4.33,4.33,0,0,1,.47.13,6.87,6.87,0,0,1,1.41.64,20.43,20.43,0,0,1,2.23,1.54c.85.66,1.84,1.45,2.89,2.18a38,38,0,0,0,6.65,3.81,18.83,18.83,0,0,0,5.81,1.67"/><path class="cls-2" d="M649.94,96.06l.83-.2c.53-.13,1.33-.25,2.32-.43,2-.29,4.84-.6,8-.73,6.27-.3,13.63,0,17.53-.56"/><path class="cls-2" d="M726.77,99l-.45-1.16c-.31-.76-.78-1.87-1.5-3.26a31.72,31.72,0,0,0-3.07-4.84,25.33,25.33,0,0,0-5.53-5.28,31.37,31.37,0,0,0-8-3.87c-1.45-.5-2.94-.94-4.46-1.35s-3-.83-4.69-1.23c-3.26-.75-7-1.44-10.83-.67a14.16,14.16,0,0,0-5.42,2.34,15.82,15.82,0,0,0-4,4.29,17.8,17.8,0,0,0-2.6,11.2,23.59,23.59,0,0,0,1.2,5.6,20.7,20.7,0,0,0,2.5,5.08,12.06,12.06,0,0,0,4,3.73,17.3,17.3,0,0,0,5.12,1.68,44.83,44.83,0,0,0,10.55.81,36.31,36.31,0,0,0,5-.57c.8-.16,1.58-.34,2.35-.54l1.13-.32.9-.39a33.19,33.19,0,0,0,3.83-2.3c1.25-.84,2.44-1.73,3.59-2.59a127.08,127.08,0,0,0,11.23-9.74"/><path class="cls-2" d="M678.24,95.78l.22-.08c.14-.06.42-.12.75-.21a29.74,29.74,0,0,1,3.21-.57,86.09,86.09,0,0,1,11.2-.71c4.4,0,9.09,0,13.45.42a36.06,36.06,0,0,1,6.23,1.13c1.93.54,3.55,1.16,4.83,1.53"/><path class="cls-2" d="M638.57,108.59s1-.44,2.87-1.37c.93-.48,2-1.06,3.36-1.88.65-.4,1.36-.88,2.11-1.45a15,15,0,0,0,1.27-1.13,9.29,9.29,0,0,0,1.14-1.47c.16-.29.32-.59.46-.9s.24-.55.35-.82c.21-.55.39-1.1.54-1.64.32-1.1.52-2.14.76-3.25.45-2.2.82-4.58,1.08-7.09a71.28,71.28,0,0,0,.41-7.87l0-2.18c0-.84,0-1.67-.1-2.49-.1-1.62-.21-3.27-.43-4.77a76.33,76.33,0,0,0-18.73,2.54,41,41,0,0,0-15.29,7.64,28.65,28.65,0,0,0-8.6,11.66,20.39,20.39,0,0,0-1.29,5.64,18.82,18.82,0,0,0,.22,4.71"/><path class="cls-2" d="M615,108.94a18.63,18.63,0,0,1,2.38-4.87,39.21,39.21,0,0,1,3.86-4.95c1.62-1.8,3.53-3.7,5.53-5.69,8-8,16.92-17.23,20.75-22.41"/><path class="cls-3" d="M83,73.1s7.49-1,19.41-2.17l20.8-2,11.83-1.18,1.28-.14a3.59,3.59,0,0,1,.7,1,5.55,5.55,0,0,1,.57,2.55,36.62,36.62,0,0,1-.89,6.33c-1.59,8.66-3.23,17.63-4.86,26.51-.11.56-.2,1.13-.33,1.7a1.32,1.32,0,0,1-.44.73,2.06,2.06,0,0,1-.79.34c-.56.13-1.14.17-1.72.25l-1.67.2-6.63.81-12.87,1.59-3.14.39a5.05,5.05,0,0,1-3.64-.64,3.4,3.4,0,0,1-1.06-1.55c-.11-.3-.2-.6-.3-.92L99,106.1l-.91-2.81c-1.24-3.71-2.5-7.23-3.7-10.55-2.41-6.62-4.6-12.4-6.34-17"/><path class="cls-3" d="M136.62,73.5s.07-.84.19-2.35.34-3.67.71-6.29c.18-1.31.41-2.72.71-4.2.16-.74.33-1.5.55-2.24.1-.38.23-.73.36-1.09s.33-.82.46-1.24c.62-1.69,1-3.45,1.66-5.09a13.17,13.17,0,0,1,2.9-4.49c.23-.32.61-.39,1-.58l1.18-.49,2.41-.94a5.59,5.59,0,0,1,2.52-.19,10.83,10.83,0,0,1,2.57.4,5.94,5.94,0,0,1,2.3,1.31,8.94,8.94,0,0,1,1,1l.45.56c.13.19.24.4.36.61a3,3,0,0,1,.14,2.72,5.06,5.06,0,0,1-2,2,9.14,9.14,0,0,1-1.26.62c-.38.17-.77.31-1.15.45s-.76.26-1.13.37l-1.2.29a14.25,14.25,0,0,1-4.69.07,29.41,29.41,0,0,1-7-2.27"/><path class="cls-3" d="M96.83,71.92s7.48,27.85,11.13,36.57"/><path class="cls-3" d="M104.24,70.61s7.45,27.92,11.09,36.66"/><path class="cls-3" d="M114.22,69.93s4.9,28.61,7.74,37.69"/><path class="cls-3" d="M125,69.26s.79,28.17,2.32,37.29"/><path class="cls-3" d="M98.11,102.39s26.74-3.51,35.27-5.9"/><path class="cls-3" d="M95.06,94s30.24-6,39.81-9.13"/><path class="cls-3" d="M91.32,81.93s35.28-5,46.52-7.84"/><path class="cls-4" d="M107.3,125.63a1,1,0,0,1-.08-.22,6.19,6.19,0,0,1-.15-.71,9.13,9.13,0,0,1,.12-3,11.18,11.18,0,0,1,1.67-4.2,10.62,10.62,0,0,1,4.23-3.71,15.09,15.09,0,0,1,6.15-1.54,14.9,14.9,0,0,1,3.26.26,7.67,7.67,0,0,1,3,1.26c.91.66,1.58,1.45,2.25,1.88a14,14,0,0,1,1.14,1l1,1,3.12,3.14"/><path class="cls-5" d="M109.64,125.54l-1.56.12c-.51,0-1.14.07-1.88.15A11.34,11.34,0,0,0,105,126a4.18,4.18,0,0,0-1.56.64,2.84,2.84,0,0,0-.44.42,2.57,2.57,0,0,0-.26.41,2.69,2.69,0,0,0-.3.92,2.52,2.52,0,0,0,.47,1.94,2.83,2.83,0,0,0,1.56.93,6.13,6.13,0,0,0,1.58.15,7.14,7.14,0,0,0,3-.74,5.5,5.5,0,0,0,2.21-1.68,3.17,3.17,0,0,0,.51-1.79A1.68,1.68,0,0,0,111,126a2,2,0,0,0-1.09-.36,6.81,6.81,0,0,0-1.19,0"/><path class="cls-5" d="M132.38,121.05l-.89.25c-.6.17-1.49.35-2.73.8a4.2,4.2,0,0,0-2.1,1.59,3.7,3.7,0,0,0-.33.82,4.57,4.57,0,0,0,0,.82c0,.24.08.49.13.72l.24.63.07.17a1.6,1.6,0,0,0,.18.29,1.52,1.52,0,0,0,.38.38,2.83,2.83,0,0,0,.69.38,6.75,6.75,0,0,0,1.26.34,6.94,6.94,0,0,0,3.87-.38c.42-.14.8-.3,1.19-.46a7.64,7.64,0,0,0,2.22-1.18,3.54,3.54,0,0,0,1-2.09,3.28,3.28,0,0,0-.26-2,1.64,1.64,0,0,0-.57-.65,1.67,1.67,0,0,0-.79-.23l-.38,0h-.4c-.32,0-.63,0-.93,0a10,10,0,0,0-3,.62"/><path class="cls-6" d="M103.49,110.33l1.77.75,2,.86c.39.15.85.33,1.31.47a4.61,4.61,0,0,0,1.67.27l.84-.05.78-.09,1.61-.19,3.38-.42,3.45-.45c1.14-.15,2.24-.39,3.26-.57a13.43,13.43,0,0,0,1.76-1c.58-.35,1.13-.7,1.64-1,1-.68,1.91-1.3,2.58-1.83"/><path class="cls-7" d="M238.86,118.92l.43-2.64c.27-1.73.68-4.25,1.11-7.48s.9-7.17,1.11-11.74a83.17,83.17,0,0,0-.72-15.27c-.38-2.75-.89-5.59-1.58-8.48-.33-1.44-.72-2.9-1.14-4.37-.22-.73-.43-1.46-.68-2.2l-.34-1-.29-.83a10.6,10.6,0,0,1-.51-1.63,2.75,2.75,0,0,1,.13-1.7,2.66,2.66,0,0,1,1.23-1.18,12.73,12.73,0,0,1,1.65-.69c.29-.09.58-.2.87-.27s.71-.2,1.07-.27c.74-.18,1.5-.32,2.27-.43,1.54-.22,3.13-.34,4.75-.41,3.23-.12,6.59,0,10-.14s6.78-.31,10.18-.65,6.78-.79,10.14-1.37,6.72-1.27,10.36-2.13c.9,11.33,1.78,22.42,2.6,32.7.43,5.08.84,10,1.22,14.56l.6,6.68.08.75.09.76.1.82.1,1.14a14,14,0,0,1-.24,4.41,8.75,8.75,0,0,1-.3.86c-.13.28-.28.55-.42.82a6.24,6.24,0,0,1-1.22,1.34,8.56,8.56,0,0,1-3.15,1.57,19,19,0,0,1-3.53.6l-1.24.14c-.34,0-.65.08-1,.14s-.87.06-1.26.07h-1l-1.68-.08"/><path class="cls-7" d="M259.62,62.36l.54,1.75c.34,1.12.79,2.65,1.29,4.32,1,3.39,2.41,7.32,4.08,9.11"/><path class="cls-7" d="M248.66,74A11,11,0,0,1,251,72.77a59.08,59.08,0,0,1,7.15-2c5.79-1.47,12.22-3.69,15.23-5.69"/><path class="cls-7" d="M247,85.62s1.53-.21,3.88-.71a84.77,84.77,0,0,0,8.79-2.38c3.3-1.06,6.74-2.36,9.82-3.65A50.76,50.76,0,0,0,277,75.19"/><path class="cls-7" d="M252,96.93l.44-.3c.3-.19.7-.53,1.29-.86a29.36,29.36,0,0,1,5.17-2.44,56,56,0,0,1,8.15-2.24c1.53-.33,3.13-.61,4.75-.9l5-.84c1-.17,2.08-.3,3.14-.38a2.91,2.91,0,0,1,.78,0,.77.77,0,0,1,.58.41,6.6,6.6,0,0,1,.34,1.23c.45,1.63.56,3.89.88,5.88a35.44,35.44,0,0,0,2.16,7.66"/><path class="cls-7" d="M249.16,97s.1.41.24,1.19.31,2,.53,3.49l.41,2.77a21.34,21.34,0,0,0,.8,3.54,11.15,11.15,0,0,0,.67,1.63,4.25,4.25,0,0,0,1,1.41,2.17,2.17,0,0,0,1.79.39c.66-.07,1.3-.13,2-.25,1.34-.28,2.6-.6,3.77-1s2.2-.7,3.28-1.09c2.16-.76,4.26-1.6,6.22-2.44a67.53,67.53,0,0,0,9.47-4.88"/><path class="cls-8" d="M301.39,63.63a7.21,7.21,0,0,1,.8-.18,9.88,9.88,0,0,1,2.15-.14,15.18,15.18,0,0,1,3,.41c1.05.24,2.09.57,3,.77"/><path class="cls-8" d="M297.57,77.63a4,4,0,0,1,.8-.27,7,7,0,0,1,2.34-.09,10.67,10.67,0,0,1,3.24,1,29.24,29.24,0,0,1,3,1.83"/><path class="cls-9" d="M300.38,94.41l.29-.17.16-.09.11-.08.29-.18a8.77,8.77,0,0,1,2.35-1,10.55,10.55,0,0,1,1.31-.25c.24,0,.55-.05.66.14a3.11,3.11,0,0,1,.22.56l1,3a69.18,69.18,0,0,1,2.34,10.14,21.53,21.53,0,0,1,0,5.38c-.12,1.38.47,2.76.38,4.88a10.28,10.28,0,0,1-.66,2.84c-.3.84-.65,1.58-.95,2.23-.59,1.28-1,2.3-1.36,3.26"/><path class="cls-8" d="M313.9,119.65s.21-.05.61-.1a9.8,9.8,0,0,1,1.8-.08,14.68,14.68,0,0,1,6.57,2,11.77,11.77,0,0,0,5.3,1.42,40.61,40.61,0,0,0,5.29,0,91.53,91.53,0,0,0,10.64-1.36A90.35,90.35,0,0,0,360.9,117"/><path class="cls-8" d="M321.87,50.08a.29.29,0,0,1,.14,0,2.39,2.39,0,0,1,.53-.09,10.3,10.3,0,0,1,2.87.36c.69.15,1.52.36,2.47.53a29.12,29.12,0,0,0,2.94.37,44.48,44.48,0,0,0,6.41-.07c2.22-.15,4.39-.4,6.7-.55.6,0,1.21-.06,1.84-.06a3.07,3.07,0,0,1,1.76.45,2.7,2.7,0,0,1,.91,1.43,12.16,12.16,0,0,1,.35,1.68c.09.59.14,1.2.19,1.82l.11,1.77c.08,1,.13,2,.17,2.92.07,1.86.09,3.52.09,4.92"/><path class="cls-8" d="M317.83,54.05a12.9,12.9,0,0,1,.48,1.31c.29.89.69,2.28,1.05,4l.22,1.11a1.75,1.75,0,0,1,0,.46v.25l-.05.37c-.13,1-.31,2.11-.53,3.24,0,.24-.17.71-.26,1.07L318.45,67c-.22.75-.43,1.5-.57,2.21a13.4,13.4,0,0,0-.31,2,2.78,2.78,0,0,0,.49,2,1.6,1.6,0,0,0,1,.54,6.91,6.91,0,0,0,1.12,0c.76,0,1.56,0,2.35-.12,1.59-.17,3.05-.35,4.41-.53,2.76-.36,5.49-.73,8.08-1.12,5.16-.77,9.72-1.58,12.71-2.37"/><path class="cls-8" d="M321.7,67.23s1.16-.07,2.92-.28,4.14-.58,6.68-1,5.25-1,7.74-1.5,4.78-1,6.41-1.43"/><path class="cls-8" d="M330.16,43.42a3.83,3.83,0,0,1,.71-.1,4.41,4.41,0,0,1,1.93.34,7.42,7.42,0,0,1,2.44,1.65,17.35,17.35,0,0,1,2,2.54"/><path class="cls-8" d="M314.15,85.55a3.55,3.55,0,0,1,.29-.34,3.19,3.19,0,0,1,1.43-.78,18.12,18.12,0,0,1,3.52-.68c1.47-.19,3.08-.29,5-.48a35.9,35.9,0,0,0,5.73-1.1c1.92-.51,3.82-1.15,5.73-1.72.95-.29,1.91-.55,2.87-.8a17.38,17.38,0,0,1,3-.45,22.53,22.53,0,0,1,3,0c.48,0,1,.06,1.44.12s1.13.19,1.7.32a5.05,5.05,0,0,1,1.36.5,5.46,5.46,0,0,1,1.09.88,12.33,12.33,0,0,1,1.65,2.19c.79,1.21,1.39,2.24,1.93,3.13"/><path class="cls-8" d="M312.58,83.91l-.08.35a4.65,4.65,0,0,0-.13,1,6.67,6.67,0,0,0,.48,2.62,8.43,8.43,0,0,0,3.67,4.33"/><path class="cls-8" d="M331.84,75.28A14.38,14.38,0,0,1,333.38,77a22,22,0,0,1,1.36,1.9c.44.7.85,1.43,1.27,2.12"/><path class="cls-8" d="M334.5,82.69s.42.61,1,1.67c.3.54.63,1.19,1,1.94.17.37.33.77.5,1.19s.28.9.56,1.53a2.43,2.43,0,0,0,.63.88,1.88,1.88,0,0,0,.91.46,3.22,3.22,0,0,0,1.63-.17A13,13,0,0,0,343.39,89a2.35,2.35,0,0,0,1.21-1.61,1.19,1.19,0,0,0-.11-.69.94.94,0,0,0-.18-.25.47.47,0,0,0-.12-.09l.14.08"/><path class="cls-8" d="M324.1,82.79s-2.31,6.67-1.76,10.35"/><path class="cls-8" d="M328.65,91.64a3.65,3.65,0,0,1,.65.17,5.79,5.79,0,0,1,1.66.9,9,9,0,0,1,1.92,2.06,21.88,21.88,0,0,1,1.38,2.59"/><path class="cls-8" d="M315.19,102.92s.35-.14,1-.37,1.61-.56,2.81-.88a85.46,85.46,0,0,1,9.54-2.15c3.75-.67,7.84-1.25,11.48-1.92a47.32,47.32,0,0,0,8.83-2.25"/><path class="cls-8" d="M326.79,98.4s-.15.9-.28,2.25-.27,3.16-.49,5.12a40.93,40.93,0,0,1-1.12,6.12,35.63,35.63,0,0,1-2,5.36"/><path class="cls-10" d="M330.17,107.9s.18-.14.56-.38a11.18,11.18,0,0,1,1.83-.89c1.66-.68,4.49-1.29,7.45-2.1,1.48-.39,3-.82,4.52-1.25a6.8,6.8,0,0,1,1.2-.29,1.58,1.58,0,0,1,.77.14,1.78,1.78,0,0,1,.64.57,6,6,0,0,1,1,2.51,7.22,7.22,0,0,1-1.21,5.22,8.48,8.48,0,0,1-4.1,3"/><path class="cls-11" d="M368.88,63.33l.15-.13a5.13,5.13,0,0,1,.6-.33,9.28,9.28,0,0,1,3.38-.61c.83,0,1.76,0,2.84.07l3.48.22c2.45.15,5.13.29,7.91.37a71.59,71.59,0,0,0,16.65-1.22A30.39,30.39,0,0,0,415.37,57"/><path class="cls-11" d="M391.94,53.33a5.46,5.46,0,0,1,.67-.22,7.74,7.74,0,0,1,2-.25,11,11,0,0,1,2.95.42,28.33,28.33,0,0,1,2.85,1.08"/><path class="cls-11" d="M384.49,64.26s2.44,5,5.29,7.3"/><path class="cls-11" d="M404.76,63.46a7.37,7.37,0,0,1,.66.47,8.71,8.71,0,0,1,1.51,1.53,13.89,13.89,0,0,1,1.6,2.61c.48,1,.88,2.05,1.29,3"/><path class="cls-11" d="M373.57,74.82a5.94,5.94,0,0,1,.74-.17c.48-.11,1.21-.26,2.17-.41a72.34,72.34,0,0,1,8.43-.69A107.41,107.41,0,0,0,398,72.63c4.92-.78,9.95-2.28,15.21-3.22.66-.12,1.33-.22,2-.31s1.21-.16,1.84-.24a6.53,6.53,0,0,1,1.87,0,2.64,2.64,0,0,1,1.59,1,20.67,20.67,0,0,1,2.32,7.69c.73,5.56.13,11.2-.3,16.38s-.7,10-.1,14c.07.5.12,1,.22,1.5s.18,1.11.23,1.76a7.77,7.77,0,0,1-.91,4.6,6.75,6.75,0,0,1-1.81,2,5.85,5.85,0,0,1-2.95,1.16,5.52,5.52,0,0,1-1.81-.12l-.22-.06a2.44,2.44,0,0,1-.32-.11,5.51,5.51,0,0,1-.65-.31l-.31-.18-.14-.09-.24-.16-.44-.32-.32-.25-.57-.46"/><path class="cls-11" d="M367.33,75.44s.2.39.52,1.13a35,35,0,0,1,1.2,3.29A75.06,75.06,0,0,1,371.5,91.5c1.18,9.28,2.07,20,3.28,25.38"/><path class="cls-11" d="M386.22,77.56a2.35,2.35,0,0,1,.9.69,3.93,3.93,0,0,1,.84,3,8.94,8.94,0,0,1-2,4.48c-1,1.42-2.17,2.63-2.79,3.69"/><path class="cls-11" d="M400.13,75.09l.1.72.12.85.1,1.58a15.11,15.11,0,0,0,.56,3.51,5.07,5.07,0,0,0,.77,1.61,3,3,0,0,0,1.67,1.12,7.5,7.5,0,0,0,4.27-.44,14.37,14.37,0,0,0,1.78-.7l1.54-.78a15.27,15.27,0,0,0,4.6-3.51"/><path class="cls-11" d="M382.72,96.29s.27-.24.85-.68a21.28,21.28,0,0,1,2.64-1.67c.27-.15.56-.29.82-.41a2.66,2.66,0,0,1,.87-.28l2.73-.56,6.18-1.32,6.66-1.5c1.14-.25,2.4-.56,3.7-.77a7.32,7.32,0,0,1,1.92-.14,1.92,1.92,0,0,1,1.48.94,11.6,11.6,0,0,1,1.24,3.21c.15.59.28,1.2.39,1.82.07.31.11.63.17.94s.1.66.15.86c.39,1.84.73,3.47,1,4.79"/><path class="cls-11" d="M379.41,96.7l.11,1.16c.06,1.09.14,2.63.27,4.35a10.28,10.28,0,0,0,.57,2.43,5.52,5.52,0,0,0,.47,1.1,2.3,2.3,0,0,0,1.1.92,5.52,5.52,0,0,0,3.12,0,32.15,32.15,0,0,0,3.34-.86l5.74-1.75,5.51-1.58c3.56-1,6.77-1.88,8.94-2.67"/><path class="cls-11" d="M438.19,59.93l-.28.71c-.17.48-.42,1.15-.68,2.09a10.62,10.62,0,0,0-.41,3.49,12.5,12.5,0,0,0,.26,1.78l.19.84c.07.3.14.64.23.92a40.73,40.73,0,0,0,2.72,6.74,12.06,12.06,0,0,0,3.33,4.4"/><path class="cls-11" d="M448,57.18s.43-.22,1.22-.55a22.76,22.76,0,0,1,3.38-1.1,14.69,14.69,0,0,1,5.22-.29,30.31,30.31,0,0,1,3.39.66c.63.15,1.31.31,2,.44s1.36.22,2.07.31a76.56,76.56,0,0,0,8.72.64c3,.06,6,.14,9,.41l1.17.13a1.86,1.86,0,0,1,1.12.31A13.28,13.28,0,0,1,487,59.8l.8.86a4,4,0,0,1,.79,1,8.2,8.2,0,0,1,.62,2.38c.26,1.37.67,2.52,1.05,4a10.48,10.48,0,0,1,.27,2.44,18.73,18.73,0,0,1-.23,2.58c0,.33-.15.63-.22,1a2.31,2.31,0,0,1-.38.88,8.24,8.24,0,0,1-1.31,1.33c-.48.4-1,.76-1.51,1.12l-.38.26-.28.2-.54.39-3.78,2.62"/><path class="cls-11" d="M442.9,80.07s.13.12.39.32l.49.36c.22.14.49.29.79.45a11.06,11.06,0,0,0,4.42,1c3.35.18,7.3-.55,11.46-1.4a63.11,63.11,0,0,1,6.39-1.11,56.4,56.4,0,0,1,6.48-.11c4.17.13,7.87.37,10.34.2"/><path class="cls-11" d="M437.54,100.14s.51-.32,1.46-.87,2.36-1.3,4.11-2.14,3.85-1.78,6.17-2.67c.65-.22,1-.4,1.54-.58s1-.38,1.63-.56,1.2-.35,1.86-.49a3.59,3.59,0,0,1,2.05-.11,1.58,1.58,0,0,1,.73,1.13c.1.44.2.9.29,1.38.16,1,.3,2,.4,3.11l.24,3.22.19,3a31.34,31.34,0,0,0,1.55,9"/><path class="cls-11" d="M437.22,101.68l.44,4,.44,4.26.19,3.08a20.3,20.3,0,0,0,.27,2.87l.2,1.21a3.72,3.72,0,0,0,.25,1.16,1.24,1.24,0,0,0,1.13.73,3.62,3.62,0,0,0,1.57-.36c2.08-.89,3.61-2.3,5-2.88l.54-.23.66-.22,1.29-.39c.84-.24,1.65-.46,2.42-.65,1.53-.4,2.89-.73,4-1"/><path class="cls-11" d="M473.28,93l.3-.19.91-.48a21.65,21.65,0,0,1,3.72-1.35,29,29,0,0,1,6-.92c.57,0,1.16-.06,1.76-.05.3,0,.6,0,.91,0s.5,0,.77,0c.52,0,1.08.05,1.67.13a3.09,3.09,0,0,1,1.72.53,2.47,2.47,0,0,1,.68,1.33l.36,1.57c.23,1.1.46,2.31.68,3.46.43,2.33.8,4.64,1.13,6.84.66,4.39,1.11,8.33,1.59,11"/><path class="cls-11" d="M468.92,95.87a6,6,0,0,1,.41.66,25.1,25.1,0,0,1,1.1,2.3c.44,1,.94,2.3,1.45,3.71.26.71.52,1.46.77,2.23s.5,1.6.64,2.27a14.56,14.56,0,0,0,.59,3,5.66,5.66,0,0,0,1.78,2.44,6.25,6.25,0,0,0,2.51,1.18,8.25,8.25,0,0,0,2.58.09,29.39,29.39,0,0,0,8.68-1.82"/><path class="cls-8" d="M322.57,59.53l8.3-1c4.51-.56,9.77-1.16,12.54-2.12"/></g></g></svg>