<svg xmlns="http://www.w3.org/2000/svg" viewBox="0 0 529.75 255.46"><defs><style>.cls-1,.cls-2,.cls-3,.cls-4,.cls-5{fill:none;}.cls-1,.cls-2,.cls-3,.cls-4,.cls-5,.cls-6{stroke:#000;stroke-miterlimit:10;}.cls-1{stroke-width:6.14px;}.cls-2{stroke-width:5.43px;}.cls-3{stroke-width:6.08px;}.cls-4{stroke-width:5.33px;}.cls-5{stroke-width:5.95px;}.cls-6{font-size:150px;stroke-width:5px;font-family:InkFree, Ink Free;}</style></defs><g id="圖層_2" data-name="圖層 2"><g id="菜單-sign"><path class="cls-1" d="M133.81,248.2s.16-.92.44-2.64.67-4.25,1.11-7.48.9-7.17,1.1-11.74a82.2,82.2,0,0,0-.72-15.26,84.7,84.7,0,0,0-1.57-8.48c-.33-1.45-.73-2.91-1.15-4.37-.22-.73-.43-1.47-.67-2.21L132,195l-.3-.83a11.78,11.78,0,0,1-.5-1.63,2.68,2.68,0,0,1,.12-1.7,2.73,2.73,0,0,1,1.24-1.18,11.63,11.63,0,0,1,1.65-.68c.28-.1.57-.2.87-.28s.7-.2,1.06-.27a21.13,21.13,0,0,1,2.27-.42,43.44,43.44,0,0,1,4.75-.41c3.24-.13,6.59,0,10-.15s6.78-.31,10.17-.65,6.78-.79,10.14-1.37,6.73-1.27,10.37-2.13c.9,11.33,1.78,22.43,2.59,32.7.43,5.08.84,10,1.23,14.56q.3,3.45.6,6.69l.07.74.09.76.1.82c0,.38.07.76.1,1.14a13.7,13.7,0,0,1-.24,4.41,5.48,5.48,0,0,1-.3.86c-.12.28-.28.55-.42.82a6,6,0,0,1-1.21,1.34,8.74,8.74,0,0,1-3.15,1.58,19.16,19.16,0,0,1-3.53.6l-1.24.13c-.35,0-.66.09-1,.14s-.88.06-1.27.07h-1l-1.69-.07"/><path class="cls-1" d="M154.58,191.65s.2.67.54,1.74.79,2.65,1.28,4.33c1,3.38,2.42,7.32,4.08,9.1"/><path class="cls-1" d="M143.62,203.28a10.68,10.68,0,0,1,2.36-1.23,58.31,58.31,0,0,1,7.14-2c5.79-1.47,12.22-3.69,15.23-5.69"/><path class="cls-1" d="M141.93,214.9s1.53-.21,3.89-.71a87,87,0,0,0,8.79-2.37c3.29-1.07,6.73-2.37,9.82-3.66a50.08,50.08,0,0,0,7.51-3.69"/><path class="cls-1" d="M147,226.21l.45-.3a15.24,15.24,0,0,1,1.29-.85,28.75,28.75,0,0,1,5.16-2.45,56.51,56.51,0,0,1,8.16-2.24c1.53-.33,3.13-.61,4.75-.9l5-.84c1-.17,2.09-.3,3.15-.38a2.84,2.84,0,0,1,.77,0,.81.81,0,0,1,.59.41,5.89,5.89,0,0,1,.33,1.23,58.37,58.37,0,0,1,.88,5.88,36.63,36.63,0,0,0,2.16,7.66"/><path class="cls-1" d="M144.12,226.31s.09.41.23,1.2.32,2,.54,3.48c.12.85.26,1.78.41,2.77a22.37,22.37,0,0,0,.79,3.54,10.71,10.71,0,0,0,.67,1.63,4.43,4.43,0,0,0,1,1.41,2.13,2.13,0,0,0,1.79.39c.66-.07,1.3-.13,1.95-.24q2-.44,3.78-1c1.11-.34,2.19-.7,3.27-1.09,2.16-.76,4.26-1.59,6.23-2.44a64.72,64.72,0,0,0,9.46-4.88"/><path class="cls-2" d="M196.35,192.91a7.21,7.21,0,0,1,.8-.18,10.51,10.51,0,0,1,2.15-.14,15.38,15.38,0,0,1,3,.41c1,.24,2.09.57,3,.77"/><path class="cls-2" d="M192.52,206.91a3.65,3.65,0,0,1,.81-.26,6.45,6.45,0,0,1,2.33-.09,10.47,10.47,0,0,1,3.24,1,26.69,26.69,0,0,1,3,1.84"/><path class="cls-3" d="M195.33,223.69l.3-.17.15-.09.12-.07.29-.19a8.52,8.52,0,0,1,2.34-1,10.37,10.37,0,0,1,1.32-.25c.23,0,.54-.05.66.14a3.09,3.09,0,0,1,.21.56c.32.94.66,2,1,3a67.91,67.91,0,0,1,2.33,10.14,21.14,21.14,0,0,1,0,5.39c-.13,1.37.46,2.75.37,4.87a10.08,10.08,0,0,1-.65,2.85c-.31.83-.65,1.57-1,2.22-.59,1.28-1,2.3-1.36,3.26"/><path class="cls-2" d="M208.86,248.94a4.09,4.09,0,0,1,.6-.11,9.85,9.85,0,0,1,1.8-.08,14.74,14.74,0,0,1,6.57,2,11.71,11.71,0,0,0,5.31,1.42,38.92,38.92,0,0,0,5.29,0,91.64,91.64,0,0,0,10.63-1.36,90.27,90.27,0,0,0,16.8-4.52"/><path class="cls-2" d="M216.82,179.36s0,0,.15-.05a2.38,2.38,0,0,1,.52-.09,10.67,10.67,0,0,1,2.87.36c.7.15,1.53.36,2.48.53a24.16,24.16,0,0,0,2.93.37,44.47,44.47,0,0,0,6.41-.07c2.22-.15,4.4-.4,6.71-.55.59,0,1.21-.05,1.84-.06a3.07,3.07,0,0,1,1.76.45,2.62,2.62,0,0,1,.9,1.43,10.85,10.85,0,0,1,.35,1.68c.09.59.14,1.2.2,1.83s.07,1.19.11,1.76c.07,1,.12,2,.16,2.92.07,1.86.09,3.53.09,4.92"/><path class="cls-2" d="M212.78,183.33a13.81,13.81,0,0,1,.49,1.32,38.48,38.48,0,0,1,1,3.94c.07.35.15.73.22,1.11a1.75,1.75,0,0,1,0,.46l0,.25,0,.37c-.14,1-.31,2.11-.54,3.24,0,.24-.17.71-.25,1.07s-.21.75-.31,1.14c-.23.75-.43,1.5-.58,2.21a17,17,0,0,0-.31,2,2.87,2.87,0,0,0,.49,2,1.7,1.7,0,0,0,1,.53,8.47,8.47,0,0,0,1.13,0c.76,0,1.55-.06,2.34-.13,1.59-.17,3.06-.35,4.41-.53,2.77-.36,5.5-.73,8.08-1.12,5.17-.77,9.73-1.58,12.72-2.36"/><path class="cls-2" d="M216.66,196.51s1.15-.06,2.92-.28,4.14-.58,6.68-1,5.24-1,7.73-1.5,4.78-1,6.42-1.43"/><path class="cls-2" d="M225.12,172.71a3.26,3.26,0,0,1,.71-.11,4.57,4.57,0,0,1,1.93.34,7.52,7.52,0,0,1,2.44,1.65,17.35,17.35,0,0,1,2,2.54"/><path class="cls-2" d="M209.11,214.83a2.59,2.59,0,0,1,.28-.34,3.36,3.36,0,0,1,1.44-.78,18.78,18.78,0,0,1,3.51-.68c1.47-.18,3.09-.29,5-.47a37.44,37.44,0,0,0,5.74-1.11c1.92-.51,3.81-1.15,5.72-1.72,1-.29,1.92-.55,2.88-.8a18.12,18.12,0,0,1,3-.45,24.4,24.4,0,0,1,3,0c.49,0,1,.06,1.45.12s1.13.19,1.69.32a5.27,5.27,0,0,1,1.36.5,5.53,5.53,0,0,1,1.09.88,11.86,11.86,0,0,1,1.65,2.19c.8,1.21,1.4,2.24,1.93,3.13"/><path class="cls-2" d="M207.54,213.2l-.09.34a4.75,4.75,0,0,0-.13,1,6.91,6.91,0,0,0,.48,2.63,8.46,8.46,0,0,0,3.67,4.32"/><path class="cls-2" d="M226.79,204.56a14.91,14.91,0,0,1,1.55,1.68,20,20,0,0,1,1.35,1.9c.45.7.86,1.43,1.28,2.12"/><path class="cls-2" d="M229.45,212s.42.6,1,1.67c.3.53.63,1.18,1,1.93.16.37.33.77.49,1.19s.29.9.56,1.53a2.69,2.69,0,0,0,.63.89,2.18,2.18,0,0,0,.91.46,3.2,3.2,0,0,0,1.63-.18,12.77,12.77,0,0,0,2.68-1.23,2.4,2.4,0,0,0,1.22-1.61,1.38,1.38,0,0,0-.11-.69,1,1,0,0,0-.19-.25l-.12-.09.14.08"/><path class="cls-2" d="M219.05,212.07s-2.3,6.67-1.76,10.35"/><path class="cls-2" d="M223.61,220.92a3.71,3.71,0,0,1,.64.17,5.91,5.91,0,0,1,1.66.9,8.6,8.6,0,0,1,1.92,2.07,21.91,21.91,0,0,1,1.39,2.58"/><path class="cls-2" d="M210.14,232.21s.36-.15,1-.38,1.6-.56,2.81-.88a88.07,88.07,0,0,1,9.53-2.15c3.75-.67,7.85-1.25,11.49-1.91a48.23,48.23,0,0,0,8.83-2.26"/><path class="cls-2" d="M221.74,227.68s-.14.9-.27,2.25-.27,3.16-.5,5.13a39.58,39.58,0,0,1-1.12,6.11,33.21,33.21,0,0,1-2,5.36"/><path class="cls-4" d="M225.12,237.19s.19-.15.57-.39a11.61,11.61,0,0,1,1.83-.89c1.66-.68,4.49-1.29,7.44-2.1,1.48-.39,3-.81,4.53-1.25a5.72,5.72,0,0,1,1.2-.28,1.33,1.33,0,0,1,.76.14,1.76,1.76,0,0,1,.64.56,6.15,6.15,0,0,1,1,2.52,7.19,7.19,0,0,1-1.21,5.21,8.41,8.41,0,0,1-4.1,3"/><path class="cls-5" d="M263.83,192.61l.16-.13a5.89,5.89,0,0,1,.6-.33,9.22,9.22,0,0,1,3.37-.61c.84,0,1.76,0,2.85.07l3.48.22c2.44.15,5.13.3,7.91.37A71.55,71.55,0,0,0,298.84,191a30.45,30.45,0,0,0,11.49-4.66"/><path class="cls-5" d="M286.9,182.61a4.76,4.76,0,0,1,.67-.22,7.68,7.68,0,0,1,2-.25,11.38,11.38,0,0,1,2.95.42,28.1,28.1,0,0,1,2.84,1.09"/><path class="cls-5" d="M279.45,193.54s2.44,5,5.29,7.31"/><path class="cls-5" d="M299.71,192.74a5.94,5.94,0,0,1,.66.47,9.07,9.07,0,0,1,1.52,1.53,14,14,0,0,1,1.59,2.61c.48,1,.88,2.05,1.3,3"/><path class="cls-5" d="M268.52,204.1s.25-.07.74-.17,1.21-.26,2.17-.41a72.56,72.56,0,0,1,8.44-.69,107.4,107.4,0,0,0,13.12-.92c4.93-.78,9.95-2.28,15.22-3.22.66-.12,1.32-.22,2-.31s1.2-.16,1.84-.23a6.18,6.18,0,0,1,1.87,0,2.65,2.65,0,0,1,1.58,1,20.49,20.49,0,0,1,2.33,7.69c.73,5.56.13,11.2-.3,16.38s-.71,10-.11,14c.07.51.13,1,.23,1.5s.18,1.11.23,1.76a7.89,7.89,0,0,1-.91,4.61,7,7,0,0,1-1.81,2,5.93,5.93,0,0,1-3,1.15,5.53,5.53,0,0,1-1.81-.12l-.22-.05-.32-.12a4.73,4.73,0,0,1-.64-.31l-.31-.18-.14-.09-.24-.16-.44-.32-.32-.25-.57-.45"/><path class="cls-5" d="M262.29,204.72s.19.39.51,1.14a32,32,0,0,1,1.2,3.28,72.78,72.78,0,0,1,2.45,11.64c1.18,9.28,2.07,20,3.29,25.38"/><path class="cls-5" d="M281.18,206.84a2.35,2.35,0,0,1,.9.69,4,4,0,0,1,.84,3,9.1,9.1,0,0,1-2,4.49c-1,1.41-2.18,2.63-2.8,3.68"/><path class="cls-5" d="M295.09,204.38l.09.72q.06.35.12.84c0,.46.07,1,.11,1.58A15,15,0,0,0,296,211a5.22,5.22,0,0,0,.77,1.62,3,3,0,0,0,1.67,1.11,7.51,7.51,0,0,0,4.27-.44,14.2,14.2,0,0,0,1.77-.7l1.55-.78a15.36,15.36,0,0,0,4.6-3.5"/><path class="cls-5" d="M277.67,225.57s.27-.24.86-.68a21.81,21.81,0,0,1,2.63-1.67c.28-.15.57-.29.82-.41a2.74,2.74,0,0,1,.88-.28l2.73-.56,6.18-1.31,6.66-1.51c1.13-.25,2.39-.56,3.69-.77a7.38,7.38,0,0,1,1.92-.14,1.92,1.92,0,0,1,1.49.94,12.26,12.26,0,0,1,1.24,3.21c.14.6.28,1.2.39,1.83.06.3.11.62.16.93s.11.66.16.86c.39,1.85.72,3.47,1,4.79"/><path class="cls-5" d="M274.36,226s0,.42.12,1.16c.06,1.09.13,2.63.26,4.35a11,11,0,0,0,.57,2.44,6.47,6.47,0,0,0,.48,1.09,2.3,2.3,0,0,0,1.1.92,5.48,5.48,0,0,0,3.11,0,31.52,31.52,0,0,0,3.34-.86l5.75-1.75,5.51-1.58c3.55-1,6.77-1.87,8.93-2.67"/><path class="cls-5" d="M333.14,189.21s-.1.25-.27.72a20.75,20.75,0,0,0-.68,2.09,10.78,10.78,0,0,0-.42,3.48,12.28,12.28,0,0,0,.27,1.78c.06.28.12.56.19.84s.13.64.22.93a40.65,40.65,0,0,0,2.73,6.73,12.09,12.09,0,0,0,3.33,4.41"/><path class="cls-5" d="M342.91,186.46s.43-.21,1.22-.54a20.8,20.8,0,0,1,3.38-1.11,14.87,14.87,0,0,1,5.21-.29,28.52,28.52,0,0,1,3.4.67c.62.14,1.31.3,2,.44s1.36.21,2.06.3a76.74,76.74,0,0,0,8.73.64c3,.06,6,.14,9,.41l1.17.13a1.88,1.88,0,0,1,1.12.31,14.73,14.73,0,0,1,1.7,1.66l.79.86a4.26,4.26,0,0,1,.79,1,8.3,8.3,0,0,1,.63,2.38c.25,1.37.67,2.53,1,4a10,10,0,0,1,.28,2.45,22.3,22.3,0,0,1-.23,2.57c-.05.33-.15.63-.23.95a2.25,2.25,0,0,1-.38.88,7.49,7.49,0,0,1-1.31,1.33c-.48.4-1,.76-1.51,1.12l-.38.26-.27.2-.54.39-3.78,2.62"/><path class="cls-5" d="M337.86,209.35a4.29,4.29,0,0,0,.38.32l.5.36c.21.14.49.29.78.46a11.28,11.28,0,0,0,4.42,1c3.35.18,7.3-.55,11.47-1.4,2.08-.4,4.2-.91,6.38-1.11a56.47,56.47,0,0,1,6.48-.11c4.18.13,7.88.37,10.35.2"/><path class="cls-5" d="M332.5,229.42s.51-.32,1.46-.87,2.36-1.29,4.11-2.14,3.85-1.78,6.17-2.66c.64-.23,1-.41,1.53-.59s1.05-.38,1.63-.56,1.2-.35,1.87-.49a3.56,3.56,0,0,1,2-.11,1.58,1.58,0,0,1,.73,1.13c.1.44.21.9.3,1.38.15,1,.3,2,.4,3.11s.16,2.17.23,3.22.13,2,.19,3a31,31,0,0,0,1.56,9"/><path class="cls-5" d="M332.18,231l.44,4c.12,1.22.27,2.67.44,4.26q.09,1.48.18,3.09a20.23,20.23,0,0,0,.28,2.86c.06.4.13.81.19,1.22a4.31,4.31,0,0,0,.25,1.15,1.24,1.24,0,0,0,1.14.73,3.58,3.58,0,0,0,1.56-.36c2.09-.88,3.61-2.3,5-2.87l.54-.24.66-.22,1.29-.39c.84-.24,1.65-.46,2.41-.65,1.53-.39,2.89-.73,4-1.05"/><path class="cls-5" d="M368.23,222.23l.3-.19.92-.48a22.19,22.19,0,0,1,3.72-1.35,29.53,29.53,0,0,1,6-.92c.58,0,1.17,0,1.77,0,.3,0,.6,0,.9,0s.51,0,.77,0c.53,0,1.09.06,1.68.13a3.08,3.08,0,0,1,1.71.53,2.4,2.4,0,0,1,.68,1.33l.36,1.57c.24,1.1.47,2.31.69,3.47.42,2.32.8,4.63,1.13,6.83.65,4.39,1.1,8.33,1.58,11"/><path class="cls-5" d="M363.87,225.15a6,6,0,0,1,.41.66c.27.49.66,1.27,1.1,2.3s.94,2.3,1.46,3.72c.25.7.51,1.45.76,2.22s.51,1.6.65,2.28a13.56,13.56,0,0,0,.59,3,5.56,5.56,0,0,0,1.78,2.44,6.3,6.3,0,0,0,2.51,1.17,8.25,8.25,0,0,0,2.58.09,29.75,29.75,0,0,0,8.67-1.81"/><path class="cls-2" d="M217.53,188.81l8.3-1c4.5-.56,9.76-1.16,12.54-2.12"/><path d="M2.76,36.6c1.25.5,2,1.94,2.6,3.07.79,1.54,1.39,3.17,2.16,4.72a12.27,12.27,0,0,0,8.12,6.49c3.77.88,8-.74,8.71-4.93s-2.12-7.85-5.74-9.51a26.92,26.92,0,0,0-7.51-1.85L1.89,33.32a1.55,1.55,0,0,0-1.84,1A1.51,1.51,0,0,0,1.1,36.22l7.2,1a61.18,61.18,0,0,1,6.32,1c3.21.78,6.83,2.74,6.83,6.53a3.26,3.26,0,0,1-2,3.12,5.87,5.87,0,0,1-4.18-.27A9.53,9.53,0,0,1,11.44,45a15.12,15.12,0,0,1-2-3.65c-1.34-3-2.58-6.36-5.87-7.69a1.52,1.52,0,0,0-1.84,1,1.54,1.54,0,0,0,1,1.85Z"/><path d="M15.05,13.46c-.23,3.67-.78,7.37-.25,11A11.88,11.88,0,0,0,20.29,33c3.09,1.94,7.53,2,9.81-1.22,2.6-3.67-.54-7.72-3.07-10.35Q21.53,15.71,16,10c-1.35-1.39-3.46.73-2.13,2.12l8,8.35c1.3,1.36,2.64,2.68,3.9,4.08,1,1.1,2.19,2.54,2.23,4.11a2.75,2.75,0,0,1-2.2,2.62,5.1,5.1,0,0,1-4.06-.85,8.94,8.94,0,0,1-4.09-6.63c-.45-3.41.13-6.92.34-10.33.12-1.92-2.88-1.92-3,0Z"/><path d="M40.92,17.74,36.58,27c-1.07,2.28-2.35,5.31-.35,7.49s5.42,1.16,7-1,1.89-5.66,1.86-8.39a25.46,25.46,0,0,0-2.32-10.22,1.51,1.51,0,0,0-2-.53,1.54,1.54,0,0,0-.54,2,21.77,21.77,0,0,1,1.91,8.7,19.52,19.52,0,0,1-.43,4.52c-.25,1.06-.65,2.4-1.73,2.89-.72.32-1.57.22-1.73-.65-.2-1.11.55-2.43,1-3.38l4.33-9.2A1.54,1.54,0,0,0,43,17.21a1.51,1.51,0,0,0-2,.53Z"/><path d="M491.86,11.39a24.76,24.76,0,0,1-4.94,6.67,15.29,15.29,0,0,0-4.59,7.47c-.65,3.25,1,7.16,4.63,7.52s6.31-3.23,6.85-6.54a51.4,51.4,0,0,0,.39-6.68l.24-7.56c.06-1.93-2.94-1.93-3,0-.12,3.64-.22,7.27-.34,10.91-.08,2.36-.31,6.35-3.33,6.87a2.2,2.2,0,0,1-2.34-1.5,4.83,4.83,0,0,1,.3-3.81,16.34,16.34,0,0,1,3.76-5,25.71,25.71,0,0,0,5-6.83c.87-1.72-1.72-3.24-2.59-1.52Z"/><path d="M520.76,19.7c-3.44.84-6.8,2-10.2,3a49.17,49.17,0,0,0-5.17,1.49A7.47,7.47,0,0,0,500.93,29a7.37,7.37,0,0,0,11.73,7.8,9.46,9.46,0,0,0,2.39-4c.66-1.85,1.05-3.79,1.64-5.66a11.38,11.38,0,0,1,1-2.31,3.27,3.27,0,0,1,1.26-1.36,1.5,1.5,0,0,0-1.51-2.59c-2.66,1.51-3.47,4.87-4.21,7.6a29.87,29.87,0,0,1-1.32,4.25,3.89,3.89,0,0,1-2.39,2.5,4.36,4.36,0,0,1-5.82-4.74c.6-3.75,4.71-4,7.7-4.9,3.4-1,6.76-2.12,10.19-3,1.88-.46,1.08-3.36-.79-2.9Z"/><path d="M527.76,41.7a80.92,80.92,0,0,1-8.84,1.79c-1.52.2-3.07.21-4.58.44a3.68,3.68,0,0,0-3,2.33,4.72,4.72,0,0,0,2.37,5.54c2.79,1.3,5.87,0,8.33-1.44a28.56,28.56,0,0,0,7.31-6.1,1.55,1.55,0,0,0,0-2.12,1.51,1.51,0,0,0-2.12,0,25.68,25.68,0,0,1-5,4.57c-1.69,1.15-3.82,2.6-5.95,2.63A2.92,2.92,0,0,1,515,49.1a1.54,1.54,0,0,1-.54-.5,1.74,1.74,0,0,1-.34-.87c0-.18,0,0,0,0a1.92,1.92,0,0,1,0-.24c0,.06,0-.23,0-.25a.55.55,0,0,1,.26-.25,5.68,5.68,0,0,1,1.79-.22c1.34-.1,2.68-.26,4-.46,2.81-.41,5.59-1,8.34-1.71,1.88-.47,1.08-3.36-.79-2.9Z"/><text class="cls-6" transform="translate(38.53 138.77)">2D</text><path d="M272.44,154.92a8.33,8.33,0,0,1-6.72-2.84c-6.57-2.53-9.91-6.48-9.91-11.73,0-8,2.12-16.67,6.29-25.81A84.75,84.75,0,0,1,275.39,93.6c5.25-6,9.46-9,12.89-9.23h.37a7.55,7.55,0,0,1,4.23,1.6c.08.06.27.19,3.43,2.76a2,2,0,0,1,1.86-1.22c1,0,2.45.72,4.56,2.35,1.45,1.13,2.15,2.25,2.15,3.43a16.66,16.66,0,0,1-.56,3.31c-1.58,6.42-3.45,11.46-5.54,15-1.14,2-2.33,2.94-3.64,2.94a5.67,5.67,0,0,1-1.62-.29c-1.08-.33-4.41-1.34-4.41-3.64a2,2,0,0,1,1.39-1.88,31.56,31.56,0,0,0,4.67-14.21,6.58,6.58,0,0,0-4-1.81c-3.09,0-6.85,2.87-11.22,8.55A85.39,85.39,0,0,0,269,120.9c-3.19,7.85-4.74,14.45-4.62,19.62,0,2.83.83,4.85,2.43,6.19a5.88,5.88,0,0,0,3.9,1.43,10.68,10.68,0,0,0,3.07-.54,41.73,41.73,0,0,0,10.57-5.54,58.17,58.17,0,0,0,9.6-8,4.74,4.74,0,0,0,1.2-2.8,2,2,0,0,1,2-2,2.07,2.07,0,0,1,2,1.52c1.23,3.07,1.83,5.19,1.83,6.46a5.37,5.37,0,0,1-1.59,3.71,51.8,51.8,0,0,1-4.28,3.49c-7,5.23-13.07,8.54-18.13,9.84A18.08,18.08,0,0,1,272.44,154.92Z"/><path d="M303.34,96.36q-2.34,9.51-5.42,14.69c-.94,1.63-1.87,2.45-2.78,2.45a4.69,4.69,0,0,1-1.32-.25q-3.7-1.12-3.71-2.68c0-.53.34-.87,1-1a32.52,32.52,0,0,0,5.07-15.48,7.9,7.9,0,0,0-5.07-2.39q-5.08,0-12,8.93A86.75,86.75,0,0,0,268,120.53q-4.87,12-4.69,20c0,3.09,1,5.4,2.79,6.93a6.88,6.88,0,0,0,4.54,1.66,11.73,11.73,0,0,0,3.37-.59,42.57,42.57,0,0,0,10.84-5.66,59.71,59.71,0,0,0,9.76-8.15,5.86,5.86,0,0,0,1.47-3.37c.09-.72.42-1.08,1-1.08s.8.29,1,.88a20.36,20.36,0,0,1,1.76,6.1,4.37,4.37,0,0,1-1.32,3,51.55,51.55,0,0,1-4.15,3.37q-10.35,7.77-17.78,9.67a17.09,17.09,0,0,1-4.19.58,7.29,7.29,0,0,1-6.11-2.68q-9.52-3.57-9.52-10.89,0-11.82,6.2-25.39a83.41,83.41,0,0,1,13.14-20.7q7.52-8.55,12.2-8.89a6.28,6.28,0,0,1,4,1.42c.19.13,1.71,1.35,4.54,3.66q.24-2,1.32-2t3.95,2.14c1.17.92,1.76,1.79,1.76,2.64A16.17,16.17,0,0,1,303.34,96.36Z"/><path d="M307.2,157.17a3.91,3.91,0,0,1-2-.91,9.59,9.59,0,0,1-3.58-4.19c-.41-1.06-.37-2.63,2.08-4.25a77.87,77.87,0,0,0,8.19-6.51,68.37,68.37,0,0,0,6.51-6.25c-.4-4.09-.4-4.23-.4-4.33.1-2.86,1.53-4,2.71-4.54a20.88,20.88,0,0,1,6.14-1,174.83,174.83,0,0,0,17.71-25.73c-1.57.62-3.56,1.32-6,2.12-6.56,2.13-11.15,3.66-13.64,4.53-3.13,1.12-4.66,3-4.66,5.7a12.22,12.22,0,0,0,.18,2,2.76,2.76,0,0,1-.41,2.33,1.89,1.89,0,0,1-1.5.64,2.3,2.3,0,0,1-2.16-1.33,43.14,43.14,0,0,1-3.26-8.15,17.3,17.3,0,0,1-.46-2.36,5.06,5.06,0,0,1,1.95-3.87c2.13-1.82,5.93-3.1,11.64-4A82.47,82.47,0,0,0,347,91.42c.75-.76.91-.94.94-1h0a3.74,3.74,0,0,0,.35-1,2,2,0,0,1,1.92-1.71c1.08,0,2.34.83,4.1,2.71a3.82,3.82,0,0,1,1,1.92c.82-3.33,3.35-5.84,7.51-7.45a5.58,5.58,0,0,1,2-.45,1.88,1.88,0,0,1,2.08,1.93,5,5,0,0,1-1.17,2.82c-1.91,2.75-3.78,10.44-5.53,22.85-1.55,11.06-2.29,19.8-2.19,26,.16,8,1.76,8.39,2.07,8.39a3.66,3.66,0,0,0,1.18-.32,5.29,5.29,0,0,1,1.9-.46,1.74,1.74,0,0,1,2,1.73,2.61,2.61,0,0,1-1.08,1.93,40.1,40.1,0,0,1-7.66,4.91,5.58,5.58,0,0,1-2.57.75,2.88,2.88,0,0,1-2.13-1c-1.45-1.53-3.25-5.61-2.34-23.18-7.21.44-14.11,1-20.55,1.79l-7.85,9.59c2.83.33,3.86,4.21,4.2,5.51a7.26,7.26,0,0,1,.38,2,2,2,0,0,1-2,2.17,7,7,0,0,1-1.69-.28,5.68,5.68,0,0,0-1.24-.21c-2.56,0-6.14,1.44-10.65,4.29l-2.34,1.47Zm13.32-14v-.51l0,0,0,.45ZM355,93.91c-.25.56-.7,1.4-1.47,2.75-2.41,4.26-5.67,9.49-9.7,15.53-3.72,5.6-6.78,9.91-9.14,12.85,6.22,0,11.31-.2,15.16-.51.49-4.52,1.46-10.81,2.9-18.73Z"/><path d="M364.82,88.64q-3,4.35-5.71,23.29-2.36,16.75-2.2,26.13t3.07,9.37a4.67,4.67,0,0,0,1.54-.39,4.67,4.67,0,0,1,1.54-.39c.65,0,1,.24,1,.73a1.7,1.7,0,0,1-.74,1.17,38.56,38.56,0,0,1-7.47,4.79,4.73,4.73,0,0,1-2.1.63q-4.78,0-3.41-24.22-11.73.69-22.12,1.91l-9.67,11.82c1.72-.2,2.38-.3,2-.3q2.34,0,3.62,4.79a6.77,6.77,0,0,1,.34,1.76c0,.78-.34,1.17-1,1.17a6.14,6.14,0,0,1-1.44-.25,6.48,6.48,0,0,0-1.49-.24q-4.14,0-11.18,4.44l-2.1,1.32a3.49,3.49,0,0,1-1.46-.73,8.66,8.66,0,0,1-3.23-3.76q-.58-1.52,1.71-3a76.8,76.8,0,0,0,8.3-6.59,62.6,62.6,0,0,0,6.89-6.69c-.29-3-.44-4.51-.44-4.64.06-1.85.76-3.06,2.1-3.61a21.06,21.06,0,0,1,6.25-1A170.5,170.5,0,0,0,346.8,97.33a59.31,59.31,0,0,1-8.59,3.27q-9.91,3.23-13.68,4.55c-3.54,1.27-5.32,3.48-5.32,6.64a13.11,13.11,0,0,0,.2,2.14c.19,1.21-.12,1.81-.93,1.81a1.32,1.32,0,0,1-1.27-.78,42.41,42.41,0,0,1-3.17-7.91c-.3-1.37-.44-2.08-.44-2.15a4.09,4.09,0,0,1,1.61-3.12q2.93-2.49,11.13-3.71a82.43,82.43,0,0,0,21.19-5.82A14.82,14.82,0,0,0,348.7,91a4.26,4.26,0,0,0,.52-1.31c.18-.65.49-1,.95-1,.75,0,1.87.8,3.37,2.39a2.53,2.53,0,0,1,.73,1.66,13.77,13.77,0,0,1-1.66,3.37q-3.62,6.41-9.67,15.48A148.45,148.45,0,0,1,332.49,126q11.63,0,18.22-.58.68-6.84,3-19.48L356,93.57q.74-5.26,7.08-7.71a4.57,4.57,0,0,1,1.61-.39q1.08,0,1.08.93A4.27,4.27,0,0,1,364.82,88.64Z"/><path d="M393.33,155.22a15.74,15.74,0,0,1-4.52-1.13c-1.78-.59-2.48-2.4-2.08-5.38a74.71,74.71,0,0,1,1.93-9.21c.25-.87,1-2.3,3.51-2.3a6.28,6.28,0,0,1,.84.05c.64-1.61,1.4-3.94,2.25-7-2-5.14-2-5.21-2-5.47a4.74,4.74,0,0,1,.06-.75c.27-1.47,1.88-2.51,5-3.27.64-2.06,3-9.51,7.39-23.52a96.48,96.48,0,0,0-13.45,2.2c-5.38,1.26-8.95,2.64-10.61,4.12s-2.49,3-2.49,4.38c0,1.15.54,3.53,3.1,8.31a3.29,3.29,0,0,1,.46,1.65,2,2,0,0,1-2.12,2.22,2.7,2.7,0,0,1-2.24-1.36,44.71,44.71,0,0,1-5.14-8.81,24,24,0,0,1-1.23-6.47c-.37-4.54,3.14-7.85,10.45-9.84a156.26,156.26,0,0,1,26.81-4.86c1.2-2.34,2-3.23,3-3.23.67,0,1.76.28,4.22,2.43.84-.06,2.83-.28,7.4-1,.32-.06.9-.34,1.71-1.35.9-1.18,2.82-1.84,5.86-2h.28A3.85,3.85,0,0,1,435.5,86c.07.18.14.36,1.09,4.14a4.58,4.58,0,0,1,.13,1,2.9,2.9,0,0,1-2.4,2.86c-.24.07-.87.17-3.64.57-4.9.7-11,1.36-18.08,2-1.8,4-4.36,11.82-7.6,23.13,5.68-.48,11.5-.78,17.32-.9h.16c2.75,0,4,1.29,4.51,2.36a16.39,16.39,0,0,1,.82,3.49,3.31,3.31,0,0,1,.12.87c0,2.51-3.5,3.09-4.65,3.28a22,22,0,0,1-3.31.46h-.21a2.62,2.62,0,0,1-2.2-1.44c-.19-.36-.55-.8-1.72-.8-6.41,0-10.85.1-13.19.32-1.18,3.33-3.18,11.23-5.95,23.51C396.45,151.88,395.69,155.22,393.33,155.22Z"/><path d="M435.62,90.35a4,4,0,0,1,.1.78c0,1-.57,1.58-1.71,1.91-.07,0-1.22.21-3.47.53q-7.56,1.08-18.6,2-2.88,6.15-8.3,25.19,9.23-.83,18.7-1c1.89,0,3.14.57,3.76,1.8a23.45,23.45,0,0,1,.73,3.22,3.27,3.27,0,0,1,.1.69q0,1.67-3.81,2.29a18.7,18.7,0,0,1-3.27.44,1.65,1.65,0,0,1-1.42-.93,2.65,2.65,0,0,0-2.59-1.31q-10.63,0-13.91.39-1.76,4.49-6.2,24.22c-.56,2.44-1.35,3.66-2.4,3.66a17.07,17.07,0,0,1-4.19-1.08c-1.27-.42-1.75-1.85-1.42-4.29a73.16,73.16,0,0,1,1.9-9.09q.58-2,4-1.41a65.8,65.8,0,0,0,2.68-8.11c-1.36-3.51-2.05-5.32-2.05-5.42a3.79,3.79,0,0,1,.05-.58q.3-1.62,4.83-2.59.25-.83,8-25.49a96.77,96.77,0,0,0-15.09,2.34q-8.34,2-11,4.35-2.83,2.54-2.83,5.13,0,2.77,3.22,8.79a2.28,2.28,0,0,1,.34,1.17c0,.81-.37,1.22-1.12,1.22a1.78,1.78,0,0,1-1.42-.93,44.56,44.56,0,0,1-5-8.59,23.75,23.75,0,0,1-1.17-6.2q-.48-6,9.72-8.79a154.83,154.83,0,0,1,27.2-4.89c1-2.11,1.82-3.17,2.34-3.17.75,0,2,.82,3.86,2.44q1.26,0,7.91-1a4.19,4.19,0,0,0,2.34-1.71c.72-.95,2.43-1.48,5.13-1.61a2.91,2.91,0,0,1,3.07,1.66C434.66,86.56,435,87.88,435.62,90.35Z"/><path d="M435,154.63c-.49,0-1.69-.2-2-2.08a39.19,39.19,0,0,1-1-5.31,3.51,3.51,0,0,1,2.81-3.45,40.86,40.86,0,0,1,8.17-.9,98.59,98.59,0,0,0,7.47-17.7c-.23-.62-.69-1.66-1.36-3.12a8.42,8.42,0,0,1-.83-3c0-1.75,1.52-3,4.52-3.75.32-.09.67-.18,1-.26,1.4-5.39,3.13-12.22,5.15-20.33a61.22,61.22,0,0,0-9.12-1,34.89,34.89,0,0,0-4.42.29c-3.06.44-4.49,2.41-4.49,6.18a29.38,29.38,0,0,0,1,6.89,2.73,2.73,0,0,1-.24,2.45,1.87,1.87,0,0,1-1.56.7,2.3,2.3,0,0,1-2.23-1.9,41.19,41.19,0,0,1-2.09-11.6,21.49,21.49,0,0,1,1-6.61C438,86.7,441.16,85,446.31,85a90.1,90.1,0,0,1,15.3,1.93c2.22-1.58,3.17-1.79,3.75-1.79A1.67,1.67,0,0,1,467,87,4.91,4.91,0,0,1,466.9,88c2.43.62,8.55,2,18.26,4.22a2.93,2.93,0,0,0,.62.08c.46,0,1.15-.13,1.81-1.27a2.48,2.48,0,0,1,2.08-1.28c.68,0,1.87.31,2.25,2.38a19.07,19.07,0,0,1,.41,3.26,3.47,3.47,0,0,1-.85,2.44c-.1.1-.17.17-2,1.58a4.68,4.68,0,0,1-2.88.88,9.24,9.24,0,0,1-2.27-.32c-5.74-1.46-12.33-2.81-19.61-4-1.89,7.69-3.35,13.75-4.35,18.07,3.68-.27,9.42-.61,17.07-1h.19c2.68,0,3.88,1.28,4.42,2.36a19.74,19.74,0,0,1,.91,3.55,6,6,0,0,1,.08.9c0,2.51-3.54,3.09-4.7,3.28a16,16,0,0,1-2.8.3h0c-.58,0-2.31,0-2.94-1.27-.21-.44-.58-.92-1.75-.92-6.38,0-10.59.12-12.52.34l-3.71,11.57a33.57,33.57,0,0,1-3.13,7.16,12.74,12.74,0,0,1-2,2.28h.72c5.37,0,14.37.56,26.75,1.67h.15c.23,0,.48,0,.61-.7s.46-2.38,1.91-2.49h.27a2.38,2.38,0,0,1,2.42,1.8c.34,1.46.78,3.33,1.33,5.67a2.94,2.94,0,0,1-1.17,3c-.77.6-1.44,1.14-2.08,1.68a3.62,3.62,0,0,1-2.32,1l-.24,0-2.93-.75a89.76,89.76,0,0,0-23.28-2.8c-3.42,0-7.12.14-11,.41C436.91,154.19,435.74,154.63,435,154.63Z"/><path d="M490.94,92.35a19,19,0,0,1,.39,3.08,2.51,2.51,0,0,1-.58,1.76c-.07.06-.7.55-1.91,1.46-1,.75-2.41.88-4.29.39q-9-2.3-20.61-4.2-3.31,13.48-4.88,20.32,5.37-.45,18.41-1.13c1.82,0,3,.57,3.66,1.81.09.19.37,1.3.83,3.32a6.22,6.22,0,0,1,.05.68c0,1.11-1.29,1.87-3.86,2.3q-4.11.73-4.69-.44a2.62,2.62,0,0,0-2.64-1.47q-10.83,0-13.28.44l-3.9,12.16a32.21,32.21,0,0,1-3,6.91,15.64,15.64,0,0,1-4.17,3.93c1.14-.06,2.38-.1,3.71-.1q8.06,0,26.66,1.66a1.57,1.57,0,0,0,1.83-1.49c.21-1.09.55-1.65,1-1.68a1.43,1.43,0,0,1,1.66,1.07l1.32,5.62a2.06,2.06,0,0,1-.88,2c-.71.55-1.4,1.11-2.05,1.66a2.63,2.63,0,0,1-1.76.78l-2.83-.73a90.29,90.29,0,0,0-23.53-2.83c-3.55,0-7.36.14-11.43.44q-4.1,3.56-5.13,3.56c-.55,0-.91-.42-1.07-1.27q-.93-4.59-.93-5.12a2.51,2.51,0,0,1,2.1-2.49,42.56,42.56,0,0,1,8.5-.88,100.45,100.45,0,0,0,7.91-18.7c-.2-.59-.7-1.76-1.52-3.52a7.94,7.94,0,0,1-.73-2.54c0-1.24,1.25-2.16,3.76-2.78.49-.13,1-.26,1.61-.39q2.25-8.59,5.57-22a67.33,67.33,0,0,0-10.35-1.22,35,35,0,0,0-4.54.3q-5.37.78-5.37,7.17a29.81,29.81,0,0,0,1.07,7.13c.32,1.27,0,1.91-.83,1.91-.62,0-1-.39-1.27-1.17a40.21,40.21,0,0,1-2.05-11.33,20.15,20.15,0,0,1,1-6.3q1.41-4.5,8.44-4.49a89.45,89.45,0,0,1,15.53,2c1.69-1.24,2.86-1.86,3.52-1.86.45,0,.68.3.68.88a5.77,5.77,0,0,1-.39,1.76q2,.58,19.29,4.49a3,3,0,0,0,3.51-1.66,1.51,1.51,0,0,1,1.22-.78C490.32,90.79,490.75,91.31,490.94,92.35Z"/></g></g></svg>