<svg xmlns="http://www.w3.org/2000/svg" viewBox="0 0 832.73 614.81"><defs><style>.cls-1,.cls-2{fill:none;stroke:#000;stroke-miterlimit:10;}.cls-1{stroke-width:6px;}.cls-2{stroke-width:5.6px;}</style></defs><g id="圖層_2" data-name="圖層 2"><g id="圖片邊框"><path class="cls-1" d="M968.11,63.69s-.13,4.46-.38,12.89-.51,20.84-.9,36.75c-.67,31.83-1.52,77.64-2,133.61S964,369.05,964,441.51c0,72.15.07,150.61.11,231.55L936,672.77l-29.18-.19q-29.26-.12-58.73.23l-58.94.73c-9.83.15-19.65.13-29.47.17l-29.4.08c-78.3-.09-155.56-1-228.48-1.78s-141.52-1.35-202.49-1.42-114.3.51-156.7,1.33" transform="translate(-138.38 -61.98)"/><path class="cls-1" d="M967.9,66.66l-3.09.21-9.06.49c-8,.38-19.69.8-34.78,1s-33.51,0-54.84-.48S820.56,66.51,793.81,66L607.64,65c-69.49-.15-145.35.49-223.66,6.48-4.9.35-9.79.77-14.68,1s-9.81.38-14.73.29c-9.85-.14-19.71-1.12-29.62-2S305.06,69.13,295,68.91,275,68.8,265,69c-20.08.39-40.2,1.12-60.33,1.38-10.07.09-20.14.11-30.19-.2-5-.22-10.06-.37-15.07-.81l-3.76-.29c-1.25-.1-2.5-.28-3.74-.41l-3.69-.43-.92-.11c-.2-.09-.2.13-.25.27l-.12.45-.47,1.8a26.6,26.6,0,0,0-.76,3.63c-.21,1.24-.46,2.47-.56,3.72l-.41,3.73-.25,3.75c-.2,2.5-.2,5-.3,7.51s0,5,0,7.5c.11,10,.65,20,1.33,29.92s1.58,19.82,2.18,29.73a234.15,234.15,0,0,1-.87,29.65c-1.51,19.62-4.14,39-4.65,58.18,0,19.21.47,38.32.46,57.1.36,75.16-.73,146-1.08,208.78s.14,117.72,1.76,161.08" transform="translate(-138.38 -61.98)"/><path class="cls-2" d="M946.42,88.65s-.13,4.08-.37,11.8-.49,19.1-.86,33.68c-.66,29.16-1.5,71.17-2,122.55s-.88,112.15-1,178.82c0,66.37,0,138.63-.06,213.31l-26.5-.27L888,648.37q-27.69-.11-55.62.21l-55.88.69c-9.31.14-18.63.12-27.94.16l-27.91.07c-74.31-.07-147.73-.94-217.07-1.61S369,646.66,311,646.61s-108.66.52-148.87,1.28" transform="translate(-138.38 -61.98)"/><path class="cls-2" d="M945.08,91.22l-11.34.71L920,92.48c-5.43.2-11.69.28-18.73.44-14.08.14-31.28.11-51.19-.27s-42.53-1.08-67.5-1.5l-173.75-.87c-64.85-.12-135.66.33-208.77,5.57l-13.72,1c-4.57.35-9.16.55-13.75.63A256.54,256.54,0,0,1,345,96.2c-9.25-.8-18.54-1.65-27.88-2.06s-18.71-.41-28.08-.27c-18.75.25-37.52.95-56.31,1.27s-37.61.49-56.3-1.21l-3.46-.39-1.71-.19-.85-.1-.42,0c-.05.12-.08.27-.12.4-.3,1.11-.62,2.22-.9,3.33l-.61,3.41a114.2,114.2,0,0,0-1.11,14c-.27,9.33.1,18.65.64,27.93s1.32,18.51,2,27.73q.29,3.45.51,6.92c.1,2.31.23,4.63.2,6.94,0,4.63-.19,9.23-.45,13.82C169,216,166.43,234.05,165.44,252c-.14,2.23-.18,4.47-.25,6.69s0,4.45,0,6.69l.15,13.38c.08,8.89.25,17.72.25,26.49.4,70.16-.58,136.22-.9,194.86s.13,109.88,1.65,150.35" transform="translate(-138.38 -61.98)"/></g></g></svg>