<svg xmlns="http://www.w3.org/2000/svg" viewBox="0 0 729.69 183.6"><defs><style>.cls-1,.cls-2,.cls-3,.cls-4,.cls-5,.cls-6,.cls-7{fill:none;stroke:#000;stroke-miterlimit:10;}.cls-1{stroke-width:10px;}.cls-2{stroke-width:6px;}.cls-3{stroke-width:3.78px;}.cls-4{stroke-width:3.63px;}.cls-5{stroke-width:2.95px;}.cls-6{stroke-width:1.7px;}.cls-7{stroke-width:2.5px;}</style></defs><g id="圖層_2" data-name="圖層 2"><g id="最新消息-鈴鐺"><path class="cls-1" d="M8.34,117.6c-3.11-18-2.29-36.1-2.91-53.82-.29-8.35-.87-16.64.14-24.9.21-1.9.5-3.79.86-5.69a47.6,47.6,0,0,1,1.16-5.41A47.82,47.82,0,0,1,11,18.52a22.55,22.55,0,0,1,3.95-5.91,22.88,22.88,0,0,1,7-4.73c.71-.3,1.41-.69,2.17-.94l2.29-.78a23.78,23.78,0,0,1,2.38-.63l1.21-.28A7.87,7.87,0,0,1,31.05,5c.71,0,1.61,0,2.45,0l2.54,0c1.69,0,3.37.08,5,.17C48.61,5.68,56.34,6.91,64,6.93a113.23,113.23,0,0,0,11.43-.59c2-.17,4-.36,6.25-.38a35.41,35.41,0,0,1,7.48.74"/><path class="cls-1" d="M606.55,101.43c-.08,2.1-.09,4.22,0,6.38a32.76,32.76,0,0,0,1,6.44,14.21,14.21,0,0,1,.48,2.68c0,.43,0,.87,0,1.41l0,1.54-.12,6.15-.15,6.12a25.93,25.93,0,0,1-.71,5.79,19.92,19.92,0,0,1-6.36,9.48,40.3,40.3,0,0,1-4.78,3.59c-1.66,1.1-3.45,2.09-5.21,3.14a37.23,37.23,0,0,1-5.32,2.74,32.64,32.64,0,0,1-5.73,1.61,118,118,0,0,1-12,1.47,111.77,111.77,0,0,1-12.14.3c-4-.1-8.13-.32-12.22-.29s-8.14.29-12.2.38q-12.17.38-24.29.49c-8.09.09-16.15.08-24.21-.08s-16.09-.43-24.13-.62c-7.56-.2-15.14-.26-22.68-.25s-15-.17-22.55-.45c-15-.55-30-1.49-44.92-2.37-6.87-.38-13.74-.73-20.64-1s-13.82-.34-20.72-.4c-13.93-.07-27.86.14-41.68.39l-18,.33q-9,.14-18.08.38-18.1.48-36.23,1.29l-36.27,1.68c-12.07.59-24.19.79-36.31.68-13.72-.13-27.55-.68-41.44-.89s-27.83.2-41.68.35l-5.18.06c-1.75,0-3.48.09-5.21.16-3.46.15-6.89.33-10.31.38a44,44,0,0,1-10.15-.72c-.83-.19-1.63-.49-2.45-.73a24.08,24.08,0,0,1-2.36-1A12.74,12.74,0,0,1,17.44,155a12.45,12.45,0,0,1-1.53-2.19,17,17,0,0,1-1-2.46,32.07,32.07,0,0,1-1.17-5.12c-.52-3.4-.84-6.81-1.3-10L12.25,134,12,132.73l-.48-2.45c-.33-1.63-.67-3.25-1-4.86C9.8,122.2,9,119,8.19,115.87"/><path class="cls-1" d="M86.62,6.24q21.9-.88,43.74-1c14.55-.08,29.07,0,43.54.45,7.24.21,14.43.47,21.62,1.16,7.24.53,14.45.8,21.65,1q21.6.69,43.05.87L300.48,9l20,.23,10,.15h1.27a5.47,5.47,0,0,0,.7,0l.69-.06,2.44-.17L338.09,9l2.47-.05,4.53-.07c1.52,0,3,0,4.55.06l4.55.11,4.56.23c6.08.24,12.17.63,18.25,1,12.29.77,24.64,1.68,37,2.2,21.47.94,42.93.6,64.41.51,5.37,0,10.74,0,16.11,0,2.69,0,5.37.07,8.06.12l3.94.08a3.67,3.67,0,0,1,.87.14l.92.21,2,.48c5.38,1,10.74,1.51,16.11,2l8.06.72,8.06.67,36.73,3.15,9.25.72,2.35.17,2.35-.13c1.53-.07,3-.07,4.56,0a19,19,0,0,1,4.29.69,7.67,7.67,0,0,1,3.61,2.15,8.3,8.3,0,0,1,1.9,3.73,23.49,23.49,0,0,1,.56,4.31c.13,3,0,6.07-.17,9.13s-.31,6.13-.47,9.18l-.09,2.28-.24,2.26-.43,4.56c-.27,3-.51,6.07-.69,9.09a233.21,233.21,0,0,0,.28,35.69"/><path class="cls-2" d="M610.15,114.3s.94-.46,2.73-1.18a70.81,70.81,0,0,1,7.82-2.57,69.33,69.33,0,0,1,11.89-2.2,24,24,0,0,1,6.77.21,15.94,15.94,0,0,1,6.36,3.2,33.32,33.32,0,0,1,2.91,2.59c.47.46.93.94,1.39,1.43l1.28,1.37c.83.93,1.92,1.93,2.06,3.31a3.84,3.84,0,0,1-1.85,3.31,22.19,22.19,0,0,1-3.56,2.06l-3.57,1.85c-2.37,1.22-4.66,2.46-7,3.57a34.75,34.75,0,0,1-7.29,2.64,20.72,20.72,0,0,1-7.54.29,36.07,36.07,0,0,1-6.35-1.53c-1.87-.6-3.49-1.2-4.9-1.69"/><path class="cls-2" d="M612.37,120.94s6.34.09,13.66-.42c3.67-.25,7.57-.64,11.06-1.18,1.73-.27,3.42-.56,4.8-.91a8.89,8.89,0,0,0,3.11-1.32"/><path class="cls-2" d="M611.47,134.13a10.44,10.44,0,0,1,1.63.1l.82.14a4,4,0,0,1,.67.16,1.92,1.92,0,0,1,.71.39,6,6,0,0,1,.79.83c.69.82,1.45,2,2.64,3.25a18.65,18.65,0,0,0,4,3.07c1.45.86,2.91,1.58,4.41,2.36l4.64,2.38c6.33,3.24,13.17,6.59,19.41,9.26a101.56,101.56,0,0,0,15.7,5.52"/><path class="cls-2" d="M636.77,147.2l3-1.65A30.55,30.55,0,0,1,643,144a28.49,28.49,0,0,1,4.48-1.53,9.16,9.16,0,0,1,2.34-.22,9.43,9.43,0,0,1,2.57.46,14.73,14.73,0,0,1,5.35,3.2,35.93,35.93,0,0,1,4.9,5.69c.79,1.09,1.57,2.21,2.35,3.36s1.4,2.13,2.12,3.21,1.34,2.14,2,3.33a1.37,1.37,0,0,1,.13,1,1.5,1.5,0,0,1-.58.73A8.56,8.56,0,0,1,667,164c-1.22.44-2.51.83-3.88,1.18s-2.86.63-4.3.88c-2.89.49-5.81.81-8.67,1.07l-4.26.37a38.23,38.23,0,0,1-4.31.18,16.77,16.77,0,0,1-4.38-.71,17.9,17.9,0,0,1-4-1.8,17.71,17.71,0,0,1-3.34-2.65,20.53,20.53,0,0,1-1.38-1.58,9.48,9.48,0,0,1-1.22-2,6.78,6.78,0,0,1-.44-1.13l-.26-1.17a16.91,16.91,0,0,1-.14-2.11c0-.63,0-1.26,0-1.83s.07-1.15.14-1.68c.23-2.15.54-4,.85-5.69"/><path class="cls-2" d="M593,151l-.38.83c-.22.55-.56,1.36-.88,2.43a21.89,21.89,0,0,0-.81,9.36,18.6,18.6,0,0,0,6.49,11.72,16.21,16.21,0,0,0,3.28,2.06,18.9,18.9,0,0,0,3.65,1.23,66.93,66.93,0,0,0,7.42,1.17l4,.51c.7.1,1.38.17,2,.22l.95.06a1.48,1.48,0,0,0,.94-.16,1.44,1.44,0,0,0,.51-.86c.1-.33.19-.66.27-1,.15-.67.28-1.35.39-2a29.81,29.81,0,0,0,.34-3.92,22.71,22.71,0,0,0-1-7.41,16.94,16.94,0,0,0-3.39-6.05,13.86,13.86,0,0,0-1.15-1.15,7.42,7.42,0,0,0-1.22-.91,17.58,17.58,0,0,0-2.76-1.3,50.88,50.88,0,0,0-5.87-1.74,71.89,71.89,0,0,0-9.92-1.6"/><path class="cls-2" d="M598.1,162a4.33,4.33,0,0,1,.47.13,6.87,6.87,0,0,1,1.41.64,20.43,20.43,0,0,1,2.23,1.54c.85.66,1.84,1.45,2.89,2.18a38,38,0,0,0,6.65,3.81,18.83,18.83,0,0,0,5.81,1.67"/><path class="cls-2" d="M649.94,96.06l.83-.2c.53-.13,1.33-.25,2.32-.43,2-.29,4.84-.6,8-.73,6.27-.3,13.63,0,17.53-.56"/><path class="cls-2" d="M726.77,99l-.45-1.16c-.31-.76-.78-1.87-1.5-3.26a31.72,31.72,0,0,0-3.07-4.84,25.33,25.33,0,0,0-5.53-5.28,31.37,31.37,0,0,0-8-3.87c-1.45-.5-2.94-.94-4.46-1.35s-3-.83-4.69-1.23c-3.26-.75-7-1.44-10.83-.67a14.16,14.16,0,0,0-5.42,2.34,15.82,15.82,0,0,0-4,4.29,17.8,17.8,0,0,0-2.6,11.2,23.59,23.59,0,0,0,1.2,5.6,20.7,20.7,0,0,0,2.5,5.08,12.06,12.06,0,0,0,4,3.73,17.3,17.3,0,0,0,5.12,1.68,44.83,44.83,0,0,0,10.55.81,36.31,36.31,0,0,0,5-.57c.8-.16,1.58-.34,2.35-.54l1.13-.32.9-.39a33.19,33.19,0,0,0,3.83-2.3c1.25-.84,2.44-1.73,3.59-2.59a127.08,127.08,0,0,0,11.23-9.74"/><path class="cls-2" d="M678.24,95.78l.22-.08c.14-.06.42-.12.75-.21a29.74,29.74,0,0,1,3.21-.57,86.09,86.09,0,0,1,11.2-.71c4.4,0,9.09,0,13.45.42a36.06,36.06,0,0,1,6.23,1.13c1.93.54,3.55,1.16,4.83,1.53"/><path class="cls-2" d="M638.57,108.59s1-.44,2.87-1.37c.93-.48,2-1.06,3.36-1.88.65-.4,1.36-.88,2.11-1.45a15,15,0,0,0,1.27-1.13,9.29,9.29,0,0,0,1.14-1.47c.16-.29.32-.59.46-.9s.24-.55.35-.82c.21-.55.39-1.1.54-1.64.32-1.1.52-2.14.76-3.25.45-2.2.82-4.58,1.08-7.09a71.28,71.28,0,0,0,.41-7.87l0-2.18c0-.84,0-1.67-.1-2.49-.1-1.62-.21-3.27-.43-4.77a76.33,76.33,0,0,0-18.73,2.54,41,41,0,0,0-15.29,7.64,28.65,28.65,0,0,0-8.6,11.66,20.39,20.39,0,0,0-1.29,5.64,18.82,18.82,0,0,0,.22,4.71"/><path class="cls-2" d="M615,108.94a18.63,18.63,0,0,1,2.38-4.87,39.21,39.21,0,0,1,3.86-4.95c1.62-1.8,3.53-3.7,5.53-5.69,8-8,16.92-17.23,20.75-22.41"/><path class="cls-3" d="M101.42,49.49a20.59,20.59,0,0,0-.1-2.76,9.54,9.54,0,0,0-.61-2.58,7.5,7.5,0,0,0-3-4.14,7.26,7.26,0,0,0-2.3-.9,10.07,10.07,0,0,0-2.57-.24c-.43,0-.86.09-1.32.15a12.47,12.47,0,0,0-1.27.37,9.76,9.76,0,0,0-2,1,5,5,0,0,0-1.06,1c-.09.15-.46.45-.69.73a7.5,7.5,0,0,0-.7.9A9.61,9.61,0,0,0,84.24,47a8.46,8.46,0,0,0,.41,4.3,4.68,4.68,0,0,0,1.28,1.79c.59.56,1.43,1,2.54,2"/><path class="cls-3" d="M121.07,120.67a49.22,49.22,0,0,0,6.2-2.13c2-.83,3.91-1.71,5.9-2.44a48.46,48.46,0,0,0,5.8-2.67c1.88-1,3.74-2,5.54-3.07a18.34,18.34,0,0,0,2.48-1.75,11.21,11.21,0,0,0,3.32-8.33,14.49,14.49,0,0,0-.32-2.91,10.94,10.94,0,0,0-1.07-2.89,13.76,13.76,0,0,0-4.34-4.2l-.92-.62c-.27-.2-.55-.37-.81-.57a16.25,16.25,0,0,1-1.51-1.28,36.26,36.26,0,0,1-3-3.4c-.5-.63-1-1.26-1.57-1.87s-1-1.19-1.48-1.82a32.29,32.29,0,0,1-2.56-4c-1.66-3.18-2.71-6.7-4.11-10a22.75,22.75,0,0,0-6.22-9"/><path class="cls-3" d="M124,59.28a31.67,31.67,0,0,0-7.16-6.53,23.15,23.15,0,0,0-18.35-3.06A18.59,18.59,0,0,0,94,51.49a22.44,22.44,0,0,0-3.81,2.81,24.2,24.2,0,0,0-5.52,6.88,33.47,33.47,0,0,0-2.9,8.33c-.29,1.33-.53,2.66-.74,4s-.32,2.72-.42,4.08a56.1,56.1,0,0,0,.12,8.21c.41,4.67,1.42,9.12,1.7,13.67a29.82,29.82,0,0,1-.29,6.86c-.38,2.3-1,4.58-1.42,6.88a23.79,23.79,0,0,0-.46,4,12,12,0,0,0,.6,4,9.7,9.7,0,0,0,2,3.54,7.23,7.23,0,0,0,1.65,1.3,6,6,0,0,0,2,.68c1.26.11,2.5.63,3.92.44a36.23,36.23,0,0,1,6-.39,10.93,10.93,0,0,0,5.46-1.26"/><path d="M90.35,126a.57.57,0,0,0,0-1.14.57.57,0,0,0,0,1.14Z"/><path class="cls-4" d="M90.34,126.32,92,125c1.07-.82,2.62-2,4.58-3.35a51.53,51.53,0,0,1,7-4.23c2.82-1.29,6-2.64,9.26-4s6.67-2.79,10.12-3.94,7-2.08,10.24-3a148.6,148.6,0,0,1,16.65-4"/><path class="cls-3" d="M102.86,118.09a10.71,10.71,0,0,0-.63,2.21,7.29,7.29,0,0,0,.06,2.16,15.71,15.71,0,0,0,.56,3.91,6.77,6.77,0,0,0,2.19,3.32,5.56,5.56,0,0,0,2.63,1.18,16.44,16.44,0,0,0,2.9.22l1.39,0c.46,0,.94,0,1.4-.06a10.38,10.38,0,0,0,2.62-.56l.47-.2.39-.21L117,130l.29-.15a5.87,5.87,0,0,0,.59-.37,6.93,6.93,0,0,0,1.83-2,8.8,8.8,0,0,0,1.23-4.65v-.18a10.48,10.48,0,0,0-.56-2.34,19.43,19.43,0,0,0-.82-2.29,8,8,0,0,0-1.39-2.13c-.6-.7-1.45-1.3-2.43-2.56"/><path class="cls-5" d="M92.65,111.84a10.16,10.16,0,0,1,.64-1.23,12.63,12.63,0,0,1,2.56-2.93,9.77,9.77,0,0,1,1-.79l1.27-.79c.9-.54,1.88-1.1,2.92-1.67,2.08-1.15,4.38-2.37,6.77-3.61a59.72,59.72,0,0,1,7.48-3.43,62.71,62.71,0,0,1,7.83-2.21,65.7,65.7,0,0,1,13-1.52"/><path class="cls-6" d="M93.46,85a3.89,3.89,0,0,0-.22-.5,2.49,2.49,0,0,0-.46-.62,1.84,1.84,0,0,0-1-.5,2.45,2.45,0,0,0-1,.06,2.31,2.31,0,0,0-1,.5,2,2,0,0,0-.58,2.24,2.23,2.23,0,0,0,1.69,1.32A2.1,2.1,0,0,0,92.6,87c.92-.75,1.13-1.92.84-2.18"/><path class="cls-7" d="M100.69,69.67s.15-.44.39-1.36a8,8,0,0,0,.28-1.89,3.56,3.56,0,0,0-1.09-2.69,5,5,0,0,0-1.34-.86,9.76,9.76,0,0,0-1.38-.47,5.59,5.59,0,0,0-3.33.19,6.87,6.87,0,0,0-2.79,2,8.52,8.52,0,0,0-1.73,3,8.18,8.18,0,0,0,.7,6.75,5.43,5.43,0,0,0,2.25,2.32,3.32,3.32,0,0,0,2.84-.08,9.61,9.61,0,0,0,3.82-3.85A14.89,14.89,0,0,0,101,68.79"/><path d="M283.23,116.53c-.42,0-.91,0-9.22-10.27-5.41-6.69-9.93-12.48-13.45-17.22-.52-.71-2.14-3-4.82-6.86-3-4.39-5.18-7.47-6.44-9.19l-.13,5.73-.08,7c0,4.4,0,9.28-.1,14.47s-.17,9.34-.29,12.42a3.94,3.94,0,0,1-1.12,2.41,3.08,3.08,0,0,1-2.21,1.1,2.1,2.1,0,0,1-1.89-.83,4.89,4.89,0,0,1-.52-2.69c0-.76.12-3.11.35-7,.54-7.16.81-13.25.8-18.1,0-3.9,0-7.62.15-11.06s.18-5.61.17-6.41l.09-2.75v-.26a4,4,0,0,1,.38-1.89,1.86,1.86,0,0,1,1.82-.89h.47c.64,0,1.67.45,4.5,3.88,2.05,2.47,4.67,5.87,7.8,10.1q1,1.31,2,2.58l1.79,2.39c3.56,4.53,5.47,7,5.66,7.22,6.65,8.43,11,14.09,13.18,17.13-.05-.28-.11-.57-.16-.89-.32-1.81-.63-4.22-.92-7.18s-.44-6-.45-9.16a200.26,200.26,0,0,0-1.66-22c-.32-3-.48-4.88-.49-5.61,0-1.86.78-4.09,4.55-4.1.9,0,1.55.78,1.93,2.32a50.59,50.59,0,0,1,.69,8.23c.14,4.14.22,10.81.25,19.84,0,2.87.12,5.7.35,8.41s.44,5.2.63,7.33a65.92,65.92,0,0,1,.49,6.71l.1,3.37C287.42,116.34,285,116.52,283.23,116.53Z"/><path d="M283.23,116q-.66,0-8.81-10.07T261,88.73c-.5-.69-2.11-3-4.81-6.85q-5.94-8.62-7.36-10.41l-.17,7.24-.07,7q0,6.68-.1,14.47t-.29,12.41a3.39,3.39,0,0,1-1,2.07,2.56,2.56,0,0,1-1.83.94,1.66,1.66,0,0,1-1.46-.6,4.65,4.65,0,0,1-.43-2.4q0-1.12.36-7,.81-10.81.79-18.14,0-5.82.16-11c.11-3.48.17-5.62.16-6.43l.09-2.73v-.28a3.64,3.64,0,0,1,.32-1.65,1.43,1.43,0,0,1,1.37-.61h.46q1,0,4.1,3.7t7.78,10.07q1,1.32,2,2.58l1.79,2.39,5.66,7.22q13.39,17,14.62,19.31c-.13-.5-.35-1.65-.67-3.47s-.62-4.19-.91-7.14-.44-6-.45-9.11a198.87,198.87,0,0,0-1.66-22.07q-.48-4.52-.48-5.55,0-3.57,4-3.58.93,0,1.41,1.92a49.84,49.84,0,0,1,.68,8.13q.21,6.2.25,19.82,0,4.32.35,8.46c.23,2.75.44,5.2.63,7.32q.48,4.43.49,6.67l.1,3.39C286.89,115.62,285.67,116,283.23,116Z"/><path d="M329.93,118.36a57.92,57.92,0,0,1-9.48-.59,10.82,10.82,0,0,1-5.82-2.51c-1.61-1.79-2.72-4.85-3.34-9.13-.59-4.06-1.11-9.52-1.56-16.23-1,.26-2.19.48-3.43.67a24.11,24.11,0,0,1-3.41.34,3,3,0,0,1-2.2-.85,2.81,2.81,0,0,1-.87-2.1,3,3,0,0,1,.29-1.36,1.49,1.49,0,0,1,1.06-.85c2.15-.27,3.63-.42,4.58-.49l3.54-.42c-.26-7.55-.52-13.85-.77-18.74-.68,0-1.25,0-1.7.09l-4.37.11a2.3,2.3,0,0,1-1.69-.62,1.91,1.91,0,0,1-.63-1.4c0-1.21.58-2.81,3.39-3.52.8-.14,1.76-.28,2.92-.44,1-.14,1.71-.22,2.14-.24a5.72,5.72,0,0,1,4.17-2c.34,0,.8.17,1.1,1,.08.2.14.38.19.53,4-.21,8.79-.69,14.24-1.42,3.71-.51,9.54-1.72,17.32-3.61l3.54-.78h.06c.91,0,1.46.62,1.46,1.65a2.88,2.88,0,0,1-1.87,2.44,42.78,42.78,0,0,1-8,3.07c-3.6,1.07-6.6,1.84-8.93,2.29-3.62.7-7.31,1.26-11,1.68-3.16.36-5.38.59-6.61.69.07,3.47.17,7.08.3,10.72q.18,5.08.28,7.37c2.42-.34,5.92-.92,10.4-1.74l3.57-.57a18.42,18.42,0,0,0,8.85-3.67,5.38,5.38,0,0,1,2.78-1.45,1.76,1.76,0,0,1,1.53,1,3.32,3.32,0,0,1,.5,1.72c0,1.35-1.33,2.72-4.07,4.18a31.34,31.34,0,0,1-8.54,3c-2.57.57-5.49,1.12-8.66,1.62q-4.11.66-5.84.9c.41,10.21,1.5,17.94,3.23,23a32.35,32.35,0,0,0,5,1.24,43.62,43.62,0,0,0,6.68.4A28.17,28.17,0,0,0,338,112.2a20.47,20.47,0,0,0,5.9-2.62c1.35-1,2.07-1.84,2.07-2.59a3.45,3.45,0,0,0-.25-1.26,8.58,8.58,0,0,0-.71-1.37l-.6-.87a2.35,2.35,0,0,1-.52-1.28c0-1,.86-1.47,2.58-1.47a3.8,3.8,0,0,1,3,1.44,4.71,4.71,0,0,1,1.21,3.11,9.27,9.27,0,0,1-2.8,6.28,20.17,20.17,0,0,1-7.5,4.9A28.7,28.7,0,0,1,329.93,118.36Z"/><path d="M348.55,57.38a42.56,42.56,0,0,1-7.93,3q-5.4,1.61-8.87,2.28-5.46,1.05-10.94,1.67c-3.67.42-6,.66-7.1.73.08,3.63.18,7.37.32,11.22s.23,6.5.3,7.94q3.66-.48,11-1.81l3.57-.58q5.91-1,9.1-3.78a5.29,5.29,0,0,1,2.44-1.33,1.24,1.24,0,0,1,1.08.71,2.69,2.69,0,0,1,.43,1.45c0,1.13-1.26,2.37-3.8,3.72a31,31,0,0,1-8.4,3q-3.84.85-8.63,1.62t-6.3,1q.62,16.06,3.36,23.85a32.37,32.37,0,0,0,5.36,1.35,44.68,44.68,0,0,0,6.76.4,28.38,28.38,0,0,0,7.89-1.1,20.79,20.79,0,0,0,6.06-2.7c1.53-1.07,2.29-2.07,2.29-3a3.79,3.79,0,0,0-.29-1.45,9.66,9.66,0,0,0-.75-1.46l-.62-.89a1.92,1.92,0,0,1-.42-1c0-.62.68-.94,2.06-.94a3.31,3.31,0,0,1,2.59,1.26,4.19,4.19,0,0,1,1.09,2.77,8.82,8.82,0,0,1-2.66,5.93,19.5,19.5,0,0,1-7.32,4.76,27.78,27.78,0,0,1-10.28,1.86,59.31,59.31,0,0,1-9.4-.58,10.41,10.41,0,0,1-5.55-2.38q-2.25-2.53-3.17-8.82t-1.6-16.82a35.9,35.9,0,0,1-4,.81,23.36,23.36,0,0,1-3.33.34,2.5,2.5,0,0,1-1.84-.7,2.38,2.38,0,0,1-.71-1.73,2.45,2.45,0,0,1,.24-1.13,1,1,0,0,1,.7-.57c2.06-.25,3.57-.41,4.51-.48l4-.48q-.42-12.12-.81-19.73a22,22,0,0,0-2.26.1l-4.32.11a1.82,1.82,0,0,1-1.32-.47,1.45,1.45,0,0,1-.47-1q0-2.25,3-3c.75-.12,1.7-.27,2.86-.43a21.41,21.41,0,0,1,2.31-.24,5.21,5.21,0,0,1,3.94-2c.24,0,.45.2.61.61a3,3,0,0,1,.24.89q6.19-.3,14.74-1.45Q334,57.88,345.72,55l3.48-.77c.62,0,.94.38.94,1.13S349.61,56.81,348.55,57.38Z"/><path d="M370,118.44c-.49,0-.79,0-2.08-5.28-.78-3.23-1.6-6.87-2.43-10.82-2.58-11-3.23-13.8-3.32-14.15-1.51-6.09-2.77-10.72-3.74-13.77-1.18-3.68-2-4.91-2.44-5.3a3.83,3.83,0,0,1-1.79-3,2.57,2.57,0,0,1,1.17-1.87,4.07,4.07,0,0,1,2.63-.92,9.58,9.58,0,0,1,1.9.15,2,2,0,0,1,1.38,1c.91,1.49,2.6,7.5,5.18,18.36.25.8.57,2,.95,3.66,1.31,5.35,2.43,10.1,3.33,14.09.5,2,.93,3.8,1.28,5.4.13.59.25,1.14.37,1.62.28-1,.71-2.45,1.39-4.63,2-6.37,3.63-11.83,4.73-16.24s2.27-8.29,3.27-11.28a25.08,25.08,0,0,1,2.41-5.74,5.92,5.92,0,0,1,1.72-1.33,4.71,4.71,0,0,1,2.17-.58,1.84,1.84,0,0,1,1.42.59,4.68,4.68,0,0,1,.75,1.22,8,8,0,0,0,.54,1.06c.66,1.31,1.7,4,3.12,8s2.71,8,3.85,11.86L399,94.85c1.72,5.9,3.06,10.16,4,12.7,1.87-4.41,3.17-11.36,3.89-20.69a158.18,158.18,0,0,0,.61-16.4L407.42,61a4.25,4.25,0,0,1,.33-2,1.87,1.87,0,0,1,1.78-.8A4.35,4.35,0,0,1,412,59a2.44,2.44,0,0,1,1.27,2c0,4.5-.16,9.38-.52,14.51s-.76,9.68-1.19,13.64a94.06,94.06,0,0,1-1.76,11.24,58.12,58.12,0,0,1-3.19,10.58c-1.35,3.16-2.76,4.7-4.32,4.7-1.1,0-2.12-1.4-3.32-4.56-1.07-2.79-2.47-7-4.18-12.41l-1.61-5.26c-1.13-3.58-2.4-7.29-3.78-11-1.06-2.83-1.94-5-2.62-6.62l-3.61,12.47c-3.65,12.63-6.35,21.4-8,26.08,0,.1-.14.33-.51,1.36a3.86,3.86,0,0,1-1.67,2.07A6,6,0,0,1,370,118.44Z"/><path d="M412.21,75.42q-.54,7.71-1.19,13.63a93.36,93.36,0,0,1-1.75,11.18,57.94,57.94,0,0,1-3.16,10.49q-1.87,4.38-3.84,4.38-1.23,0-2.83-4.22t-4.17-12.39l-1.62-5.26c-1.13-3.63-2.4-7.3-3.78-11s-2.47-6.36-3.22-7.93l-4,13.83q-5.49,19-8,26c-.06.13-.23.59-.51,1.37a3.31,3.31,0,0,1-1.45,1.79,5.39,5.39,0,0,1-2.72.62q-.39,0-1.57-4.89T366,102.24q-3.13-13.42-3.32-14.18-2.29-9.19-3.76-13.8c-1-3.07-1.84-4.91-2.6-5.54a3.38,3.38,0,0,1-1.6-2.62c0-.44.33-.93,1-1.46a3.57,3.57,0,0,1,2.3-.81,9.31,9.31,0,0,1,1.79.14,1.53,1.53,0,0,1,1,.79q1.32,2.16,5.13,18.22c.25.81.57,2,.95,3.66q2,8.16,3.33,14.08c.5,2,.93,3.8,1.28,5.4s.65,2.8.9,3.62c.06-.57.69-2.76,1.86-6.59q3.07-9.59,4.75-16.26t3.26-11.24a25,25,0,0,1,2.33-5.6,5.14,5.14,0,0,1,1.55-1.18,4.14,4.14,0,0,1,1.92-.52,1.31,1.31,0,0,1,1,.42,3.76,3.76,0,0,1,.67,1.08A7.77,7.77,0,0,0,390.3,71c.63,1.26,1.66,3.88,3.08,7.89s2.7,8,3.84,11.83L398.55,95q3,10.43,4.45,13.9,3.27-6.59,4.45-22a158.63,158.63,0,0,0,.61-16.45L407.94,61a3.86,3.86,0,0,1,.27-1.74c.19-.35.63-.52,1.32-.52a3.76,3.76,0,0,1,2.16.69,2,2,0,0,1,1,1.55Q412.75,67.71,412.21,75.42Z"/><path d="M442.21,118.7a38.53,38.53,0,0,1-9.82-1c-2.63-.71-4-1.81-4-3.26a7.58,7.58,0,0,1,1.43-3.43c1-1.7,1.83-2.46,2.55-2.46,1.36,0,1.65.54,1.65,1a1.54,1.54,0,0,1-.46,1,1,1,0,0,0-.18.3,5.77,5.77,0,0,0,.87.48,14.54,14.54,0,0,0,3.49,1,32,32,0,0,0,5.82.45,20.51,20.51,0,0,0,9.48-2.13,16.73,16.73,0,0,0,6.23-5.3,10.83,10.83,0,0,0,2.14-6.1c0-2.54-1.22-4.68-3.7-6.52S451,89,445.35,87.29s-9.93-3.32-13-4.54a23.75,23.75,0,0,1-7.55-4.59,9.21,9.21,0,0,1-3-6.9c0-3.59,2-7.16,6-10.61a51.59,51.59,0,0,1,30.56-11.53c2.82,0,4.31.62,4.55,1.91a19.24,19.24,0,0,1,.31,3.48c0,1.75-1.09,1.94-1.55,1.94a2.81,2.81,0,0,1-1.33-.39,10.12,10.12,0,0,0-1-.49c-.34-.11-.76-.23-1.25-.35a9.41,9.41,0,0,0-2-.17,34.67,34.67,0,0,0-11.55,2.54,46.76,46.76,0,0,0-11.74,6.26c-3.19,2.4-4.8,4.7-4.79,6.83a5.78,5.78,0,0,0,2.14,4.49,18.88,18.88,0,0,0,6,3.41c2.53,1,6.19,2.15,10.87,3.57,6.92,2,12.12,4.28,15.45,6.81s5.16,5.82,5.17,9.6a16.69,16.69,0,0,1-3.21,9.56,23.59,23.59,0,0,1-9,7.62A28.88,28.88,0,0,1,442.21,118.7Z"/><path d="M463.93,107.83a23.13,23.13,0,0,1-8.81,7.45,28.29,28.29,0,0,1-12.91,2.9,37.81,37.81,0,0,1-9.68-1q-3.58-1-3.58-2.76a7.51,7.51,0,0,1,1.35-3.15c.9-1.48,1.61-2.21,2.11-2.22.75,0,1.13.16,1.13.47a1.08,1.08,0,0,1-.33.66,1.14,1.14,0,0,0-.33.75c0,.19.4.47,1.18.84a15.4,15.4,0,0,0,3.62,1,31.49,31.49,0,0,0,5.92.45,20.86,20.86,0,0,0,9.72-2.19,17.16,17.16,0,0,0,6.42-5.47A11.34,11.34,0,0,0,462,99.24c0-2.69-1.32-5-3.92-6.94s-6.79-3.77-12.56-5.51q-8.37-2.7-12.93-4.52a23,23,0,0,1-7.39-4.49,8.65,8.65,0,0,1-2.84-6.52q0-5.16,5.8-10.21a51.06,51.06,0,0,1,30.22-11.41c2.5,0,3.85.49,4,1.49a18.2,18.2,0,0,1,.29,3.38c0,.94-.34,1.41-1,1.42a2.35,2.35,0,0,1-1.08-.33,9.9,9.9,0,0,0-1.08-.51c-.37-.13-.81-.25-1.32-.38a9.84,9.84,0,0,0-2.16-.18,35,35,0,0,0-11.73,2.57,47.12,47.12,0,0,0-11.87,6.33q-5,3.78-5,7.25a6.38,6.38,0,0,0,2.32,4.88,19.6,19.6,0,0,0,6.16,3.51q3.86,1.44,10.91,3.58,10.35,3,15.29,6.72t5,9.2A16.11,16.11,0,0,1,463.93,107.83Z"/></g></g></svg>