<svg xmlns="http://www.w3.org/2000/svg" viewBox="0 0 328.88 274.32"><defs><style>.cls-1,.cls-2,.cls-3,.cls-4,.cls-5,.cls-6,.cls-7{fill:none;}.cls-1,.cls-2,.cls-3,.cls-4,.cls-6,.cls-7{stroke:#000;stroke-miterlimit:10;}.cls-1{stroke-width:7.96px;}.cls-2{stroke-width:6.68px;}.cls-3{stroke-width:6.15px;}.cls-4{stroke-width:4.78px;}.cls-6{stroke-width:3.98px;}.cls-7{stroke-width:3.6px;}</style></defs><g id="圖層_2" data-name="圖層 2"><g id="圖層_2-2" data-name="圖層 2"><path class="cls-1" d="M300.29,251.69a16.07,16.07,0,0,0,4.37-.68,7.73,7.73,0,0,0,3.59-2.39,8.86,8.86,0,0,0,1.72-4,22.25,22.25,0,0,0,.31-4.16c0-2.53-.2-4.94-.24-7.34,0-1.2,0-2.38,0-3.57a6.2,6.2,0,0,0,0-1.06l-.05-.91-.1-1.82c-.51-9.71-.77-19.45-.92-29.17s-.11-19.45,0-29.16q.12-7.29.33-14.56c.13-4.88,0-9.77-.24-14.62-1.05-19.4-3.12-38.69-3.1-58a130.53,130.53,0,0,1,.75-14.4c.46-4.81.73-9.66,1-14.48s.35-9.65.31-14.49a105.85,105.85,0,0,0-.95-14.51,4.12,4.12,0,0,1-.1-.86,10.31,10.31,0,0,0-4.67-8.06,10.64,10.64,0,0,0-4.52-1.61c-.4,0-.82-.05-1.21-.05h-3.35q-9,0-17.89-.3-17.86-.53-35.63-1.9c-11.79-.88-23.56-1.91-35.34-2.72S180.82,5.41,169,5.9c-3,.12-5.92.44-8.82.66s-5.83.37-8.74.52q-8.76.2-17.51-.37C122.28,6,110.65,4.45,98.87,4.07,93.48,4,88.06,3.9,82.66,4.26c-2.7.09-5.42.41-8.14.62s-5.35.72-8,1.06q-8,1.13-16,2.17C45.24,8.79,40,9.42,34.7,9.78c-2.66.2-5.36.34-8.07.49l-4.08.24-2,.12-1.83,0a28.36,28.36,0,0,0-5.33.39,10.36,10.36,0,0,0-5.13,2.3,6.83,6.83,0,0,0-1,1,8.34,8.34,0,0,0-.74,1.21,9,9,0,0,0-.83,2.69,19.63,19.63,0,0,0-.21,2.91l0,2.52Q5.14,40,5,56.31c-.11,18.93.08,37.83.45,56.72,0,2.36.12,4.72.11,7.08l-.13,7.08-.22,14.16-.36,28.31Q4.52,198,4.19,226.3l-.12,7.09L4,236.93a13.49,13.49,0,0,0,.55,3.68,9.49,9.49,0,0,0,4.6,5.63,14.45,14.45,0,0,0,7,1.49c9.47.29,18.94,0,28.42,0,5.37,0,10.74.07,16.13.21s10.77.33,16.18.39c10.8.15,21.65-.09,32.49-.79s21.67-1.67,32.52-1.9,21.69.24,32.55.45c21.66.56,43.26.79,64.45,2.28,10.58.84,21.06,1.66,31.44,2.22q7.77.44,15.46.72l7.59.25c2.51.07,5,.09,7.49.07"/><path class="cls-2" d="M282.49,225.2a11.57,11.57,0,0,0,4.78-.47,5.71,5.71,0,0,0,3.46-3.1,10.74,10.74,0,0,0,.78-4.7c0-.78-.06-1.48-.1-2.15l-.07-1c0-.31,0-.61,0-.93,0-5.42-.05-10.82-.15-16.22-.21-10.79-.58-21.56-1-32.32q-.37-8.06-.76-16.12l-.93-16.09c-.61-10.71-1-21.42-1-32.12s.25-21.39,1.14-32c.41-5.32,1.11-10.59,1.6-15.93a27.11,27.11,0,0,0-.24-8.13,15.73,15.73,0,0,0-.58-2c-.27-.63-.54-1.27-.85-1.88l-.52-.89a3.92,3.92,0,0,0-.6-.9,10.56,10.56,0,0,0-1.54-1.46,23.06,23.06,0,0,0-7.36-3.54,57.94,57.94,0,0,0-7.87-1.74,117,117,0,0,0-16-1.25l-2,0a4.66,4.66,0,0,1-.92,0l-1-.12-4-.47-7.9-.87q-7.9-.85-15.8-1.57c-9.92-.9-19.84-1.66-29.75-2.19s-19.84-.87-29.76-.5c-2.48.09-4.95.22-7.41.35s-4.92.18-7.38.23c-4.92.1-9.84,0-14.76-.11-9.84-.29-19.7-.83-29.58-.62-4.54.07-9.06.33-13.59.65l-13.49,1.2c-9,.8-18,1.43-26.94,1.76-2.26.08-4.53.16-6.78.19l-3.37,0h-1.8A11.39,11.39,0,0,0,28.93,34a10.78,10.78,0,0,0-1.27,4.7l0,3.54Q27.51,56,27.41,69.72c-.06,8-.09,15.89-.22,23.8q-.07,5.94-.33,11.78l-.18,2.88-.22,3q-.21,3-.36,6c-.76,16-.8,31.9-.47,47.84s.74,31.77,1.11,47.67c0,1,0,1.91-.06,2.94a12.31,12.31,0,0,0,.25,3.19,6.4,6.4,0,0,0,1.43,2.83,6,6,0,0,0,1.26,1l.69.38.75.27a16.48,16.48,0,0,0,6.14.5c2-.28,3.94-.55,5.92-.78,7.9-.94,15.85-1.58,23.81-2,9-.49,18.08-.69,27.17-.66s18.2.33,27.33.68,18.26.75,27.42.81c4.58,0,9.16,0,13.74-.28,2.3-.13,4.55-.18,6.83-.27,1.13-.06,2.27-.06,3.41,0h3.41c9.09.13,18.18.52,27.22,1l27,1.42c17.83.92,35.35,1.6,52.3,1.69"/><path class="cls-3" d="M283,225.66c.36,0,.71.07,1.08.06l1.13-.05a5.19,5.19,0,0,0,1.11-.14,5,5,0,0,0,1.08-.27,5.29,5.29,0,0,0,3.26-2.79,9.58,9.58,0,0,0,.77-4.31c0-1.45-.19-2.64-.19-3.77,0-5-.05-10-.14-14.95-.2-9.95-.55-19.88-1-29.79q-.36-7.44-.73-14.86T288.47,140c-.56-9.87-.86-19.75-.81-29.61,0-2.46,0-4.93.09-7.39s.13-4.94.09-7.4c0-4.94,0-9.85.08-14.78s.14-9.84-.2-14.79a29.61,29.61,0,0,0-.49-3.72A12.41,12.41,0,0,0,286,58.65a8.51,8.51,0,0,0-2.65-2.85,13.16,13.16,0,0,0-1.67-.94,15.56,15.56,0,0,0-1.72-.77,79.61,79.61,0,0,0-14.3-3.8c-2.42-.45-4.84-.85-7.29-1.14-1.23-.13-2.46-.28-3.72-.3L251,48.69l-29.25-1.4c-18.33-.93-36.57-1.76-54.74-3.4-9.1-.67-18.2-1.13-27.31-1.2s-18.21.2-27.28.81c-4.16.27-8.31.63-12.46,1l-6.19.55c-2.06.15-4.12.3-6.19.41a232.19,232.19,0,0,1-24.74.24c-1.48-.08-2.95-.17-4.42-.28l-2.19-.2-1.08-.11L53.84,45a11.44,11.44,0,0,0-3.5.49A10.57,10.57,0,0,0,47.2,47a9.74,9.74,0,0,0-4.12,7.87l0,1.41.08,2.59.15,5.19q.28,10.38.56,20.77c.19,7.32.39,14.63.45,21.9,0,3.63,0,7.26-.12,10.79l-.16,2.63-.22,2.78c-.12,1.85-.24,3.7-.33,5.54-.7,14.74-.74,29.4-.4,44.1.21,7.24-.06,14.53-.4,21.83q-.28,5.47-.65,10.95l-.41,5.47c0,.22-.05.49,0,.74s0,.43,0,.68l-.06,1.37a11.67,11.67,0,0,0,.22,3,5.61,5.61,0,0,0,1.33,2.65,5.94,5.94,0,0,0,2.52,1.54,15.11,15.11,0,0,0,5.71.5,100.18,100.18,0,0,1,10.95-.75c7.33-.16,14.68,0,22,.19,16.63.55,33.42.37,50.24,1.17,8.41.31,16.84.66,25.28.66,4.22,0,8.44-.07,12.66-.31l6.29-.22,6.3,0c16.76.36,33.5,1.45,49.94,2.24s32.59,1.39,48.21,1.43"/><path class="cls-4" d="M44.23,29.78S45.61,32.7,47.5,36s4.31,7,6.2,8.25"/><path class="cls-4" d="M58.9,29s1.29,11.23,3.44,15.14"/><path class="cls-4" d="M71.31,29s3.18,11.79,6,15.58"/><path class="cls-4" d="M81.38,28s-.68,12.51.79,17.07"/><path class="cls-4" d="M88.91,27.2s6.77,12.63,10.64,16.22"/><path class="cls-4" d="M101.35,26.11s7,12.82,10.9,16.45"/><path class="cls-4" d="M114.7,26.64s7.08,12.43,11,15.92"/><path class="cls-4" d="M125.55,27.06s5.67,11.71,9.22,15.11"/><path class="cls-4" d="M140.21,27.07s4.58,11.8,7.8,15.38"/><path class="cls-4" d="M152.26,25.25s2.65,12.71,5.26,16.88"/><path class="cls-4" d="M164.69,26.92s4.7,12.75,7.95,16.64"/><path class="cls-4" d="M177.9,25s5.26,14.29,8.69,18.64"/><path class="cls-4" d="M189.49,26.86s4.95,14.14,8.29,18.47"/><path class="cls-4" d="M199.29,27.09s4,13.26,7,17.42"/><path class="cls-4" d="M207.27,28.13S211,42.05,213.9,46.46"/><path class="cls-4" d="M217.7,29s4.71,14.32,8,18.74"/><path class="cls-4" d="M230.19,28.86s1,13.67,3.11,18.34"/><path class="cls-4" d="M239.14,31.48s1.33,11,3.49,14.89"/><path class="cls-4" d="M246.92,31.27S248.5,43.79,250.75,48"/><path class="cls-4" d="M254.52,33s1.27,12.49,3.42,16.77"/><path class="cls-4" d="M262,31.31s1.58,13,3.84,17.44"/><path class="cls-4" d="M270.71,33.68s2.74,14.57,5.39,19.3"/><path class="cls-4" d="M279.33,35.75s.87,13.67,2.89,18.37"/><path class="cls-4" d="M28.93,33.79S42,43.9,47.53,46"/><path class="cls-4" d="M28.64,45.87s9.24,9.9,13.74,12.21"/><path class="cls-4" d="M26.07,59.73s11.63,3.86,16.34,3.63"/><path class="cls-4" d="M27.63,71.32s10,2.1,14.1,1.25"/><path class="cls-4" d="M28.65,77.54s9.56,3.94,13.77,3.87"/><path class="cls-4" d="M29.24,88.1s10.51,3.12,14.86,2.65"/><path class="cls-4" d="M28.34,100.23s10.09,2.85,14.3,2.29"/><path class="cls-4" d="M28.23,109.32s10.24,2.94,14.5,2.41"/><path class="cls-4" d="M26.27,120.91s11.38,2.89,15.92,2.3"/><path class="cls-4" d="M26.72,133.14S38.48,139,43.4,139.48"/><path class="cls-4" d="M24,142.54s12.49,1,17.09-.29"/><path class="cls-4" d="M26.11,152.22s12,7.52,17.13,8.69"/><path class="cls-4" d="M26.4,165.24s11,6.53,15.83,7.39"/><path class="cls-4" d="M26.84,175.58s10,2.1,14.09,1.25"/><path class="cls-4" d="M27.11,185.88s10.06,4.37,14.43,4.43"/><path class="cls-4" d="M27.44,195.9s9.66,2.61,13.74,2"/><path class="cls-4" d="M26.85,204.64s9.29,3.72,13.42,3.57"/><path class="cls-4" d="M27.65,215s8.79,2,12.59,1.21"/><path class="cls-1" d="M302.32,13.68c1,.78,1.87,1.35,2.78,2l2.69,1.73c.88.58,1.76,1.15,2.59,1.74a8.09,8.09,0,0,1,2,1.81l2.89,4a7.91,7.91,0,0,1,1,1.9c.25.7.47,1.51.7,2.31l.7,2.41c.13.41.21.79.3,1.17s.2.74.26,1.15c.12.79.26,1.58.33,2.4s.17,1.62.22,2.44c.41,6.58.25,13.25.13,19.89l-.48,19.93-.09,5,0,1.25c0,.45.05.89.06,1.29l.16,2.48c.22,3.3.39,6.61.57,9.91,1.34,26.43,2,52.76,3.06,78.9q.84,19.92,1.67,39.71l.75,19.77c.16,6.57.69,13.2-.68,19.34a24.36,24.36,0,0,1-1.27,4,18.64,18.64,0,0,1-2,3.58,10.5,10.5,0,0,1-1.3,1.48,8.43,8.43,0,0,1-.69.65l-.78.57a4.65,4.65,0,0,1-.83.52l-.86.49c-.6.29-1.23.55-1.85.81a33,33,0,0,1-8.18,1.82,51.9,51.9,0,0,1-8.55.16c-1.43-.09-2.87-.22-4.27-.43-.71-.09-1.39-.23-2.08-.36l-2.25-.44c-3.06-.6-6.34-1-9.37-1.32s-6-.64-9-1l-2.25-.29-2.33-.29c-1.66-.19-3.32-.29-4.95-.32-5.7-.08-10.88.45-16,.5-1.28,0-2.56,0-3.83,0l-4-.07c-2.72,0-5.42,0-8.11.1-5.36.17-10.64.5-15.88.69-2.62.09-5.23.16-7.83.15s-5.15-.11-7.87-.22c-10.68-.35-21.3-.27-31.92-.41-5.32-.06-10.61-.21-15.94-.44s-10.64-.16-16-.11c-6,.07-12.07.17-18.15.05s-12.14-.55-18.23-.94c-12.17-.79-24.41-1.36-36.63-1.17a201.26,201.26,0,0,0-30.46,2.57,7.05,7.05,0,0,1-3.67-.24,14,14,0,0,1-3.31-1.77c-2-1.4-3.94-2.91-5.91-4.29a47.44,47.44,0,0,1-4.28-4l-4-4.08A12.44,12.44,0,0,1,6.9,248c-.51-1.34-.9-2.65-1.26-3.95C5,241.49,4.41,239,3.9,236.44"/><path class="cls-4" d="M29.34,264.91s-7-11.84-11-15.12"/><path class="cls-4" d="M41.3,264.81s-13.12-12.89-18.77-16"/><path class="cls-4" d="M48.89,265.73s-5.6-13.88-9.14-18"/><path class="cls-4" d="M60,264.45S55.59,253,52.41,249.54"/><path class="cls-4" d="M73.61,266.67s-4.52-12.32-7.73-16.09"/><path class="cls-4" d="M84.22,266.92s-3.18-13.17-6-17.4"/><path class="cls-4" d="M104.8,264.69s-8.22-12-12.5-15.18"/><path class="cls-4" d="M114.1,264.54s-4.38-11-7.54-14.32"/><path class="cls-4" d="M125.4,263.61s-5.18-11.41-8.59-14.78"/><path class="cls-4" d="M143.27,264.94s-8.6-12.91-13-16.41"/><path class="cls-4" d="M158.56,266.84s-7.1-15-11.09-19.34"/><path class="cls-4" d="M170.66,265.31s-5.6-13.85-9.14-18"/><path class="cls-4" d="M185.47,266.23s-6.88-14.09-10.8-18.18"/><path class="cls-4" d="M193.55,267s-4.75-13.94-8-18.23"/><path class="cls-4" d="M203.55,266.69s-4.83-14.64-8.13-19.15"/><path class="cls-4" d="M219,265.08s-4.7-13.47-8-17.61"/><path class="cls-4" d="M230.66,266.21s-3.18-12.15-6-16.06"/><path class="cls-4" d="M242.8,264.52s-4-12.07-7.1-15.82"/><path class="cls-4" d="M256.45,267.13s-5.36-12.46-8.82-16.17"/><path class="cls-4" d="M262.72,267.59s-4.07-12.47-7.14-16.36"/><path class="cls-4" d="M267.2,265.74s.85-10-.49-13.93"/><path class="cls-4" d="M280.45,266.49s-2.68-10.8-5.3-14.35"/><path class="cls-4" d="M291.41,269.2s-5.28-12-8.72-15.57"/><path class="cls-4" d="M299.55,267.28s-2.68-10.79-5.3-14.35"/><path class="cls-4" d="M313,267.21s-7.82-10.47-12-13.16"/><path class="cls-4" d="M317,263.1s-5.47-10.7-9-13.79"/><path class="cls-4" d="M323.79,250.43s-8.48-6.53-12.65-7.62"/><path class="cls-4" d="M323.45,237.46s-8-6.85-12.09-8.12"/><path class="cls-4" d="M322.81,222.71s-8.18-7.81-12.34-9.43"/><path class="cls-4" d="M323.8,216.07s-8.44-9.1-12.71-11.2"/><path class="cls-4" d="M322.93,195.79s-10.16-6.43-14.73-7.31"/><path class="cls-4" d="M322.61,189.36s-9.05-8.51-13.45-10.31"/><path class="cls-4" d="M320.36,178s-6.34-5.88-10-7"/><path class="cls-4" d="M321.34,166.28s-8.41-5.72-12.51-6.49"/><path class="cls-4" d="M319.34,152.14s-5.44-4.67-8.81-5.48"/><path class="cls-4" d="M319.37,142.78s-7.24-6.17-11.09-7.28"/><path class="cls-4" d="M320.46,134.52s-7.66-6.89-11.64-8.22"/><path class="cls-4" d="M319,120.91s-6.74-6.71-10.49-8.11"/><path class="cls-4" d="M318.25,110.56s-6.74-6.71-10.5-8.11"/><path class="cls-4" d="M318.53,95.85s-7.84-4.06-11.68-4.2"/><path class="cls-4" d="M318.59,81s-9.38-.13-13,1.47"/><path class="cls-4" d="M318.17,75.2s-7.28-4.63-11-5.09"/><path class="cls-4" d="M318.6,68.12s-6.7-5.25-10.39-6.06"/><path class="cls-4" d="M318.68,56.87s-6.85-4.57-10.52-5.06"/><path class="cls-4" d="M319,49.24S311.74,43.1,307.89,42"/><path class="cls-4" d="M318.17,39.32s-7.32-3.46-11-3.41"/><path class="cls-5" d="M142.33,179.74c-14.33,3.19-25.47,2.39-39,4a245.36,245.36,0,0,0-31,0c-8.83.49-13.53.8-13.53.8s-1.59-6.37,2.39-15.12c2.21-4.86,12.73-16.72,12.73-16.72,20.36-22.28,27.86-32.63,38.2-50.93,0-5.57-1.1-18.61-12.73-19.9C85,80.26,80.25,92.2,77.46,102.15l-22.68.39s8-50.14,49-45c28.15,3.55,36.19,21.12,34.31,41.9-2.08,23-14,30.12-29.94,52.41l-8,8c-3.18,3.18-3.5,5.29-3.5,5.29l44.89-4.5a75.36,75.36,0,0,1-.8,11.15c-.79,4-4,10.34-4,10.34"/><path class="cls-6" d="M141.55,178.94a120.89,120.89,0,0,1-19.45,2.79l-9.85.69c-1.65.12-3.29.26-4.93.42l-2.46.26-1.23.15a5.61,5.61,0,0,1-1.15,0c-13.17-.79-26.32-.12-39.38.73l-2.28.13-1.14.07-.56,0h-.07s0,0,0-.07l0-.14,0-.28a19.4,19.4,0,0,1-.11-4.58,29.32,29.32,0,0,1,2.48-9.32,25.32,25.32,0,0,1,2.49-4.13c.93-1.33,1.92-2.62,2.92-3.9,2-2.55,4.1-5,6.23-7.49,8.71-9.64,17.5-19.25,25.12-29.72,3.61-4.91,6.92-10,10-15.24.79-1.3,1.54-2.61,2.31-3.92l1.13-2,.59-1,.3-.54c0-.2,0-.41,0-.61a33,33,0,0,0-1.28-9.11,16.24,16.24,0,0,0-4.76-7.82A12.66,12.66,0,0,0,104.48,83l-1-.54-1.1-.39a10.52,10.52,0,0,0-2.26-.56,14.83,14.83,0,0,0-2.3-.24,17.56,17.56,0,0,0-9,1.77,15.27,15.27,0,0,0-2,1.22c-.64.44-1.2,1-1.81,1.48s-1.09,1.11-1.59,1.7-1,1.2-1.39,1.86a37.47,37.47,0,0,0-3.8,7.53c-.25.65-.51,1.3-.73,2s-.36,1-.52,1.51l-.24.72c0,.09-.1,0-.15,0h-.59l-1.53,0L66.13,101l-4.14,0-2,0-1.28,0-1.25,0a2,2,0,0,1-.57,0l.15-.63c.2-.84.43-1.64.66-2.41l.26-.88.31-1c.2-.66.43-1.3.64-2,.45-1.29.92-2.57,1.43-3.84A68.38,68.38,0,0,1,68,75.82a44.67,44.67,0,0,1,9.57-10,34.92,34.92,0,0,1,12.33-5.8,40.1,40.1,0,0,1,13.84-.8,58.33,58.33,0,0,1,13.79,3.12,31.87,31.87,0,0,1,11.8,7.55,29.78,29.78,0,0,1,7,12.27,45.38,45.38,0,0,1,1.72,14.32,55.84,55.84,0,0,1-2.17,14.4,52,52,0,0,1-7.46,14.77c-3.21,4.53-6.85,8.75-10.4,13.06-1.78,2.15-3.55,4.32-5.27,6.52-.85,1.1-1.74,2.19-2.57,3.32L109,150.26c-.43.54-.83,1.17-1.26,1.62l-6,6c-1.08,1.08-2.16,2.13-3.09,3.25a12.75,12.75,0,0,0-2.16,3.65c-.05.16-.11.33-.15.51s0,.1,0,.12h.39l1-.07,2.1-.13c1.34-.07,2.92-.27,4.41-.42l8.43-.94c5.5-.63,11-1.32,16.37-2.07l8.1-1.17,4.71-.68.31,0,.15,0s.06,0,.07,0v.07l0,.56.05,1.14.07,2.37c0,1.75.05,3,0,4.34a34.73,34.73,0,0,1-.26,4.14,51.67,51.67,0,0,1-2.05,7.93"/><path class="cls-5" d="M185.3,66.73c8.76-.8,13.6-.4,23.88,0,48.42,1.87,58.5,31,58.5,57v.15c0,21.19-5.34,37.77-16.35,46.49-11.91,9.42-35.61,19.77-55.68,19.77-10.11,0-11.12-3.06-17.51-4l1.59-103.46s-.71-8.13.8-11.15c.8-1.59,8-1.59,8-1.59m17.23,87.34c2.36.35,4.74,3.79,7.93,3.79,20.28.12,34.07-18.79,33.07-36.79-1.2-21.68-11.85-32.45-31.3-32.45a55.67,55.67,0,0,0-10.62.93v67.84"/><path class="cls-6" d="M205.73,158.22a8.23,8.23,0,0,1,2.79,1.39,14.24,14.24,0,0,0,3.24,1.71,6,6,0,0,0,1.92.29l1.77-.15,1.77-.14c.58-.06,1.16-.21,1.74-.31a32.62,32.62,0,0,0,12.86-5.39,36.45,36.45,0,0,0,14.67-22.85l.3-1.6c.07-.54.11-1.08.16-1.62l.15-1.62c.05-.54,0-1.08,0-1.63a55.26,55.26,0,0,0-.41-6.44,51.09,51.09,0,0,0-3-12.55,36.73,36.73,0,0,0-2.66-5.42,10.89,10.89,0,0,0-.86-1.27l-.92-1.24a9.5,9.5,0,0,0-1-1.17l-1.07-1.14a25.29,25.29,0,0,0-11-6.19,36.45,36.45,0,0,0-10.76-1c-1.77.09-3.53.26-5.28.52a57.45,57.45,0,0,0-6.06,1.24c-.75-.06-.4.77-.44,1.28l.08,1.65.11,1.61.1,1.33.39,5.14c.23,3.44.41,6.87.46,10.32.12,7.79-.4,15.73-.39,23.61s.54,15.71,2.74,23"/><path class="cls-6" d="M185.79,67.63c8.73-1.11,17.63-.59,26.45-.29a92.81,92.81,0,0,1,13.1,1.6,66.82,66.82,0,0,1,12.57,3.82,48,48,0,0,1,11.29,6.59,43,43,0,0,1,8.88,9.48c4.92,7.2,7.52,15.72,8.57,24.28a88.38,88.38,0,0,1,.63,12.17,96.44,96.44,0,0,1-.82,12.14c-1.07,8-3.22,16-7.46,22.72a32.27,32.27,0,0,1-7.07,8.13,62.35,62.35,0,0,1-9.13,5.92c-3.25,1.75-6.6,3.33-10,4.79s-6.88,2.73-10.38,3.91a109.8,109.8,0,0,1-21.9,5.11,43.85,43.85,0,0,1-11,.11,26.73,26.73,0,0,1-5.29-1.48c-.46-.17-.92-.33-1.4-.48s-1-.32-1.38-.41a15,15,0,0,0-2.24-.37c-.09,0-.08-.06-.08-.13v-.57l0-.77-.06-1.72-.1-4-.17-8.1q-.15-8.1-.1-16.22c.11-14.84.86-29.94,1.08-44.95.14-8.82.08-17.67-.39-26.21a48.51,48.51,0,0,1-.63-9.08,9.07,9.07,0,0,1,.61-2.79l.07-.17s0-.08,0-.07l.05-.08.2-.31a4,4,0,0,1,.53-.48,5.91,5.91,0,0,1,1.28-.71,12.11,12.11,0,0,1,1.43-.5c.45-.13.78-.23,1.17-.33.76-.2,1.51-.37,2.25-.53"/><path class="cls-5" d="M129.72,69.25c15,13,21,35.22,20,49-2,14-20,36-30,43m-9-69c-21-2-19,15-24,24,0,0-4,4-22,0-3-3-8-10-6-15m95,92c-4,1-34,4-39.39,3.47-3.61.53-15.61,1.53-24.61.53-8-3-20,.27-20,.27s-10-15.27-9-14.27"/><path class="cls-6" d="M153.39,192.36a51.52,51.52,0,0,1-7.07,1.53c-2.41.38-4.82.68-7.23.92-4.82.49-9.63.8-14.4,1.16-2.24.16-4.48.35-6.71.39a24.56,24.56,0,0,1-3.32-.1,3.94,3.94,0,0,0-.91,0l-.83,0c-.55,0-1.11,0-1.67,0-1,0-2-.06-3.06-.16l-3.06-.26c-2-.19-4.1-.37-6.14-.43-1.77-.06-3.53,0-5.29.1l-2.64.14-.66,0a4.89,4.89,0,0,1-.49,0l-.2,0-.37-.06-.72-.12c-3.87-.42-7.48.19-11.06.61l-3.89.47c-1.32.17-2.58.35-3.75.58,0,0-.07,0-.09-.06l-.07-.12-.14-.24-.27-.46-.55-.92c-.34-.57-.76-1.24-1.16-1.86a32,32,0,0,0-3.8-4.85,21.91,21.91,0,0,0-2.32-2.08c-.84-.66-1.72-1.21-2.73-1.86"/><path class="cls-6" d="M110.72,91.31c-3.83.19-7.68.41-11.19,1.92a14.22,14.22,0,0,0-4.65,3.2,16.94,16.94,0,0,0-3.09,4.67c-1.46,3.19-2.16,6.59-3.66,9.66a16.77,16.77,0,0,1-1.12,2c-.2.33-.42.65-.62,1-.1.16-.22.31-.33.46a2.51,2.51,0,0,1-.26.32c-.19.17-.3.37-.52.47a3.51,3.51,0,0,1-.68.16l-.33,0-.45.08c-.34,0-.65.12-1,.15-2.36.36-5,.82-7.7,1.18a28.64,28.64,0,0,1-8.27.08c-.38-.06-.77-.14-1.15-.22l-.58-.13c-.18-.07-.42,0-.52-.23a18.76,18.76,0,0,1-1.47-1.86c-.9-1.29-1.69-2.65-2.45-4s-1.43-2.57-2.28-4.1a18.24,18.24,0,0,1-2.06-5.22"/><path class="cls-6" d="M129.19,70A39.23,39.23,0,0,1,139.5,81.35a68,68,0,0,1,6.38,13.85,45,45,0,0,1,2.81,13.86,31.51,31.51,0,0,1-.12,3.22c-.07,1.07-.24,2.13-.35,3.18L148,117l-.12.78a1,1,0,0,1-.06.28l-.12.34c-.32,1-.52,1.93-.92,2.91-1.14,3.37-2.23,6.94-3.62,10.48A49.42,49.42,0,0,1,138,142.07c-2.49,3.58-5.7,6.67-8.65,9.89-.74.81-1.46,1.63-2.17,2.45s-1.37,1.7-2,2.57c-.32.44-.63.9-.93,1.37s-.62.91-.91,1.4c-.56,1-1.14,2-1.68,3.06"/><path class="cls-7" d="M143.21,159.43s.36.23,1,.71a28.62,28.62,0,0,1,2.48,2.1,29.22,29.22,0,0,1,3.2,3.56,19,19,0,0,1,1.51,2.33,10.68,10.68,0,0,1,.59,1.29,13.08,13.08,0,0,1,.4,1.43,50.44,50.44,0,0,1,.56,6.42c.07,1.09.15,2.17.23,3.24a28.65,28.65,0,0,1,0,3.22c-.27,4.16-.8,7.79-1.08,10.28"/><path class="cls-7" d="M139.64,180.31s7.46,10.22,11.06,12.94"/><path class="cls-7" d="M141.71,173.34s7.38,8.07,10.9,10"/><path class="cls-7" d="M143,167.05s5.59,4.89,8.54,5.8"/><path class="cls-7" d="M131.24,182.06s5,9.87,7.95,12.71"/><path class="cls-7" d="M121.28,181.76s4.34,10.14,7,13.16"/><path class="cls-7" d="M110.42,183s5.59,9.87,8.66,12.64"/><path class="cls-7" d="M99.23,183.59s3.69,8.92,6.2,11.6"/><path class="cls-7" d="M88.29,183.74s4.33,8.75,7,11.29"/><path class="cls-7" d="M76.36,183.87s5,8.6,7.83,11"/><path class="cls-7" d="M66.4,102s5.62,11.27,8.7,14.53"/><path class="cls-7" d="M76.08,102.23s5.82,9.69,9,12.37"/><path class="cls-7" d="M79,98.49s7.08,4.36,10.35,4.88"/><path class="cls-7" d="M84.18,88.34s7,7.37,10.47,9.08"/><path class="cls-7" d="M92.23,81.59s3.69,8.92,6.2,11.6"/><path class="cls-7" d="M102.1,82.58s.8,6.51,2.35,8.94"/><path class="cls-7" d="M137.18,106.63s7.55,3.5,10.86,3.63"/><path class="cls-7" d="M138.6,99.78s6.36.5,9-.53"/><path class="cls-7" d="M134.18,112.92s8,8,11.65,9.81"/><path class="cls-7" d="M131.13,121.62s8.31,4.92,11.92,5.56"/><path class="cls-7" d="M127.05,127.61s9.11,7,13,8.46"/><path class="cls-7" d="M123.91,132.51s8.56,7.87,12.4,9.63"/><path class="cls-7" d="M120,137.57s9.21,8.51,13.24,10.45"/><path class="cls-7" d="M115.11,144.63s9,6.32,12.93,7.45"/><path class="cls-7" d="M106.47,153.41s12,4.94,16.64,5.41"/><path class="cls-7" d="M101.42,158.05a38,38,0,0,0,5.12,3.32,20.58,20.58,0,0,0,4.51,1.84,5,5,0,0,0,3.44,0"/><path class="cls-5" d="M247.72,77.25c20,8,31,41,31,52v17c0,10-2.92,26.67-13.39,37.07-10.78,10.7-46.61,15.93-56.61,16.93-13,2-31-17-26-16m63-67c-3-5-10.9-12.45-16.3-12.45a55.67,55.67,0,0,0-10.62.93s3.92,17.52.5,29.37c.42,8.15.42,25.15.42,25.15"/><path class="cls-6" d="M246.48,116.68a50.3,50.3,0,0,0-4.35-4.7,48.48,48.48,0,0,0-4.77-4.08,20.82,20.82,0,0,0-5.48-3,10.12,10.12,0,0,0-1.56-.37,10.79,10.79,0,0,0-1.59-.08c-1,0-2.06,0-3.08.09-1.2.07-2.34.18-3.66.35l-1.9.27-1,.16-.48.08-.25,0c-.05,0-.06,0-.05.06v.1a34.17,34.17,0,0,1,.54,4.74c0,.87,0,1.74,0,2.62s-.09,1.74-.15,2.61c-.1,1.75-.24,3.49-.23,5.21,0,3,.44,5.93.63,9a27.67,27.67,0,0,1,0,4.55,6.78,6.78,0,0,0,.18,2.4c.1.77.19,1.53.24,2.3.22,3.48-.24,7-.19,10.56a17.9,17.9,0,0,0,2.81,10.26"/><path class="cls-6" d="M247.58,78.22A32.06,32.06,0,0,1,260,86.69a59.15,59.15,0,0,1,8.84,12.4A87.42,87.42,0,0,1,274.87,113c.81,2.39,1.52,4.81,2.11,7.26a49.44,49.44,0,0,1,1.27,7.39c.1,1.16.07,2.34.08,3.53v10.63c0,2.36,0,4.72-.17,7a48.17,48.17,0,0,1-1,6.9,49.73,49.73,0,0,1-1.68,6.14,58.81,58.81,0,0,1-2.34,5.87,50.37,50.37,0,0,1-6.52,10.67c-.57.68-1.1,1.41-1.72,2s-1.19,1.34-1.8,1.88a30.27,30.27,0,0,1-4.2,3.15,73.43,73.43,0,0,1-9.84,5.05,114.66,114.66,0,0,1-21.61,6.85c-4.22.87-8.52,1.48-12.85,2-2.16.24-4.33.43-6.5.63a18.05,18.05,0,0,1-6.32-.76,51.58,51.58,0,0,1-11.61-5.48c-1.84-1.11-3.64-2.27-5.41-3.5-.89-.61-1.77-1.25-2.65-1.95a15.5,15.5,0,0,1-1.31-1.18,5.43,5.43,0,0,1-.68-.78,3.27,3.27,0,0,1-.64-1.49"/><path class="cls-7" d="M205.65,92s10.13,10.28,14.47,12.82"/><path class="cls-7" d="M218.42,91s5.59,9.87,8.66,12.64"/><path class="cls-7" d="M233,94.64s-1.79,7.46-1.24,10.56"/><path class="cls-7" d="M239.69,100.29s-2.44,5-2.4,7.64"/><path class="cls-7" d="M205,99.57s9.21,8.51,13.24,10.45"/><path class="cls-7" d="M205.34,107s8.93,7.48,12.85,9.07"/><path class="cls-7" d="M205.19,119.11s8.91,4.54,12.64,5"/><path class="cls-7" d="M205.08,131.22s10.1,1.54,13.85.81"/><path class="cls-7" d="M206.07,141.71s9.41,1.21,12.93.36"/><path class="cls-7" d="M205.25,149s10.15,3.85,14.14,4"/><path class="cls-7" d="M265.9,107.42s6,3.08,8.87,3.19"/><path class="cls-7" d="M266.3,118.7s8.12,3.42,11.55,3.48"/><path class="cls-7" d="M266.06,123.59s8.39,5.66,12.07,6.59"/><path class="cls-7" d="M267.68,130.32s7.41,8.79,11,11"/><path class="cls-7" d="M266.93,139.77s7.33,7.34,10.82,9"/><path class="cls-7" d="M265.75,148.36s7.33,7.34,10.82,9"/><path class="cls-7" d="M261.78,155.41s8,8.69,11.72,10.8"/><path class="cls-7" d="M257.11,163.63s9,6.32,12.93,7.45"/><path class="cls-7" d="M251.05,169.64s9.81,8.43,14,10.3"/><path class="cls-7" d="M244.83,173.49s8.65,9.31,12.56,11.6"/><path class="cls-7" d="M239.6,177.23s8.14,9.52,11.92,11.93"/><path class="cls-7" d="M231.14,180.93s6.83,9.62,10.24,12.18"/><path class="cls-7" d="M219.64,183.31s7.46,10.22,11.06,12.94"/><path class="cls-7" d="M209.88,187.26s6.82,9.62,10.24,12.18"/><path class="cls-7" d="M196.6,188.22s6.8,8.91,10.19,11.21"/></g></g></svg>