<svg xmlns="http://www.w3.org/2000/svg" viewBox="0 0 288.09 230.69"><defs><style>.cls-1{fill:none;stroke:#000;stroke-miterlimit:10;stroke-width:10.2px;}</style></defs><g id="圖層_2" data-name="圖層 2"><g id="師大店-動畫"><path class="cls-1" d="M29.29,86l-.73-.88c-.48-.54-1.18-1.3-2-2.15a67.37,67.37,0,0,0-6.92-5.65c-1.35-1-2.74-2-4.1-3.1a13.51,13.51,0,0,1-2-1.91,5.36,5.36,0,0,1-.8-1.43,3.69,3.69,0,0,1-.2-1,4.45,4.45,0,0,1,.14-1.27,5.24,5.24,0,0,1,.65-1.24,6.18,6.18,0,0,1,.89-.94,9.43,9.43,0,0,1,.9-.66c.26-.16.53-.32.81-.47.56-.3,1-.49,1.5-.73L18.73,64c1.63-.66,3.06-1.21,4.18-1.75" transform="translate(-7.42)"/><path class="cls-1" d="M123.66,26.63l17.12-2.35,46.33-6.2c19.45-2.64,42.48-5.72,67.76-9.7l9.55-1.55,4.68-.72c1.15-.17,2.33-.34,3.52-.48a68.59,68.59,0,0,1,7.46-.52c1.28,0,2.59,0,3.91.08.67,0,1.33.08,2,.16l1,.11c-.14.23-.35.48-.52.73-1.51,2-3,4.05-4.55,6.09l-5.09,6.38-.66.83-.84,1-1.71,2-3.46,4c-1.14,1.36-2.32,2.7-3.52,4l-3.58,4c-19.24,21.36-40.8,42-61.42,63.12-10.32,10.55-20.38,21.24-29.76,32.18-4.68,5.48-9.26,11-13.53,16.58L151.71,155a59,59,0,0,1-3.94,4.78,11.08,11.08,0,0,1-2.14,1.92,3.83,3.83,0,0,1-2.84.54,6.65,6.65,0,0,1-2.55-1.23,21,21,0,0,1-2.22-1.91c-.74-.69-1.5-1.42-2.23-2.08l-2.2-1.95a52.08,52.08,0,0,0-8.11-5.14c-5.7-2.95-11.79-5.12-17.82-7.49-3-1.18-6-2.39-9-3.78A78.36,78.36,0,0,1,90.1,134c-5.44-3.37-10.26-7.12-14.85-10.61L49.52,103.91,43.7,99.54,43,99c-.24-.18-.45-.33-.74-.58l-1.63-1.36c-1-.88-1.82-1.69-2.73-2.53-3.37-3.27-6.35-6.38-9.16-9.3" transform="translate(-7.42)"/><path class="cls-1" d="M58.24,46.79S60.92,45.61,65.7,44c2.38-.81,5.31-1.74,8.51-2.88L84.3,37.5c3.53-1.24,7.23-2.41,11-3.42s7.45-2,11-3,7-1.91,10.18-2.6,6-1.22,8.2-1.75" transform="translate(-7.42)"/><path class="cls-1" d="M20.33,63.08s2-.73,5-2.06,6.88-3.26,11.08-5.29,8.84-4,13.27-5.68,8.5-3,11.27-4.35" transform="translate(-7.42)"/><path class="cls-1" d="M74.33,122.81s2.4-1.58,6.5-4.43l7.37-5.08c2.85-1.91,6.07-4,9.65-6,3.87-2,8-4.29,12.52-6.39s9.43-4,14.79-5.94a161.84,161.84,0,0,0,16.75-6.89,161.85,161.85,0,0,0,16.64-9.55c10.9-7.06,21.45-15.17,32.63-22.22a144,144,0,0,1,17.3-9.48c6-2.68,12-4.83,17.34-7.52a167.49,167.49,0,0,0,15.17-9c1.23-.77,2.42-1.54,3.67-2.29s2.51-1.49,3.73-2.17c2.45-1.37,4.84-2.63,7.17-3.85,9.29-4.83,17.46-8.82,23.92-12.08" transform="translate(-7.42)"/><path class="cls-1" d="M262.69,68.05l1-1.61c.69-1.06,1.7-2.59,2.92-4.47s2.76-4.28,4.21-7,2.84-5.52,4.25-8.57S277.85,40.19,279,37a88.57,88.57,0,0,0,2.87-9.46c1.42-6.12,1.66-11.54.93-14.93" transform="translate(-7.42)"/><path class="cls-1" d="M86.18,181.42l1,1.84,1.18,2.2c.44.85.94,1.85,1.3,2.74l.21.59c.86,2,1.83,4.71,2.92,7.9s2.33,6.85,3.8,10.89c.75,2,1.54,4.14,2.46,6.34l.72,1.67.18.42.25.56.53,1.14a18.38,18.38,0,0,0,2.54,4.3,9.32,9.32,0,0,0,4.06,2.94,12.53,12.53,0,0,0,5.15.59c.9-.11,1.79-.15,2.69-.32l1.34-.26.67-.13.59-.16c.74-.2,1.48-.4,2.2-.66s1.44-.51,2.14-.81c5.68-2.33,10.63-6,15.27-10s9.08-8.17,13.7-12.54,9.2-8.94,13.8-13.63,9.16-9.55,13.65-14.51c9-9.91,17.72-20.22,25.9-30.55,2.06-2.56,4-5.17,6-7.72s3.87-5.13,5.89-7.71c4-5.08,8.26-9.76,12.35-14.26l6-6.6a69.67,69.67,0,0,0,5.06-6.45c3.14-4.46,6-9.07,9.25-13.33.8-1.07,1.62-2.12,2.48-3.13.42-.51.84-1,1.29-1.5s.92-1,1.21-1.38c1.32-1.56,2.69-3.34,3.94-5.06,2.53-3.44,4.76-6.73,6.69-9.72" transform="translate(-7.42)"/><path class="cls-1" d="M74.63,125.18l1,7.3c.61,4.48,1.47,10.64,2.59,17.23s2.53,13.63,4.2,19.82a72.39,72.39,0,0,0,5.4,14.86" transform="translate(-7.42)"/></g></g></svg>