<svg xmlns="http://www.w3.org/2000/svg" viewBox="0 0 300.31 222.56"><defs><style>.cls-1,.cls-2,.cls-3,.cls-4{fill:none;stroke:#000;stroke-miterlimit:10;}.cls-1{stroke-width:10.24px;}.cls-2{stroke-width:11.45px;}.cls-3{stroke-width:11.17px;}.cls-4{stroke-width:11.17px;}</style></defs><g id="圖層_2" data-name="圖層 2"><g id="師大店-動畫"><path class="cls-1" d="M273.59,93.69l1.45-.9c.95-.58,2.34-1.41,4.11-2.41,3.5-2,8.64-4.64,13.88-8.16a38.89,38.89,0,0,0,3.79-2.94A18.75,18.75,0,0,0,300,75.76a9,9,0,0,0,1.64-4A7.52,7.52,0,0,0,301.2,68a10.46,10.46,0,0,0-.79-1.53,16.32,16.32,0,0,0-1-1.34c-.41-.45-.72-.87-1.16-1.28L297,62.67a24,24,0,0,0-4.9-3.18" transform="translate(-6.55 -6.34)"/><path class="cls-1" d="M190.77,27.21l-17.21-1.73L127.16,21c-19.46-1.88-42.5-4.05-67.72-7l-9.56-1.14L45,12.36l-2.76-.28c-1-.12-2.11-.21-3.16-.29a89.73,89.73,0,0,0-12.21-.2,112.59,112.59,0,0,0-11.59,1.23l-.73.11-.37.06a1.76,1.76,0,0,0,.21.29l.91,1.21,1.83,2.4,3.66,4.79,1.84,2.39,2.12,2.43,4.2,4.82L31,33.71l1,1.18.91,1q1.82,1.95,3.66,3.9c1.22,1.3,2.44,2.61,3.67,3.91l3.78,3.85c20.18,20.6,42.61,40.13,64.26,60,10.82,10,21.45,20.06,31.51,30.41l3.77,3.87,3.66,3.94c2.43,2.63,4.89,5.21,7.17,7.91l6.93,8,3,3.48,2.68,3a2.86,2.86,0,0,0,1.68,1,2.55,2.55,0,0,0,1.86-.62,9.66,9.66,0,0,0,1.42-1.44c.43-.51.88-1,1.31-1.48a17.84,17.84,0,0,1,1.36-1.39l.86-.81c.33-.3.68-.57,1-.86,1.36-1.16,2.8-2.17,4.23-3.19a122.67,122.67,0,0,1,17.83-9.29,139.94,139.94,0,0,0,16.3-8.19,113.39,113.39,0,0,0,13.64-10.37l24.3-21.09,5.46-4.78,2.63-2.3,1.29-1.14c.43-.37.81-.73,1.38-1.17l1.56-1.24,1.45-1.06c1-.73,1.88-1.31,2.8-2,1.82-1.24,3.58-2.4,5.26-3.5" transform="translate(-6.55 -6.34)"/><path class="cls-1" d="M262.41,48.18s-.89-.44-2.46-1.12-3.8-1.61-6.52-2.66-5.93-2.23-9.41-3.52c-1.76-.65-3.45-1.32-5.43-2.1a55.52,55.52,0,0,0-6.16-2c-2.15-.55-4.3-.87-6.41-1.26s-4.24-.86-6.36-1.39c-4.22-1.06-8.4-2.29-12.33-3.4-7.87-2.26-14.78-3.62-19.45-3.71" transform="translate(-6.55 -6.34)"/><path class="cls-1" d="M294,60.71s-.4-.25-1.14-.65-1.82-1-3.18-1.6-3-1.28-4.7-1.89-3.61-1.18-5.52-1.79a98.64,98.64,0,0,1-11.7-4.44c-1.9-.82-3.67-1.67-5.34-2.37A42.63,42.63,0,0,0,258,46.23" transform="translate(-6.55 -6.34)"/><path class="cls-1" d="M245.54,113.43l-1.65-1.18c-1.08-.79-2.67-2-4.72-3.51L231.63,103c-3-2.24-6.42-4.81-10.64-7.41-.54-.32-1.11-.63-1.67-1l-.85-.49-.93-.45c-.65-.3-1.23-.63-1.94-.9s-1.37-.52-2-.76a81.1,81.1,0,0,0-8-2c-2.65-.56-5.35-1.08-7.93-1.74a51.66,51.66,0,0,1-7.71-2.77c-5.36-2.29-11-5.11-16.94-7.75-1.51-.65-3-1.31-4.61-1.92-.78-.31-1.59-.59-2.4-.88l-2.28-.83-2.29-.83-2.28-.93-2.29-.94-2.26-1a191.93,191.93,0,0,1-18-9.62c-5.95-3.51-11.92-7.13-18-10.34a122.66,122.66,0,0,0-18.77-8.08c-6.34-2-12.88-3.28-19.23-5.12-6.5-1.88-12.31-4.69-17.79-7.22-2.71-1.26-5.41-2.55-7.9-3.56s-5.13-2-7.65-2.89C37.14,20,28.09,17.32,20.9,15.38" transform="translate(-6.55 -6.34)"/><path class="cls-2" d="M47.05,84.65l-.31-.27a8.94,8.94,0,0,1-.9-.86,23.39,23.39,0,0,1-3.09-4.39c-1.23-2.15-2.52-5-4.14-8.38-.85-1.76-1.7-3.31-2.59-5s-1.74-3.45-2.59-5.27a216,216,0,0,1-9.38-22.83,198.11,198.11,0,0,1-5.65-19.8" transform="translate(-6.55 -6.34)"/><path class="cls-3" d="M224.8,176.44s-1.33,3-3.6,8.51c-1.12,2.72-2.47,6-4,9.88-.38.93-.79,1.89-1.2,2.89-.21.48-.42,1-.64,1.46l-.23.51c-.09.19-.15.38-.24.59l-.28.78a64.62,64.62,0,0,1-2.84,6.25c-1.15,2.28-2.43,4.77-3.66,7.44-.3.68-.61,1.35-.91,2l-.45,1-.22.53-.06.13,0,.05-.06.16a22.94,22.94,0,0,1-1,2.54,3.56,3.56,0,0,1-2.11,1.86,8.62,8.62,0,0,1-3,.19c-.51-.05-1-.09-1.55-.18l-.85-.15-1-.26a28.65,28.65,0,0,1-4.21-1.43c-5.66-2.37-11.21-6.41-16.93-10.85s-11.58-9-17.41-13.86c-11.68-9.69-23.4-20.21-34.62-31.05-5.62-5.41-11.13-10.89-16.46-16.38-2.66-2.74-5.3-5.47-7.87-8.2s-5.06-5.4-7.67-7.88c-5.18-5-10.54-9.55-15.69-14-2.48-2.17-5.38-4.47-7.68-7.77-.56-.79-1-1.57-1.42-2.12a13.25,13.25,0,0,0-1.15-1.49A29.34,29.34,0,0,0,62.88,105l-.81-.67c-.26-.23-.49-.41-.92-.83l-1.1-1.11c-.37-.37-.58-.66-.88-1-1.15-1.31-2-2.51-3-3.73-1.79-2.39-3.43-4.69-5-6.88L43,78.85" transform="translate(-6.55 -6.34)"/><path class="cls-4" d="M248.46,112.5s-1.28,3.13-3.21,8.08-4.51,11.74-7.24,19.06-5.62,15.19-8.21,22.34-4.91,13.58-6.32,18.2" transform="translate(-6.55 -6.34)"/></g></g></svg>