<svg xmlns="http://www.w3.org/2000/svg" viewBox="0 0 287.61 231.84"><defs><style>.cls-1{fill:none;stroke:#000;stroke-miterlimit:10;stroke-width:10.2px;}</style></defs><g id="圖層_2" data-name="圖層 2"><g id="師大店-動畫"><path class="cls-1" d="M29.6,87.72l-.74-.87c-.48-.55-1.18-1.3-2.07-2.14a67.34,67.34,0,0,0-7-5.61c-1.35-1-2.75-2-4.11-3.06a13.57,13.57,0,0,1-2-1.91,5,5,0,0,1-.81-1.42,4,4,0,0,1-.22-1,4.45,4.45,0,0,1,.14-1.27,5.6,5.6,0,0,1,.64-1.24,6.22,6.22,0,0,1,.88-1c.28-.23.6-.47.9-.67s.53-.32.81-.47c.55-.31,1-.5,1.49-.74l1.31-.55c1.63-.67,3.05-1.23,4.16-1.78" transform="translate(-7.61)"/><path class="cls-1" d="M123.56,27.71l17.1-2.47L187,18.72c19.43-2.77,42.44-6,67.69-10.17l9.55-1.61,4.67-.75c1.15-.18,2.32-.36,3.52-.5a70.53,70.53,0,0,1,7.45-.58c1.28,0,2.59,0,3.91.06.66,0,1.33.07,2,.15l1,.1c-.13.23-.35.49-.52.73l-4.5,6.13-5.05,6.41-.65.83-.83,1-1.71,2-3.42,4.07q-1.71,2-3.49,4l-3.56,4C243.93,56.16,222.51,77,202,98.21c-10.24,10.62-20.23,21.38-29.54,32.38-4.64,5.51-9.18,11-13.41,16.68l-6.59,8.6a59.23,59.23,0,0,1-3.91,4.81,11.47,11.47,0,0,1-2.13,1.94,3.87,3.87,0,0,1-2.84.55,6.61,6.61,0,0,1-2.55-1.21,20.93,20.93,0,0,1-2.23-1.89c-.75-.69-1.51-1.42-2.25-2.07l-2.22-1.94a52,52,0,0,0-8.14-5.08c-5.72-2.91-11.82-5-17.87-7.37-3-1.16-6-2.35-9-3.72a76.87,76.87,0,0,1-8.62-4.56c-5.46-3.34-10.31-7.05-14.92-10.5L49.94,105.49l-5.84-4.33-.71-.53c-.24-.18-.46-.33-.75-.58L41,98.7c-1-.87-1.84-1.68-2.75-2.51-3.4-3.25-6.4-6.34-9.23-9.24" transform="translate(-7.61)"/><path class="cls-1" d="M58.28,48.31s2.67-1.19,7.44-2.83c2.37-.83,5.3-1.78,8.49-2.94l10.07-3.69c3.52-1.27,7.21-2.46,11-3.5s7.44-2,11-3.07,7-2,10.16-2.67,6-1.27,8.19-1.82" transform="translate(-7.61)"/><path class="cls-1" d="M20.49,64.86s2-.75,4.94-2.1,6.86-3.3,11-5.36,8.82-4.08,13.23-5.77,8.48-3.07,11.24-4.43" transform="translate(-7.61)"/><path class="cls-1" d="M74.89,124.22s2.39-1.6,6.46-4.47l7.34-5.13c2.84-1.94,6-4.08,9.61-6.05,3.86-2.08,8-4.34,12.47-6.47s9.41-4,14.76-6a166.09,166.09,0,0,0,16.7-7,159.29,159.29,0,0,0,16.57-9.67c10.86-7.13,21.35-15.31,32.48-22.44a144.75,144.75,0,0,1,17.23-9.59c5.94-2.72,11.93-4.92,17.29-7.64a166.73,166.73,0,0,0,15.11-9.12c1.22-.78,2.41-1.56,3.65-2.32s2.5-1.5,3.72-2.18c2.45-1.4,4.83-2.67,7.14-3.91,9.26-4.88,17.41-8.93,23.84-12.24" transform="translate(-7.61)"/><path class="cls-1" d="M262.87,68.17l1-1.62,2.89-4.48c1.24-1.93,2.73-4.3,4.16-7s2.8-5.54,4.19-8.6S277.84,40.21,279,37a84.47,84.47,0,0,0,2.81-9.48c1.38-6.13,1.58-11.55.83-14.93" transform="translate(-7.61)"/><path class="cls-1" d="M87.13,182.75l1.05,1.83,1.19,2.19c.45.85.95,1.84,1.32,2.73l.22.59c.87,2,1.86,4.69,3,7.88s2.37,6.84,3.88,10.87c.76,2,1.57,4.12,2.5,6.32l.73,1.66.18.43.26.55c.18.38.36.76.53,1.14a18.75,18.75,0,0,0,2.58,4.28,9.27,9.27,0,0,0,4.07,2.91,12.42,12.42,0,0,0,5.16.55c.89-.11,1.79-.15,2.68-.34l1.34-.26.67-.13.59-.17c.74-.2,1.48-.41,2.19-.68s1.44-.52,2.14-.82c5.67-2.37,10.59-6.09,15.2-10.07s9-8.23,13.62-12.63,9.13-9,13.7-13.72,9.1-9.61,13.55-14.6c8.92-10,17.58-20.34,25.7-30.73,2-2.58,4-5.19,6-7.77S215,129.61,217,127c4-5.11,8.19-9.81,12.25-14.34l6-6.64a71,71,0,0,0,5-6.49c3.12-4.48,6-9.11,9.16-13.39.8-1.08,1.61-2.13,2.46-3.15.42-.51.84-1,1.28-1.51s.92-1,1.2-1.38c1.31-1.57,2.67-3.37,3.91-5.09,2.5-3.46,4.71-6.77,6.62-9.77" transform="translate(-7.61)"/><path class="cls-1" d="M75.2,126.59s.4,2.83,1,7.29,1.54,10.63,2.71,17.22,2.63,13.6,4.34,19.78a72.54,72.54,0,0,0,5.5,14.83" transform="translate(-7.61)"/></g></g></svg>