<svg xmlns="http://www.w3.org/2000/svg" viewBox="0 0 82.71 66.23"><defs><style>.cls-1{fill:none;stroke:#000;stroke-miterlimit:10;stroke-width:2.93px;}</style></defs><g id="圖層_2" data-name="圖層 2"><g id="師大店-動畫"><path class="cls-1" d="M8.41,24.69a10.29,10.29,0,0,0-.8-.87,17.84,17.84,0,0,0-2-1.62c-.38-.29-.78-.57-1.17-.89a3.62,3.62,0,0,1-.56-.55,1.12,1.12,0,0,1-.25-1.06,1.84,1.84,0,0,1,.93-1,8.57,8.57,0,0,1,.81-.36c.47-.19.88-.35,1.2-.5" transform="translate(-2.13)"/><path class="cls-1" d="M35.5,7.65,53.72,5.19c5.59-.76,12.2-1.64,19.46-2.79L75.92,2l1.34-.21,1-.13a18.25,18.25,0,0,1,2.13-.15c.37,0,.75,0,1.13,0,.19,0,.38,0,.57.05l.29,0-.15.21c-.43.58-.87,1.16-1.3,1.75s-1,1.21-1.47,1.83c-.21.28-.61.73-.92,1.09l-1,1.16c-.65.79-1.36,1.54-2,2.31C70,16.05,63.82,22,57.9,28c-3,3-5.85,6.1-8.55,9.24C48,38.86,46.7,40.42,45.47,42L43.56,44.5a17.54,17.54,0,0,1-1.13,1.37,3.27,3.27,0,0,1-.62.56,1.1,1.1,0,0,1-.81.15,3.16,3.16,0,0,1-1.37-.9c-.43-.41-.85-.79-1.28-1.16A14.86,14.86,0,0,0,36,43.05a53.75,53.75,0,0,0-5.12-2.16,29.5,29.5,0,0,1-5-2.41c-1.56-1-2.95-2-4.26-3l-7.39-5.61-1.67-1.25c-.26-.18-.57-.44-.89-.71l-.78-.73c-1-.94-1.82-1.83-2.63-2.67" transform="translate(-2.13)"/><path class="cls-1" d="M16.72,13.43s.77-.33,2.14-.79l2.45-.83,2.89-1c2-.75,4.3-1.25,6.31-1.85s4-1,5.28-1.25" transform="translate(-2.13)"/><path class="cls-1" d="M5.84,18.11s.57-.21,1.42-.59,2-.94,3.18-1.52,2.54-1.15,3.81-1.63,2.44-.86,3.24-1.25" transform="translate(-2.13)"/><path class="cls-1" d="M21.34,35.26,23.21,34a56.49,56.49,0,0,1,4.88-3.17L31.69,29a38.66,38.66,0,0,1,4.25-1.74,48.89,48.89,0,0,0,4.81-2,47.73,47.73,0,0,0,4.77-2.75c3.13-2,6.16-4.35,9.37-6.38a42.08,42.08,0,0,1,5-2.72c1.71-.77,3.43-1.39,5-2.16a48.85,48.85,0,0,0,4.35-2.58c1.39-.92,2.87-1.7,4.18-2.39,2.67-1.39,5-2.53,6.87-3.47" transform="translate(-2.13)"/><path class="cls-1" d="M75.42,19.54l1.14-1.75c.36-.55.79-1.23,1.21-2s.81-1.59,1.21-2.46a29.33,29.33,0,0,0,2-5.43,10.44,10.44,0,0,0,.26-4.28" transform="translate(-2.13)"/><path class="cls-1" d="M24.74,52.09l.3.53A14.33,14.33,0,0,1,25.75,54l.06.16c.5,1.16,1.09,3.09,1.93,5.4.22.58.44,1.19.71,1.82a10.42,10.42,0,0,0,1.21,2.32c1.2,1.69,4.05.91,5.41.35a16.5,16.5,0,0,0,4.38-2.87c1.32-1.14,2.61-2.34,3.94-3.6,2.63-2.51,5.29-5.23,7.88-8.07s5.08-5.81,7.43-8.78c1.19-1.48,2.3-3,3.43-4.43s2.37-2.8,3.55-4.09l1.73-1.9a20,20,0,0,0,1.45-1.85c.9-1.28,1.73-2.6,2.66-3.83.44-.6,1-1.22,1.42-1.72s.78-1,1.14-1.45c.72-1,1.36-1.94,1.92-2.79" transform="translate(-2.13)"/><path class="cls-1" d="M21.43,35.94s.1.81.27,2.1.43,3.05.75,5c.62,3.79,1.68,8,2.76,9.95" transform="translate(-2.13)"/></g></g></svg>