<svg xmlns="http://www.w3.org/2000/svg" viewBox="0 0 529.75 259.64"><defs><style>.cls-1{fill:none;stroke-width:6px;}.cls-1,.cls-2{stroke:#000;stroke-miterlimit:10;}.cls-2{font-size:150px;stroke-width:5px;font-family:InkFree, Ink Free;}</style></defs><g id="圖層_2" data-name="圖層 2"><g id="菜單-sign"><path class="cls-1" d="M153.38,178a14.68,14.68,0,0,0-.17,1.86,15.36,15.36,0,0,0,.45,4.19,12.77,12.77,0,0,0,1.9,4.24,7.22,7.22,0,0,0,2.84,2.45"/><path class="cls-1" d="M124.29,195.93l.42-.13,1.24-.34c1.09-.28,2.73-.64,4.77-1s4.5-.73,7.16-1a26.93,26.93,0,0,1,4.14,0c1.51.06,3.06.09,4.64.13,6.32.13,13.08,0,19.1-.38a109.41,109.41,0,0,0,14.79-1.79"/><path class="cls-1" d="M133.4,206.53s.32,1.47,1,3.72a73.37,73.37,0,0,0,3.05,8.42,62,62,0,0,0,4.79,9,31,31,0,0,0,5.05,6.19"/><path class="cls-1" d="M171.26,202.07l-.44,1.25c-.25.8-.65,2-1.06,3.38-.86,2.83-1.86,6.71-2.84,10.87s-2,8.61-3.09,12.66-2.24,7.7-3.06,10.28"/><path class="cls-1" d="M129.09,249.82s37.83-4,50-7.5"/><path class="cls-1" d="M199.85,191.36s2.41-.55,6.16-1.47l6.53-1.6,3.8-.9c.71-.16,1.18-.29,1.74-.43s1.14-.28,1.77-.41a5.19,5.19,0,0,1,2-.18,1.93,1.93,0,0,1,1.32,1.27,11.5,11.5,0,0,1,.49,1.86c.14.66.27,1.36.4,2.07.52,2.89.94,5.76,1.26,8.52.67,5.5,1,10.48,1.29,13.81"/><path class="cls-1" d="M200,194.44s-.13.83-.35,2.32-.5,3.63-.78,6.26a165.39,165.39,0,0,0-.88,20.17c.07,3.85.28,7.83.64,11.73.19,1.91.41,3.63.66,5.12a3.12,3.12,0,0,0,.27,1.07,1.29,1.29,0,0,0,1,.63,4.22,4.22,0,0,0,2.4-.63,20.94,20.94,0,0,0,1.9-1.29c.59-.4,1.15-.75,1.63-1.06,1.58-.84,3.11-1.56,4.55-2.23,2.89-1.33,5.47-2.4,7.54-3.28"/><path class="cls-1" d="M204.73,204.63a48.8,48.8,0,0,0,6.27-.25c3.37-.35,7.19-1.21,9.19-2.5"/><path class="cls-1" d="M202.71,217.75a73.29,73.29,0,0,0,7.71-1.21c4.12-.87,8.71-2.34,10.93-3.95"/><path class="cls-1" d="M215,224.88s8.53,12.78,13.36,16.18"/><path class="cls-1" d="M233.69,190.43s.63,3,1.63,7.78,2.22,11.2,3,18.29c1.62,14.17,1.28,30.72,1.8,38.85"/><path class="cls-1" d="M230.14,184.34s3.81-.53,9.91-1.21l5-.53,5.42-.49a16.91,16.91,0,0,1,2.2-.13,1.75,1.75,0,0,1,1.08.4,2.41,2.41,0,0,1,.65,1,15,15,0,0,1,.56,2.41c.08.52.17,1,.27,1.58l.24,1.67A165.42,165.42,0,0,1,257,216.7c-.2,8.93-1.15,17-1.76,22.44l-.54,4.9-5.33-2.7-.9-.46"/><path class="cls-1" d="M351,188.07a2.73,2.73,0,0,1,.18.72c0,.25.1.55.17.89s.05.78.09,1.26a23.63,23.63,0,0,1-1.21,7.74,37.76,37.76,0,0,1-4.35,9,58.46,58.46,0,0,1-5.3,6.86"/><path class="cls-1" d="M347.73,205.71s.73,10.07,2,21.76,3.12,25,5.16,31.24"/><path class="cls-1" d="M358.06,198.63s2.05-.26,5.22-.83,7.46-1.45,12-2.57c9.1-2.23,19.31-5.26,24.3-7.45"/><path class="cls-1" d="M376.17,181.3s3.58,8,6.94,10.66"/><path class="cls-1" d="M363.07,215.16s6.66,18.35,11,23.94"/><path class="cls-1" d="M394.32,198.3s-.22,2.11-.47,5.42-.56,7.83-.83,12.69c-.52,9.74-1,20.83-.8,26.57"/><path class="cls-1" d="M361.68,250.5s2.58-.62,6.69-1.5,9.78-2,15.94-3l4.69-.72c1.58-.24,3.19-.42,4.77-.72,3.15-.6,6.24-1.32,9.16-2A104.25,104.25,0,0,0,417,238.26"/><path d="M2.76,36.6c1.25.5,2,1.94,2.6,3.07.79,1.54,1.39,3.17,2.16,4.72a12.27,12.27,0,0,0,8.12,6.49c3.77.88,8-.74,8.71-4.93s-2.12-7.85-5.74-9.51a26.92,26.92,0,0,0-7.51-1.85L1.89,33.32a1.55,1.55,0,0,0-1.84,1A1.51,1.51,0,0,0,1.1,36.22l7.2,1a61.18,61.18,0,0,1,6.32,1c3.21.78,6.83,2.74,6.83,6.53a3.26,3.26,0,0,1-2,3.12,5.87,5.87,0,0,1-4.18-.27A9.53,9.53,0,0,1,11.44,45a15.12,15.12,0,0,1-2-3.65c-1.34-3-2.58-6.36-5.87-7.69a1.52,1.52,0,0,0-1.84,1,1.54,1.54,0,0,0,1,1.85Z"/><path d="M15.05,13.46c-.23,3.67-.78,7.37-.25,11A11.88,11.88,0,0,0,20.29,33c3.09,1.94,7.53,2,9.81-1.22,2.6-3.67-.54-7.72-3.07-10.35Q21.53,15.71,16,10c-1.35-1.39-3.46.73-2.13,2.12l8,8.35c1.3,1.36,2.64,2.68,3.9,4.08,1,1.1,2.19,2.54,2.23,4.11a2.75,2.75,0,0,1-2.2,2.62,5.1,5.1,0,0,1-4.06-.85,8.94,8.94,0,0,1-4.09-6.63c-.45-3.41.13-6.92.34-10.33.12-1.92-2.88-1.92-3,0Z"/><path d="M40.92,17.74,36.58,27c-1.07,2.28-2.35,5.31-.35,7.49s5.42,1.16,7-1,1.89-5.66,1.86-8.39a25.46,25.46,0,0,0-2.32-10.22,1.51,1.51,0,0,0-2-.53,1.54,1.54,0,0,0-.54,2,21.77,21.77,0,0,1,1.91,8.7,19.52,19.52,0,0,1-.43,4.52c-.25,1.06-.65,2.4-1.73,2.89-.72.32-1.57.22-1.73-.65-.2-1.11.55-2.43,1-3.38l4.33-9.2A1.54,1.54,0,0,0,43,17.21a1.51,1.51,0,0,0-2,.53Z"/><path d="M491.86,11.39a24.76,24.76,0,0,1-4.94,6.67,15.29,15.29,0,0,0-4.59,7.47c-.65,3.25,1,7.16,4.63,7.52s6.31-3.23,6.85-6.54a51.4,51.4,0,0,0,.39-6.68l.24-7.56c.06-1.93-2.94-1.93-3,0-.12,3.64-.22,7.27-.34,10.91-.08,2.36-.31,6.35-3.33,6.87a2.2,2.2,0,0,1-2.34-1.5,4.83,4.83,0,0,1,.3-3.81,16.34,16.34,0,0,1,3.76-5,25.71,25.71,0,0,0,5-6.83c.87-1.72-1.72-3.24-2.59-1.52Z"/><path d="M520.76,19.7c-3.44.84-6.8,2-10.2,3a49.17,49.17,0,0,0-5.17,1.49A7.47,7.47,0,0,0,500.93,29a7.37,7.37,0,0,0,11.73,7.8,9.46,9.46,0,0,0,2.39-4c.66-1.85,1.05-3.79,1.64-5.66a11.38,11.38,0,0,1,1-2.31,3.27,3.27,0,0,1,1.26-1.36,1.5,1.5,0,0,0-1.51-2.59c-2.66,1.51-3.47,4.87-4.21,7.6a29.87,29.87,0,0,1-1.32,4.25,3.89,3.89,0,0,1-2.39,2.5,4.36,4.36,0,0,1-5.82-4.74c.6-3.75,4.71-4,7.7-4.9,3.4-1,6.76-2.12,10.19-3,1.88-.46,1.08-3.36-.79-2.9Z"/><path d="M527.76,41.7a80.92,80.92,0,0,1-8.84,1.79c-1.52.2-3.07.21-4.58.44a3.68,3.68,0,0,0-3,2.33,4.72,4.72,0,0,0,2.37,5.54c2.79,1.3,5.87,0,8.33-1.44a28.56,28.56,0,0,0,7.31-6.1,1.55,1.55,0,0,0,0-2.12,1.51,1.51,0,0,0-2.12,0,25.68,25.68,0,0,1-5,4.57c-1.69,1.15-3.82,2.6-5.95,2.63A2.92,2.92,0,0,1,515,49.1a1.54,1.54,0,0,1-.54-.5,1.74,1.74,0,0,1-.34-.87c0-.18,0,0,0,0a1.92,1.92,0,0,1,0-.24c0,.06,0-.23,0-.25a.55.55,0,0,1,.26-.25,5.68,5.68,0,0,1,1.79-.22c1.34-.1,2.68-.26,4-.46,2.81-.41,5.59-1,8.34-1.71,1.88-.47,1.08-3.36-.79-2.9Z"/><text class="cls-2" transform="translate(38.53 138.77)">2D</text><path d="M272.44,154.92a8.33,8.33,0,0,1-6.72-2.84c-6.57-2.53-9.91-6.48-9.91-11.73,0-8,2.12-16.67,6.29-25.81A84.75,84.75,0,0,1,275.39,93.6c5.25-6,9.46-9,12.89-9.23h.37a7.55,7.55,0,0,1,4.23,1.6c.08.06.27.19,3.43,2.76a2,2,0,0,1,1.86-1.22c1,0,2.45.72,4.56,2.35,1.45,1.13,2.15,2.25,2.15,3.43a16.66,16.66,0,0,1-.56,3.31c-1.58,6.42-3.45,11.46-5.54,15-1.14,2-2.33,2.94-3.64,2.94a5.67,5.67,0,0,1-1.62-.29c-1.08-.33-4.41-1.34-4.41-3.64a2,2,0,0,1,1.39-1.88,31.56,31.56,0,0,0,4.67-14.21,6.58,6.58,0,0,0-4-1.81c-3.09,0-6.85,2.87-11.22,8.55A85.39,85.39,0,0,0,269,120.9c-3.19,7.85-4.74,14.45-4.62,19.62,0,2.83.83,4.85,2.43,6.19a5.88,5.88,0,0,0,3.9,1.43,10.68,10.68,0,0,0,3.07-.54,41.73,41.73,0,0,0,10.57-5.54,58.17,58.17,0,0,0,9.6-8,4.74,4.74,0,0,0,1.2-2.8,2,2,0,0,1,2-2,2.07,2.07,0,0,1,2,1.52c1.23,3.07,1.83,5.19,1.83,6.46a5.37,5.37,0,0,1-1.59,3.71,51.8,51.8,0,0,1-4.28,3.49c-7,5.23-13.07,8.54-18.13,9.84A18.08,18.08,0,0,1,272.44,154.92Z"/><path d="M303.34,96.36q-2.34,9.51-5.42,14.69c-.94,1.63-1.87,2.45-2.78,2.45a4.69,4.69,0,0,1-1.32-.25q-3.7-1.12-3.71-2.68c0-.53.34-.87,1-1a32.52,32.52,0,0,0,5.07-15.48,7.9,7.9,0,0,0-5.07-2.39q-5.08,0-12,8.93A86.75,86.75,0,0,0,268,120.53q-4.87,12-4.69,20c0,3.09,1,5.4,2.79,6.93a6.88,6.88,0,0,0,4.54,1.66,11.73,11.73,0,0,0,3.37-.59,42.57,42.57,0,0,0,10.84-5.66,59.71,59.71,0,0,0,9.76-8.15,5.86,5.86,0,0,0,1.47-3.37c.09-.72.42-1.08,1-1.08s.8.29,1,.88a20.36,20.36,0,0,1,1.76,6.1,4.37,4.37,0,0,1-1.32,3,51.55,51.55,0,0,1-4.15,3.37q-10.35,7.77-17.78,9.67a17.09,17.09,0,0,1-4.19.58,7.29,7.29,0,0,1-6.11-2.68q-9.52-3.57-9.52-10.89,0-11.82,6.2-25.39a83.41,83.41,0,0,1,13.14-20.7q7.52-8.55,12.2-8.89a6.28,6.28,0,0,1,4,1.42c.19.13,1.71,1.35,4.54,3.66q.24-2,1.32-2t3.95,2.14c1.17.92,1.76,1.79,1.76,2.64A16.17,16.17,0,0,1,303.34,96.36Z"/><path d="M307.2,157.17a3.91,3.91,0,0,1-2-.91,9.59,9.59,0,0,1-3.58-4.19c-.41-1.06-.37-2.63,2.08-4.25a77.87,77.87,0,0,0,8.19-6.51,68.37,68.37,0,0,0,6.51-6.25c-.4-4.09-.4-4.23-.4-4.33.1-2.86,1.53-4,2.71-4.54a20.88,20.88,0,0,1,6.14-1,174.83,174.83,0,0,0,17.71-25.73c-1.57.62-3.56,1.32-6,2.12-6.56,2.13-11.15,3.66-13.64,4.53-3.13,1.12-4.66,3-4.66,5.7a12.22,12.22,0,0,0,.18,2,2.76,2.76,0,0,1-.41,2.33,1.89,1.89,0,0,1-1.5.64,2.3,2.3,0,0,1-2.16-1.33,43.14,43.14,0,0,1-3.26-8.15,17.3,17.3,0,0,1-.46-2.36,5.06,5.06,0,0,1,1.95-3.87c2.13-1.82,5.93-3.1,11.64-4A82.47,82.47,0,0,0,347,91.42c.75-.76.91-.94.94-1h0a3.74,3.74,0,0,0,.35-1,2,2,0,0,1,1.92-1.71c1.08,0,2.34.83,4.1,2.71a3.82,3.82,0,0,1,1,1.92c.82-3.33,3.35-5.84,7.51-7.45a5.58,5.58,0,0,1,2-.45,1.88,1.88,0,0,1,2.08,1.93,5,5,0,0,1-1.17,2.82c-1.91,2.75-3.78,10.44-5.53,22.85-1.55,11.06-2.29,19.8-2.19,26,.16,8,1.76,8.39,2.07,8.39a3.66,3.66,0,0,0,1.18-.32,5.29,5.29,0,0,1,1.9-.46,1.74,1.74,0,0,1,2,1.73,2.61,2.61,0,0,1-1.08,1.93,40.1,40.1,0,0,1-7.66,4.91,5.58,5.58,0,0,1-2.57.75,2.88,2.88,0,0,1-2.13-1c-1.45-1.53-3.25-5.61-2.34-23.18-7.21.44-14.11,1-20.55,1.79l-7.85,9.59c2.83.33,3.86,4.21,4.2,5.51a7.26,7.26,0,0,1,.38,2,2,2,0,0,1-2,2.17,7,7,0,0,1-1.69-.28,5.68,5.68,0,0,0-1.24-.21c-2.56,0-6.14,1.44-10.65,4.29l-2.34,1.47Zm13.32-14v-.51l0,0,0,.45ZM355,93.91c-.25.56-.7,1.4-1.47,2.75-2.41,4.26-5.67,9.49-9.7,15.53-3.72,5.6-6.78,9.91-9.14,12.85,6.22,0,11.31-.2,15.16-.51.49-4.52,1.46-10.81,2.9-18.73Z"/><path d="M364.82,88.64q-3,4.35-5.71,23.29-2.36,16.75-2.2,26.13t3.07,9.37a4.67,4.67,0,0,0,1.54-.39,4.67,4.67,0,0,1,1.54-.39c.65,0,1,.24,1,.73a1.7,1.7,0,0,1-.74,1.17,38.56,38.56,0,0,1-7.47,4.79,4.73,4.73,0,0,1-2.1.63q-4.78,0-3.41-24.22-11.73.69-22.12,1.91l-9.67,11.82c1.72-.2,2.38-.3,2-.3q2.34,0,3.62,4.79a6.77,6.77,0,0,1,.34,1.76c0,.78-.34,1.17-1,1.17a6.14,6.14,0,0,1-1.44-.25,6.48,6.48,0,0,0-1.49-.24q-4.14,0-11.18,4.44l-2.1,1.32a3.49,3.49,0,0,1-1.46-.73,8.66,8.66,0,0,1-3.23-3.76q-.58-1.52,1.71-3a76.8,76.8,0,0,0,8.3-6.59,62.6,62.6,0,0,0,6.89-6.69c-.29-3-.44-4.51-.44-4.64.06-1.85.76-3.06,2.1-3.61a21.06,21.06,0,0,1,6.25-1A170.5,170.5,0,0,0,346.8,97.33a59.31,59.31,0,0,1-8.59,3.27q-9.91,3.23-13.68,4.55c-3.54,1.27-5.32,3.48-5.32,6.64a13.11,13.11,0,0,0,.2,2.14c.19,1.21-.12,1.81-.93,1.81a1.32,1.32,0,0,1-1.27-.78,42.41,42.41,0,0,1-3.17-7.91c-.3-1.37-.44-2.08-.44-2.15a4.09,4.09,0,0,1,1.61-3.12q2.93-2.49,11.13-3.71a82.43,82.43,0,0,0,21.19-5.82A14.82,14.82,0,0,0,348.7,91a4.26,4.26,0,0,0,.52-1.31c.18-.65.49-1,.95-1,.75,0,1.87.8,3.37,2.39a2.53,2.53,0,0,1,.73,1.66,13.77,13.77,0,0,1-1.66,3.37q-3.62,6.41-9.67,15.48A148.45,148.45,0,0,1,332.49,126q11.63,0,18.22-.58.68-6.84,3-19.48L356,93.57q.74-5.26,7.08-7.71a4.57,4.57,0,0,1,1.61-.39q1.08,0,1.08.93A4.27,4.27,0,0,1,364.82,88.64Z"/><path d="M393.33,155.22a15.74,15.74,0,0,1-4.52-1.13c-1.78-.59-2.48-2.4-2.08-5.38a74.71,74.71,0,0,1,1.93-9.21c.25-.87,1-2.3,3.51-2.3a6.28,6.28,0,0,1,.84.05c.64-1.61,1.4-3.94,2.25-7-2-5.14-2-5.21-2-5.47a4.74,4.74,0,0,1,.06-.75c.27-1.47,1.88-2.51,5-3.27.64-2.06,3-9.51,7.39-23.52a96.48,96.48,0,0,0-13.45,2.2c-5.38,1.26-8.95,2.64-10.61,4.12s-2.49,3-2.49,4.38c0,1.15.54,3.53,3.1,8.31a3.29,3.29,0,0,1,.46,1.65,2,2,0,0,1-2.12,2.22,2.7,2.7,0,0,1-2.24-1.36,44.71,44.71,0,0,1-5.14-8.81,24,24,0,0,1-1.23-6.47c-.37-4.54,3.14-7.85,10.45-9.84a156.26,156.26,0,0,1,26.81-4.86c1.2-2.34,2-3.23,3-3.23.67,0,1.76.28,4.22,2.43.84-.06,2.83-.28,7.4-1,.32-.06.9-.34,1.71-1.35.9-1.18,2.82-1.84,5.86-2h.28A3.85,3.85,0,0,1,435.5,86c.07.18.14.36,1.09,4.14a4.58,4.58,0,0,1,.13,1,2.9,2.9,0,0,1-2.4,2.86c-.24.07-.87.17-3.64.57-4.9.7-11,1.36-18.08,2-1.8,4-4.36,11.82-7.6,23.13,5.68-.48,11.5-.78,17.32-.9h.16c2.75,0,4,1.29,4.51,2.36a16.39,16.39,0,0,1,.82,3.49,3.31,3.31,0,0,1,.12.87c0,2.51-3.5,3.09-4.65,3.28a22,22,0,0,1-3.31.46h-.21a2.62,2.62,0,0,1-2.2-1.44c-.19-.36-.55-.8-1.72-.8-6.41,0-10.85.1-13.19.32-1.18,3.33-3.18,11.23-5.95,23.51C396.45,151.88,395.69,155.22,393.33,155.22Z"/><path d="M435.62,90.35a4,4,0,0,1,.1.78c0,1-.57,1.58-1.71,1.91-.07,0-1.22.21-3.47.53q-7.56,1.08-18.6,2-2.88,6.15-8.3,25.19,9.23-.83,18.7-1c1.89,0,3.14.57,3.76,1.8a23.45,23.45,0,0,1,.73,3.22,3.27,3.27,0,0,1,.1.69q0,1.67-3.81,2.29a18.7,18.7,0,0,1-3.27.44,1.65,1.65,0,0,1-1.42-.93,2.65,2.65,0,0,0-2.59-1.31q-10.63,0-13.91.39-1.76,4.49-6.2,24.22c-.56,2.44-1.35,3.66-2.4,3.66a17.07,17.07,0,0,1-4.19-1.08c-1.27-.42-1.75-1.85-1.42-4.29a73.16,73.16,0,0,1,1.9-9.09q.58-2,4-1.41a65.8,65.8,0,0,0,2.68-8.11c-1.36-3.51-2.05-5.32-2.05-5.42a3.79,3.79,0,0,1,.05-.58q.3-1.62,4.83-2.59.25-.83,8-25.49a96.77,96.77,0,0,0-15.09,2.34q-8.34,2-11,4.35-2.83,2.54-2.83,5.13,0,2.77,3.22,8.79a2.28,2.28,0,0,1,.34,1.17c0,.81-.37,1.22-1.12,1.22a1.78,1.78,0,0,1-1.42-.93,44.56,44.56,0,0,1-5-8.59,23.75,23.75,0,0,1-1.17-6.2q-.48-6,9.72-8.79a154.83,154.83,0,0,1,27.2-4.89c1-2.11,1.82-3.17,2.34-3.17.75,0,2,.82,3.86,2.44q1.26,0,7.91-1a4.19,4.19,0,0,0,2.34-1.71c.72-.95,2.43-1.48,5.13-1.61a2.91,2.91,0,0,1,3.07,1.66C434.66,86.56,435,87.88,435.62,90.35Z"/><path d="M435,154.63c-.49,0-1.69-.2-2-2.08a39.19,39.19,0,0,1-1-5.31,3.51,3.51,0,0,1,2.81-3.45,40.86,40.86,0,0,1,8.17-.9,98.59,98.59,0,0,0,7.47-17.7c-.23-.62-.69-1.66-1.36-3.12a8.42,8.42,0,0,1-.83-3c0-1.75,1.52-3,4.52-3.75.32-.09.67-.18,1-.26,1.4-5.39,3.13-12.22,5.15-20.33a61.22,61.22,0,0,0-9.12-1,34.89,34.89,0,0,0-4.42.29c-3.06.44-4.49,2.41-4.49,6.18a29.38,29.38,0,0,0,1,6.89,2.73,2.73,0,0,1-.24,2.45,1.87,1.87,0,0,1-1.56.7,2.3,2.3,0,0,1-2.23-1.9,41.19,41.19,0,0,1-2.09-11.6,21.49,21.49,0,0,1,1-6.61C438,86.7,441.16,85,446.31,85a90.1,90.1,0,0,1,15.3,1.93c2.22-1.58,3.17-1.79,3.75-1.79A1.67,1.67,0,0,1,467,87,4.91,4.91,0,0,1,466.9,88c2.43.62,8.55,2,18.26,4.22a2.93,2.93,0,0,0,.62.08c.46,0,1.15-.13,1.81-1.27a2.48,2.48,0,0,1,2.08-1.28c.68,0,1.87.31,2.25,2.38a19.07,19.07,0,0,1,.41,3.26,3.47,3.47,0,0,1-.85,2.44c-.1.1-.17.17-2,1.58a4.68,4.68,0,0,1-2.88.88,9.24,9.24,0,0,1-2.27-.32c-5.74-1.46-12.33-2.81-19.61-4-1.89,7.69-3.35,13.75-4.35,18.07,3.68-.27,9.42-.61,17.07-1h.19c2.68,0,3.88,1.28,4.42,2.36a19.74,19.74,0,0,1,.91,3.55,6,6,0,0,1,.08.9c0,2.51-3.54,3.09-4.7,3.28a16,16,0,0,1-2.8.3h0c-.58,0-2.31,0-2.94-1.27-.21-.44-.58-.92-1.75-.92-6.38,0-10.59.12-12.52.34l-3.71,11.57a33.57,33.57,0,0,1-3.13,7.16,12.74,12.74,0,0,1-2,2.28h.72c5.37,0,14.37.56,26.75,1.67h.15c.23,0,.48,0,.61-.7s.46-2.38,1.91-2.49h.27a2.38,2.38,0,0,1,2.42,1.8c.34,1.46.78,3.33,1.33,5.67a2.94,2.94,0,0,1-1.17,3c-.77.6-1.44,1.14-2.08,1.68a3.62,3.62,0,0,1-2.32,1l-.24,0-2.93-.75a89.76,89.76,0,0,0-23.28-2.8c-3.42,0-7.12.14-11,.41C436.91,154.19,435.74,154.63,435,154.63Z"/><path d="M490.94,92.35a19,19,0,0,1,.39,3.08,2.51,2.51,0,0,1-.58,1.76c-.07.06-.7.55-1.91,1.46-1,.75-2.41.88-4.29.39q-9-2.3-20.61-4.2-3.31,13.48-4.88,20.32,5.37-.45,18.41-1.13c1.82,0,3,.57,3.66,1.81.09.19.37,1.3.83,3.32a6.22,6.22,0,0,1,.05.68c0,1.11-1.29,1.87-3.86,2.3q-4.11.73-4.69-.44a2.62,2.62,0,0,0-2.64-1.47q-10.83,0-13.28.44l-3.9,12.16a32.21,32.21,0,0,1-3,6.91,15.64,15.64,0,0,1-4.17,3.93c1.14-.06,2.38-.1,3.71-.1q8.06,0,26.66,1.66a1.57,1.57,0,0,0,1.83-1.49c.21-1.09.55-1.65,1-1.68a1.43,1.43,0,0,1,1.66,1.07l1.32,5.62a2.06,2.06,0,0,1-.88,2c-.71.55-1.4,1.11-2.05,1.66a2.63,2.63,0,0,1-1.76.78l-2.83-.73a90.29,90.29,0,0,0-23.53-2.83c-3.55,0-7.36.14-11.43.44q-4.1,3.56-5.13,3.56c-.55,0-.91-.42-1.07-1.27q-.93-4.59-.93-5.12a2.51,2.51,0,0,1,2.1-2.49,42.56,42.56,0,0,1,8.5-.88,100.45,100.45,0,0,0,7.91-18.7c-.2-.59-.7-1.76-1.52-3.52a7.94,7.94,0,0,1-.73-2.54c0-1.24,1.25-2.16,3.76-2.78.49-.13,1-.26,1.61-.39q2.25-8.59,5.57-22a67.33,67.33,0,0,0-10.35-1.22,35,35,0,0,0-4.54.3q-5.37.78-5.37,7.17a29.81,29.81,0,0,0,1.07,7.13c.32,1.27,0,1.91-.83,1.91-.62,0-1-.39-1.27-1.17a40.21,40.21,0,0,1-2.05-11.33,20.15,20.15,0,0,1,1-6.3q1.41-4.5,8.44-4.49a89.45,89.45,0,0,1,15.53,2c1.69-1.24,2.86-1.86,3.52-1.86.45,0,.68.3.68.88a5.77,5.77,0,0,1-.39,1.76q2,.58,19.29,4.49a3,3,0,0,0,3.51-1.66,1.51,1.51,0,0,1,1.22-.78C490.32,90.79,490.75,91.31,490.94,92.35Z"/><path class="cls-1" d="M273.75,186s.1.94.16,2.46a33.39,33.39,0,0,1-.28,6,25.75,25.75,0,0,1-2,7.22l-.84,1.69q-.5.81-.93,1.56c-.66,1-1.26,1.88-1.79,2.63"/><path class="cls-1" d="M330.32,190s.17.9.45,2.32.57,3.43.77,5.64a41.61,41.61,0,0,1,.11,7,37.62,37.62,0,0,1-1.12,6.37"/><path class="cls-1" d="M277,193.65s39.29,4.15,52.37,3.32"/><path class="cls-1" d="M301.44,179.81s1.26,8.32,3.75,11.74"/><path class="cls-1" d="M277.75,204.77s35.64,4.52,47.61,3.82"/><path class="cls-1" d="M300.76,210.56s-2.77,25.08-1.52,33.73"/><path class="cls-1" d="M303,226.52s11.47,1.4,16.16-.11"/><path class="cls-1" d="M278.82,221.62s.18,1.42.27,3.74a47.24,47.24,0,0,1-.62,9.06,50.27,50.27,0,0,1-3.07,10.65c-1.37,3.38-3,6.33-4,8.43"/><path class="cls-1" d="M279.38,238.26s.57.32,1.61.84,2.54,1.27,4.4,2.13a100.76,100.76,0,0,0,14.68,5.37,82.52,82.52,0,0,0,17.56,3,53,53,0,0,0,13.61-.81"/></g></g></svg>