<svg xmlns="http://www.w3.org/2000/svg" viewBox="0 0 729.69 183.6"><defs><style>.cls-1,.cls-2,.cls-3,.cls-4,.cls-5,.cls-6{fill:none;stroke:#000;stroke-miterlimit:10;}.cls-1{stroke-width:10px;}.cls-2{stroke-width:6px;}.cls-3{stroke-width:4.03px;}.cls-4{stroke-width:2.42px;}.cls-5{stroke-width:3.87px;}.cls-6{stroke-width:2.5px;}</style></defs><g id="圖層_2" data-name="圖層 2"><g id="菜單-sign"><path class="cls-1" d="M8.34,117.6c-3.11-18-2.29-36.1-2.91-53.82-.29-8.35-.87-16.64.14-24.9.21-1.9.5-3.79.87-5.69a45.56,45.56,0,0,1,1.15-5.41A47.82,47.82,0,0,1,11,18.52a22.55,22.55,0,0,1,3.95-5.91,22.88,22.88,0,0,1,7-4.73c.71-.3,1.41-.69,2.17-.94l2.29-.78a23.78,23.78,0,0,1,2.38-.63l1.21-.28A7.87,7.87,0,0,1,31.05,5c.71,0,1.61,0,2.45,0l2.54,0c1.69,0,3.37.08,5,.17C48.61,5.68,56.34,6.91,64,6.93a113.23,113.23,0,0,0,11.43-.59c2-.17,4-.36,6.25-.38a35.41,35.41,0,0,1,7.48.74"/><path class="cls-1" d="M606.55,101.43c-.08,2.1-.09,4.22,0,6.38a32.76,32.76,0,0,0,1,6.44,14.21,14.21,0,0,1,.48,2.68c0,.43,0,.87,0,1.41l0,1.54-.12,6.15-.15,6.12a25.93,25.93,0,0,1-.71,5.79,19.92,19.92,0,0,1-6.36,9.48,40.3,40.3,0,0,1-4.78,3.59c-1.66,1.1-3.45,2.09-5.21,3.14a37.23,37.23,0,0,1-5.32,2.74,32.64,32.64,0,0,1-5.73,1.61,118,118,0,0,1-12,1.47,111.77,111.77,0,0,1-12.14.3c-4-.1-8.13-.32-12.22-.29s-8.14.29-12.2.38q-12.17.38-24.29.49c-8.09.09-16.15.08-24.21-.08s-16.09-.43-24.13-.62c-7.56-.2-15.14-.26-22.68-.25s-15-.17-22.55-.45c-15-.55-30-1.49-44.92-2.37-6.87-.38-13.74-.73-20.64-1s-13.82-.34-20.72-.4c-13.93-.07-27.86.14-41.68.39l-18,.33q-9,.14-18.08.38-18.1.48-36.23,1.29l-36.27,1.68c-12.07.59-24.19.79-36.31.68-13.72-.13-27.55-.68-41.44-.89s-27.83.2-41.68.35l-5.18.06c-1.75,0-3.48.09-5.21.16-3.46.15-6.89.33-10.31.38a44,44,0,0,1-10.15-.72c-.83-.19-1.63-.49-2.45-.73a24.08,24.08,0,0,1-2.36-1A12.74,12.74,0,0,1,17.44,155a12.45,12.45,0,0,1-1.53-2.19,17,17,0,0,1-1-2.46,32.07,32.07,0,0,1-1.17-5.12c-.52-3.4-.84-6.81-1.3-10L12.25,134,12,132.73l-.48-2.45c-.33-1.63-.67-3.25-1-4.86C9.8,122.2,9,119,8.19,115.87"/><path class="cls-1" d="M86.62,6.24q21.9-.88,43.74-1c14.55-.08,29.07,0,43.54.45,7.24.21,14.43.47,21.62,1.16,7.24.53,14.45.8,21.65,1q21.6.69,43.05.87L300.48,9l20,.23,10,.15h1.27a5.47,5.47,0,0,0,.7,0l.69-.06,2.44-.17L338.09,9l2.47-.05,4.53-.07c1.52,0,3,0,4.55.06l4.55.11,4.56.23c6.08.24,12.17.63,18.25,1,12.29.77,24.64,1.68,37,2.2,21.47.94,42.93.6,64.41.51,5.37,0,10.74,0,16.11,0,2.69,0,5.37.07,8.06.12l3.94.08a3.67,3.67,0,0,1,.87.14l.92.21,2,.48c5.38,1,10.74,1.51,16.11,2l8.06.72,8.06.67,36.73,3.15,9.25.72,2.35.17,2.35-.13c1.53-.07,3-.07,4.56,0a19,19,0,0,1,4.29.69,7.67,7.67,0,0,1,3.61,2.15,8.3,8.3,0,0,1,1.9,3.73,23.49,23.49,0,0,1,.56,4.31c.13,3,0,6.07-.17,9.13s-.31,6.13-.47,9.18l-.09,2.28-.24,2.26c-.14,1.53-.29,3-.43,4.56-.27,3-.51,6.07-.69,9.09a233.21,233.21,0,0,0,.28,35.69"/><path class="cls-2" d="M610.15,114.3s.94-.46,2.73-1.18a70.81,70.81,0,0,1,7.82-2.57,69.33,69.33,0,0,1,11.89-2.2,24,24,0,0,1,6.77.21,15.94,15.94,0,0,1,6.36,3.2,33.32,33.32,0,0,1,2.91,2.59c.47.46.93.94,1.39,1.43l1.28,1.37c.83.93,1.92,1.93,2.06,3.31a3.84,3.84,0,0,1-1.85,3.31,22.19,22.19,0,0,1-3.56,2.06l-3.57,1.85c-2.37,1.22-4.66,2.46-7,3.57a34.75,34.75,0,0,1-7.29,2.64,20.72,20.72,0,0,1-7.54.29,36.07,36.07,0,0,1-6.35-1.53c-1.87-.6-3.49-1.2-4.9-1.69"/><path class="cls-2" d="M612.37,120.94s6.34.09,13.66-.42c3.67-.25,7.57-.64,11.06-1.18,1.73-.27,3.42-.56,4.8-.91a8.89,8.89,0,0,0,3.11-1.32"/><path class="cls-2" d="M611.47,134.13a10.44,10.44,0,0,1,1.63.1l.82.14a4,4,0,0,1,.67.16,1.92,1.92,0,0,1,.71.39,6,6,0,0,1,.79.83c.69.82,1.45,2,2.64,3.25a18.65,18.65,0,0,0,4,3.07c1.45.86,2.91,1.58,4.41,2.36l4.64,2.38c6.33,3.24,13.17,6.59,19.41,9.26a101.56,101.56,0,0,0,15.7,5.52"/><path class="cls-2" d="M636.77,147.2l3-1.65A30.55,30.55,0,0,1,643,144a28.49,28.49,0,0,1,4.48-1.53,9.16,9.16,0,0,1,2.34-.22,9.43,9.43,0,0,1,2.57.46,14.73,14.73,0,0,1,5.35,3.2,35.93,35.93,0,0,1,4.9,5.69c.79,1.09,1.57,2.21,2.35,3.36s1.4,2.13,2.12,3.21,1.34,2.14,2,3.33a1.37,1.37,0,0,1,.13,1,1.5,1.5,0,0,1-.58.73A8.56,8.56,0,0,1,667,164c-1.22.44-2.51.83-3.88,1.18s-2.86.63-4.3.88c-2.89.49-5.81.81-8.67,1.07l-4.26.37a38.23,38.23,0,0,1-4.31.18,16.77,16.77,0,0,1-4.38-.71,17.9,17.9,0,0,1-4-1.8,17.71,17.71,0,0,1-3.34-2.65,20.53,20.53,0,0,1-1.38-1.58,9.48,9.48,0,0,1-1.22-2,6.78,6.78,0,0,1-.44-1.13l-.26-1.17a16.91,16.91,0,0,1-.14-2.11c0-.63,0-1.26,0-1.83s.07-1.15.14-1.68c.23-2.15.54-4,.85-5.69"/><path class="cls-2" d="M593,151l-.38.83c-.22.55-.56,1.36-.88,2.43a21.89,21.89,0,0,0-.81,9.36,18.6,18.6,0,0,0,6.49,11.72,16.21,16.21,0,0,0,3.28,2.06,18.9,18.9,0,0,0,3.65,1.23,66.73,66.73,0,0,0,7.43,1.17l4,.51c.7.1,1.38.17,2,.22l.95.06a1.48,1.48,0,0,0,.94-.16,1.44,1.44,0,0,0,.51-.86c.1-.33.19-.66.27-1,.15-.67.28-1.35.39-2a29.81,29.81,0,0,0,.34-3.92,22.71,22.71,0,0,0-1-7.41,16.94,16.94,0,0,0-3.39-6.05,13.86,13.86,0,0,0-1.15-1.15,7.42,7.42,0,0,0-1.22-.91,17.58,17.58,0,0,0-2.76-1.3,50.88,50.88,0,0,0-5.87-1.74,71.89,71.89,0,0,0-9.92-1.6"/><path class="cls-2" d="M598.1,162a4.33,4.33,0,0,1,.47.13,6.87,6.87,0,0,1,1.41.64,20.43,20.43,0,0,1,2.23,1.54c.85.66,1.84,1.45,2.89,2.18a38,38,0,0,0,6.65,3.81,18.83,18.83,0,0,0,5.81,1.67"/><path class="cls-2" d="M649.94,96.06l.83-.2c.53-.13,1.33-.25,2.32-.43,2-.29,4.84-.6,8-.73,6.27-.3,13.63,0,17.53-.56"/><path class="cls-2" d="M726.77,99l-.45-1.16c-.31-.76-.78-1.87-1.5-3.26a31.72,31.72,0,0,0-3.07-4.84,25.33,25.33,0,0,0-5.53-5.28,31.37,31.37,0,0,0-8-3.87c-1.45-.5-2.94-.94-4.46-1.35s-3-.83-4.69-1.23c-3.26-.75-7-1.44-10.83-.67a14.16,14.16,0,0,0-5.42,2.34,15.82,15.82,0,0,0-4,4.29,17.8,17.8,0,0,0-2.6,11.2,23.59,23.59,0,0,0,1.2,5.6,20.7,20.7,0,0,0,2.5,5.08,12.06,12.06,0,0,0,4,3.73,17.3,17.3,0,0,0,5.12,1.68,44.83,44.83,0,0,0,10.55.81,36.31,36.31,0,0,0,5-.57c.8-.16,1.58-.34,2.35-.54l1.13-.32.9-.39a33.19,33.19,0,0,0,3.83-2.3c1.25-.84,2.44-1.73,3.59-2.59a127.08,127.08,0,0,0,11.23-9.74"/><path class="cls-2" d="M678.24,95.78l.22-.08c.14-.06.42-.12.75-.21a29.74,29.74,0,0,1,3.21-.57,86.09,86.09,0,0,1,11.2-.71c4.4,0,9.09,0,13.45.42a36.06,36.06,0,0,1,6.23,1.13c1.93.54,3.55,1.16,4.83,1.53"/><path class="cls-2" d="M638.57,108.59s1-.44,2.87-1.37c.93-.48,2-1.06,3.36-1.88.65-.4,1.36-.88,2.11-1.45a15,15,0,0,0,1.27-1.13,9.29,9.29,0,0,0,1.14-1.47c.16-.29.32-.59.46-.9s.24-.55.35-.82c.21-.55.39-1.1.54-1.64.32-1.1.52-2.14.76-3.25.45-2.2.82-4.58,1.08-7.09a71.28,71.28,0,0,0,.41-7.87l0-2.18c0-.84,0-1.67-.1-2.49-.1-1.62-.21-3.27-.43-4.77a76.33,76.33,0,0,0-18.73,2.54,41,41,0,0,0-15.29,7.64,28.65,28.65,0,0,0-8.6,11.66,20.39,20.39,0,0,0-1.29,5.64,18.82,18.82,0,0,0,.22,4.71"/><path class="cls-2" d="M615,108.94a18.63,18.63,0,0,1,2.38-4.87,39.21,39.21,0,0,1,3.86-4.95c1.62-1.8,3.53-3.7,5.53-5.69,8-8,16.92-17.23,20.75-22.41"/><path class="cls-3" d="M97.46,50.11c-.24-.43-.45-.86-.7-1.36a8.42,8.42,0,0,0-.94-1.59,3.26,3.26,0,0,0-1.44-1.07,4.66,4.66,0,0,0-1.78-.21,14.34,14.34,0,0,0-3.62.87A19.8,19.8,0,0,0,85.67,48a16.5,16.5,0,0,0-2.92,2c-.88.75-1.83,1.35-2.77,2.09a11.74,11.74,0,0,0-2.47,2.55,4.6,4.6,0,0,0-.73,1.7,8.42,8.42,0,0,0-.07,1.8A17,17,0,0,0,79,64.81c.23.48.39,1,.62,1.58s.44,1.08.68,1.6c.49,1.05,1,2.08,1.57,3.09,1.1,2,2.28,4,3.27,6S87,81.24,88,83.3a33.73,33.73,0,0,0,3.63,5.84c5.65,7.62,9.91,16.07,14.45,24.34,1.07,1.92,2.27,3.75,3.5,5.57s2.55,3.56,3.9,5.28,2.77,3.45,4.24,5.11q1.09,1.25,2.25,2.46l.64.65.88.87c.6.58,1.21,1.16,1.83,1.67a5.15,5.15,0,0,0,1.61,1,12.8,12.8,0,0,0,1.53.56,11.54,11.54,0,0,0,3.44-1.53,7.08,7.08,0,0,0,1.42-1.25,1.1,1.1,0,0,0,.29-.68l.13-.75a2.9,2.9,0,0,0,0-.9c0-.33,0-.65-.06-1-.13-.71-.29-1.45-.4-2.11l-.32-1.88-.26-1.4-.52-2.8c-.36-1.87-.73-3.75-1.13-5.62s-.83-3.74-1.34-5.6a56.7,56.7,0,0,0-1.86-5.47c-1.38-3.58-3-7-4.6-10.48l-5.57-11.78c-1.9-3.93-4-7.8-6.07-11.61-4.25-7.64-8.54-15-12.78-22.45"/><path class="cls-4" d="M84.38,72.87l2.16-1.8c.66-.53,1.43-1.25,2.31-1.89s1.87-1.33,2.94-2c2.12-1.36,4.49-2.7,6.56-4a35.13,35.13,0,0,0,4.85-3.44"/><path class="cls-4" d="M87.92,81.56S88.7,80.9,90,79.9s3.12-2.3,5.15-3.65c4.06-2.69,8.87-5.58,11-7.36"/><path class="cls-4" d="M109.24,117.25l0-.57a10.49,10.49,0,0,1,0-1.85c.15-.09.3.06.44.13a5.2,5.2,0,0,1,.47.3c.34.24.71.52,1.15.87l.33.27.48.41.54.44.16.14.06,0a.73.73,0,0,0,.33.14.9.9,0,0,0,.46,0,1.18,1.18,0,0,0,.54-.48,5.8,5.8,0,0,0,.63-1.45,6.64,6.64,0,0,0,.32-1.54c0-.4,0-.74,0-1.06a6.31,6.31,0,0,1,.22-1,3,3,0,0,1,1.32-1.75c.17-.07.38-.17.54-.06a2.75,2.75,0,0,1,.44.32c.28.23.56.49.86.75l1.7,1.57a6.37,6.37,0,0,0,1,.26,1.22,1.22,0,0,0,.76,0s0,0,0-.11a1.43,1.43,0,0,0-.07-.35,5.43,5.43,0,0,0-.32-.87c-.27-.6-.57-1.2-.82-1.84-.06-.16-.12-.32-.18-.5a4,4,0,0,1-.14-.6,2.55,2.55,0,0,1,.06-1.23c.18-.51.3-.82.45-1.18a3.69,3.69,0,0,1,.34-.62l.1-.12a2,2,0,0,1,.26-.23,2.39,2.39,0,0,1,.43-.2,1.79,1.79,0,0,1,.92,0,2.38,2.38,0,0,1,.93.54,4.19,4.19,0,0,1,.47.5,7.72,7.72,0,0,1,.62.87.63.63,0,0,0,.39.24"/><path class="cls-4" d="M110.51,108.89s-2.83-5.24-6.21-11.29c-.85-1.5-1.72-3.07-2.61-4.6a20,20,0,0,0-1.52-2.16c-.5-.72-1-1.46-1.43-2.09A6.24,6.24,0,0,0,98,87.9a12.13,12.13,0,0,1-.85-.93,17.89,17.89,0,0,1-1.36-1.91c-.77-1.25-1.35-2.35-1.86-3.16"/><path class="cls-4" d="M115.27,105.48s-.11-.36-.36-1-.59-1.53-1.1-2.6a77.34,77.34,0,0,0-4.25-7.9l-5.41-8.8c-1.7-2.81-3.09-5.41-4-7.16"/><path class="cls-4" d="M119.66,101.29s-11.78-20.64-16.34-26.83"/><path class="cls-5" d="M124.47,135.13s.23.66.7,1.69,1.19,2.41,2.08,4c.46.76.94,1.58,1.45,2.43l.19.32.17.28a.77.77,0,0,0,.15.18l.13.12a3.49,3.49,0,0,0,.82.47,5.19,5.19,0,0,0,.84.3,2.45,2.45,0,0,0,.51.09,1.39,1.39,0,0,0,.34,0,.8.8,0,0,0,.29-.09,8.56,8.56,0,0,0,1.4-.89,8.38,8.38,0,0,0,1.19-1.09,3.49,3.49,0,0,0,.75-1.26,1.26,1.26,0,0,0,0-.72c-.09-.24-.18-.47-.28-.68a42.63,42.63,0,0,0-2.43-3.94L130.53,133"/><path class="cls-6" d="M135.38,143.36a22,22,0,0,1,5.5-6.08,17.14,17.14,0,0,1,7.33-3.27,10.33,10.33,0,0,1,7.2,1.25,6.89,6.89,0,0,1,1.28,1.05,4.39,4.39,0,0,1,.55.6,4.94,4.94,0,0,1,.49.64,11.09,11.09,0,0,1,1.34,2.72,7.89,7.89,0,0,0,.27.75,4.44,4.44,0,0,0,.55,1,3.41,3.41,0,0,0,1.86,1.24,4,4,0,0,0,2.08,0,7.21,7.21,0,0,0,1.61-.64c1-.52,1.8-1.14,2.69-1.64a14.14,14.14,0,0,1,2.8-1.27,29.88,29.88,0,0,1,6.93-1,20.06,20.06,0,0,0,7-1.51"/><path class="cls-2" d="M234.71,50.67a14.4,14.4,0,0,0-.17,1.86,15.76,15.76,0,0,0,.45,4.19,12.77,12.77,0,0,0,1.9,4.24,7.22,7.22,0,0,0,2.84,2.45"/><path class="cls-2" d="M205.63,68.64l.41-.13,1.24-.33c1.09-.28,2.73-.65,4.77-1s4.5-.73,7.16-1a28.21,28.21,0,0,1,4.14,0c1.51.07,3.06.1,4.64.14,6.33.13,13.08,0,19.11-.39a109.7,109.7,0,0,0,14.78-1.78"/><path class="cls-2" d="M281.18,64.07s2.41-.54,6.16-1.46l6.53-1.6,3.8-.9c.71-.16,1.18-.29,1.74-.43s1.14-.28,1.77-.41a5.19,5.19,0,0,1,2-.18,2,2,0,0,1,1.33,1.26,12.77,12.77,0,0,1,.48,1.87c.14.66.27,1.35.4,2.07.52,2.89.94,5.76,1.27,8.52.66,5.5.94,10.47,1.28,13.81"/><path class="cls-2" d="M286.06,77.35a47.83,47.83,0,0,0,6.27-.26c3.38-.34,7.19-1.2,9.19-2.49"/><path class="cls-2" d="M284,90.46a71.62,71.62,0,0,0,7.71-1.2c4.12-.87,8.71-2.34,10.93-4"/><path class="cls-2" d="M432.37,60.78a2.91,2.91,0,0,1,.18.73l.17.89c0,.36,0,.78.09,1.25a23.38,23.38,0,0,1-1.21,7.75,38.11,38.11,0,0,1-4.34,9A58.43,58.43,0,0,1,422,87.26"/><path class="cls-2" d="M439.39,71.35s2.05-.26,5.22-.83,7.46-1.45,12-2.57c9.1-2.24,19.3-5.27,24.3-7.45"/><path class="cls-2" d="M457.5,54s3.58,8,6.94,10.66"/><path class="cls-2" d="M214.73,79.25s.32,1.46,1,3.72a71.89,71.89,0,0,0,3,8.42,62.51,62.51,0,0,0,4.79,9,30.54,30.54,0,0,0,5.06,6.18"/><path class="cls-2" d="M252.59,74.79,252.15,76c-.25.8-.65,2-1.06,3.38-.86,2.83-1.86,6.7-2.84,10.87s-2,8.61-3.08,12.66-2.25,7.7-3.06,10.28"/><path class="cls-2" d="M210.43,122.54s37.82-4,50-7.5"/><path class="cls-2" d="M281.29,67.16s-.13.83-.35,2.32-.5,3.63-.78,6.26a167.44,167.44,0,0,0-.88,20.17c.07,3.85.28,7.83.64,11.73.19,1.91.41,3.63.66,5.12a3.24,3.24,0,0,0,.27,1.07,1.29,1.29,0,0,0,1,.63,4.2,4.2,0,0,0,2.4-.63,22.34,22.34,0,0,0,1.9-1.29c.59-.4,1.15-.75,1.63-1.06,1.58-.85,3.11-1.56,4.55-2.24,2.9-1.32,5.47-2.4,7.55-3.28"/><path class="cls-2" d="M296.32,97.59s8.52,12.79,13.36,16.19"/><path class="cls-2" d="M315,63.15s.63,3,1.62,7.78,2.22,11.19,3,18.28c1.63,14.18,1.28,30.73,1.8,38.86"/><path class="cls-2" d="M311.47,57.05s3.81-.52,9.91-1.2l5-.53,5.42-.49a18.83,18.83,0,0,1,2.21-.14,1.82,1.82,0,0,1,1.07.41,2.41,2.41,0,0,1,.65.95,15.08,15.08,0,0,1,.56,2.4l.27,1.59.24,1.67a165.36,165.36,0,0,1,1.6,27.71c-.2,8.93-1.14,17-1.75,22.44l-.55,4.9-5.32-2.7-.91-.46"/><path class="cls-2" d="M429.06,78.43s.73,10.07,2,21.76,3.13,25,5.16,31.24"/><path class="cls-2" d="M444.4,87.88s6.66,18.35,11,23.93"/><path class="cls-2" d="M475.65,71s-.22,2.1-.47,5.41-.56,7.84-.83,12.7c-.52,9.73-1,20.83-.8,26.57"/><path class="cls-2" d="M443,123.22s2.58-.62,6.7-1.5,9.77-2,15.93-3l4.7-.71c1.57-.24,3.18-.42,4.76-.73,3.15-.59,6.24-1.31,9.16-2A104.25,104.25,0,0,0,498.37,111"/><path class="cls-2" d="M355.08,58.71s.11.94.16,2.46a33.42,33.42,0,0,1-.28,6,26,26,0,0,1-2,7.21l-.85,1.7-.93,1.55c-.65,1-1.26,1.89-1.79,2.63"/><path class="cls-2" d="M411.65,62.67,412.1,65c.26,1.44.57,3.42.78,5.64a42.71,42.71,0,0,1,.1,7A37.81,37.81,0,0,1,411.86,84"/><path class="cls-2" d="M358.35,66.37s39.29,4.15,52.38,3.31"/><path class="cls-2" d="M382.77,52.53s1.26,8.32,3.75,11.74"/><path class="cls-2" d="M359.08,77.49S394.72,82,406.7,81.31"/><path class="cls-2" d="M382.09,83.28s-2.77,25.08-1.52,33.73"/><path class="cls-2" d="M384.34,99.24s11.46,1.4,16.16-.11"/><path class="cls-2" d="M360.15,94.34s.18,1.42.27,3.74a46.49,46.49,0,0,1-.62,9.06,50.44,50.44,0,0,1-3.07,10.65c-1.37,3.37-3,6.33-4,8.43"/><path class="cls-2" d="M360.71,111s.57.32,1.61.84,2.55,1.27,4.4,2.13a101.94,101.94,0,0,0,14.68,5.37,82.5,82.5,0,0,0,17.57,3,53,53,0,0,0,13.6-.81"/></g></g></svg>