<svg xmlns="http://www.w3.org/2000/svg" viewBox="0 0 729.69 183.6"><defs><style>.cls-1,.cls-2,.cls-3,.cls-4,.cls-5,.cls-6,.cls-7{fill:none;}.cls-1,.cls-2,.cls-3,.cls-5,.cls-6,.cls-7{stroke:#000;stroke-miterlimit:10;}.cls-1{stroke-width:3.1px;}.cls-2{stroke-width:2.03px;}.cls-3{stroke-width:3.05px;}.cls-5{stroke-width:5.1px;}.cls-6{stroke-width:10px;}.cls-7{stroke-width:6px;}</style></defs><g id="圖層_2" data-name="圖層 2"><g id="燈泡"><path class="cls-1" d="M114.64,118.57c-.71-.41-1.45-.81-2.08-1.22a3.7,3.7,0,0,1-1.35-1.66l-2.32-4.36-1.9-2.58a5.72,5.72,0,0,0-1-1.29c-.42-.34-.9-.66-1.33-1a17.72,17.72,0,0,1-2.62-.21c-.83-.12-1.67-.26-2.5-.43-1.66-.32-3.32-.7-5-1.11a36.6,36.6,0,0,1-4.84-1.45,20.11,20.11,0,0,1-4.33-2.51l-1-.77c-.41-.26-.75-.42-1.12-.64l-1-.67-1-.75a17.9,17.9,0,0,1-3.35-3.66,21.57,21.57,0,0,1-2.27-4.4c-.55-1.56-1.1-3.18-1.62-4.75a23.2,23.2,0,0,1-1.24-6.36,18.18,18.18,0,0,1,.22-3.21,17.87,17.87,0,0,1,.87-3.1,32.55,32.55,0,0,1,6.56-11,31,31,0,0,1,4.31-4c.78-.59,1.56-1.16,2.38-1.67.4-.26.85-.52,1.27-.77s.85-.56,1.26-.79a34.05,34.05,0,0,1,5.21-2.57c1.79-.74,3.64-1.23,5.61-1.88a27.76,27.76,0,0,1,9.64-1.8,11.3,11.3,0,0,1,1.17.1,5.67,5.67,0,0,1,.57.1l.71.15.49,0,.3,0,.61,0a7,7,0,0,1,1.21.12,14.25,14.25,0,0,1,2.39.55,15.44,15.44,0,0,1,2.31.88,21.46,21.46,0,0,1,7.73,6.55,34.53,34.53,0,0,1,4.82,9.3,19.53,19.53,0,0,1,.15,11.84,28.16,28.16,0,0,1-1,2.84c-.41.92-.83,1.83-1.27,2.74-.87,1.82-1.73,3.64-2.64,5.43-.64,1.23-1.29,2.45-2,3.63-.37.59-.71,1.14-1.15,1.75-.22.28-.43.58-.65.85l-.34.4-.08.1s0,.06.08.09l.19.18A4.59,4.59,0,0,1,124.7,97l.86,1.45c.59,1,1.15,1.88,1.79,2.89.32.83.6,1.5.91,2.24l1,2.26a3.45,3.45,0,0,1,.36,1.25,3.38,3.38,0,0,1-.23,1.29,7.12,7.12,0,0,1-.61,1.24l-.52.92"/><path class="cls-2" d="M116.36,118.25l.28.77.32.9.22.65a3.63,3.63,0,0,0,.53.81,2.86,2.86,0,0,0,1.82,1,3.07,3.07,0,0,0,1.13-.07,4.91,4.91,0,0,0,1-.37c1.23-.67,2.07-1.66,3.2-2.3a5.39,5.39,0,0,1,.9-.43,4.34,4.34,0,0,0,.93-.56,13.32,13.32,0,0,0,1.53-1.47c.48-.51,1-1,1.45-1.5l.38-.36a.93.93,0,0,0,.26-.33l.54-.84a15.13,15.13,0,0,0,.86-1.44c0-.24,0-.38-.08-.65a5.73,5.73,0,0,0-.13-.76,2.59,2.59,0,0,0-1.07-1.75"/><path class="cls-3" d="M113.9,118l.17.14a4.9,4.9,0,0,0,.51.34,3.45,3.45,0,0,0,2,.57,3.51,3.51,0,0,0,1.38-.41l.66-.36c.2-.12.28-.18.42-.25.32-.14.83-.32,1.24-.53s.85-.45,1.25-.69a20,20,0,0,0,2.41-1.63,10.56,10.56,0,0,0,1-1c.29-.32.61-.71,1-1a19.45,19.45,0,0,0,1.71-1.83,4.17,4.17,0,0,0,.79-1.49"/><path class="cls-4" d="M120.71,85.25a2.74,2.74,0,0,0,.21.63C120.85,85.66,120.76,85.45,120.71,85.25Z"/><path class="cls-4" d="M113.37,94.78a14.46,14.46,0,0,0-2-2.82A7.22,7.22,0,0,0,113.37,94.78Z"/><path class="cls-4" d="M121,86l.09.21S121,86.05,121,86Z"/><path class="cls-4" d="M121,86l0-.09,0,0A.17.17,0,0,0,121,86Z"/><path d="M110.3,77.57a8,8,0,0,0-3.76,0,4.22,4.22,0,0,0-2.83,2.38,2.59,2.59,0,0,0-.13.55l-.29-.08v0a2.19,2.19,0,0,0-1.51.35c-1.72,1-3.5,2.11-4.25,3.89A5.74,5.74,0,0,0,98,89.77a13.19,13.19,0,0,0,3.67,3.74,7.5,7.5,0,0,1,1,.8c1.27,1.3,1.57,3.12,2.45,4.65s2.51,2.7,3.31,4.37c.39.79.84,1.54,1.29,2.29l1.28,2.11c.68,1.11,1.35,2.23,2.1,3.29a29.91,29.91,0,0,0,2.34,2.92,4.13,4.13,0,0,1,1.22,1.93.84.84,0,0,0,.63,1,.92.92,0,0,0,1-.8,1.71,1.71,0,0,0-.41-1c-2.58-3.84-2.89-9-5.88-12.5-.63-.74-1.36-1.39-2-2.11-1.9-2.12-3.15-4.86-5.55-6.42A8.22,8.22,0,0,1,103,93a18.64,18.64,0,0,1-1.24-1.77c-.92-1.15-2.54-1.78-3-3.18s.33-2.74,1.12-3.93a3.75,3.75,0,0,1,.82-1,10.58,10.58,0,0,1,2.15-.77l0,0,.23.34.14.7a7.16,7.16,0,0,0,.31,1.21,7.93,7.93,0,0,0,2,2.74,1.64,1.64,0,0,0,1,.6,1.66,1.66,0,0,0,.85-.26A4.64,4.64,0,0,0,109,86.47a3,3,0,0,0,.2-3,4.47,4.47,0,0,0-2.32-2.06,10.68,10.68,0,0,0-1.58-.48A4.66,4.66,0,0,1,108.45,79a4.38,4.38,0,0,1,3.61,1.16A6.65,6.65,0,0,1,113.28,82c2.67,5.52,2,12.19,4.44,17.83.5,1.17,1.12,2.28,1.53,3.49a21,21,0,0,1,.61,2.49q.84,4.13,1.66,8.23a1.43,1.43,0,0,0,.39.85,1,1,0,0,0,1.34-.25,2.07,2.07,0,0,0,.37-1.41c-.08-1.78-1.14-3.32-1.64-5a24.83,24.83,0,0,1-.57-3.45c-.94-6.49-4.73-12.25-5.61-18.76-.33-2.43-.36-5.18-2.14-6.86A7,7,0,0,0,110.3,77.57Zm-2.75,6.2a2.77,2.77,0,0,1,.17,1.83.74.74,0,0,1-.14.39c-.17.2-.47.17-.72.13a1.75,1.75,0,0,1-1.21-.56,1.64,1.64,0,0,1-.21-.61c-.13-.68-.27-1.35-.4-2a5.68,5.68,0,0,1,1.37.11A1.83,1.83,0,0,1,107.55,83.77Z"/><path class="cls-2" d="M117.29,121.26a1.78,1.78,0,0,0,0,.38,2.24,2.24,0,0,0,.37,1A3.78,3.78,0,0,0,120,124l.64.14c.21,0,.5.12.77.16a8.11,8.11,0,0,0,1.72.06,10.32,10.32,0,0,0,3.56-1,8.81,8.81,0,0,0,1.63-1c.5-.37,1-.73,1.51-1.15a7.91,7.91,0,0,0,2.15-2.85,6.43,6.43,0,0,0,.65-2.85,5.15,5.15,0,0,0-.75-2"/><path class="cls-2" d="M121.48,125l-.1.36a4.6,4.6,0,0,0-.19,1.29,3.21,3.21,0,0,0,.18,1,8,8,0,0,0,.38.95,2.67,2.67,0,0,0,2.1,1.59,3.63,3.63,0,0,0,1.52-.2,6.58,6.58,0,0,0,1.19-.58,10.56,10.56,0,0,1,1-.55,4,4,0,0,1,1.15-.28,4.32,4.32,0,0,0,1.44-.43,9.8,9.8,0,0,0,1.22-.78l2.32-1.67a8.92,8.92,0,0,0,1.32-1.43,2.67,2.67,0,0,0,.73-1.61c0-.58,0-1.23,0-1.83a15.74,15.74,0,0,0-.09-1.73,6,6,0,0,0-.14-.76,2,2,0,0,0-.21-.6,5.17,5.17,0,0,0-.83-.92,12.7,12.7,0,0,0-1.88-1.42"/><path class="cls-2" d="M124.48,130.14l.1.86c0,.29.09.63.16,1.05a5.85,5.85,0,0,0,.43,1.55,3.46,3.46,0,0,1,.19.41,3.17,3.17,0,0,0,.24.49,1.61,1.61,0,0,0,.86.69,3.18,3.18,0,0,0,2.37.09,9,9,0,0,0,1.87-1c.55-.37,1.2-.7,1.79-1.14a32.09,32.09,0,0,0,3.32-2.82,7.15,7.15,0,0,0,1.31-1.58,4.34,4.34,0,0,0,.56-1.73,10.85,10.85,0,0,0,0-1.39,3.19,3.19,0,0,0-.18-1.12,7.21,7.21,0,0,0-1-1.67"/><path class="cls-5" d="M58,74.83s6.08.49,9.21-.82"/><path class="cls-5" d="M68.1,41.68s7.25,5.27,11.19,6"/><path class="cls-5" d="M116,28.54s-6.17,9.81-6.93,14.39"/><path class="cls-5" d="M85.63,29.59s.55,5.29,2.29,8"/><path d="M206.68,126.05a3.1,3.1,0,0,1-2-.65,2.32,2.32,0,0,1-.86-1.92,17.58,17.58,0,0,1,1.1-4.34c.89-2.62,1.17-3.51,1.26-3.81.25-.64.75-2.06,1.44-4.16.78-2.32,1.79-5.18,3-8.52q1.44-3.89,2.14-5.73c-2.57.61-4.55,1.11-5.9,1.48a21,21,0,0,1-4.36.92,2.16,2.16,0,0,1-1.91-1,3.52,3.52,0,0,1-.57-1.94,2.21,2.21,0,0,1,.74-1.88,6.12,6.12,0,0,1,2-.85c2.3-.54,4.74-1.09,7.28-1.63q3.48-.73,5-1c.55-1.61,1-3,1.24-4.1.25-.81.57-1.79,1-3s.82-2.61,1.3-4.34l1.35-4.6c2.27-8,3.6-12.63,4-13.78a12.6,12.6,0,0,1,.9-2.07,1.73,1.73,0,0,1,1.56-1,10,10,0,0,1,3.08.46c.08-.11.19-.26.33-.47a2.83,2.83,0,0,1,1.11-1,3.64,3.64,0,0,1,1.51-.27c1.28,0,2.65,1.29,4.17,3.94a69.07,69.07,0,0,1,4.12,8.8c.78,2,1.79,5,3,8.9,1.09,3.59,1.82,6,2.22,7.38a10.75,10.75,0,0,0,1.77-.42l1.22-.4a3.67,3.67,0,0,0,.83-.54,5.81,5.81,0,0,1,1.08-.74,1.52,1.52,0,0,1,.66-.15,1.65,1.65,0,0,1,.78.2,2.67,2.67,0,0,1,1.45,2.69,3.83,3.83,0,0,1-.36,1.55,2.91,2.91,0,0,1-1,1.3,6.66,6.66,0,0,1-2.78,1l-2.2.42c.47,2.23.57,2.69.59,2.76l-.11,0,.12,0c.42,1.51.88,3.61,1.36,6.25,1.07,6,2.19,11.22,3.32,15.44a16.35,16.35,0,0,1,.47,2.56,2.46,2.46,0,0,1-.89,1.91,3,3,0,0,1-2,.75,2.52,2.52,0,0,1-2-1.14,7.17,7.17,0,0,1-1.06-1.79c-.56-2.09-1.06-4.41-1.51-6.93s-1-5.55-1.58-9.09c-.23-1.56-.63-3.5-1.16-5.78-.45-1.91-.77-3.28-1-4.1-3.6.5-9.58,1.44-17.81,2.82L219,95.4l-1.79,5-2.52,7.2c-2.08,6.48-3.59,11.56-4.49,15.08A4.83,4.83,0,0,1,209,125,3.1,3.1,0,0,1,206.68,126.05Zm23-62.76a44.84,44.84,0,0,0-2.6,6.17c-1.4,4.21-3.62,11.14-6.59,20.63l9.72-1.66,8.65-1.35,1.88-.28L239,80.55c-1-3.42-1.86-6.23-2.69-8.37a49.59,49.59,0,0,0-3.21-6.77,17.24,17.24,0,0,0-2.69-3.85Z"/><path d="M252.8,87.93A2.41,2.41,0,0,1,252,89a6.32,6.32,0,0,1-2.61.95c-1.32.27-2.22.43-2.7.49q.72,3.42.72,3.33Q248,96,248.71,100q1.62,9.09,3.33,15.48a20.35,20.35,0,0,1,.45,2.43,2,2,0,0,1-.72,1.53,2.51,2.51,0,0,1-1.71.63,2,2,0,0,1-1.62-.94,6.87,6.87,0,0,1-1-1.67q-.81-3.06-1.49-6.84t-1.57-9.09q-.36-2.34-1.17-5.8c-.54-2.31-.9-3.83-1.08-4.55q-5.31.72-18.27,2.88l-5.22.9-1.89,5.31-2.52,7.2q-3.15,9.81-4.5,15.12a4.34,4.34,0,0,1-1.08,2.12A2.78,2.78,0,0,1,205,125a1.84,1.84,0,0,1-.67-1.53,17.47,17.47,0,0,1,1.08-4.18c.72-2.13,1.14-3.41,1.26-3.83q.36-.9,1.44-4.14,1.17-3.51,3-8.5t2.48-6.62q-4.59,1.08-6.84,1.71a25,25,0,0,1-4.23.9,1.66,1.66,0,0,1-1.49-.76,3,3,0,0,1-.49-1.67,1.74,1.74,0,0,1,.54-1.48,5.79,5.79,0,0,1,1.8-.77q3.42-.81,7.24-1.62t5.27-1.08q.9-2.61,1.35-4.41c.24-.78.55-1.75.94-2.92s.83-2.63,1.31-4.37l1.35-4.59q3.42-12.06,4-13.77a13.35,13.35,0,0,1,.85-2,1.25,1.25,0,0,1,1.13-.72,9.17,9.17,0,0,1,3.24.54,6.45,6.45,0,0,0,.58-.76,2.27,2.27,0,0,1,.9-.81,3.21,3.21,0,0,1,1.31-.23q1.62,0,3.73,3.69a66.66,66.66,0,0,1,4.1,8.73q1.17,3,3,8.87t2.34,7.78a12.6,12.6,0,0,0,2.29-.49l1.22-.41a3.83,3.83,0,0,0,1-.63,5.24,5.24,0,0,1,1-.67,1.06,1.06,0,0,1,1,0,2.22,2.22,0,0,1,1.17,2.25A3.39,3.39,0,0,1,252.8,87.93Zm-13.36-7.51Q238,75.25,236.74,72a50,50,0,0,0-3.24-6.84q-2-3.51-3.33-4.41l-1,2.34a45,45,0,0,0-2.61,6.21q-2.16,6.48-6.84,21.42l10.53-1.8,8.64-1.35,2.43-.36Z"/><path d="M280.84,119.84a3.09,3.09,0,0,1-1.87-.59,2.19,2.19,0,0,1-.88-1.89,3.77,3.77,0,0,1,1.23-2.83,8.33,8.33,0,0,1,3.06-1.78A18.41,18.41,0,0,1,285,112a13,13,0,0,0,3.57-1.12,45,45,0,0,0,7.08-4.68,55.16,55.16,0,0,0,6.37-5.66,51.49,51.49,0,0,0,5.84-7.26,11.77,11.77,0,0,0,1.95-6.35,2.37,2.37,0,0,0-1.52-2.29,9.69,9.69,0,0,0-4.19-.81,30.47,30.47,0,0,0-12,2.3c-1.6.72-2.72,1.23-3.3,1.52-2.16,1-4,1.72-5.35,2.27-1.56.6-3.09,1.13-4.53,1.58-1.14.36-2,.63-2.51.82l.16,3c0,.91,0,2.36.13,4.32s.14,3.86.14,5.6a46.4,46.4,0,0,1-.92,10.2,5.28,5.28,0,0,1-.91,2,2.55,2.55,0,0,1-2.09.72,3,3,0,0,1-1.83-.64,2.13,2.13,0,0,1-.92-1.75,18.31,18.31,0,0,1,.83-3.2,17.72,17.72,0,0,0,.79-4.81c0-4.63-.21-10.65-.63-17.88l-.27-4.13c-.36-4-.54-7.11-.54-9.4,0-1.75.12-4,.36-6.66.18-2,.33-3.55.45-4.53a66.78,66.78,0,0,0-7.94,3,23.52,23.52,0,0,0-3.88,2.21C257.2,71.81,256.41,72,256,72a2.12,2.12,0,0,1-1.64-.8,2.77,2.77,0,0,1-.66-1.86c0-.87.65-2.32,6.32-4.86a103.79,103.79,0,0,1,13.21-4.8,109.66,109.66,0,0,1,11.39-2.8,57.83,57.83,0,0,1,10.26-.91,16.37,16.37,0,0,1,8.21,1.91,6.22,6.22,0,0,1,3.45,5.61c0,5.07-2.61,10.35-7.76,15.7a48.4,48.4,0,0,1,5.64-.36,14.59,14.59,0,0,1,7.36,1.78c2.13,1.23,3.22,3.31,3.22,6.19a15.3,15.3,0,0,1-3.25,9,84,84,0,0,1-8.69,9.92,73.44,73.44,0,0,1-9.6,8,64.23,64.23,0,0,1-7.13,4.36A13.17,13.17,0,0,1,280.84,119.84ZM276.67,63.3a42.47,42.47,0,0,0-1.45,9.87c0,3.75.17,8.52.5,14.19a23.46,23.46,0,0,0,2.31-.62c1.33-.42,2.57-.87,3.69-1.34a42.59,42.59,0,0,0,14.06-9.25c3.67-3.72,5.53-7.6,5.53-11.53a3.06,3.06,0,0,0-1.81-2.84,11.26,11.26,0,0,0-5.34-1.07,63.78,63.78,0,0,0-9.2.85A61.14,61.14,0,0,0,276.67,63.3Z"/><path d="M311.35,95.45a83.8,83.8,0,0,1-8.64,9.85,72.65,72.65,0,0,1-9.54,7.92,63.11,63.11,0,0,1-7.07,4.32,12.93,12.93,0,0,1-5.26,1.8,2.6,2.6,0,0,1-1.58-.49,1.73,1.73,0,0,1-.67-1.49,3.3,3.3,0,0,1,1.08-2.47,7.85,7.85,0,0,1,2.88-1.67,17.09,17.09,0,0,1,2.52-.72,13.31,13.31,0,0,0,3.69-1.17,44.41,44.41,0,0,0,7.15-4.72,55.64,55.64,0,0,0,6.44-5.72,51.82,51.82,0,0,0,5.89-7.33,12.22,12.22,0,0,0,2-6.62,2.85,2.85,0,0,0-1.8-2.74,10.23,10.23,0,0,0-4.41-.86,30.68,30.68,0,0,0-12.15,2.34q-2.43,1.08-3.33,1.53-3.24,1.44-5.31,2.25-2.34.9-4.5,1.58c-1.44.45-2.4.76-2.88.94l.18,3.42c0,.9,0,2.34.13,4.32s.14,3.84.14,5.58a45.93,45.93,0,0,1-.9,10.08,5.08,5.08,0,0,1-.81,1.8,2.16,2.16,0,0,1-1.71.54,2.51,2.51,0,0,1-1.53-.54,1.63,1.63,0,0,1-.72-1.35,30,30,0,0,1,.81-3.06,18,18,0,0,0,.81-5q0-7-.63-17.91l-.27-4.14q-.54-5.94-.54-9.36,0-2.61.36-6.61c.24-2.67.42-4.43.54-5.27A61.77,61.77,0,0,0,263,67.77a24.49,24.49,0,0,0-4,2.25A7.73,7.73,0,0,1,256,71.46a1.62,1.62,0,0,1-1.26-.63,2.27,2.27,0,0,1-.54-1.53q0-1.71,6-4.41a101.74,101.74,0,0,1,13.14-4.77,110,110,0,0,1,11.34-2.79,56.74,56.74,0,0,1,10.17-.9,15.7,15.7,0,0,1,8,1.85,5.72,5.72,0,0,1,3.2,5.17q0,7.92-8.64,16.38a51.21,51.21,0,0,1,7-.54A14,14,0,0,1,311.53,81q3,1.71,3,5.76A14.82,14.82,0,0,1,311.35,95.45ZM299.74,61.34a11.72,11.72,0,0,0-5.58-1.13,63.41,63.41,0,0,0-9.27.86,58.35,58.35,0,0,0-8.64,1.84,43.73,43.73,0,0,0-1.53,10.26q0,5.85.54,14.76a17,17,0,0,0,2.92-.72c1.35-.42,2.6-.87,3.74-1.35a43.15,43.15,0,0,0,14.22-9.36q5.67-5.76,5.67-11.88A3.55,3.55,0,0,0,299.74,61.34Z"/><path d="M342.76,114.89a21.94,21.94,0,0,1-9.4-2.07,17.66,17.66,0,0,1-7.22-6.16,17.06,17.06,0,0,1-2.78-9.82,45.9,45.9,0,0,1,5-20,73.54,73.54,0,0,1,13.86-19.35,5.54,5.54,0,0,1,1.91-1.2,6.41,6.41,0,0,1,2.05-.3,4.2,4.2,0,0,1,2,.51,1.75,1.75,0,0,1,1.13,1.52,3.1,3.1,0,0,1-.37,1.25l0,.08.39-.06a20.61,20.61,0,0,1,3.11-.15,39.92,39.92,0,0,1,7.16.87,34.17,34.17,0,0,1,6.63,1.78,22.66,22.66,0,0,1,9.11,6.87,15,15,0,0,1,3.16,9.07,33.88,33.88,0,0,1-5.3,18,43,43,0,0,1-13.57,13.83A31.09,31.09,0,0,1,342.76,114.89Zm3.66-53.24a3.55,3.55,0,0,0-2.06.91,59.57,59.57,0,0,0-11.28,16.13,39.67,39.67,0,0,0-3.95,16.62c0,4.93,1.23,8.55,3.66,10.75s5.85,3.33,10.15,3.33a28.24,28.24,0,0,0,14.55-4.25A35.1,35.1,0,0,0,369.11,94a26.13,26.13,0,0,0,4.47-14.31,13.54,13.54,0,0,0-2.34-8.21,17.42,17.42,0,0,0-7-5.28A15.64,15.64,0,0,0,357.88,65c-.82,0-1.95.06-3.38.18l-3.39.09c-1.24,0-4.8,0-4.8-2.3a8.07,8.07,0,0,1,.09-1.25S346.41,61.68,346.42,61.65Z"/><path d="M372.73,95.49a42.35,42.35,0,0,1-13.41,13.68,30.54,30.54,0,0,1-16.56,5.22,21.36,21.36,0,0,1-9.18-2,17.19,17.19,0,0,1-7-6,16.53,16.53,0,0,1-2.7-9.54,45.19,45.19,0,0,1,4.95-19.75,73,73,0,0,1,13.77-19.22,5,5,0,0,1,1.71-1.08,6,6,0,0,1,1.89-.27,3.71,3.71,0,0,1,1.75.45c.57.3.86.66.86,1.08a2.78,2.78,0,0,1-.32,1l-.4.85a7.58,7.58,0,0,0,1.3-.13,21.13,21.13,0,0,1,3-.14,39.76,39.76,0,0,1,7.06.86A33.67,33.67,0,0,1,366,62.28,22,22,0,0,1,374.89,69,14.37,14.37,0,0,1,378,77.76,33.26,33.26,0,0,1,372.73,95.49Zm-1.08-24.34a17.87,17.87,0,0,0-7.2-5.45,16.1,16.1,0,0,0-6.57-1.17q-1.26,0-3.42.18l-3.33.09q-4.32,0-4.32-1.8a7.13,7.13,0,0,1,.09-1.17,3,3,0,0,1,.18-.72A4.33,4.33,0,0,0,344,62.19a59.64,59.64,0,0,0-11.39,16.29,39.87,39.87,0,0,0-4,16.83q0,7.65,3.82,11.12t10.49,3.46a28.57,28.57,0,0,0,14.8-4.32,35.52,35.52,0,0,0,11.79-11.34,26.47,26.47,0,0,0,4.55-14.58A13.92,13.92,0,0,0,371.65,71.15Z"/><path d="M401.08,120.65c-2.52,0-4.71-1.5-6.51-4.47a35.21,35.21,0,0,1-4-11.55,85.94,85.94,0,0,1-1.35-15.8c0-4.61.27-9.91.81-15.75a71.29,71.29,0,0,1,2-12.74,4.8,4.8,0,0,1,1.16-2,2.66,2.66,0,0,1,1.93-.82c2.39,0,2.75,1.39,2.75,2.21,0,.14,0,.33-1.73,6.62-1.13,4.07-1.69,11.84-1.69,23.08,0,7.42.7,13.6,2.09,18.36,1.33,4.57,3.19,6.88,5.51,6.88s5.25-2,8.61-6a89.76,89.76,0,0,0,9.89-14.63,91.92,91.92,0,0,0,6.85-15C428.36,76,429,71.25,429.29,65c.28-3.89.42-4,.59-4.2a3.06,3.06,0,0,1,2.52-1c2.12,0,2.12,3.7,2.12,4.91,0,3.57.1,10.35.31,20.15s.46,16.16.76,18.77a13.67,13.67,0,0,0,3.21,8.1c1,1.16,1.21,1.62,1.21,1.94a2.86,2.86,0,0,1-1.08,2.23,3.84,3.84,0,0,1-2.57.88c-1.45,0-2.67-1.34-3.76-4.09a28.83,28.83,0,0,1-1.87-8c-.24-2.28-.49-7.65-.72-16-.07-1.76-.12-3.18-.16-4.27A137.14,137.14,0,0,1,416.47,109C411.09,116.74,405.91,120.65,401.08,120.65Z"/><path d="M438.61,115.43a3.37,3.37,0,0,1-2.25.76c-1.21,0-2.3-1.26-3.29-3.78a27.76,27.76,0,0,1-1.84-7.83q-.37-3.42-.72-15.93-.19-5.22-.27-6.48a138,138,0,0,1-14.18,26.55q-8,11.43-15,11.43-3.51,0-6.08-4.23a34.42,34.42,0,0,1-3.91-11.38,84.93,84.93,0,0,1-1.35-15.71q0-6.93.81-15.7a70.22,70.22,0,0,1,2-12.65,4.26,4.26,0,0,1,1-1.75,2.16,2.16,0,0,1,1.58-.68c1.49,0,2.25.57,2.25,1.71,0,.18-.58,2.34-1.71,6.48S394,78.12,394,89.46q0,11.25,2.11,18.5t6,7.24c2.52,0,5.51-2,9-6.16A91.05,91.05,0,0,0,421,94.32a92.49,92.49,0,0,0,6.89-15q1.43-4.77,1.89-14.31a18.38,18.38,0,0,1,.45-3.87,2.57,2.57,0,0,1,2.16-.9q1.62,0,1.62,4.41,0,5.31.31,20.16t.77,18.81a14,14,0,0,0,3.33,8.37q1.08,1.26,1.08,1.62A2.38,2.38,0,0,1,438.61,115.43Z"/><path d="M473.79,114.8a1.87,1.87,0,0,1-1.46-.72,2.38,2.38,0,0,1-.57-1.58l.09-3.16c.36-4.67.54-10.47.54-17.27,0-4.86-.06-10.54-.18-16.86-.1-5.68-.21-9.44-.32-11.2-11.63,1.29-19.51,2.5-23.43,3.61a8.08,8.08,0,0,1-2.57.38,5.66,5.66,0,0,1-3.45-1.27,3.74,3.74,0,0,1-1.73-2.92,2,2,0,0,1,.74-1.7,2.68,2.68,0,0,1,1.65-.51c3.39-.18,6.29-.36,8.61-.54,5.22-.46,11.84-1.2,19.7-2.19,0-1.66,0-2.83.13-3.57,0-.4.19-1.62,1.08-1.62a4.75,4.75,0,0,1,3.42,1.5,3.21,3.21,0,0,1,.59,1.67c.07.43.11.77.15,1,1.31-.1,3.3-.39,5.93-.86a104.92,104.92,0,0,1,13.4-1.54c3,0,5,.39,6.06,1.18a3.5,3.5,0,0,1,1.19,3,2.88,2.88,0,0,1-.74,1.81,2.51,2.51,0,0,1-2,.94,8,8,0,0,1-2-.52,9.47,9.47,0,0,0-2.78-.47c-2.85,0-6.13.15-9.76.45A69.53,69.53,0,0,0,477.47,63c.17,2.88.33,7.33.47,13.23.15,6.23.22,12.82.22,19.58,0,2.86,0,6.11-.13,9.65a49.76,49.76,0,0,1-.42,6.66,2.84,2.84,0,0,1-1.44,1.94A4.52,4.52,0,0,1,473.79,114.8Z"/><path d="M502.23,61.16a2,2,0,0,1-1.62.76,11.05,11.05,0,0,1-1.84-.49,9.85,9.85,0,0,0-2.93-.5q-4.32,0-9.81.45a67.75,67.75,0,0,0-9.09,1.26q.27,4.32.5,13.64t.22,19.57q0,4.32-.13,9.63a50.79,50.79,0,0,1-.41,6.57,2.38,2.38,0,0,1-1.21,1.62,4,4,0,0,1-2.12.63,1.36,1.36,0,0,1-1.08-.54,1.91,1.91,0,0,1-.45-1.26l.09-3.15q.54-7,.54-17.28,0-7.38-.18-16.87t-.36-11.75q-18,2-24,3.69a7.66,7.66,0,0,1-2.43.36,5.13,5.13,0,0,1-3.15-1.17,3.24,3.24,0,0,1-1.53-2.52,1.51,1.51,0,0,1,.54-1.3,2.19,2.19,0,0,1,1.35-.41q5.13-.27,8.64-.54,8-.72,20.16-2.25a39.19,39.19,0,0,1,.14-4c.09-.78.28-1.17.58-1.17a4.22,4.22,0,0,1,3.06,1.35,2.94,2.94,0,0,1,.45,1.4,12,12,0,0,1,.18,1.48,56.15,56.15,0,0,0,6.48-.9A103.56,103.56,0,0,1,496.11,56q4.32,0,5.76,1.08a3,3,0,0,1,1,2.61A2.38,2.38,0,0,1,502.23,61.16Z"/><path class="cls-6" d="M8.34,117.6c-3.11-18-2.29-36.1-2.91-53.82-.29-8.35-.87-16.64.14-24.9.21-1.9.5-3.79.87-5.69a45.56,45.56,0,0,1,1.15-5.41A47.82,47.82,0,0,1,11,18.52a22.55,22.55,0,0,1,3.95-5.91,22.88,22.88,0,0,1,7-4.73c.71-.3,1.41-.69,2.17-.94l2.29-.78a23.78,23.78,0,0,1,2.38-.63l1.21-.28A7.87,7.87,0,0,1,31.05,5c.71,0,1.61,0,2.45,0l2.54,0c1.69,0,3.37.07,5,.17C48.61,5.68,56.34,6.91,64,6.93a113.23,113.23,0,0,0,11.43-.59c2-.17,4-.36,6.25-.38a35.41,35.41,0,0,1,7.48.74"/><path class="cls-6" d="M606.55,101.43c-.08,2.1-.09,4.22,0,6.38a32.76,32.76,0,0,0,1,6.44,14.21,14.21,0,0,1,.48,2.68c0,.43,0,.87,0,1.41l0,1.54-.12,6.15-.15,6.12a25.93,25.93,0,0,1-.71,5.79,19.92,19.92,0,0,1-6.36,9.48,40.3,40.3,0,0,1-4.78,3.59c-1.66,1.1-3.45,2.09-5.21,3.14a37.23,37.23,0,0,1-5.32,2.74,32.64,32.64,0,0,1-5.73,1.61,118,118,0,0,1-12,1.47,111.77,111.77,0,0,1-12.14.3c-4-.1-8.13-.32-12.22-.29s-8.14.29-12.2.38q-12.17.38-24.29.49c-8.09.09-16.15.08-24.21-.08s-16.09-.43-24.13-.62c-7.56-.2-15.14-.26-22.68-.25s-15-.17-22.55-.45c-15-.55-30-1.49-44.92-2.37-6.87-.38-13.74-.73-20.64-1s-13.82-.34-20.72-.4c-13.93-.07-27.86.14-41.68.39l-18,.33q-9,.14-18.08.38-18.1.48-36.23,1.29l-36.27,1.68c-12.07.59-24.19.79-36.31.68-13.72-.13-27.55-.68-41.44-.89s-27.83.2-41.68.35l-5.18.06c-1.75,0-3.48.09-5.21.16-3.46.15-6.89.33-10.31.38a44,44,0,0,1-10.15-.72c-.83-.19-1.63-.49-2.45-.73a24.08,24.08,0,0,1-2.36-1A12.74,12.74,0,0,1,17.44,155a12.45,12.45,0,0,1-1.53-2.19,17,17,0,0,1-1-2.46,32.07,32.07,0,0,1-1.17-5.12c-.52-3.4-.84-6.81-1.3-10L12.25,134,12,132.73l-.48-2.45c-.33-1.63-.67-3.25-1-4.86C9.8,122.2,9,119,8.19,115.87"/><path class="cls-6" d="M86.62,6.24q21.9-.88,43.74-1c14.55-.08,29.07,0,43.54.45,7.24.21,14.43.47,21.62,1.16,7.24.53,14.45.8,21.65,1q21.6.69,43.05.87L300.48,9l20,.23,10,.15h1.27a5.47,5.47,0,0,0,.7,0l.69-.06,2.44-.17L338.09,9l2.47-.05,4.53-.07c1.52,0,3,0,4.55.06l4.55.11,4.56.23c6.08.24,12.17.63,18.25,1,12.29.77,24.64,1.68,37,2.2,21.47.94,42.93.6,64.41.51,5.37,0,10.74,0,16.11,0,2.69,0,5.37.07,8.06.12l3.94.08a3.67,3.67,0,0,1,.87.14l.92.21,2,.48c5.38,1,10.74,1.51,16.11,2l8.06.72,8.06.67,36.73,3.15,9.25.72,2.35.17,2.35-.13c1.53-.07,3-.07,4.56,0a19,19,0,0,1,4.29.69,7.67,7.67,0,0,1,3.61,2.15,8.3,8.3,0,0,1,1.9,3.73,23.49,23.49,0,0,1,.56,4.31c.13,3,0,6.07-.17,9.13s-.31,6.13-.47,9.18l-.09,2.28-.24,2.26c-.14,1.53-.29,3-.43,4.56-.27,3-.51,6.07-.69,9.09a233.21,233.21,0,0,0,.28,35.69"/><path class="cls-7" d="M610.15,114.3s.94-.46,2.73-1.18a70.81,70.81,0,0,1,7.82-2.57,69.33,69.33,0,0,1,11.89-2.2,24,24,0,0,1,6.77.21,15.94,15.94,0,0,1,6.36,3.2,33.32,33.32,0,0,1,2.91,2.59c.47.46.93.94,1.39,1.43l1.28,1.37c.83.93,1.92,1.93,2.06,3.31a3.84,3.84,0,0,1-1.85,3.31,22.19,22.19,0,0,1-3.56,2.06l-3.57,1.85c-2.37,1.22-4.66,2.46-7,3.57a34.75,34.75,0,0,1-7.29,2.64,20.72,20.72,0,0,1-7.54.29,36.07,36.07,0,0,1-6.35-1.53c-1.87-.6-3.49-1.2-4.9-1.69"/><path class="cls-7" d="M612.37,120.94s6.34.09,13.66-.42c3.67-.25,7.57-.64,11.06-1.18,1.73-.27,3.42-.56,4.8-.91a8.89,8.89,0,0,0,3.11-1.32"/><path class="cls-7" d="M611.47,134.13a10.44,10.44,0,0,1,1.63.1l.82.14a4,4,0,0,1,.67.16,1.92,1.92,0,0,1,.71.39,6,6,0,0,1,.79.83c.69.82,1.45,2,2.64,3.25a18.65,18.65,0,0,0,4,3.07c1.45.86,2.91,1.58,4.41,2.36l4.64,2.38c6.33,3.24,13.17,6.59,19.41,9.26a101.56,101.56,0,0,0,15.7,5.52"/><path class="cls-7" d="M636.77,147.2l3-1.65A30.55,30.55,0,0,1,643,144a28.49,28.49,0,0,1,4.48-1.53,9.16,9.16,0,0,1,2.34-.22,9.43,9.43,0,0,1,2.57.46,14.73,14.73,0,0,1,5.35,3.2,35.93,35.93,0,0,1,4.9,5.69c.79,1.09,1.57,2.21,2.35,3.36s1.4,2.13,2.12,3.21,1.34,2.14,2,3.33a1.37,1.37,0,0,1,.13,1,1.5,1.5,0,0,1-.58.73A8.56,8.56,0,0,1,667,164c-1.22.44-2.51.83-3.88,1.18s-2.86.64-4.3.88c-2.89.49-5.81.81-8.67,1.07l-4.26.37a38.23,38.23,0,0,1-4.31.18,16.77,16.77,0,0,1-4.38-.71,17.9,17.9,0,0,1-4-1.8,17.71,17.71,0,0,1-3.34-2.65,20.53,20.53,0,0,1-1.38-1.58,9.48,9.48,0,0,1-1.22-2,6.78,6.78,0,0,1-.44-1.13l-.26-1.17a16.91,16.91,0,0,1-.14-2.11c0-.63,0-1.26,0-1.83s.07-1.15.14-1.68c.23-2.15.54-4,.85-5.69"/><path class="cls-7" d="M593,151l-.38.83c-.22.55-.56,1.36-.88,2.43a21.89,21.89,0,0,0-.81,9.36,18.6,18.6,0,0,0,6.49,11.72,16.21,16.21,0,0,0,3.28,2.06,18.9,18.9,0,0,0,3.65,1.23,66.73,66.73,0,0,0,7.43,1.17l4,.51c.7.1,1.38.17,2,.22l.95.06a1.48,1.48,0,0,0,.94-.16,1.44,1.44,0,0,0,.51-.86c.1-.33.19-.66.27-1,.15-.67.28-1.35.39-2a29.81,29.81,0,0,0,.34-3.92,22.71,22.71,0,0,0-1-7.41,16.94,16.94,0,0,0-3.39-6.05,13.86,13.86,0,0,0-1.15-1.15,7.42,7.42,0,0,0-1.22-.91,17.58,17.58,0,0,0-2.76-1.3,50.88,50.88,0,0,0-5.87-1.74,71.89,71.89,0,0,0-9.92-1.6"/><path class="cls-7" d="M598.1,162a4.33,4.33,0,0,1,.47.13,6.87,6.87,0,0,1,1.41.64,20.43,20.43,0,0,1,2.23,1.54c.85.66,1.84,1.45,2.89,2.18a38,38,0,0,0,6.65,3.81,18.83,18.83,0,0,0,5.81,1.67"/><path class="cls-7" d="M649.94,96.06l.83-.2c.53-.13,1.33-.25,2.32-.43,2-.29,4.84-.6,8-.73,6.27-.3,13.63,0,17.53-.56"/><path class="cls-7" d="M726.77,99l-.45-1.16c-.31-.76-.78-1.87-1.5-3.26a31.72,31.72,0,0,0-3.07-4.84,25.33,25.33,0,0,0-5.53-5.28,31.37,31.37,0,0,0-8-3.87c-1.45-.5-2.94-.94-4.46-1.35s-3-.83-4.69-1.23c-3.26-.75-7-1.44-10.83-.67a14.16,14.16,0,0,0-5.42,2.34,15.82,15.82,0,0,0-4,4.29,17.8,17.8,0,0,0-2.6,11.2,23.59,23.59,0,0,0,1.2,5.6,20.7,20.7,0,0,0,2.5,5.08,12.06,12.06,0,0,0,4,3.73,17.3,17.3,0,0,0,5.12,1.68,44.83,44.83,0,0,0,10.55.81,36.31,36.31,0,0,0,5-.57c.8-.16,1.58-.34,2.35-.54l1.13-.32.9-.39a33.19,33.19,0,0,0,3.83-2.3c1.25-.84,2.44-1.73,3.59-2.59a127.08,127.08,0,0,0,11.23-9.74"/><path class="cls-7" d="M678.24,95.78l.22-.08c.14-.06.42-.12.75-.21a29.74,29.74,0,0,1,3.21-.57,86.09,86.09,0,0,1,11.2-.71c4.4,0,9.09,0,13.45.42a36.06,36.06,0,0,1,6.23,1.13c1.93.54,3.55,1.16,4.83,1.53"/><path class="cls-7" d="M638.57,108.59s1-.44,2.87-1.37c.93-.48,2-1.06,3.36-1.88.65-.4,1.36-.88,2.11-1.45a15,15,0,0,0,1.27-1.13,9.29,9.29,0,0,0,1.14-1.47c.16-.29.32-.59.46-.9s.24-.55.35-.82c.21-.55.39-1.1.54-1.64.32-1.1.52-2.14.76-3.25.45-2.2.82-4.58,1.08-7.09a71.28,71.28,0,0,0,.41-7.87l0-2.18c0-.84,0-1.67-.1-2.49-.1-1.62-.21-3.27-.43-4.77a76.33,76.33,0,0,0-18.73,2.54,41,41,0,0,0-15.29,7.64,28.65,28.65,0,0,0-8.6,11.66,20.39,20.39,0,0,0-1.29,5.64,18.82,18.82,0,0,0,.22,4.71"/><path class="cls-7" d="M615,108.94a18.63,18.63,0,0,1,2.38-4.87,39.21,39.21,0,0,1,3.86-4.95c1.62-1.8,3.53-3.7,5.53-5.69,8-8,16.92-17.23,20.75-22.41"/></g></g></svg>