<svg xmlns="http://www.w3.org/2000/svg" viewBox="0 0 614.81 832.73"><defs><style>.cls-1{fill:none;stroke:#000;stroke-miterlimit:10;stroke-width:6px;}</style></defs><g id="圖層_2" data-name="圖層 2"><g id="圖片邊框"><path class="cls-1" d="M63.69,63.05l12.89.38,36.75.9c31.83.67,77.64,1.52,133.61,2s122.11.8,194.57.82l231.55-.11q-.13,14-.29,28.05-.1,14.55-.19,29.19-.12,29.25.23,58.72t.74,58.94c.14,9.83.12,19.65.16,29.47s0,19.61.08,29.4c-.09,78.3-1,155.56-1.78,228.48s-1.35,141.52-1.42,202.49.51,114.3,1.33,156.7" transform="translate(-61.98 -60.05)"/><path class="cls-1" d="M66.66,63.26s.07,1.05.21,3.09.28,5.08.49,9.06c.38,8,.8,19.69,1,34.78s0,33.51-.48,54.84S66.51,210.6,66,237.35c-.28,53.43-.61,116.66-1,186.17-.15,69.49.49,145.35,6.48,223.66.35,4.9.77,9.79,1,14.68s.38,9.81.29,14.73c-.14,9.85-1.12,19.71-2,29.62s-1.66,19.89-1.88,29.91-.11,20,.09,30.08c.39,20.08,1.12,40.2,1.38,60.33.09,10.07.11,20.14-.2,30.19-.22,5-.37,10.06-.81,15.07l-.29,3.76c-.1,1.25-.28,2.5-.41,3.74L68.24,883l-.11.92c-.09.2.13.2.27.25l.45.12,1.8.47a26.6,26.6,0,0,0,3.63.76c1.24.21,2.47.46,3.72.56l3.73.41,3.75.25c2.5.2,5,.2,7.51.3s5,0,7.5,0c10-.11,20-.65,29.92-1.33s19.82-1.58,29.73-2.18a234.15,234.15,0,0,1,29.65.87c19.62,1.51,39,4.14,58.18,4.65,19.21,0,38.32-.47,57.1-.46,75.16-.36,146,.73,208.78,1.08s117.72-.14,161.08-1.76" transform="translate(-61.98 -60.05)"/></g></g></svg>