<svg xmlns="http://www.w3.org/2000/svg" viewBox="0 0 614.81 832.73"><defs><style>.cls-1,.cls-2{fill:none;stroke:#000;stroke-miterlimit:10;}.cls-1{stroke-width:6px;}.cls-2{stroke-width:5.6px;}</style></defs><g id="圖層_2" data-name="圖層 2"><g id="圖片邊框"><path class="cls-1" d="M63.69,63.05l12.89.38,36.75.9c31.83.67,77.64,1.52,133.61,2s122.11.8,194.57.82l231.55-.11q-.13,14-.29,28.05-.1,14.55-.2,29.19-.11,29.25.24,58.72t.73,58.94c.15,9.83.13,19.65.17,29.47s0,19.61.08,29.4c-.09,78.3-1,155.56-1.78,228.48s-1.35,141.52-1.42,202.49.51,114.3,1.33,156.7" transform="translate(-61.98 -60.05)"/><path class="cls-1" d="M66.66,63.26s.07,1.05.21,3.09.28,5.08.49,9.06c.38,8,.8,19.69,1,34.78s0,33.51-.48,54.84S66.51,210.6,66,237.35c-.28,53.43-.61,116.66-1,186.17-.15,69.49.49,145.35,6.48,223.66.35,4.9.77,9.79,1,14.68s.38,9.81.29,14.73c-.14,9.85-1.12,19.71-2,29.62s-1.66,19.89-1.88,29.91-.11,20,.09,30.08c.39,20.08,1.12,40.2,1.38,60.33.09,10.07.11,20.14-.2,30.19-.22,5-.37,10.06-.81,15.07l-.29,3.76c-.1,1.25-.28,2.5-.41,3.74L68.24,883l-.11.92c-.09.2.13.2.27.25l.45.12,1.8.47a26.6,26.6,0,0,0,3.63.76c1.24.21,2.47.46,3.72.56l3.73.41,3.75.25c2.5.2,5,.2,7.51.3s5,0,7.5,0c10-.11,20-.65,29.92-1.33s19.82-1.58,29.73-2.18a234.15,234.15,0,0,1,29.65.87c19.62,1.51,39,4.14,58.18,4.65,19.21,0,38.32-.47,57.1-.46,75.16-.36,146,.73,208.78,1.08s117.72-.14,161.08-1.76" transform="translate(-61.98 -60.05)"/><path class="cls-2" d="M88.65,84.74l11.8.37,33.68.86c29.16.66,71.17,1.5,122.55,2s112.15.88,178.82,1l213.31.06q-.13,13.2-.27,26.5-.09,13.77-.17,27.62-.11,27.69.21,55.62t.69,55.88c.14,9.31.12,18.63.16,27.94s.05,18.62.07,27.91c-.07,74.31-.94,147.73-1.61,217.07s-1.23,134.6-1.28,192.58.52,108.66,1.28,148.87" transform="translate(-61.98 -60.05)"/><path class="cls-2" d="M91.22,86.08s.24,3.92.71,11.34c.15,3.72.34,8.31.55,13.73s.28,11.69.44,18.73c.14,14.08.11,31.28-.27,51.19s-1.08,42.53-1.5,67.5c-.25,49.86-.54,108.88-.87,173.75-.12,64.85.33,135.66,5.57,208.77q.5,6.84,1,13.72c.35,4.57.55,9.16.63,13.75a256.54,256.54,0,0,1-1.27,27.65c-.8,9.25-1.65,18.54-2.06,27.88s-.41,18.71-.27,28.08c.25,18.75.95,37.52,1.27,56.31s.49,37.61-1.21,56.3l-.39,3.46L93.35,860l-.1.85,0,.42c.12,0,.27.08.4.12,1.11.3,2.22.62,3.32.9l3.42.61a114.2,114.2,0,0,0,14,1.11c9.33.27,18.65-.1,27.93-.64S160.74,862,170,861.27q3.45-.28,6.92-.51c2.31-.1,4.63-.23,6.94-.2,4.63,0,9.23.19,13.82.45,18.35,1.17,36.41,3.72,54.32,4.71,2.23.14,4.47.18,6.69.25s4.45,0,6.69,0l13.38-.15c8.89-.08,17.72-.25,26.49-.25,70.16-.4,136.22.58,194.86.9s109.88-.13,150.35-1.65" transform="translate(-61.98 -60.05)"/></g></g></svg>